<svg width="343" height="343" viewBox="0 0 343 343" fill="none" xmlns="http://www.w3.org/2000/svg">
<path d="M244.484 89.7699C244.484 89.7699 216.865 59.5105 173.14 60.9579C129.414 62.4054 92.1161 91.725 61.2804 114.665C30.4447 137.605 22.1784 173.236 40.1036 201.053C58.0287 228.87 86.5938 217.16 122.959 235.216C159.323 253.271 166.231 263.527 206.74 259.136C247.248 254.746 278.084 209.84 273.488 162.006C268.891 114.171 244.484 89.7699 244.484 89.7699Z" fill="#EC8305"/>
<path opacity="0.7" d="M244.484 89.7699C244.484 89.7699 216.865 59.5105 173.14 60.9579C129.414 62.4054 92.1161 91.725 61.2804 114.665C30.4447 137.605 22.1784 173.236 40.1036 201.053C58.0287 228.87 86.5938 217.16 122.959 235.216C159.323 253.271 166.231 263.527 206.74 259.136C247.248 254.746 278.084 209.84 273.488 162.006C268.891 114.171 244.484 89.7699 244.484 89.7699Z" fill="white"/>
<path d="M176.727 276.643C251.94 276.643 312.912 273.317 312.912 269.214C312.912 265.111 251.94 261.784 176.727 261.784C101.515 261.784 40.5426 265.111 40.5426 269.214C40.5426 273.317 101.515 276.643 176.727 276.643Z" fill="#EC8305"/>
<path opacity="0.3" d="M176.727 276.643C251.94 276.643 312.912 273.317 312.912 269.214C312.912 265.111 251.94 261.784 176.727 261.784C101.515 261.784 40.5426 265.111 40.5426 269.214C40.5426 273.317 101.515 276.643 176.727 276.643Z" fill="white"/>
<path d="M257.209 157.231C257.168 157.231 257.682 154.672 257.737 154.487C258.327 152.662 260.55 149.479 262.697 149.486C263.054 149.496 263.405 149.582 263.727 149.736C264.049 149.891 264.334 150.112 264.565 150.384C264.796 150.657 264.967 150.975 265.067 151.317C265.167 151.66 265.194 152.02 265.146 152.374C264.988 153.89 263.63 155.173 262.402 155.921C260.961 156.82 257.209 157.231 257.209 157.231Z" fill="#EC8305"/>
<path d="M253.045 140.006C255.069 140.733 256.077 144.478 256.008 146.399C256.008 146.564 255.624 149.143 255.59 149.143H255.549C255.706 149.733 255.878 150.371 256.049 151.064C256.351 152.354 256.681 153.808 256.934 155.427C257.229 157.164 257.421 158.916 257.511 160.675C257.62 162.643 257.553 164.618 257.312 166.574C257.308 166.597 257.308 166.62 257.312 166.643C257.579 166.074 258.368 164.496 258.444 164.379C259.5 162.774 262.477 160.263 264.556 160.867C264.897 160.972 265.211 161.147 265.48 161.382C265.748 161.616 265.965 161.905 266.115 162.228C266.265 162.551 266.345 162.903 266.351 163.259C266.357 163.615 266.287 163.969 266.147 164.297C265.599 165.71 263.952 166.595 262.573 166.986C261.016 167.432 257.545 166.904 257.271 166.863C256.978 168.846 256.552 170.808 255.995 172.735C255.674 173.86 255.327 174.985 254.952 176.11C255.192 175.623 255.418 175.191 255.453 175.129C256.509 173.524 259.486 171.013 261.565 171.61C261.906 171.714 262.222 171.889 262.491 172.123C262.76 172.357 262.977 172.646 263.127 172.969C263.277 173.293 263.357 173.645 263.362 174.001C263.368 174.358 263.297 174.712 263.156 175.04C262.608 176.46 260.961 177.338 259.582 177.736C258.204 178.134 255.213 177.736 254.431 177.633C254.286 178.058 254.142 178.49 253.991 178.916C253.305 180.974 252.565 183.032 251.933 185.048C251.707 185.734 251.508 186.475 251.309 187.189C251.529 186.757 251.714 186.393 251.748 186.345C252.798 184.74 255.782 182.229 257.854 182.826C258.194 182.931 258.509 183.106 258.778 183.341C259.047 183.575 259.263 183.863 259.414 184.186C259.564 184.509 259.646 184.861 259.652 185.217C259.659 185.573 259.591 185.927 259.452 186.256C258.903 187.669 257.25 188.554 255.871 188.945C254.492 189.336 251.796 188.993 250.863 188.863C250.678 189.604 250.5 190.338 250.356 191.058C250.267 191.552 250.15 192.025 250.088 192.526C250.026 193.027 249.951 193.514 249.882 193.994C249.786 194.934 249.677 195.908 249.608 196.827C249.553 197.465 249.512 198.076 249.471 198.686C249.683 198 250.157 196.587 250.191 196.47C250.953 194.962 252.086 193.673 253.484 192.725C253.56 192.553 253.654 192.39 253.765 192.238C253.96 191.938 254.215 191.683 254.514 191.489C254.813 191.295 255.15 191.165 255.503 191.11C255.856 191.054 256.216 191.073 256.561 191.166C256.905 191.259 257.227 191.423 257.504 191.648C259.136 193.02 258.725 196.916 257.977 198.686C257.936 198.789 257.325 199.866 256.934 200.538C257.229 200.182 257.504 199.852 257.813 199.454C258.409 198.727 259.027 198.014 259.685 197.246L260.694 196.155C261.023 195.778 261.421 195.428 261.784 195.064C262.642 194.234 263.554 193.431 264.494 192.642C263.849 192.121 261.606 190.221 260.961 188.931C260.316 187.642 259.857 185.837 260.529 184.479C260.676 184.153 260.89 183.861 261.158 183.623C261.425 183.385 261.74 183.206 262.081 183.098C262.422 182.99 262.782 182.955 263.138 182.996C263.493 183.036 263.836 183.151 264.144 183.333C265.962 184.472 266.147 188.348 265.674 190.193C265.674 190.31 265.153 191.607 264.871 192.313C265.441 191.847 266.003 191.373 266.593 190.941C268.295 189.624 270.058 188.348 271.807 187.065L273.405 185.879C273.179 185.693 270.462 183.498 269.735 182.058C269.097 180.775 268.631 178.964 269.303 177.599C269.451 177.273 269.665 176.982 269.933 176.745C270.2 176.508 270.515 176.329 270.856 176.221C271.197 176.113 271.556 176.078 271.912 176.118C272.267 176.158 272.61 176.272 272.918 176.453C274.736 177.599 274.921 181.474 274.448 183.313C274.414 183.457 273.707 185.323 273.501 185.789C274.674 184.911 275.834 184.033 276.931 183.121C278.434 181.893 279.855 180.569 281.185 179.156C281.082 179.073 278.235 176.796 277.494 175.314C276.849 174.031 276.389 172.22 277.062 170.862C277.208 170.536 277.421 170.244 277.688 170.007C277.955 169.769 278.269 169.59 278.609 169.482C278.95 169.373 279.31 169.339 279.665 169.379C280.02 169.419 280.362 169.534 280.67 169.716C282.495 170.855 282.68 174.731 282.207 176.576C282.172 176.693 281.637 178.12 281.363 178.792L281.473 178.854C282.774 177.397 283.942 175.826 284.964 174.162C285.534 173.256 286.035 172.357 286.501 171.466C285.925 171.095 283.325 169.408 282.509 168.118C281.692 166.828 281.075 165.168 281.589 163.741C281.7 163.406 281.88 163.097 282.117 162.834C282.354 162.572 282.643 162.361 282.965 162.217C283.288 162.072 283.637 161.996 283.991 161.994C284.345 161.992 284.695 162.064 285.019 162.205C286.961 163.138 287.564 166.972 287.297 168.873C287.297 168.975 287.022 170.011 286.823 170.766C287.022 170.361 287.242 169.95 287.427 169.559C288.113 168.091 288.696 166.705 289.176 165.443C289.451 164.757 289.677 164.071 289.862 163.501C289.485 162.815 288.017 160.174 287.873 158.699C287.729 157.224 287.962 155.413 289.08 154.384C289.335 154.134 289.64 153.94 289.975 153.816C290.31 153.691 290.667 153.639 291.024 153.661C291.38 153.684 291.728 153.781 292.045 153.947C292.361 154.113 292.639 154.344 292.86 154.624C294.15 156.346 292.922 160.023 291.811 161.594C291.715 161.724 289.965 163.652 289.945 163.652V163.611C289.753 164.194 289.547 164.818 289.3 165.491C288.847 166.732 288.312 168.139 287.64 169.607C286.923 171.216 286.115 172.783 285.218 174.299C284.219 175.998 283.071 177.605 281.788 179.101L281.74 179.156C282.275 178.82 283.798 177.948 283.929 177.893C285.698 177.139 289.554 176.707 290.967 178.333C291.193 178.608 291.359 178.929 291.454 179.273C291.549 179.617 291.571 179.977 291.518 180.33C291.465 180.683 291.338 181.021 291.146 181.322C290.955 181.623 290.702 181.881 290.404 182.078C289.163 182.956 287.297 182.764 285.932 182.346C284.388 181.859 281.816 179.506 281.576 179.32C280.238 180.813 278.801 182.213 277.274 183.512C276.383 184.28 275.47 185.021 274.53 185.748C275.004 185.481 275.429 185.241 275.491 185.213C277.254 184.458 281.109 184.026 282.522 185.652C282.75 185.928 282.917 186.248 283.012 186.592C283.108 186.937 283.129 187.297 283.076 187.65C283.023 188.004 282.896 188.342 282.704 188.643C282.512 188.944 282.258 189.201 281.96 189.398C280.725 190.276 278.859 190.084 277.494 189.665C276.129 189.247 273.844 187.271 273.254 186.743L272.177 187.573C270.449 188.897 268.747 190.207 267.067 191.545C266.484 192.018 265.928 192.505 265.365 192.985C265.791 192.745 266.141 192.546 266.202 192.526C267.965 191.764 271.821 191.339 273.234 192.958C273.462 193.233 273.63 193.553 273.726 193.898C273.822 194.242 273.844 194.603 273.791 194.957C273.738 195.31 273.611 195.649 273.418 195.95C273.225 196.251 272.97 196.508 272.671 196.704C271.43 197.582 269.571 197.39 268.205 196.978C266.84 196.566 264.775 194.769 264.089 194.145C263.534 194.659 262.971 195.167 262.457 195.695C262.107 196.059 261.771 196.381 261.428 196.772C261.085 197.163 260.742 197.513 260.44 197.884C259.843 198.611 259.219 199.365 258.649 200.092C258.252 200.593 257.881 201.08 257.511 201.567C258.08 201.094 259.233 200.195 259.335 200.12C260.961 199.105 264.707 198.096 266.353 199.482C266.619 199.721 266.832 200.014 266.977 200.34C267.123 200.667 267.198 201.021 267.198 201.379C267.198 201.736 267.123 202.09 266.977 202.417C266.832 202.744 266.619 203.036 266.353 203.275C265.262 204.325 263.397 204.442 261.983 204.222C260.419 203.975 257.593 202.164 257.243 201.903C256.626 202.713 256.036 203.509 255.487 204.27C253.587 206.898 252.105 209.155 251.09 210.753L250.987 210.911L249.67 210.273C249.738 210.17 249.807 210.074 249.875 209.964C250.939 208.372 252.489 206.122 254.465 203.509C255.089 202.686 255.768 201.814 256.475 200.923C255.739 200.123 255.052 199.28 254.417 198.398C252.901 198.988 249.752 199.015 249.347 199.015C249.286 200.031 249.231 201.019 249.189 201.952C249.052 205.196 249.066 207.899 249.1 209.786V210.012L247.653 209.326C247.653 207.453 247.728 204.908 247.92 201.91C247.982 200.874 248.071 199.77 248.174 198.645C247.769 198.542 244.497 197.698 243.262 196.71C242.144 195.819 240.964 194.364 241.006 192.848C241.002 192.491 241.073 192.136 241.216 191.808C241.359 191.481 241.569 191.186 241.833 190.946C242.098 190.705 242.41 190.522 242.75 190.41C243.089 190.298 243.449 190.26 243.804 190.296C245.938 190.571 247.721 194.014 248.078 195.901C248.078 196.011 248.188 197.273 248.229 198.028C248.277 197.561 248.311 197.115 248.359 196.656C248.455 195.716 248.579 194.776 248.709 193.768C248.785 193.287 248.867 192.8 248.943 192.306C249.018 191.812 249.148 191.305 249.251 190.797C249.512 189.631 249.827 188.458 250.177 187.285C249.354 187.196 246.439 186.853 245.183 186.139C243.928 185.426 242.556 184.164 242.371 182.661C242.312 182.308 242.329 181.946 242.42 181.6C242.511 181.254 242.675 180.931 242.899 180.653C243.124 180.374 243.406 180.146 243.725 179.984C244.044 179.822 244.394 179.729 244.751 179.711C246.898 179.657 249.19 182.792 249.821 184.603C249.862 184.719 250.17 186.071 250.321 186.818C250.541 186.132 250.747 185.405 251.007 184.705C251.693 182.647 252.469 180.631 253.223 178.593C253.456 177.969 253.676 177.345 253.909 176.727C253.614 176.727 250.136 176.364 248.737 175.561C247.495 174.875 246.109 173.585 245.917 172.083C245.861 171.73 245.88 171.369 245.972 171.024C246.064 170.679 246.227 170.357 246.451 170.079C246.676 169.801 246.956 169.573 247.274 169.41C247.592 169.247 247.941 169.153 248.298 169.133C250.452 169.078 252.743 172.213 253.374 174.024C253.422 174.162 253.861 176.082 253.95 176.611C254.444 175.239 254.931 173.867 255.322 172.495C255.902 170.642 256.361 168.754 256.694 166.842C256.557 166.842 252.921 166.499 251.494 165.676C250.246 164.99 248.86 163.7 248.675 162.198C248.619 161.845 248.637 161.484 248.729 161.139C248.821 160.794 248.985 160.472 249.209 160.193C249.434 159.915 249.714 159.688 250.032 159.525C250.35 159.362 250.699 159.268 251.055 159.248C253.203 159.2 255.494 162.328 256.125 164.139C256.166 164.263 256.502 165.744 256.646 166.451H256.77C257.053 164.519 257.163 162.565 257.099 160.613C257.099 159.536 256.996 158.514 256.893 157.512C256.207 157.512 253.093 157.512 251.721 156.922C250.349 156.333 248.888 155.249 248.531 153.774C248.436 153.428 248.415 153.067 248.469 152.712C248.523 152.358 248.652 152.019 248.846 151.718C249.04 151.417 249.296 151.16 249.596 150.965C249.897 150.769 250.235 150.64 250.589 150.584C252.722 150.296 255.343 153.156 256.173 154.892C256.214 154.988 256.571 155.996 256.811 156.73C256.763 156.284 256.715 155.818 256.653 155.393C256.441 153.781 256.139 152.313 255.864 151.023C255.7 150.289 255.542 149.651 255.384 149.013C254.698 148.67 252.009 147.257 251.083 146.111C250.157 144.965 249.347 143.326 249.711 141.851C249.789 141.499 249.941 141.169 250.157 140.88C250.373 140.592 250.647 140.352 250.962 140.178C251.278 140.004 251.626 139.898 251.985 139.868C252.344 139.839 252.705 139.885 253.045 140.006Z" fill="#EC8305"/>
<path d="M291.927 173.16C290.247 173.092 286.885 171.37 286.885 171.363C286.885 171.356 288.689 169.497 288.82 169.394C290.322 168.193 293.93 166.767 295.721 167.953C296.013 168.16 296.258 168.425 296.441 168.733C296.624 169.04 296.74 169.382 296.782 169.737C296.824 170.092 296.791 170.452 296.685 170.794C296.579 171.135 296.403 171.451 296.167 171.72C295.206 172.872 293.361 173.215 291.927 173.16Z" fill="#EC8305"/>
<g opacity="0.5">
<path d="M257.209 157.231C257.168 157.231 257.682 154.672 257.737 154.487C258.327 152.662 260.55 149.479 262.697 149.486C263.054 149.496 263.405 149.582 263.727 149.736C264.049 149.891 264.334 150.112 264.565 150.384C264.796 150.657 264.967 150.975 265.067 151.317C265.167 151.66 265.194 152.02 265.146 152.374C264.988 153.89 263.63 155.173 262.402 155.921C260.961 156.82 257.209 157.231 257.209 157.231Z" fill="white"/>
<path d="M253.045 140.006C255.069 140.733 256.077 144.478 256.008 146.399C256.008 146.564 255.624 149.143 255.59 149.143H255.549C255.706 149.733 255.878 150.371 256.049 151.064C256.351 152.354 256.681 153.808 256.934 155.427C257.229 157.164 257.421 158.916 257.511 160.675C257.62 162.643 257.553 164.618 257.312 166.574C257.308 166.597 257.308 166.62 257.312 166.643C257.579 166.074 258.368 164.496 258.444 164.379C259.5 162.774 262.477 160.263 264.556 160.867C264.897 160.972 265.211 161.147 265.48 161.382C265.748 161.616 265.965 161.905 266.115 162.228C266.265 162.551 266.345 162.903 266.351 163.259C266.357 163.615 266.287 163.969 266.147 164.297C265.599 165.71 263.952 166.595 262.573 166.986C261.016 167.432 257.545 166.904 257.271 166.863C256.978 168.846 256.552 170.808 255.995 172.735C255.674 173.86 255.327 174.985 254.952 176.11C255.192 175.623 255.418 175.191 255.453 175.129C256.509 173.524 259.486 171.013 261.565 171.61C261.906 171.714 262.222 171.889 262.491 172.123C262.76 172.357 262.977 172.646 263.127 172.969C263.277 173.293 263.357 173.645 263.362 174.001C263.368 174.358 263.297 174.712 263.156 175.04C262.608 176.46 260.961 177.338 259.582 177.736C258.204 178.134 255.213 177.736 254.431 177.633C254.286 178.058 254.142 178.49 253.991 178.916C253.305 180.974 252.565 183.032 251.933 185.048C251.707 185.734 251.508 186.475 251.309 187.189C251.529 186.757 251.714 186.393 251.748 186.345C252.798 184.74 255.782 182.229 257.854 182.826C258.194 182.931 258.509 183.106 258.778 183.341C259.047 183.575 259.263 183.863 259.414 184.186C259.564 184.509 259.646 184.861 259.652 185.217C259.659 185.573 259.591 185.927 259.452 186.256C258.903 187.669 257.25 188.554 255.871 188.945C254.492 189.336 251.796 188.993 250.863 188.863C250.678 189.604 250.5 190.338 250.356 191.058C250.267 191.552 250.15 192.025 250.088 192.526C250.026 193.027 249.951 193.514 249.882 193.994C249.786 194.934 249.677 195.908 249.608 196.827C249.553 197.465 249.512 198.076 249.471 198.686C249.683 198 250.157 196.587 250.191 196.47C250.953 194.962 252.086 193.673 253.484 192.725C253.56 192.553 253.654 192.39 253.765 192.238C253.96 191.938 254.215 191.683 254.514 191.489C254.813 191.295 255.15 191.165 255.503 191.11C255.856 191.054 256.216 191.073 256.561 191.166C256.905 191.259 257.227 191.423 257.504 191.648C259.136 193.02 258.725 196.916 257.977 198.686C257.936 198.789 257.325 199.866 256.934 200.538C257.229 200.182 257.504 199.852 257.813 199.454C258.409 198.727 259.027 198.014 259.685 197.246L260.694 196.155C261.023 195.778 261.421 195.428 261.784 195.064C262.642 194.234 263.554 193.431 264.494 192.642C263.849 192.121 261.606 190.221 260.961 188.931C260.316 187.642 259.857 185.837 260.529 184.479C260.676 184.153 260.89 183.861 261.158 183.623C261.425 183.385 261.74 183.206 262.081 183.098C262.422 182.99 262.782 182.955 263.138 182.996C263.493 183.036 263.836 183.151 264.144 183.333C265.962 184.472 266.147 188.348 265.674 190.193C265.674 190.31 265.153 191.607 264.871 192.313C265.441 191.847 266.003 191.373 266.593 190.941C268.295 189.624 270.058 188.348 271.807 187.065L273.405 185.879C273.179 185.693 270.462 183.498 269.735 182.058C269.097 180.775 268.631 178.964 269.303 177.599C269.451 177.273 269.665 176.982 269.933 176.745C270.2 176.508 270.515 176.329 270.856 176.221C271.197 176.113 271.556 176.078 271.912 176.118C272.267 176.158 272.61 176.272 272.918 176.453C274.736 177.599 274.921 181.474 274.448 183.313C274.414 183.457 273.707 185.323 273.501 185.789C274.674 184.911 275.834 184.033 276.931 183.121C278.434 181.893 279.855 180.569 281.185 179.156C281.082 179.073 278.235 176.796 277.494 175.314C276.849 174.031 276.389 172.22 277.062 170.862C277.208 170.536 277.421 170.244 277.688 170.007C277.955 169.769 278.269 169.59 278.609 169.482C278.95 169.373 279.31 169.339 279.665 169.379C280.02 169.419 280.362 169.534 280.67 169.716C282.495 170.855 282.68 174.731 282.207 176.576C282.172 176.693 281.637 178.12 281.363 178.792L281.473 178.854C282.774 177.397 283.942 175.826 284.964 174.162C285.534 173.256 286.035 172.357 286.501 171.466C285.925 171.095 283.325 169.408 282.509 168.118C281.692 166.828 281.075 165.168 281.589 163.741C281.7 163.406 281.88 163.097 282.117 162.834C282.354 162.572 282.643 162.361 282.965 162.217C283.288 162.072 283.637 161.996 283.991 161.994C284.345 161.992 284.695 162.064 285.019 162.205C286.961 163.138 287.564 166.972 287.297 168.873C287.297 168.975 287.022 170.011 286.823 170.766C287.022 170.361 287.242 169.95 287.427 169.559C288.113 168.091 288.696 166.705 289.176 165.443C289.451 164.757 289.677 164.071 289.862 163.501C289.485 162.815 288.017 160.174 287.873 158.699C287.729 157.224 287.962 155.413 289.08 154.384C289.335 154.134 289.64 153.94 289.975 153.816C290.31 153.691 290.667 153.639 291.024 153.661C291.38 153.684 291.728 153.781 292.045 153.947C292.361 154.113 292.639 154.344 292.86 154.624C294.15 156.346 292.922 160.023 291.811 161.594C291.715 161.724 289.965 163.652 289.945 163.652V163.611C289.753 164.194 289.547 164.818 289.3 165.491C288.847 166.732 288.312 168.139 287.64 169.607C286.923 171.216 286.115 172.783 285.218 174.299C284.219 175.998 283.071 177.605 281.788 179.101L281.74 179.156C282.275 178.82 283.798 177.948 283.929 177.893C285.698 177.139 289.554 176.707 290.967 178.333C291.193 178.608 291.359 178.929 291.454 179.273C291.549 179.617 291.571 179.977 291.518 180.33C291.465 180.683 291.338 181.021 291.146 181.322C290.955 181.623 290.702 181.881 290.404 182.078C289.163 182.956 287.297 182.764 285.932 182.346C284.388 181.859 281.816 179.506 281.576 179.32C280.238 180.813 278.801 182.213 277.274 183.512C276.383 184.28 275.47 185.021 274.53 185.748C275.004 185.481 275.429 185.241 275.491 185.213C277.254 184.458 281.109 184.026 282.522 185.652C282.75 185.928 282.917 186.248 283.012 186.592C283.108 186.937 283.129 187.297 283.076 187.65C283.023 188.004 282.896 188.342 282.704 188.643C282.512 188.944 282.258 189.201 281.96 189.398C280.725 190.276 278.859 190.084 277.494 189.665C276.129 189.247 273.844 187.271 273.254 186.743L272.177 187.573C270.449 188.897 268.747 190.207 267.067 191.545C266.484 192.018 265.928 192.505 265.365 192.985C265.791 192.745 266.141 192.546 266.202 192.526C267.965 191.764 271.821 191.339 273.234 192.958C273.462 193.233 273.63 193.553 273.726 193.898C273.822 194.242 273.844 194.603 273.791 194.957C273.738 195.31 273.611 195.649 273.418 195.95C273.225 196.251 272.97 196.508 272.671 196.704C271.43 197.582 269.571 197.39 268.205 196.978C266.84 196.566 264.775 194.769 264.089 194.145C263.534 194.659 262.971 195.167 262.457 195.695C262.107 196.059 261.771 196.381 261.428 196.772C261.085 197.163 260.742 197.513 260.44 197.884C259.843 198.611 259.219 199.365 258.649 200.092C258.252 200.593 257.881 201.08 257.511 201.567C258.08 201.094 259.233 200.195 259.335 200.12C260.961 199.105 264.707 198.096 266.353 199.482C266.619 199.721 266.832 200.014 266.977 200.34C267.123 200.667 267.198 201.021 267.198 201.379C267.198 201.736 267.123 202.09 266.977 202.417C266.832 202.744 266.619 203.036 266.353 203.275C265.262 204.325 263.397 204.442 261.983 204.222C260.419 203.975 257.593 202.164 257.243 201.903C256.626 202.713 256.036 203.509 255.487 204.27C253.587 206.898 252.105 209.155 251.09 210.753L250.987 210.911L249.67 210.273C249.738 210.17 249.807 210.074 249.875 209.964C250.939 208.372 252.489 206.122 254.465 203.509C255.089 202.686 255.768 201.814 256.475 200.923C255.739 200.123 255.052 199.28 254.417 198.398C252.901 198.988 249.752 199.015 249.347 199.015C249.286 200.031 249.231 201.019 249.189 201.952C249.052 205.196 249.066 207.899 249.1 209.786V210.012L247.653 209.326C247.653 207.453 247.728 204.908 247.92 201.91C247.982 200.874 248.071 199.77 248.174 198.645C247.769 198.542 244.497 197.698 243.262 196.71C242.144 195.819 240.964 194.364 241.006 192.848C241.002 192.491 241.073 192.136 241.216 191.808C241.359 191.481 241.569 191.186 241.833 190.946C242.098 190.705 242.41 190.522 242.75 190.41C243.089 190.298 243.449 190.26 243.804 190.296C245.938 190.571 247.721 194.014 248.078 195.901C248.078 196.011 248.188 197.273 248.229 198.028C248.277 197.561 248.311 197.115 248.359 196.656C248.455 195.716 248.579 194.776 248.709 193.768C248.785 193.287 248.867 192.8 248.943 192.306C249.018 191.812 249.148 191.305 249.251 190.797C249.512 189.631 249.827 188.458 250.177 187.285C249.354 187.196 246.439 186.853 245.183 186.139C243.928 185.426 242.556 184.164 242.371 182.661C242.312 182.308 242.329 181.946 242.42 181.6C242.511 181.254 242.675 180.931 242.899 180.653C243.124 180.374 243.406 180.146 243.725 179.984C244.044 179.822 244.394 179.729 244.751 179.711C246.898 179.657 249.19 182.792 249.821 184.603C249.862 184.719 250.17 186.071 250.321 186.818C250.541 186.132 250.747 185.405 251.007 184.705C251.693 182.647 252.469 180.631 253.223 178.593C253.456 177.969 253.676 177.345 253.909 176.727C253.614 176.727 250.136 176.364 248.737 175.561C247.495 174.875 246.109 173.585 245.917 172.083C245.861 171.73 245.88 171.369 245.972 171.024C246.064 170.679 246.227 170.357 246.451 170.079C246.676 169.801 246.956 169.573 247.274 169.41C247.592 169.247 247.941 169.153 248.298 169.133C250.452 169.078 252.743 172.213 253.374 174.024C253.422 174.162 253.861 176.082 253.95 176.611C254.444 175.239 254.931 173.867 255.322 172.495C255.902 170.642 256.361 168.754 256.694 166.842C256.557 166.842 252.921 166.499 251.494 165.676C250.246 164.99 248.86 163.7 248.675 162.198C248.619 161.845 248.637 161.484 248.729 161.139C248.821 160.794 248.985 160.472 249.209 160.193C249.434 159.915 249.714 159.688 250.032 159.525C250.35 159.362 250.699 159.268 251.055 159.248C253.203 159.2 255.494 162.328 256.125 164.139C256.166 164.263 256.502 165.744 256.646 166.451H256.77C257.053 164.519 257.163 162.565 257.099 160.613C257.099 159.536 256.996 158.514 256.893 157.512C256.207 157.512 253.093 157.512 251.721 156.922C250.349 156.333 248.888 155.249 248.531 153.774C248.436 153.428 248.415 153.067 248.469 152.712C248.523 152.358 248.652 152.019 248.846 151.718C249.04 151.417 249.296 151.16 249.596 150.965C249.897 150.769 250.235 150.64 250.589 150.584C252.722 150.296 255.343 153.156 256.173 154.892C256.214 154.988 256.571 155.996 256.811 156.73C256.763 156.284 256.715 155.818 256.653 155.393C256.441 153.781 256.139 152.313 255.864 151.023C255.7 150.289 255.542 149.651 255.384 149.013C254.698 148.67 252.009 147.257 251.083 146.111C250.157 144.965 249.347 143.326 249.711 141.851C249.789 141.499 249.941 141.169 250.157 140.88C250.373 140.592 250.647 140.352 250.962 140.178C251.278 140.004 251.626 139.898 251.985 139.868C252.344 139.839 252.705 139.885 253.045 140.006Z" fill="white"/>
<path d="M291.927 173.16C290.247 173.092 286.885 171.37 286.885 171.363C286.885 171.356 288.689 169.497 288.82 169.394C290.322 168.193 293.93 166.767 295.721 167.953C296.013 168.16 296.258 168.425 296.441 168.733C296.624 169.04 296.74 169.382 296.782 169.737C296.824 170.092 296.791 170.452 296.685 170.794C296.579 171.135 296.403 171.451 296.167 171.72C295.206 172.872 293.361 173.215 291.927 173.16Z" fill="white"/>
</g>
<path d="M272.301 215.253C272.301 215.253 262.1 190.66 256.392 191.73C250.685 192.8 266.168 230.928 266.168 230.928C266.168 230.928 248.222 197.074 235.984 197.074C223.746 197.074 240.47 234.495 255.967 246.967C255.967 246.967 231.498 220.597 217.222 226.298C202.946 231.998 245.773 258.725 245.773 258.725C245.773 258.725 220.892 250.884 223.746 256.941C226.6 262.999 234.351 264.069 234.351 264.069L206.225 265.496H304.118L282.09 263.355C282.09 263.355 304.934 251.954 298.815 247.324C292.696 242.693 279.236 252.668 279.236 252.668C279.236 252.668 302.485 227.011 297.998 217.387C293.512 207.762 273.522 234.852 273.522 234.852C273.522 234.852 289.842 200.285 286.556 194.227C283.27 188.17 272.301 215.253 272.301 215.253Z" fill="#EC8305"/>
<path opacity="0.4" d="M272.301 215.253C272.301 215.253 262.1 190.66 256.392 191.73C250.685 192.8 266.168 230.928 266.168 230.928C266.168 230.928 248.222 197.074 235.984 197.074C223.746 197.074 240.47 234.495 255.967 246.967C255.967 246.967 231.498 220.597 217.222 226.298C202.946 231.998 245.773 258.725 245.773 258.725C245.773 258.725 220.892 250.884 223.746 256.941C226.6 262.999 234.351 264.069 234.351 264.069L206.225 265.496H304.118L282.09 263.355C282.09 263.355 304.934 251.954 298.815 247.324C292.696 242.693 279.236 252.668 279.236 252.668C279.236 252.668 302.485 227.011 297.998 217.387C293.512 207.762 273.522 234.852 273.522 234.852C273.522 234.852 289.842 200.285 286.556 194.227C283.27 188.17 272.301 215.253 272.301 215.253Z" fill="white"/>
<path d="M275.566 216.543C266.586 243.057 266.586 261.819 266.586 261.819C266.586 261.819 277.192 262.223 288.209 254.067" stroke="#263238" stroke-linecap="round" stroke-linejoin="round"/>
<path d="M271.08 230.825C269.228 222.897 266.772 215.123 263.733 207.57" stroke="#263238" stroke-linecap="round" stroke-linejoin="round"/>
<path d="M244.566 215.322L267.403 249.176C267.403 249.176 282.906 236.142 288.209 228.781" stroke="#263238" stroke-linecap="round" stroke-linejoin="round"/>
<path d="M266.998 257.339C266.998 257.339 242.933 245.917 233.144 239.414" stroke="#263238" stroke-linecap="round" stroke-linejoin="round"/>
<path d="M245.396 74.774H172.104C169.103 74.774 166.671 77.2065 166.671 80.2072V260.063C166.671 263.063 169.103 265.496 172.104 265.496H245.396C248.397 265.496 250.829 263.063 250.829 260.063V80.2072C250.829 77.2065 248.397 74.774 245.396 74.774Z" fill="white" stroke="#263238" stroke-linecap="round" stroke-linejoin="round"/>
<path d="M248.016 108.162C247.72 108.162 247.435 108.044 247.226 107.834C247.016 107.624 246.898 107.34 246.898 107.043V92.0543C246.92 91.772 247.048 91.5084 247.256 91.3162C247.464 91.1239 247.737 91.0171 248.02 91.0171C248.303 91.0171 248.576 91.1239 248.784 91.3162C248.992 91.5084 249.119 91.772 249.141 92.0543V107.016C249.144 107.165 249.117 107.314 249.062 107.453C249.007 107.592 248.924 107.718 248.819 107.825C248.715 107.932 248.59 108.016 248.452 108.074C248.314 108.132 248.166 108.162 248.016 108.162Z" fill="#263238"/>
<path d="M248.016 122.046C247.72 122.046 247.435 121.928 247.226 121.719C247.016 121.509 246.898 121.225 246.898 120.928V112.552C246.92 112.27 247.048 112.006 247.256 111.814C247.464 111.622 247.737 111.515 248.02 111.515C248.303 111.515 248.576 111.622 248.784 111.814C248.992 112.006 249.119 112.27 249.141 112.552V120.928C249.14 121.225 249.02 121.51 248.81 121.719C248.599 121.929 248.314 122.046 248.016 122.046Z" fill="#263238"/>
<path d="M239.05 74.774H165.758C162.758 74.774 160.325 77.2065 160.325 80.2072V260.063C160.325 263.063 162.758 265.496 165.758 265.496H239.05C242.051 265.496 244.484 263.063 244.484 260.063V80.2072C244.484 77.2065 242.051 74.774 239.05 74.774Z" fill="#263238" stroke="#263238" stroke-linecap="round" stroke-linejoin="round"/>
<path d="M238.879 87.4719H165.93V251.055H238.879V87.4719Z" fill="#EC8305"/>
<path d="M191.572 82.2446H210.993" stroke="white" stroke-width="3" stroke-linecap="round" stroke-linejoin="round"/>
<path d="M199.791 256.845C199.791 258.183 198.954 259.267 197.918 259.267C196.882 259.267 196.052 258.183 196.052 256.845C196.052 255.508 196.889 254.417 197.918 254.417C198.947 254.417 199.791 255.501 199.791 256.845Z" fill="white"/>
<path d="M202.404 128.179C209.391 128.179 215.054 121.576 215.054 113.43C215.054 105.285 209.391 98.6812 202.404 98.6812C195.418 98.6812 189.754 105.285 189.754 113.43C189.754 121.576 195.418 128.179 202.404 128.179Z" fill="white"/>
<path d="M202.404 113.245C205.056 113.245 207.206 110.736 207.206 107.64C207.206 104.545 205.056 102.036 202.404 102.036C199.752 102.036 197.602 104.545 197.602 107.64C197.602 110.736 199.752 113.245 202.404 113.245Z" fill="#263238" stroke="#263238" stroke-linecap="round" stroke-linejoin="round"/>
<path d="M202.404 114.734C197.602 114.734 193.672 118.417 193.672 122.966C193.675 123.389 193.714 123.811 193.788 124.228C194.853 125.471 196.175 126.469 197.662 127.153C199.149 127.837 200.767 128.192 202.404 128.192C204.041 128.192 205.659 127.837 207.146 127.153C208.634 126.469 209.955 125.471 211.02 124.228C211.089 123.81 211.125 123.388 211.13 122.966C211.13 118.417 207.22 114.734 202.404 114.734Z" fill="#263238" stroke="#263238" stroke-linecap="round" stroke-linejoin="round"/>
<path d="M217.784 177.674H187.024C186.21 177.642 185.442 177.288 184.889 176.69C184.336 176.092 184.043 175.298 184.074 174.484V155.496C184.074 144.554 192.306 135.65 202.404 135.65C212.502 135.65 220.727 144.568 220.727 155.496V174.47C220.745 174.874 220.683 175.277 220.544 175.657C220.406 176.036 220.194 176.385 219.92 176.682C219.647 176.98 219.318 177.221 218.951 177.391C218.585 177.561 218.188 177.657 217.784 177.674ZM189.967 171.294H214.835V155.516C214.835 148.094 209.257 142.05 202.404 142.05C195.551 142.05 189.967 148.094 189.967 155.516V171.294Z" fill="#263238"/>
<path d="M223.759 164.716H181.049V205.121H223.759V164.716Z" fill="white"/>
<path d="M208.626 192.533L205.457 184.911C206.158 184.381 206.725 183.695 207.112 182.906C207.499 182.117 207.696 181.249 207.686 180.37C207.686 177.331 205.416 174.882 202.61 174.882C199.804 174.882 197.541 177.338 197.541 180.37C197.53 181.248 197.725 182.117 198.111 182.905C198.497 183.694 199.063 184.381 199.763 184.911L196.601 192.533H208.626Z" fill="#263238" stroke="#263238" stroke-linecap="round" stroke-linejoin="round"/>
<path d="M189.391 241.431C189.457 241.479 189.536 241.505 189.617 241.506C189.676 241.506 189.733 241.492 189.784 241.464C189.836 241.437 189.88 241.397 189.912 241.349L238.879 174.745V173.483L189.336 240.909C189.305 240.947 189.282 240.991 189.269 241.037C189.255 241.084 189.25 241.133 189.255 241.182C189.26 241.23 189.275 241.277 189.298 241.32C189.322 241.362 189.353 241.4 189.391 241.431Z" fill="white"/>
<path d="M229.028 111.468C228.999 111.508 228.978 111.553 228.966 111.6C228.954 111.648 228.952 111.698 228.96 111.746C228.968 111.795 228.985 111.841 229.011 111.883C229.036 111.925 229.07 111.961 229.11 111.99C229.191 112.047 229.29 112.07 229.388 112.055C229.485 112.039 229.573 111.986 229.632 111.907L238.879 99.3328V98.098L229.028 111.468Z" fill="white"/>
<path d="M165.93 198.57L226.38 116.366C226.438 116.286 226.462 116.186 226.447 116.088C226.431 115.991 226.378 115.903 226.298 115.845C226.218 115.787 226.118 115.763 226.02 115.778C225.922 115.793 225.835 115.847 225.776 115.927L165.957 197.307L165.93 198.57Z" fill="white"/>
<path d="M183.711 249.539C183.769 249.538 183.827 249.524 183.879 249.498C183.931 249.472 183.977 249.435 184.013 249.388L187.443 244.751C187.472 244.712 187.493 244.667 187.505 244.619C187.516 244.571 187.518 244.522 187.511 244.473C187.503 244.425 187.486 244.378 187.46 244.336C187.434 244.295 187.4 244.258 187.36 244.23C187.28 244.173 187.18 244.149 187.083 244.165C186.985 244.18 186.898 244.233 186.839 244.312L183.409 248.943C183.379 248.982 183.358 249.026 183.346 249.074C183.334 249.121 183.331 249.17 183.338 249.219C183.345 249.267 183.361 249.314 183.387 249.356C183.412 249.398 183.445 249.435 183.484 249.464C183.549 249.515 183.629 249.542 183.711 249.539Z" fill="white"/>
<path d="M238.879 188.081L198.679 242.762C198.639 242.817 198.614 242.883 198.608 242.951C198.603 243.02 198.617 243.089 198.648 243.15C198.679 243.211 198.727 243.263 198.786 243.298C198.845 243.334 198.912 243.352 198.981 243.352C199.04 243.353 199.098 243.34 199.151 243.313C199.203 243.287 199.249 243.248 199.283 243.201L238.879 189.336V188.081Z" fill="white"/>
<path d="M97.6933 111.228C98.3735 109.721 98.7019 108.079 98.6537 106.426C98.6537 103.36 94.9424 101.583 90.5794 101.096C86.2165 100.609 84.282 102.386 84.9268 103.517C85.5969 104.451 86.4149 105.269 87.3484 105.939C87.3484 105.939 82.9854 103.517 80.0768 105.459C77.1681 107.4 81.3733 106.591 80.5639 108.525C79.7544 110.46 75.2336 109.657 74.1017 114.823C72.9698 119.988 76.2009 125.161 73.2922 127.425C70.3836 129.688 61.6302 126.615 59.0783 132.268C56.5264 137.92 60.1485 140.431 54.0156 143.985C47.8828 147.538 43.4101 151.009 45.1868 159.728C46.9636 168.447 52.7808 171.5 64.2508 168.42C75.7207 165.34 74.9112 158.404 78.6568 151.27C82.4023 144.135 88.1922 145.617 89.9689 141.577C91.7456 137.536 89.4818 132.693 89.6465 128.975C89.8111 125.257 93.5224 124.454 94.9767 120.057C96.431 115.66 97.6933 111.228 97.6933 111.228Z" fill="#263238" stroke="#263238" stroke-linecap="round" stroke-linejoin="round"/>
<path d="M46.5245 159.564C46.2237 160.171 46.0709 160.841 46.0786 161.519" stroke="white" stroke-width="0.5" stroke-linecap="round" stroke-linejoin="round"/>
<path d="M91.4918 108.024C91.4918 108.024 89.475 105.692 93.3577 106.776C98.2489 108.148 92.5071 113.807 90.2982 114.946C85.8666 117.217 80.0082 116.49 76.5782 120.619C73.4637 124.351 77.6689 128.241 75.803 131.198C73.9371 134.154 66.4665 132.439 63.9832 136C61.4999 139.56 68.4902 147.202 61.3353 151.4C56.1628 154.439 50.4965 155.605 47.7593 158.013" stroke="white" stroke-width="0.5" stroke-linecap="round" stroke-linejoin="round"/>
<path d="M79.8916 121.827C79.4676 122.819 79.339 123.912 79.5211 124.976C80.1385 127.617 83.7194 132.597 80.4541 135.396C77.1887 138.195 71.5841 138.037 70.658 141.316C69.7319 144.595 71.591 153.602 68.4834 157.78C65.3758 161.958 59.3047 161.67 56.0393 164.469C52.774 167.267 53.2405 168.825 53.2405 168.825" stroke="white" stroke-width="0.5" stroke-linecap="round" stroke-linejoin="round"/>
<path d="M81.538 118.754C81.2552 119.153 80.9942 119.568 80.7559 119.995" stroke="white" stroke-width="0.5" stroke-linecap="round" stroke-linejoin="round"/>
<path d="M99.7856 159.317L100.574 165.491C100.574 165.491 104.69 169.607 107.716 172.152C110.741 174.697 118.493 180.082 118.493 180.082L114.562 181.2C114.562 181.2 101.713 173.586 99.175 172.968C96.6368 172.351 94.7366 168.687 93.9477 167.576C93.1588 166.465 97.7207 158.205 99.7856 159.317Z" fill="white" stroke="#263238" stroke-linecap="round" stroke-linejoin="round"/>
<path d="M107.633 259.768C107.633 259.768 111.516 263.047 113.121 264.144C114.727 265.242 116.599 265.736 116.304 266.333C116.009 266.929 115.207 267.526 111.427 267.019C107.647 266.511 106.556 265.228 105.857 265.029C105.157 264.83 103.469 265.331 102.18 264.535C100.89 263.74 102.934 258.999 102.934 258.999C103.501 259.662 104.283 260.102 105.143 260.243C106.003 260.383 106.886 260.215 107.633 259.768Z" fill="white" stroke="#263238" stroke-linecap="round" stroke-linejoin="round"/>
<path d="M116.291 266.333C116.294 266.301 116.294 266.269 116.291 266.237C114.108 266.437 111.908 266.23 109.801 265.626C107.359 265.05 106.639 263.753 104.313 263.753C103.401 263.762 102.493 263.613 101.631 263.314C101.606 263.543 101.637 263.775 101.722 263.989C101.807 264.203 101.943 264.393 102.118 264.542C103.408 265.338 105.102 264.837 105.795 265.036C106.488 265.235 107.585 266.532 111.365 267.025C115.145 267.519 115.989 266.929 116.291 266.333Z" fill="white" stroke="#263238" stroke-linecap="round" stroke-linejoin="round"/>
<path d="M87.3072 127.184C87.3072 127.184 88.055 132.22 87.0946 134.25C86.1342 136.281 83.1295 136.5 80.5638 136.933C77.9982 137.365 72.1055 139.608 72.7434 145.391C73.3814 151.174 80.7765 163.7 80.7765 167.233C80.7765 170.766 78.5264 172.584 76.0637 179.437C73.6009 186.29 73.9234 199.036 74.6917 207.282C75.2548 212.724 76.3297 218.101 77.9022 223.341C77.9022 223.341 71.7282 233.302 68.9842 237.582C66.2402 241.863 56.6362 260.502 56.6362 260.502C56.6362 260.502 56.6362 261.14 58.1316 261.572C59.1838 261.828 60.2723 261.9 61.349 261.785C61.349 261.785 79.7612 239.62 83.1912 235.874C86.6212 232.129 89.8317 225.584 90.257 222.593C90.6823 219.602 90.1541 201.286 90.1541 201.286C90.1541 201.286 94.0026 210.492 97.0141 215.205C98.8407 218.089 100.517 221.066 102.036 224.123C101.614 227.999 101.614 231.909 102.036 235.785C102.783 241.136 102.152 258.327 102.9 259.72C103.648 261.112 106.55 260.529 107.194 259.891C107.839 259.253 108.141 255.089 108.141 255.089C108.141 255.089 109.424 242.055 110.199 235.922C110.974 229.789 112.257 224.569 111.811 223.176C111.365 221.784 108.704 206.898 106.666 199.852C104.629 192.807 98.4341 179.615 97.0621 176.192C95.6901 172.769 94.915 169.655 95.1345 168.585C95.354 167.514 99.5249 161.093 100.622 159.378C101.248 158.216 101.593 156.923 101.63 155.603C101.667 154.283 101.395 152.973 100.835 151.778C99.5523 148.992 100.835 145.24 100.622 142.997C100.41 140.754 97.0896 139.779 95.3746 138.929C93.6596 138.078 93.0147 136.144 93.0147 134.538C93.1195 133.186 93.4463 131.86 93.982 130.614C93.982 130.614 88.6998 127.184 87.3072 127.184Z" fill="white" stroke="#263238" stroke-linecap="round" stroke-linejoin="round"/>
<path d="M100.286 150.09C99.7222 148.656 99.2525 147.188 98.88 145.693" stroke="#263238" stroke-linecap="round" stroke-linejoin="round"/>
<path d="M86.3811 162.013C86.3811 162.013 88.3156 162.438 92.1915 160.503" stroke="#263238" stroke-linecap="round" stroke-linejoin="round"/>
<path d="M106.687 199.784C104.745 193.034 98.9898 180.706 97.2679 176.638C89.0359 179.725 81.339 177.091 77.7238 175.39C77.2024 176.528 76.6399 177.846 76.0637 179.437C73.6009 186.297 73.9234 199.036 74.6917 207.282C75.2548 212.724 76.3297 218.101 77.9022 223.341C77.9022 223.341 71.7282 233.302 68.9842 237.582C66.2402 241.863 56.6362 260.502 56.6362 260.502C56.6362 260.502 56.6362 261.14 58.1316 261.572C59.1838 261.828 60.2723 261.9 61.349 261.784C61.349 261.784 79.7612 239.62 83.1912 235.874C86.6212 232.129 89.8317 225.584 90.257 222.593C90.6823 219.602 90.1541 201.286 90.1541 201.286C90.1541 201.286 94.0026 210.492 97.0141 215.205C98.8407 218.089 100.517 221.066 102.036 224.123C101.614 227.999 101.614 231.909 102.036 235.785C102.783 241.136 102.152 258.327 102.9 259.72C103.648 261.112 106.55 260.529 107.194 259.891C107.839 259.253 108.141 255.089 108.141 255.089C108.141 255.089 109.424 242.055 110.199 235.922C110.974 229.789 112.257 224.569 111.811 223.176C111.365 221.784 108.724 206.85 106.687 199.784Z" fill="#263238" stroke="#263238" stroke-linecap="round" stroke-linejoin="round"/>
<path d="M148.629 192.986V191.586H149.802V180.596H148.629H137.049H135.876V191.586H137.049V192.986H135.869V195.538H140.39V194.68H145.288V195.538H149.809V192.986H148.629Z" fill="#EC8305" stroke="#263238" stroke-linecap="round" stroke-linejoin="round"/>
<path d="M73.7862 177.31H154.57C154.893 177.31 155.204 177.439 155.433 177.668C155.662 177.897 155.791 178.208 155.791 178.532V180.987C155.791 181.311 155.662 181.622 155.433 181.851C155.204 182.08 154.893 182.208 154.57 182.208H73.7862V177.304V177.31Z" fill="#EC8305" stroke="#263238" stroke-linecap="round" stroke-linejoin="round"/>
<path d="M131.767 176.576H126.848C126.473 176.576 126.169 176.88 126.169 177.256V182.27C126.169 182.645 126.473 182.949 126.848 182.949H131.767C132.142 182.949 132.446 182.645 132.446 182.27V177.256C132.446 176.88 132.142 176.576 131.767 176.576Z" fill="#EC8305" stroke="#263238" stroke-linecap="round" stroke-linejoin="round"/>
<path d="M76.3136 181.826C77.4518 174.875 72.74 168.318 65.7894 167.18C58.8388 166.042 52.2816 170.753 51.1434 177.704C50.0052 184.655 54.717 191.212 61.6676 192.35C68.6182 193.488 75.1754 188.776 76.3136 181.826Z" fill="#EC8305" stroke="#263238" stroke-linecap="round" stroke-linejoin="round"/>
<path d="M66.3499 179.732C67.0893 179.378 67.7167 178.827 68.1632 178.14C68.6098 177.452 68.8583 176.655 68.8813 175.836C68.8813 173.332 66.5763 171.301 63.7294 171.301C60.8825 171.301 58.5775 173.359 58.5775 175.836C58.599 176.655 58.8468 177.453 59.2936 178.141C59.7403 178.829 60.3686 179.379 61.1089 179.732C60.369 180.087 59.7414 180.64 59.2948 181.328C58.8482 182.017 58.6001 182.815 58.5775 183.635C58.5775 186.139 60.8825 188.17 63.7294 188.17C66.5763 188.17 68.8813 186.112 68.8813 183.635C68.8572 182.815 68.6084 182.018 68.1621 181.329C67.7157 180.641 67.0888 180.089 66.3499 179.732Z" fill="white" stroke="#263238" stroke-linecap="round" stroke-linejoin="round"/>
<path d="M115.975 182.318C115.975 182.318 119.968 184.006 121.202 184.006C122.437 184.006 123.864 182.764 124.571 181.262C125.277 179.759 125.257 179.046 124.838 179.403L123.953 180.089C123.953 180.089 124.639 178.586 123.864 178.765C123.327 178.944 122.882 179.325 122.623 179.828C122.623 179.828 122.533 178.497 121.827 179.142C121.359 179.566 120.942 180.042 120.585 180.562C120.585 180.562 120.496 178.881 120.05 179.32C119.604 179.759 117.93 182.154 117.93 182.154L115.975 182.318Z" fill="white" stroke="#263238" stroke-linecap="round" stroke-linejoin="round"/>
<path d="M120.585 180.548C120.585 180.548 120.318 182.675 118.994 183.032L120.585 180.548Z" fill="white"/>
<path d="M120.585 180.548C120.585 180.548 120.318 182.675 118.994 183.032" stroke="#263238" stroke-linecap="round" stroke-linejoin="round"/>
<path d="M122.623 179.842C122.623 179.842 121.937 183.203 120.853 183.738L122.623 179.842Z" fill="white"/>
<path d="M122.623 179.842C122.623 179.842 121.937 183.203 120.853 183.738" stroke="#263238" stroke-linecap="round" stroke-linejoin="round"/>
<path d="M123.953 180.103C123.6 181.329 123.124 182.517 122.533 183.649L123.953 180.103Z" fill="white"/>
<path d="M123.953 180.103C123.6 181.329 123.124 182.517 122.533 183.649" stroke="#263238" stroke-linecap="round" stroke-linejoin="round"/>
<path d="M95.1208 138.723C94.4298 138.256 93.8702 137.62 93.4955 136.876C93.1207 136.131 92.9434 135.303 92.9804 134.47C93.1034 133.139 93.4417 131.837 93.982 130.614C93.982 130.614 88.7341 127.184 87.3415 127.184C87.3415 127.184 88.0893 132.22 87.1289 134.25C86.8141 134.882 86.3008 135.393 85.6677 135.705C86.936 139.119 88.6547 142.349 90.7784 145.309C92.706 147.73 93.6459 142.626 95.1208 138.723Z" fill="white" stroke="#263238" stroke-linecap="round" stroke-linejoin="round"/>
<path d="M78.9243 137.625C77.6153 137.849 76.3761 138.374 75.3046 139.158C74.2331 139.943 73.3587 140.966 72.7503 142.146C70.6374 146.221 61.4039 164.716 62.1928 165.82C66.6792 172.131 82.9992 176.672 84.6593 178.333C86.3189 180.069 88.1405 181.642 90.0992 183.032C91.7594 184.088 95.0728 183.635 95.6764 183.334C96.2801 183.032 96.7329 181.673 95.6764 181.673C95.2728 181.679 94.8796 181.545 94.5625 181.296C94.2453 181.046 94.0235 180.695 93.934 180.301C93.7831 179.698 95.5941 180.905 96.4996 180.452C97.4052 180 94.4759 178.346 93.5704 177.592C92.6649 176.837 91.9103 175.788 90.7029 175.788C89.4956 175.788 87.2249 175.788 87.2249 175.788C87.2249 175.788 81.6683 171.761 78.3069 168.763C75.6914 166.403 72.8384 164.32 69.7936 162.548L79.9807 145.789" fill="white"/>
<path d="M78.9243 137.625C77.6153 137.849 76.3761 138.374 75.3046 139.158C74.2331 139.943 73.3587 140.966 72.7503 142.146C70.6374 146.221 61.4039 164.716 62.1928 165.82C66.6792 172.131 82.9992 176.672 84.6593 178.333C86.3189 180.069 88.1405 181.642 90.0992 183.032C91.7594 184.088 95.0728 183.635 95.6764 183.334C96.2801 183.032 96.7329 181.673 95.6764 181.673C95.2728 181.679 94.8796 181.545 94.5625 181.296C94.2453 181.046 94.0235 180.695 93.934 180.301C93.7831 179.698 95.5941 180.905 96.4996 180.452C97.4052 180 94.4759 178.346 93.5704 177.592C92.6649 176.837 91.9103 175.788 90.7029 175.788C89.4956 175.788 87.2249 175.788 87.2249 175.788C87.2249 175.788 81.6683 171.761 78.3069 168.763C75.6914 166.403 72.8384 164.32 69.7936 162.548L79.9807 145.789" stroke="#263238" stroke-linecap="round" stroke-linejoin="round"/>
<path d="M93.5635 177.599C92.658 176.844 91.9034 175.794 90.6961 175.794C89.4887 175.794 87.218 175.794 87.218 175.794C87.218 175.794 81.6614 171.768 78.3 168.77C75.6845 166.41 72.8315 164.327 69.7868 162.555L73.8616 155.846C71.7784 154.585 69.3954 153.905 66.9605 153.877C64.2165 159.598 61.7537 165.251 62.1585 165.847C66.6449 172.159 82.9648 176.7 84.625 178.36C86.2846 180.096 88.1062 181.669 90.0649 183.059C91.7251 184.116 95.0384 183.663 95.6421 183.361C96.2458 183.059 96.6986 181.701 95.6421 181.701C95.2385 181.706 94.8453 181.573 94.5282 181.323C94.211 181.073 93.9892 180.722 93.8997 180.329C93.7488 179.725 95.5598 180.933 96.4653 180.48C97.3708 180.027 94.4691 178.36 93.5635 177.599Z" fill="white" stroke="#263238" stroke-linecap="round" stroke-linejoin="round"/>
<path d="M99.0858 119.796C98.5508 118.726 98.5508 117.869 98.7634 116.366C98.9761 114.864 97.6933 111.221 97.6933 111.221C96.383 113.485 92.5963 114.83 90.9224 115.337C89.0771 115.9 91.7731 117.176 91.485 118.884C91.1968 120.592 87.513 121.58 87.513 121.58C87.513 121.58 86.436 119.364 84.9405 119.364C83.445 119.364 82.3817 122.794 83.2324 124.612C83.454 125.116 83.8401 125.529 84.3274 125.784C84.8147 126.04 85.3744 126.122 85.9146 126.018C85.9146 126.018 85.8117 129.236 87.8423 130.196C90.0089 131.23 92.2692 132.054 94.5925 132.659C95.8754 132.871 97.1582 132.233 97.6933 130.306C98.1117 128.363 98.3982 126.394 98.5508 124.413C99.449 123.825 100.276 123.135 101.014 122.355C101.528 121.614 99.6209 120.866 99.0858 119.796Z" fill="white" stroke="#263238" stroke-linecap="round" stroke-linejoin="round"/>
<path d="M97.0004 119.844C97.0004 120.434 96.8083 120.907 96.5751 120.907C96.3418 120.907 96.1498 120.434 96.1498 119.844C96.1498 119.254 96.3418 118.781 96.5751 118.781C96.8083 118.781 97.0004 119.254 97.0004 119.844Z" fill="#263238"/>
<path d="M95.1551 118.074C95.1551 118.074 96.2938 116.792 97.1445 117.08" stroke="#263238" stroke-linecap="round" stroke-linejoin="round"/>
<path d="M97.1445 126.869C96.6304 127.024 96.0847 127.042 95.5614 126.922C95.038 126.802 94.5551 126.547 94.1604 126.183" stroke="#263238" stroke-linecap="round" stroke-linejoin="round"/>
<path d="M56.6842 260.502C56.6842 260.502 54.1254 265.633 54.2214 266.333C54.3175 267.032 59.3939 270.709 61.7674 271.999C64.141 273.289 68.4354 273.495 68.1335 271.704C67.8317 269.914 63.7568 268.72 62.7621 266.031C62.2324 264.64 61.7745 263.223 61.3901 261.785C59.7319 261.809 58.1005 261.364 56.6842 260.502Z" fill="white" stroke="#263238" stroke-linecap="round" stroke-linejoin="round"/>
<path d="M68.1472 271.731C66.3208 271.976 64.4623 271.713 62.7759 270.97C59.092 269.372 55.5248 266.106 54.5439 265.18C54.3696 265.55 54.2583 265.947 54.2146 266.353C54.3175 267.039 59.387 270.73 61.7606 272.02C64.1341 273.309 68.3942 273.488 68.1472 271.731Z" fill="white" stroke="#263238" stroke-linecap="round" stroke-linejoin="round"/>
</svg>
