<svg width="343" height="344" viewBox="0 0 343 344" fill="none" xmlns="http://www.w3.org/2000/svg">
<path d="M280.663 70.864C263.596 31.8338 222.628 17.1381 190.303 43.344C177.681 53.5677 169.806 69.8389 154.35 76.368C139.848 82.4912 121.477 80.6887 105.795 84.0048C72.4004 91.0224 27.44 117.648 30.87 158.673C32.3724 176.644 44.4597 196.603 50.4347 213.418C57.2947 232.764 61.4107 256.968 79.5691 268.533C110.7 288.389 148.251 272.159 176.295 256.149C191.387 247.542 199.695 242.252 215.946 245.203C230.99 247.955 244.538 257.587 259.239 246.16C270.277 237.58 271.19 220.194 280.457 209.985C290.898 198.481 301.483 197.649 306.91 180.359C313.488 159.382 303.795 146.276 297.244 127.535C290.693 108.793 288.703 89.2268 280.663 70.864Z" fill="#EC8305"/>
<g opacity="0.7">
<path d="M280.663 70.864C263.596 31.8338 222.628 17.1381 190.303 43.344C177.681 53.5677 169.806 69.8389 154.35 76.368C139.848 82.4912 121.477 80.6887 105.795 84.0048C72.4004 91.0224 27.44 117.648 30.87 158.673C32.3724 176.644 44.4597 196.603 50.4347 213.418C57.2947 232.764 61.4107 256.968 79.5691 268.533C110.7 288.389 148.251 272.159 176.295 256.149C191.387 247.542 199.695 242.252 215.946 245.203C230.99 247.955 244.538 257.587 259.239 246.16C270.277 237.58 271.19 220.194 280.457 209.985C290.898 198.481 301.483 197.649 306.91 180.359C313.488 159.382 303.795 146.276 297.244 127.535C290.693 108.793 288.703 89.2268 280.663 70.864Z" fill="white"/>
</g>
<path d="M150.79 301.124C209.355 301.124 256.832 298.158 256.832 294.498C256.832 290.839 209.355 287.873 150.79 287.873C92.2243 287.873 44.7478 290.839 44.7478 294.498C44.7478 298.158 92.2243 301.124 150.79 301.124Z" fill="#EC8305"/>
<path opacity="0.8" d="M150.79 301.124C209.355 301.124 256.832 298.158 256.832 294.498C256.832 290.839 209.355 287.873 150.79 287.873C92.2243 287.873 44.7478 290.839 44.7478 294.498C44.7478 298.158 92.2243 301.124 150.79 301.124Z" fill="white"/>
<path d="M230.475 42.5597H123.85C116.489 42.5597 110.521 48.5447 110.521 55.9275V281.688C110.521 289.071 116.489 295.056 123.85 295.056H230.475C237.837 295.056 243.804 289.071 243.804 281.688V55.9275C243.804 48.5447 237.837 42.5597 230.475 42.5597Z" fill="#263238"/>
<path d="M237.877 70.2861H116.442V267.329H237.877V70.2861Z" fill="white" stroke="#263238" stroke-width="1.33739" stroke-miterlimit="10"/>
<path d="M195.775 150.075C206.054 139.765 206.054 123.051 195.775 112.741C185.496 102.432 168.83 102.432 158.55 112.741C148.271 123.051 148.271 139.765 158.55 150.075C168.83 160.384 185.496 160.384 195.775 150.075Z" fill="#EC8305"/>
<path d="M211.72 254.938H142.613C142.457 254.939 142.303 254.909 142.159 254.85C142.015 254.791 141.884 254.704 141.774 254.594C141.663 254.484 141.576 254.354 141.516 254.21C141.456 254.066 141.426 253.911 141.426 253.755C141.425 253.599 141.455 253.443 141.514 253.299C141.574 253.154 141.661 253.022 141.771 252.911C141.882 252.801 142.013 252.713 142.157 252.654C142.302 252.594 142.456 252.564 142.613 252.565H211.72C211.876 252.565 212.03 252.596 212.173 252.656C212.317 252.715 212.447 252.803 212.557 252.914C212.667 253.024 212.753 253.156 212.812 253.3C212.871 253.444 212.901 253.599 212.9 253.755C212.9 254.069 212.776 254.37 212.554 254.592C212.333 254.814 212.033 254.938 211.72 254.938Z" fill="#EC8305"/>
<path d="M213.97 172.647H140.356C138.836 172.647 137.605 173.882 137.605 175.406V184.109C137.605 185.632 138.836 186.868 140.356 186.868H213.97C215.49 186.868 216.721 185.632 216.721 184.109V175.406C216.721 173.882 215.49 172.647 213.97 172.647Z" fill="#EC8305"/>
<path d="M213.97 199.245H140.356C138.836 199.245 137.605 200.48 137.605 202.004V210.707C137.605 212.231 138.836 213.466 140.356 213.466H213.97C215.49 213.466 216.721 212.231 216.721 210.707V202.004C216.721 200.48 215.49 199.245 213.97 199.245Z" fill="#EC8305"/>
<path d="M190.269 144.576L182.524 140.104V136.41C183.645 135.049 184.458 133.46 184.904 131.752C185.171 131.847 185.452 131.896 185.734 131.897C186.695 131.897 187.305 128.911 187.408 126.778C188.527 124.404 187.004 123.014 187.004 123.014C187.004 123.014 187.635 122.381 188.053 119.843C188.472 117.304 186.578 118.364 185.103 116.038C183.628 113.713 182.572 111.181 177.729 111.181C176.394 111.137 175.078 111.496 173.95 112.213C172.822 112.93 171.935 113.97 171.404 115.199C170.198 115.203 168.997 115.344 167.823 115.618C166.341 116.038 165.923 120.902 167.185 122.808C167.75 123.85 168.052 125.014 168.063 126.2C167.727 125.787 167.377 125.677 167.185 126.613C166.767 128.725 168.454 131.683 168.454 131.683L169.325 131.436C169.764 133.26 170.611 134.961 171.802 136.41V140.104L164.057 144.576C163.152 145.1 162.401 145.853 161.879 146.76C161.356 147.667 161.081 148.696 161.08 149.743V152.303C165.686 155.871 171.342 157.807 177.163 157.807C182.984 157.807 188.64 155.871 193.246 152.303V149.743C193.247 148.696 192.972 147.666 192.449 146.759C191.926 145.852 191.174 145.099 190.269 144.576Z" fill="#263238"/>
<path d="M147.627 209.929C147.45 209.927 147.28 209.855 147.154 209.73C147.086 209.669 147.032 209.595 146.996 209.512C146.959 209.429 146.941 209.339 146.941 209.248C146.943 209.124 146.979 209.003 147.044 208.897L148.279 206.916L145.871 206.992C145.78 206.997 145.689 206.984 145.604 206.952C145.519 206.92 145.442 206.87 145.377 206.806C145.265 206.68 145.203 206.517 145.203 206.348C145.203 206.18 145.265 206.017 145.377 205.891C145.44 205.824 145.517 205.773 145.603 205.739C145.688 205.706 145.78 205.692 145.871 205.698L148.245 205.788L147.024 203.813C146.957 203.706 146.921 203.582 146.921 203.455C146.92 203.365 146.939 203.275 146.975 203.192C147.012 203.109 147.066 203.034 147.133 202.974C147.259 202.848 147.429 202.777 147.607 202.774C147.723 202.775 147.838 202.809 147.936 202.872C148.034 202.936 148.113 203.026 148.162 203.132L149.335 205.258L150.495 203.146C150.55 203.033 150.634 202.938 150.74 202.87C150.845 202.802 150.966 202.764 151.091 202.76C151.178 202.761 151.264 202.78 151.343 202.815C151.422 202.851 151.493 202.902 151.551 202.967C151.677 203.098 151.746 203.273 151.743 203.455C151.743 203.574 151.712 203.69 151.654 203.792L150.412 205.788L152.82 205.698C152.912 205.692 153.003 205.706 153.089 205.739C153.174 205.773 153.251 205.824 153.314 205.891C153.431 206.013 153.495 206.176 153.492 206.345C153.492 206.516 153.428 206.68 153.314 206.806C153.25 206.87 153.172 206.92 153.087 206.952C153.002 206.984 152.911 206.997 152.82 206.992L150.399 206.916L151.606 208.877C151.674 208.986 151.709 209.113 151.709 209.241C151.709 209.424 151.637 209.599 151.508 209.728C151.379 209.857 151.205 209.929 151.023 209.929C150.905 209.928 150.791 209.892 150.693 209.826C150.596 209.76 150.52 209.667 150.474 209.558L149.328 207.494L148.19 209.558C148.139 209.666 148.06 209.758 147.961 209.823C147.861 209.889 147.746 209.926 147.627 209.929Z" fill="#263238"/>
<path d="M158.754 209.929C158.577 209.927 158.407 209.855 158.281 209.73C158.213 209.669 158.159 209.595 158.123 209.512C158.086 209.429 158.067 209.339 158.068 209.248C158.07 209.124 158.106 209.003 158.171 208.897L159.406 206.916L157.005 206.992C156.913 206.996 156.822 206.982 156.736 206.95C156.65 206.918 156.571 206.869 156.504 206.806C156.413 206.712 156.352 206.592 156.33 206.463C156.308 206.334 156.324 206.201 156.378 206.081C156.432 205.962 156.521 205.861 156.633 205.793C156.745 205.725 156.874 205.692 157.005 205.698L159.372 205.788L158.15 203.813C158.084 203.706 158.048 203.582 158.048 203.455C158.047 203.365 158.066 203.275 158.102 203.192C158.139 203.109 158.193 203.034 158.26 202.974C158.386 202.848 158.556 202.777 158.734 202.774C158.85 202.775 158.965 202.809 159.063 202.872C159.161 202.936 159.24 203.026 159.289 203.132L160.462 205.258L161.622 203.146C161.677 203.033 161.761 202.938 161.866 202.87C161.972 202.802 162.093 202.764 162.218 202.761C162.305 202.76 162.391 202.778 162.47 202.814C162.55 202.85 162.62 202.902 162.678 202.967C162.742 203.031 162.792 203.107 162.826 203.191C162.86 203.275 162.877 203.365 162.877 203.455C162.875 203.574 162.841 203.69 162.781 203.793L161.539 205.788L163.954 205.712C164.044 205.706 164.135 205.72 164.219 205.753C164.303 205.787 164.379 205.838 164.441 205.905C164.558 206.026 164.622 206.19 164.619 206.359C164.619 206.529 164.555 206.694 164.441 206.82C164.378 206.884 164.302 206.933 164.218 206.965C164.134 206.997 164.044 207.011 163.954 207.005L161.526 206.93L162.733 208.891C162.801 209 162.836 209.126 162.836 209.255C162.836 209.438 162.764 209.613 162.635 209.742C162.506 209.871 162.332 209.943 162.15 209.943C162.032 209.942 161.918 209.906 161.82 209.84C161.723 209.774 161.646 209.681 161.601 209.572L160.455 207.508L159.317 209.572C159.264 209.677 159.184 209.766 159.085 209.829C158.986 209.892 158.871 209.927 158.754 209.929Z" fill="#263238"/>
<path d="M169.888 209.929C169.708 209.929 169.535 209.857 169.408 209.73C169.34 209.669 169.286 209.595 169.25 209.512C169.213 209.429 169.194 209.339 169.195 209.248C169.197 209.124 169.233 209.003 169.298 208.897L170.533 206.916L168.132 206.992C168.002 206.997 167.875 206.963 167.764 206.895C167.654 206.827 167.567 206.728 167.513 206.61C167.459 206.492 167.442 206.36 167.463 206.232C167.484 206.104 167.542 205.985 167.631 205.891C167.696 205.825 167.774 205.773 167.86 205.74C167.947 205.707 168.039 205.692 168.132 205.698L170.498 205.788L169.277 203.813C169.211 203.706 169.175 203.582 169.174 203.455C169.177 203.365 169.197 203.276 169.233 203.193C169.269 203.111 169.322 203.036 169.387 202.974C169.515 202.847 169.687 202.775 169.867 202.774C169.983 202.776 170.096 202.811 170.193 202.874C170.29 202.937 170.367 203.027 170.416 203.132L171.589 205.258L172.749 203.146C172.804 203.033 172.888 202.938 172.993 202.87C173.099 202.802 173.22 202.764 173.345 202.761C173.432 202.76 173.518 202.778 173.597 202.814C173.677 202.85 173.747 202.902 173.805 202.967C173.869 203.031 173.919 203.107 173.953 203.191C173.987 203.275 174.004 203.365 174.004 203.455C174.001 203.574 173.968 203.69 173.908 203.793L172.666 205.788L175.081 205.698C175.17 205.689 175.259 205.7 175.344 205.728C175.428 205.757 175.506 205.804 175.571 205.865C175.636 205.926 175.687 206.001 175.721 206.084C175.755 206.166 175.77 206.256 175.767 206.345C175.768 206.515 175.707 206.679 175.595 206.806C175.531 206.87 175.453 206.92 175.368 206.952C175.283 206.984 175.192 206.997 175.101 206.992L172.68 206.916L173.88 208.877C173.948 208.986 173.984 209.113 173.983 209.241C173.981 209.332 173.961 209.421 173.925 209.503C173.888 209.586 173.836 209.661 173.771 209.723C173.711 209.787 173.639 209.839 173.559 209.874C173.478 209.91 173.392 209.929 173.304 209.929C173.188 209.927 173.074 209.891 172.978 209.825C172.881 209.759 172.806 209.666 172.762 209.558L171.61 207.494L170.471 209.558C170.42 209.669 170.337 209.764 170.234 209.83C170.131 209.896 170.01 209.93 169.888 209.929Z" fill="#263238"/>
<path d="M181.015 209.929C180.835 209.929 180.662 209.857 180.535 209.73C180.405 209.603 180.331 209.43 180.329 209.248C180.327 209.125 180.36 209.003 180.425 208.897L181.66 206.916L179.259 206.992C179.167 206.996 179.076 206.982 178.99 206.95C178.904 206.918 178.825 206.869 178.758 206.806C178.646 206.68 178.584 206.517 178.584 206.348C178.584 206.18 178.646 206.017 178.758 205.891C178.824 205.827 178.903 205.777 178.989 205.743C179.075 205.71 179.167 205.695 179.259 205.698L181.632 205.788L180.418 203.813C180.352 203.706 180.316 203.582 180.315 203.455C180.317 203.365 180.337 203.276 180.374 203.193C180.41 203.111 180.463 203.036 180.528 202.974C180.656 202.847 180.828 202.775 181.008 202.774C181.125 202.775 181.239 202.809 181.338 202.872C181.436 202.936 181.514 203.026 181.564 203.132L182.73 205.258L183.889 203.146C183.944 203.033 184.029 202.938 184.134 202.87C184.239 202.802 184.361 202.764 184.486 202.761C184.573 202.76 184.659 202.778 184.738 202.814C184.817 202.85 184.888 202.902 184.946 202.967C185.009 203.031 185.059 203.107 185.094 203.191C185.128 203.275 185.145 203.365 185.145 203.455C185.142 203.574 185.109 203.69 185.049 203.793L183.807 205.788L186.222 205.698C186.31 205.689 186.4 205.7 186.484 205.728C186.569 205.757 186.646 205.804 186.711 205.865C186.776 205.926 186.827 206.001 186.861 206.084C186.895 206.166 186.911 206.256 186.908 206.345C186.909 206.515 186.848 206.679 186.736 206.806C186.671 206.87 186.594 206.92 186.509 206.952C186.424 206.984 186.333 206.997 186.242 206.992L183.821 206.916L185.021 208.877C185.089 208.986 185.124 209.113 185.124 209.241C185.125 209.332 185.106 209.422 185.069 209.505C185.033 209.588 184.979 209.663 184.911 209.723C184.852 209.787 184.779 209.839 184.699 209.874C184.619 209.91 184.532 209.929 184.445 209.929C184.328 209.927 184.215 209.891 184.118 209.825C184.022 209.759 183.947 209.666 183.903 209.558L182.75 207.494L181.612 209.558C181.559 209.672 181.475 209.767 181.369 209.834C181.263 209.9 181.14 209.933 181.015 209.929Z" fill="#263238"/>
<path d="M192.142 209.929C191.962 209.929 191.789 209.857 191.662 209.73C191.555 209.622 191.488 209.482 191.469 209.331C191.45 209.181 191.482 209.028 191.559 208.897L192.787 206.916L190.386 206.992C190.294 206.996 190.202 206.982 190.116 206.95C190.03 206.918 189.952 206.869 189.885 206.806C189.773 206.68 189.711 206.517 189.711 206.348C189.711 206.18 189.773 206.017 189.885 205.891C189.951 205.827 190.03 205.777 190.116 205.743C190.202 205.71 190.293 205.695 190.386 205.698L192.759 205.788L191.538 203.813C191.472 203.706 191.436 203.582 191.435 203.455C191.438 203.274 191.512 203.101 191.641 202.974C191.769 202.847 191.941 202.775 192.121 202.774C192.238 202.775 192.352 202.809 192.451 202.872C192.549 202.936 192.627 203.026 192.677 203.132L193.843 205.258L195.002 203.146C195.057 203.033 195.142 202.938 195.247 202.87C195.352 202.802 195.474 202.764 195.599 202.761C195.687 202.76 195.774 202.778 195.854 202.814C195.935 202.849 196.007 202.902 196.066 202.967C196.192 203.098 196.261 203.274 196.258 203.455C196.255 203.574 196.222 203.69 196.162 203.793L194.92 205.788L197.335 205.698C197.424 205.689 197.513 205.7 197.598 205.728C197.682 205.757 197.759 205.804 197.825 205.865C197.89 205.926 197.941 206.001 197.975 206.084C198.008 206.166 198.024 206.256 198.021 206.345C198.022 206.515 197.961 206.679 197.849 206.806C197.785 206.87 197.707 206.92 197.622 206.952C197.537 206.984 197.446 206.997 197.355 206.992L194.934 206.916L196.134 208.877C196.202 208.986 196.238 209.113 196.237 209.241C196.238 209.332 196.219 209.422 196.183 209.505C196.146 209.588 196.092 209.663 196.024 209.723C195.965 209.787 195.893 209.839 195.812 209.874C195.732 209.91 195.646 209.929 195.558 209.929C195.441 209.927 195.328 209.891 195.232 209.825C195.135 209.759 195.06 209.666 195.016 209.558L193.864 207.494L192.725 209.558C192.673 209.669 192.591 209.764 192.488 209.83C192.384 209.896 192.264 209.93 192.142 209.929Z" fill="#263238"/>
<path d="M203.269 209.929C203.091 209.927 202.921 209.855 202.795 209.73C202.728 209.669 202.674 209.595 202.637 209.512C202.601 209.429 202.582 209.339 202.583 209.248C202.585 209.124 202.62 209.003 202.686 208.897L203.913 206.916L201.512 206.992C201.424 206.998 201.335 206.987 201.252 206.957C201.168 206.927 201.092 206.881 201.027 206.82C200.963 206.759 200.912 206.685 200.877 206.604C200.843 206.522 200.825 206.434 200.826 206.345C200.826 206.261 200.842 206.177 200.874 206.099C200.906 206.022 200.953 205.951 201.012 205.891C201.075 205.824 201.152 205.773 201.237 205.739C201.323 205.706 201.414 205.692 201.506 205.698L203.879 205.788L202.658 203.813C202.592 203.706 202.556 203.582 202.555 203.455C202.558 203.274 202.632 203.101 202.761 202.974C202.889 202.847 203.061 202.775 203.241 202.774C203.358 202.775 203.472 202.809 203.571 202.872C203.669 202.936 203.747 203.026 203.797 203.132L204.963 205.258L206.129 203.146C206.184 203.034 206.267 202.939 206.371 202.871C206.475 202.804 206.595 202.765 206.719 202.761C206.807 202.76 206.894 202.778 206.974 202.814C207.055 202.849 207.127 202.902 207.186 202.967C207.312 203.098 207.381 203.274 207.378 203.455C207.377 203.574 207.347 203.69 207.289 203.793L206.047 205.788L208.455 205.698C208.546 205.692 208.638 205.706 208.723 205.739C208.809 205.773 208.886 205.824 208.949 205.891C209.066 206.013 209.13 206.176 209.127 206.345C209.127 206.516 209.063 206.68 208.949 206.806C208.884 206.87 208.807 206.92 208.722 206.952C208.636 206.984 208.546 206.997 208.455 206.992L206.033 206.916L207.234 208.877C207.301 208.986 207.337 209.113 207.337 209.241C207.334 209.423 207.26 209.596 207.131 209.723C207.006 209.851 206.836 209.925 206.657 209.929C206.541 209.927 206.427 209.891 206.331 209.825C206.235 209.759 206.16 209.666 206.116 209.558L204.963 207.494L203.824 209.558C203.775 209.665 203.697 209.757 203.599 209.822C203.501 209.888 203.386 209.925 203.269 209.929Z" fill="#263238"/>
<g style="mix-blend-mode:multiply">
<path d="M237.877 70.5475H116.442V78.1774H237.877V70.5475Z" fill="#EC8305"/>
</g>
<path d="M190.365 56.4917H163.954C163.477 56.4917 163.02 56.3018 162.683 55.9638C162.346 55.6257 162.157 55.1672 162.157 54.6892C162.157 54.2111 162.346 53.7526 162.683 53.4146C163.02 53.0765 163.477 52.8866 163.954 52.8866H190.365C190.842 52.8866 191.299 53.0765 191.636 53.4146C191.973 53.7526 192.162 54.2111 192.162 54.6892C192.162 55.1672 191.973 55.6257 191.636 55.9638C191.299 56.3018 190.842 56.4917 190.365 56.4917Z" fill="#EC8305" stroke="#263238" stroke-width="1.33739" stroke-linecap="round" stroke-linejoin="round"/>
<path d="M184.362 278.461C184.364 277.032 183.942 275.634 183.151 274.445C182.36 273.256 181.236 272.329 179.919 271.781C178.603 271.234 177.154 271.09 175.756 271.369C174.358 271.647 173.074 272.335 172.066 273.346C171.058 274.357 170.372 275.645 170.095 277.047C169.817 278.449 169.96 279.902 170.506 281.222C171.052 282.542 171.976 283.67 173.162 284.464C174.348 285.257 175.741 285.68 177.166 285.678C179.074 285.676 180.904 284.915 182.253 283.562C183.602 282.209 184.361 280.375 184.362 278.461Z" fill="#EC8305"/>
<path d="M180.816 274.801H173.517V282.121H180.816V274.801Z" fill="#EC8305" stroke="#263238" stroke-width="1.33739" stroke-linecap="round" stroke-linejoin="round"/>
<path d="M264.11 195.392C264.11 195.392 254.547 171.023 263.06 168.127C271.924 165.106 271.533 181.199 271.19 189.042C270.469 205.801 268.624 208.918 267.245 204.825L264.11 195.392ZM261.236 214.401C263.863 217.841 264.604 214.278 259.864 198.185C257.641 190.617 252.812 175.309 245.403 181.054C238.289 186.558 255.219 206.51 255.219 206.51L261.236 214.401ZM256.159 228.368C258.663 230.597 258.711 227.783 252.764 216.163C249.972 210.721 244.065 199.706 239.229 205.155C234.585 210.411 250.411 223.187 250.411 223.187L256.159 228.368ZM250.671 244.976C253.175 247.212 253.223 244.391 247.276 232.778C244.484 227.336 238.577 216.314 233.741 221.77C229.124 227.04 244.902 239.816 244.902 239.816L250.671 244.976ZM266.518 211.168C262.512 212.737 265.695 214.443 282.426 214.395C290.274 214.395 306.299 214.037 302.883 205.292C299.611 196.892 275.779 207.59 275.779 207.59L266.518 211.168ZM261.956 222.341C257.716 223.077 260.502 225.389 276.911 228.677C284.601 230.225 300.372 233.081 298.76 223.861C297.216 214.973 271.738 220.71 271.738 220.71L261.956 222.341ZM256.852 235.984C253.244 236.507 255.549 238.523 269.344 241.688C275.813 243.174 289.087 245.96 287.935 238.096C286.837 230.528 265.16 234.808 265.16 234.808L256.852 235.984ZM252.976 248.623C249.443 249.524 251.947 251.285 266.01 252.964C272.596 253.748 286.089 255.11 284.121 247.412C282.22 240.023 261.119 246.565 261.119 246.565L252.976 248.623ZM273.652 197.456C271.594 202.079 275.868 201.378 290.398 188.663C297.203 182.698 310.854 170.218 300.043 164.005C289.664 158.034 278.502 186.847 278.502 186.847L273.652 197.456ZM253.511 265.086C251.337 266.359 253.47 266.855 263.445 264.859C268.123 263.931 277.638 261.867 274.421 257.794C271.306 253.872 258.547 262.128 258.547 262.128L253.511 265.086Z" fill="#EC8305"/>
<path opacity="0.3" d="M264.11 195.392C264.11 195.392 254.547 171.023 263.06 168.127C271.924 165.106 271.533 181.199 271.19 189.042C270.469 205.801 268.624 208.918 267.245 204.825L264.11 195.392ZM261.236 214.401C263.863 217.841 264.604 214.278 259.864 198.185C257.641 190.617 252.812 175.309 245.403 181.054C238.289 186.558 255.219 206.51 255.219 206.51L261.236 214.401ZM256.159 228.368C258.663 230.597 258.711 227.783 252.764 216.163C249.972 210.721 244.065 199.706 239.229 205.155C234.585 210.411 250.411 223.187 250.411 223.187L256.159 228.368ZM250.671 244.976C253.175 247.212 253.223 244.391 247.276 232.778C244.484 227.336 238.577 216.314 233.741 221.77C229.124 227.04 244.902 239.816 244.902 239.816L250.671 244.976ZM266.518 211.168C262.512 212.737 265.695 214.443 282.426 214.395C290.274 214.395 306.299 214.037 302.883 205.292C299.611 196.892 275.779 207.59 275.779 207.59L266.518 211.168ZM261.956 222.341C257.716 223.077 260.502 225.389 276.911 228.677C284.601 230.225 300.372 233.081 298.76 223.861C297.216 214.973 271.738 220.71 271.738 220.71L261.956 222.341ZM256.852 235.984C253.244 236.507 255.549 238.523 269.344 241.688C275.813 243.174 289.087 245.96 287.935 238.096C286.837 230.528 265.16 234.808 265.16 234.808L256.852 235.984ZM252.976 248.623C249.443 249.524 251.947 251.285 266.01 252.964C272.596 253.748 286.089 255.11 284.121 247.412C282.22 240.023 261.119 246.565 261.119 246.565L252.976 248.623ZM273.652 197.456C271.594 202.079 275.868 201.378 290.398 188.663C297.203 182.698 310.854 170.218 300.043 164.005C289.664 158.034 278.502 186.847 278.502 186.847L273.652 197.456ZM253.511 265.086C251.337 266.359 253.47 266.855 263.445 264.859C268.123 263.931 277.638 261.867 274.421 257.794C271.306 253.872 258.547 262.128 258.547 262.128L253.511 265.086Z" fill="white"/>
<path d="M268.329 206.737L266.662 178.921ZM263.054 215.915L252.517 191.993ZM290.247 208.959L264.995 212.592ZM257.593 228.808L243.921 211.216ZM259.994 223.414L278.832 224.364ZM255.535 236.906L269.941 238.337ZM252.057 245.478L244.902 234.684ZM251.234 249.29L268.171 249.448ZM247.804 281.158C247.917 281.149 248.023 281.096 248.097 281.01C248.172 280.923 248.209 280.811 248.202 280.697C247.125 264.474 253.381 237.904 263.417 216.094C269.831 202.155 294.973 174.759 295.241 174.484C295.322 174.402 295.367 174.292 295.367 174.178C295.367 174.063 295.322 173.953 295.241 173.871C295.201 173.831 295.154 173.8 295.102 173.778C295.051 173.756 294.995 173.745 294.939 173.745C294.883 173.745 294.827 173.756 294.775 173.778C294.724 173.8 294.677 173.831 294.637 173.871C294.383 174.147 269.138 201.646 262.669 215.709C252.448 238.048 246.274 264.137 247.372 280.752C247.38 280.862 247.429 280.964 247.509 281.039C247.589 281.114 247.694 281.157 247.804 281.158ZM268.322 207.164C268.436 207.157 268.542 207.105 268.617 207.02C268.693 206.935 268.732 206.824 268.727 206.71L267.087 178.88C267.085 178.823 267.071 178.768 267.047 178.717C267.022 178.665 266.988 178.62 266.946 178.582C266.904 178.544 266.854 178.515 266.801 178.496C266.748 178.478 266.691 178.47 266.634 178.474C266.521 178.481 266.415 178.533 266.339 178.618C266.263 178.703 266.224 178.814 266.23 178.928L267.897 206.744C267.902 206.854 267.949 206.957 268.028 207.032C268.108 207.108 268.213 207.15 268.322 207.15V207.164ZM263.204 216.307C263.307 216.261 263.388 216.175 263.429 216.07C263.47 215.965 263.468 215.847 263.424 215.743L252.88 191.821C252.835 191.717 252.75 191.636 252.644 191.594C252.539 191.553 252.421 191.556 252.318 191.601C252.214 191.647 252.133 191.732 252.091 191.838C252.05 191.943 252.053 192.061 252.098 192.165L262.635 216.087C262.668 216.164 262.723 216.229 262.792 216.276C262.861 216.322 262.943 216.347 263.026 216.349C263.097 216.352 263.168 216.338 263.232 216.307H263.204ZM265.029 213.005L290.267 209.386C290.328 209.385 290.388 209.371 290.443 209.344C290.498 209.318 290.547 209.281 290.587 209.234C290.626 209.188 290.656 209.133 290.673 209.075C290.69 209.016 290.695 208.954 290.686 208.894C290.678 208.833 290.657 208.775 290.625 208.723C290.593 208.671 290.55 208.627 290.499 208.593C290.449 208.559 290.391 208.536 290.331 208.525C290.271 208.515 290.21 208.518 290.151 208.533L264.913 212.152C264.8 212.159 264.695 212.211 264.62 212.296C264.545 212.381 264.507 212.493 264.515 212.606C264.522 212.719 264.574 212.825 264.659 212.899C264.744 212.974 264.855 213.012 264.968 213.005H265.029ZM257.833 229.152C257.923 229.082 257.981 228.978 257.995 228.865C258.009 228.752 257.978 228.637 257.909 228.547L244.23 210.92C244.16 210.829 244.056 210.769 243.943 210.755C243.829 210.74 243.714 210.771 243.623 210.841C243.532 210.911 243.472 211.015 243.457 211.129C243.443 211.243 243.474 211.359 243.544 211.45L257.25 229.104C257.29 229.155 257.341 229.197 257.399 229.226C257.457 229.254 257.521 229.269 257.586 229.269C257.689 229.264 257.786 229.223 257.861 229.152H257.833ZM279.209 224.384C279.213 224.271 279.172 224.16 279.094 224.076C279.017 223.992 278.911 223.943 278.797 223.937L259.994 222.981C259.888 222.988 259.789 223.034 259.715 223.11C259.641 223.186 259.597 223.286 259.592 223.392C259.587 223.499 259.621 223.603 259.687 223.686C259.754 223.768 259.848 223.823 259.953 223.841L278.79 224.797C278.904 224.801 279.014 224.76 279.098 224.682C279.181 224.605 279.231 224.498 279.236 224.384H279.209ZM270.339 238.378C270.346 238.322 270.341 238.264 270.325 238.21C270.309 238.155 270.283 238.104 270.247 238.06C270.211 238.015 270.167 237.979 270.116 237.952C270.066 237.925 270.011 237.909 269.955 237.904L255.549 236.479C255.493 236.474 255.436 236.479 255.383 236.496C255.329 236.512 255.279 236.539 255.235 236.575C255.192 236.61 255.156 236.654 255.13 236.704C255.104 236.754 255.087 236.809 255.082 236.865C255.073 236.978 255.107 237.09 255.179 237.177C255.251 237.265 255.354 237.32 255.466 237.333L269.872 238.764H269.914C270.024 238.771 270.134 238.735 270.218 238.663C270.303 238.591 270.356 238.489 270.366 238.378H270.339ZM252.263 245.836C252.358 245.773 252.425 245.675 252.448 245.562C252.471 245.45 252.449 245.334 252.386 245.238L245.266 234.443C245.2 234.35 245.102 234.286 244.991 234.264C244.879 234.242 244.764 234.264 244.669 234.326C244.574 234.389 244.507 234.488 244.484 234.6C244.461 234.712 244.483 234.829 244.545 234.925L251.666 245.719C251.707 245.778 251.761 245.827 251.824 245.86C251.888 245.894 251.958 245.911 252.03 245.912C252.122 245.917 252.214 245.89 252.29 245.836H252.263ZM268.603 249.448C268.602 249.335 268.556 249.227 268.477 249.146C268.398 249.065 268.291 249.018 268.178 249.015L251.241 248.857C251.128 248.857 251.02 248.901 250.94 248.981C250.86 249.061 250.815 249.17 250.815 249.283C250.813 249.34 250.823 249.397 250.844 249.45C250.864 249.503 250.896 249.551 250.935 249.591C250.975 249.632 251.023 249.664 251.075 249.685C251.128 249.707 251.184 249.717 251.241 249.717L268.178 249.875C268.236 249.878 268.294 249.869 268.348 249.849C268.402 249.828 268.452 249.798 268.495 249.758C268.537 249.718 268.571 249.67 268.594 249.617C268.617 249.564 268.63 249.506 268.631 249.448H268.603ZM245.876 274.849C245.91 274.773 248.798 266.793 257.483 264.887C257.595 264.862 257.693 264.794 257.754 264.697C257.816 264.601 257.837 264.483 257.813 264.371C257.785 264.261 257.716 264.166 257.62 264.106C257.524 264.045 257.409 264.025 257.298 264.048C248.14 266.057 245.101 274.485 245.067 274.567C245.031 274.676 245.039 274.794 245.089 274.897C245.139 274.999 245.227 275.078 245.334 275.117H245.471C245.563 275.125 245.654 275.104 245.732 275.055C245.81 275.007 245.87 274.935 245.904 274.849H245.876ZM247.804 281.158C247.917 281.149 248.023 281.096 248.097 281.01C248.172 280.923 248.209 280.811 248.202 280.697C247.125 264.474 253.381 237.904 263.417 216.094C269.831 202.155 294.973 174.759 295.241 174.484C295.322 174.402 295.367 174.292 295.367 174.178C295.367 174.063 295.322 173.953 295.241 173.871C295.201 173.831 295.154 173.8 295.102 173.778C295.051 173.756 294.995 173.745 294.939 173.745C294.883 173.745 294.827 173.756 294.775 173.778C294.724 173.8 294.677 173.831 294.637 173.871C294.383 174.147 269.138 201.646 262.669 215.709C252.448 238.048 246.274 264.137 247.372 280.752C247.38 280.862 247.429 280.964 247.509 281.039C247.589 281.114 247.694 281.157 247.804 281.158ZM268.322 207.164C268.436 207.157 268.542 207.105 268.617 207.02C268.693 206.935 268.732 206.824 268.727 206.71L267.087 178.88C267.085 178.823 267.071 178.768 267.047 178.717C267.022 178.665 266.988 178.62 266.946 178.582C266.904 178.544 266.854 178.515 266.801 178.496C266.748 178.478 266.691 178.47 266.634 178.474C266.521 178.481 266.415 178.533 266.339 178.618C266.263 178.703 266.224 178.814 266.23 178.928L267.897 206.744C267.902 206.854 267.949 206.957 268.028 207.032C268.108 207.108 268.213 207.15 268.322 207.15V207.164ZM263.204 216.307C263.307 216.261 263.388 216.175 263.429 216.07C263.47 215.965 263.468 215.847 263.424 215.743L252.88 191.821C252.835 191.717 252.75 191.636 252.644 191.594C252.539 191.553 252.421 191.556 252.318 191.601C252.214 191.647 252.133 191.732 252.091 191.838C252.05 191.943 252.053 192.061 252.098 192.165L262.635 216.087C262.668 216.164 262.723 216.229 262.792 216.276C262.861 216.322 262.943 216.347 263.026 216.349C263.097 216.352 263.168 216.338 263.232 216.307H263.204ZM265.029 213.005L290.267 209.386C290.328 209.385 290.388 209.371 290.443 209.344C290.498 209.318 290.547 209.281 290.587 209.234C290.626 209.188 290.656 209.133 290.673 209.075C290.69 209.016 290.695 208.954 290.686 208.894C290.678 208.833 290.657 208.775 290.625 208.723C290.593 208.671 290.55 208.627 290.499 208.593C290.449 208.559 290.391 208.536 290.331 208.525C290.271 208.515 290.21 208.518 290.151 208.533L264.913 212.152C264.8 212.159 264.695 212.211 264.62 212.296C264.545 212.381 264.507 212.493 264.515 212.606C264.522 212.719 264.574 212.825 264.659 212.899C264.744 212.974 264.855 213.012 264.968 213.005H265.029ZM257.833 229.152C257.923 229.082 257.981 228.978 257.995 228.865C258.009 228.752 257.978 228.637 257.909 228.547L244.23 210.92C244.195 210.875 244.152 210.837 244.103 210.809C244.053 210.78 243.999 210.762 243.943 210.755C243.886 210.747 243.829 210.751 243.774 210.766C243.719 210.781 243.668 210.806 243.623 210.841C243.578 210.876 243.54 210.919 243.511 210.969C243.483 211.018 243.465 211.073 243.457 211.129C243.45 211.186 243.454 211.243 243.469 211.298C243.484 211.353 243.509 211.405 243.544 211.45L257.25 229.104C257.29 229.155 257.341 229.197 257.399 229.226C257.457 229.254 257.521 229.269 257.586 229.269C257.689 229.264 257.786 229.223 257.861 229.152H257.833ZM279.209 224.384C279.213 224.271 279.172 224.16 279.094 224.076C279.017 223.992 278.911 223.943 278.797 223.937L259.994 222.981C259.888 222.988 259.789 223.034 259.715 223.11C259.641 223.186 259.597 223.286 259.592 223.392C259.587 223.499 259.621 223.603 259.687 223.686C259.754 223.768 259.848 223.823 259.953 223.841L278.79 224.797C278.904 224.801 279.014 224.76 279.098 224.682C279.181 224.605 279.231 224.498 279.236 224.384H279.209ZM270.339 238.378C270.346 238.322 270.341 238.264 270.325 238.21C270.309 238.155 270.283 238.104 270.247 238.06C270.211 238.015 270.167 237.979 270.116 237.952C270.066 237.925 270.011 237.909 269.955 237.904L255.549 236.479C255.493 236.474 255.436 236.479 255.383 236.496C255.329 236.512 255.279 236.539 255.235 236.575C255.192 236.61 255.156 236.654 255.13 236.704C255.104 236.754 255.087 236.809 255.082 236.865C255.073 236.978 255.107 237.09 255.179 237.177C255.251 237.265 255.354 237.32 255.466 237.333L269.872 238.764H269.914C270.024 238.771 270.134 238.735 270.218 238.663C270.303 238.591 270.356 238.489 270.366 238.378H270.339ZM252.263 245.836C252.358 245.773 252.425 245.675 252.448 245.562C252.471 245.45 252.449 245.334 252.386 245.238L245.266 234.443C245.2 234.35 245.102 234.286 244.991 234.264C244.879 234.242 244.764 234.264 244.669 234.326C244.574 234.389 244.507 234.488 244.484 234.6C244.461 234.712 244.483 234.829 244.545 234.925L251.666 245.719C251.707 245.778 251.761 245.827 251.824 245.86C251.888 245.894 251.958 245.911 252.03 245.912C252.122 245.917 252.214 245.89 252.29 245.836H252.263ZM268.603 249.448C268.602 249.335 268.556 249.227 268.477 249.146C268.398 249.065 268.291 249.018 268.178 249.015L251.241 248.857C251.128 248.857 251.02 248.901 250.94 248.981C250.86 249.061 250.815 249.17 250.815 249.283C250.813 249.34 250.823 249.397 250.844 249.45C250.864 249.503 250.896 249.551 250.935 249.591C250.975 249.632 251.023 249.664 251.075 249.685C251.128 249.707 251.184 249.717 251.241 249.717L268.178 249.875C268.236 249.878 268.294 249.869 268.348 249.849C268.402 249.828 268.452 249.798 268.495 249.758C268.537 249.718 268.571 249.67 268.594 249.617C268.617 249.564 268.63 249.506 268.631 249.448H268.603ZM245.876 274.849C245.91 274.773 248.798 266.793 257.483 264.887C257.595 264.862 257.693 264.794 257.754 264.697C257.816 264.601 257.837 264.483 257.813 264.371C257.785 264.261 257.716 264.166 257.62 264.106C257.524 264.045 257.409 264.025 257.298 264.048C248.14 266.057 245.101 274.485 245.067 274.567C245.031 274.676 245.039 274.794 245.089 274.897C245.139 274.999 245.227 275.078 245.334 275.117H245.471C245.563 275.125 245.654 275.104 245.732 275.055C245.81 275.007 245.87 274.935 245.904 274.849H245.876Z" fill="#EC8305"/>
<path opacity="0.2" d="M268.329 206.737L266.662 178.921ZM263.054 215.915L252.517 191.993ZM290.247 208.959L264.995 212.592ZM257.593 228.808L243.921 211.216ZM259.994 223.414L278.832 224.364ZM255.535 236.906L269.941 238.337ZM252.057 245.478L244.902 234.684ZM251.234 249.29L268.171 249.448ZM247.804 281.158C247.917 281.149 248.023 281.096 248.097 281.01C248.172 280.923 248.209 280.811 248.202 280.697C247.125 264.474 253.381 237.904 263.417 216.094C269.831 202.155 294.973 174.759 295.241 174.484C295.322 174.402 295.367 174.292 295.367 174.178C295.367 174.063 295.322 173.953 295.241 173.871C295.201 173.831 295.154 173.8 295.102 173.778C295.051 173.756 294.995 173.745 294.939 173.745C294.883 173.745 294.827 173.756 294.775 173.778C294.724 173.8 294.677 173.831 294.637 173.871C294.383 174.147 269.138 201.646 262.669 215.709C252.448 238.048 246.274 264.137 247.372 280.752C247.38 280.862 247.429 280.964 247.509 281.039C247.589 281.114 247.694 281.157 247.804 281.158ZM268.322 207.164C268.436 207.157 268.542 207.105 268.617 207.02C268.693 206.935 268.732 206.824 268.727 206.71L267.087 178.88C267.085 178.823 267.071 178.768 267.047 178.717C267.022 178.665 266.988 178.62 266.946 178.582C266.904 178.544 266.854 178.515 266.801 178.496C266.748 178.478 266.691 178.47 266.634 178.474C266.521 178.481 266.415 178.533 266.339 178.618C266.263 178.703 266.224 178.814 266.23 178.928L267.897 206.744C267.902 206.854 267.949 206.957 268.028 207.032C268.108 207.108 268.213 207.15 268.322 207.15V207.164ZM263.204 216.307C263.307 216.261 263.388 216.175 263.429 216.07C263.47 215.965 263.468 215.847 263.424 215.743L252.88 191.821C252.835 191.717 252.75 191.636 252.644 191.594C252.539 191.553 252.421 191.556 252.318 191.601C252.214 191.647 252.133 191.732 252.091 191.838C252.05 191.943 252.053 192.061 252.098 192.165L262.635 216.087C262.668 216.164 262.723 216.229 262.792 216.276C262.861 216.322 262.943 216.347 263.026 216.349C263.097 216.352 263.168 216.338 263.232 216.307H263.204ZM265.029 213.005L290.267 209.386C290.328 209.385 290.388 209.371 290.443 209.344C290.498 209.318 290.547 209.281 290.587 209.234C290.626 209.188 290.656 209.133 290.673 209.075C290.69 209.016 290.695 208.954 290.686 208.894C290.678 208.833 290.657 208.775 290.625 208.723C290.593 208.671 290.55 208.627 290.499 208.593C290.449 208.559 290.391 208.536 290.331 208.525C290.271 208.515 290.21 208.518 290.151 208.533L264.913 212.152C264.8 212.159 264.695 212.211 264.62 212.296C264.545 212.381 264.507 212.493 264.515 212.606C264.522 212.719 264.574 212.825 264.659 212.899C264.744 212.974 264.855 213.012 264.968 213.005H265.029ZM257.833 229.152C257.923 229.082 257.981 228.978 257.995 228.865C258.009 228.752 257.978 228.637 257.909 228.547L244.23 210.92C244.16 210.829 244.056 210.769 243.943 210.755C243.829 210.74 243.714 210.771 243.623 210.841C243.532 210.911 243.472 211.015 243.457 211.129C243.443 211.243 243.474 211.359 243.544 211.45L257.25 229.104C257.29 229.155 257.341 229.197 257.399 229.226C257.457 229.254 257.521 229.269 257.586 229.269C257.689 229.264 257.786 229.223 257.861 229.152H257.833ZM279.209 224.384C279.213 224.271 279.172 224.16 279.094 224.076C279.017 223.992 278.911 223.943 278.797 223.937L259.994 222.981C259.888 222.988 259.789 223.034 259.715 223.11C259.641 223.186 259.597 223.286 259.592 223.392C259.587 223.499 259.621 223.603 259.687 223.686C259.754 223.768 259.848 223.823 259.953 223.841L278.79 224.797C278.904 224.801 279.014 224.76 279.098 224.682C279.181 224.605 279.231 224.498 279.236 224.384H279.209ZM270.339 238.378C270.346 238.322 270.341 238.264 270.325 238.21C270.309 238.155 270.283 238.104 270.247 238.06C270.211 238.015 270.167 237.979 270.116 237.952C270.066 237.925 270.011 237.909 269.955 237.904L255.549 236.479C255.493 236.474 255.436 236.479 255.383 236.496C255.329 236.512 255.279 236.539 255.235 236.575C255.192 236.61 255.156 236.654 255.13 236.704C255.104 236.754 255.087 236.809 255.082 236.865C255.073 236.978 255.107 237.09 255.179 237.177C255.251 237.265 255.354 237.32 255.466 237.333L269.872 238.764H269.914C270.024 238.771 270.134 238.735 270.218 238.663C270.303 238.591 270.356 238.489 270.366 238.378H270.339ZM252.263 245.836C252.358 245.773 252.425 245.675 252.448 245.562C252.471 245.45 252.449 245.334 252.386 245.238L245.266 234.443C245.2 234.35 245.102 234.286 244.991 234.264C244.879 234.242 244.764 234.264 244.669 234.326C244.574 234.389 244.507 234.488 244.484 234.6C244.461 234.712 244.483 234.829 244.545 234.925L251.666 245.719C251.707 245.778 251.761 245.827 251.824 245.86C251.888 245.894 251.958 245.911 252.03 245.912C252.122 245.917 252.214 245.89 252.29 245.836H252.263ZM268.603 249.448C268.602 249.335 268.556 249.227 268.477 249.146C268.398 249.065 268.291 249.018 268.178 249.015L251.241 248.857C251.128 248.857 251.02 248.901 250.94 248.981C250.86 249.061 250.815 249.17 250.815 249.283C250.813 249.34 250.823 249.397 250.844 249.45C250.864 249.503 250.896 249.551 250.935 249.591C250.975 249.632 251.023 249.664 251.075 249.685C251.128 249.707 251.184 249.717 251.241 249.717L268.178 249.875C268.236 249.878 268.294 249.869 268.348 249.849C268.402 249.828 268.452 249.798 268.495 249.758C268.537 249.718 268.571 249.67 268.594 249.617C268.617 249.564 268.63 249.506 268.631 249.448H268.603ZM245.876 274.849C245.91 274.773 248.798 266.793 257.483 264.887C257.595 264.862 257.693 264.794 257.754 264.697C257.816 264.601 257.837 264.483 257.813 264.371C257.785 264.261 257.716 264.166 257.62 264.106C257.524 264.045 257.409 264.025 257.298 264.048C248.14 266.057 245.101 274.485 245.067 274.567C245.031 274.676 245.039 274.794 245.089 274.897C245.139 274.999 245.227 275.078 245.334 275.117H245.471C245.563 275.125 245.654 275.104 245.732 275.055C245.81 275.007 245.87 274.935 245.904 274.849H245.876ZM247.804 281.158C247.917 281.149 248.023 281.096 248.097 281.01C248.172 280.923 248.209 280.811 248.202 280.697C247.125 264.474 253.381 237.904 263.417 216.094C269.831 202.155 294.973 174.759 295.241 174.484C295.322 174.402 295.367 174.292 295.367 174.178C295.367 174.063 295.322 173.953 295.241 173.871C295.201 173.831 295.154 173.8 295.102 173.778C295.051 173.756 294.995 173.745 294.939 173.745C294.883 173.745 294.827 173.756 294.775 173.778C294.724 173.8 294.677 173.831 294.637 173.871C294.383 174.147 269.138 201.646 262.669 215.709C252.448 238.048 246.274 264.137 247.372 280.752C247.38 280.862 247.429 280.964 247.509 281.039C247.589 281.114 247.694 281.157 247.804 281.158ZM268.322 207.164C268.436 207.157 268.542 207.105 268.617 207.02C268.693 206.935 268.732 206.824 268.727 206.71L267.087 178.88C267.085 178.823 267.071 178.768 267.047 178.717C267.022 178.665 266.988 178.62 266.946 178.582C266.904 178.544 266.854 178.515 266.801 178.496C266.748 178.478 266.691 178.47 266.634 178.474C266.521 178.481 266.415 178.533 266.339 178.618C266.263 178.703 266.224 178.814 266.23 178.928L267.897 206.744C267.902 206.854 267.949 206.957 268.028 207.032C268.108 207.108 268.213 207.15 268.322 207.15V207.164ZM263.204 216.307C263.307 216.261 263.388 216.175 263.429 216.07C263.47 215.965 263.468 215.847 263.424 215.743L252.88 191.821C252.835 191.717 252.75 191.636 252.644 191.594C252.539 191.553 252.421 191.556 252.318 191.601C252.214 191.647 252.133 191.732 252.091 191.838C252.05 191.943 252.053 192.061 252.098 192.165L262.635 216.087C262.668 216.164 262.723 216.229 262.792 216.276C262.861 216.322 262.943 216.347 263.026 216.349C263.097 216.352 263.168 216.338 263.232 216.307H263.204ZM265.029 213.005L290.267 209.386C290.328 209.385 290.388 209.371 290.443 209.344C290.498 209.318 290.547 209.281 290.587 209.234C290.626 209.188 290.656 209.133 290.673 209.075C290.69 209.016 290.695 208.954 290.686 208.894C290.678 208.833 290.657 208.775 290.625 208.723C290.593 208.671 290.55 208.627 290.499 208.593C290.449 208.559 290.391 208.536 290.331 208.525C290.271 208.515 290.21 208.518 290.151 208.533L264.913 212.152C264.8 212.159 264.695 212.211 264.62 212.296C264.545 212.381 264.507 212.493 264.515 212.606C264.522 212.719 264.574 212.825 264.659 212.899C264.744 212.974 264.855 213.012 264.968 213.005H265.029ZM257.833 229.152C257.923 229.082 257.981 228.978 257.995 228.865C258.009 228.752 257.978 228.637 257.909 228.547L244.23 210.92C244.195 210.875 244.152 210.837 244.103 210.809C244.053 210.78 243.999 210.762 243.943 210.755C243.886 210.747 243.829 210.751 243.774 210.766C243.719 210.781 243.668 210.806 243.623 210.841C243.578 210.876 243.54 210.919 243.511 210.969C243.483 211.018 243.465 211.073 243.457 211.129C243.45 211.186 243.454 211.243 243.469 211.298C243.484 211.353 243.509 211.405 243.544 211.45L257.25 229.104C257.29 229.155 257.341 229.197 257.399 229.226C257.457 229.254 257.521 229.269 257.586 229.269C257.689 229.264 257.786 229.223 257.861 229.152H257.833ZM279.209 224.384C279.213 224.271 279.172 224.16 279.094 224.076C279.017 223.992 278.911 223.943 278.797 223.937L259.994 222.981C259.888 222.988 259.789 223.034 259.715 223.11C259.641 223.186 259.597 223.286 259.592 223.392C259.587 223.499 259.621 223.603 259.687 223.686C259.754 223.768 259.848 223.823 259.953 223.841L278.79 224.797C278.904 224.801 279.014 224.76 279.098 224.682C279.181 224.605 279.231 224.498 279.236 224.384H279.209ZM270.339 238.378C270.346 238.322 270.341 238.264 270.325 238.21C270.309 238.155 270.283 238.104 270.247 238.06C270.211 238.015 270.167 237.979 270.116 237.952C270.066 237.925 270.011 237.909 269.955 237.904L255.549 236.479C255.493 236.474 255.436 236.479 255.383 236.496C255.329 236.512 255.279 236.539 255.235 236.575C255.192 236.61 255.156 236.654 255.13 236.704C255.104 236.754 255.087 236.809 255.082 236.865C255.073 236.978 255.107 237.09 255.179 237.177C255.251 237.265 255.354 237.32 255.466 237.333L269.872 238.764H269.914C270.024 238.771 270.134 238.735 270.218 238.663C270.303 238.591 270.356 238.489 270.366 238.378H270.339ZM252.263 245.836C252.358 245.773 252.425 245.675 252.448 245.562C252.471 245.45 252.449 245.334 252.386 245.238L245.266 234.443C245.2 234.35 245.102 234.286 244.991 234.264C244.879 234.242 244.764 234.264 244.669 234.326C244.574 234.389 244.507 234.488 244.484 234.6C244.461 234.712 244.483 234.829 244.545 234.925L251.666 245.719C251.707 245.778 251.761 245.827 251.824 245.86C251.888 245.894 251.958 245.911 252.03 245.912C252.122 245.917 252.214 245.89 252.29 245.836H252.263ZM268.603 249.448C268.602 249.335 268.556 249.227 268.477 249.146C268.398 249.065 268.291 249.018 268.178 249.015L251.241 248.857C251.128 248.857 251.02 248.901 250.94 248.981C250.86 249.061 250.815 249.17 250.815 249.283C250.813 249.34 250.823 249.397 250.844 249.45C250.864 249.503 250.896 249.551 250.935 249.591C250.975 249.632 251.023 249.664 251.075 249.685C251.128 249.707 251.184 249.717 251.241 249.717L268.178 249.875C268.236 249.878 268.294 249.869 268.348 249.849C268.402 249.828 268.452 249.798 268.495 249.758C268.537 249.718 268.571 249.67 268.594 249.617C268.617 249.564 268.63 249.506 268.631 249.448H268.603ZM245.876 274.849C245.91 274.773 248.798 266.793 257.483 264.887C257.595 264.862 257.693 264.794 257.754 264.697C257.816 264.601 257.837 264.483 257.813 264.371C257.785 264.261 257.716 264.166 257.62 264.106C257.524 264.045 257.409 264.025 257.298 264.048C248.14 266.057 245.101 274.485 245.067 274.567C245.031 274.676 245.039 274.794 245.089 274.897C245.139 274.999 245.227 275.078 245.334 275.117H245.471C245.563 275.125 245.654 275.104 245.732 275.055C245.81 275.007 245.87 274.935 245.904 274.849H245.876Z" fill="black"/>
<path d="M259.006 269.029H239.586V273.06H241.28L244.785 295.056H253.806L257.312 273.06H259.006V269.029Z" fill="#EC8305"/>
<path opacity="0.3" d="M259.006 269.029H239.586V273.06H241.28L244.785 295.056H253.806L257.312 273.06H259.006V269.029Z" fill="white"/>
<path d="M84.1585 147.115L61.5685 139.719L59.5585 134.394L54.9692 134.249L46.6411 132.667L47.6427 134.394L58.1248 142.024L60.711 143.317L84.3368 155.694L84.1585 147.115Z" fill="white" stroke="#263238" stroke-width="1.00396" stroke-miterlimit="10"/>
<path d="M59.5585 134.394L57.4045 133.1L53.1033 134.683L53.8167 135.543L59.5585 134.394Z" fill="white" stroke="#263238" stroke-width="1.00396" stroke-linejoin="round"/>
<path d="M84.1585 147.115L61.5685 139.719L59.5585 134.394L54.9692 134.249L46.6411 132.667L47.6427 134.394L58.1248 142.024L60.711 143.317L84.3368 155.694L84.1585 147.115Z" fill="white"/>
<mask id="mask0_397_3780" style="mask-type:luminance" maskUnits="userSpaceOnUse" x="46" y="132" width="39" height="24">
<path d="M84.1585 147.115L61.5685 139.719L59.5585 134.394L54.9692 134.249L46.6411 132.667L47.6427 134.394L58.1248 142.024L60.711 143.317L84.3368 155.694L84.1585 147.115Z" fill="white"/>
</mask>
<g mask="url(#mask0_397_3780)">
<path opacity="0.5" d="M84.1585 147.115L61.5685 139.719L59.5585 134.394L54.9692 134.249L46.6411 132.667L47.6427 134.394L58.1248 142.024L60.711 143.317L84.3368 155.694L84.1585 147.115Z" fill="#EC8305" stroke="#263238" stroke-width="1.00396" stroke-miterlimit="10"/>
</g>
<path d="M84.1585 147.115L61.5685 139.719L59.5585 134.394L54.9692 134.249L46.6411 132.667L47.6427 134.394L58.1248 142.024L60.711 143.317L84.3368 155.694L84.1585 147.115Z" stroke="#263238" stroke-width="1.00396" stroke-miterlimit="10"/>
<path d="M59.5585 134.394L57.4045 133.1L53.1033 134.683L53.8167 135.543L59.5585 134.394Z" fill="white"/>
<mask id="mask1_397_3780" style="mask-type:luminance" maskUnits="userSpaceOnUse" x="53" y="133" width="7" height="3">
<path d="M59.5585 134.394L57.4045 133.1L53.1033 134.683L53.8167 135.543L59.5585 134.394Z" fill="white"/>
</mask>
<g mask="url(#mask1_397_3780)">
<path opacity="0.5" d="M59.5585 134.394L57.4045 133.1L53.1033 134.683L53.8167 135.543L59.5585 134.394Z" fill="#EC8305" stroke="#263238" stroke-width="1.00396" stroke-linejoin="round"/>
</g>
<path d="M59.5585 134.394L57.4045 133.1L53.1033 134.683L53.8167 135.543L59.5585 134.394Z" stroke="#263238" stroke-width="1.00396" stroke-linejoin="round"/>
<path d="M88.9536 99.1132C88.9536 99.1132 88.6038 102.209 89.475 104.198C90.3462 106.186 95.1825 112.921 95.1825 112.921L86.1547 120.18C86.1547 120.18 82.4092 112.612 81.6957 111.387C80.9823 110.162 80.1248 104.892 82.4503 101.115C84.7759 97.3382 88.1236 96.3199 88.9536 99.1132Z" fill="white"/>
<mask id="mask2_397_3780" style="mask-type:luminance" maskUnits="userSpaceOnUse" x="80" y="97" width="16" height="24">
<path d="M88.9536 99.1132C88.9536 99.1132 88.6038 102.209 89.475 104.198C90.3462 106.186 95.1825 112.921 95.1825 112.921L86.1547 120.18C86.1547 120.18 82.4092 112.612 81.6957 111.387C80.9823 110.162 80.1248 104.892 82.4503 101.115C84.7759 97.3382 88.1236 96.3199 88.9536 99.1132Z" fill="white"/>
</mask>
<g mask="url(#mask2_397_3780)">
<g style="mix-blend-mode:multiply" opacity="0.5">
<path d="M84.3163 109.062L88.2333 117.208L86.1479 120.187L82.2102 113.135L84.3163 109.062Z" fill="#EC8305"/>
</g>
</g>
<path d="M88.9536 99.1132C88.9536 99.1132 88.6038 102.209 89.475 104.198C90.3462 106.186 95.1825 112.921 95.1825 112.921L86.1547 120.18C86.1547 120.18 82.4092 112.612 81.6957 111.387C80.9823 110.162 80.1248 104.892 82.4503 101.115C84.7759 97.3382 88.1236 96.3199 88.9536 99.1132Z" stroke="#263238" stroke-width="1.00396" stroke-miterlimit="10"/>
<path d="M91.7525 93.4441C91.1969 90.0041 87.2661 83.0071 81.0303 83.2754C76.9829 83.4543 75.0896 84.273 73.3334 85.2706C71.9019 86.1165 70.5676 87.1178 69.3546 88.2566C66.3088 91.9236 65.2386 92.9281 65.8286 95.7351C65.7802 96.8548 65.9551 97.9728 66.3431 99.0238C67.276 101.521 67.914 103.152 68.7235 104.342C68.4765 105.505 67.8317 108.573 67.7974 109.275C67.7631 109.977 69.8554 109.488 70.9118 109.22C72.8738 113.623 76.4684 116.678 77.5866 117.029C79.5349 117.641 82.615 114.428 84.2477 111.938C85.8804 109.447 84.6456 106.647 84.6524 105.532C84.6593 104.418 88.3225 101.968 89.6808 101.191C91.0391 100.414 92.3013 96.8772 91.7525 93.4441Z" fill="white"/>
<mask id="mask3_397_3780" style="mask-type:luminance" maskUnits="userSpaceOnUse" x="65" y="83" width="27" height="35">
<path d="M91.7525 93.4441C91.1969 90.0041 87.2661 83.0071 81.0303 83.2754C76.9829 83.4543 75.0896 84.273 73.3334 85.2706C71.9019 86.1165 70.5676 87.1178 69.3546 88.2566C66.3088 91.9236 65.2386 92.9281 65.8286 95.7351C65.7802 96.8548 65.9551 97.9728 66.3431 99.0238C67.276 101.521 67.914 103.152 68.7235 104.342C68.4765 105.505 67.8317 108.573 67.7974 109.275C67.7631 109.977 69.8554 109.488 70.9118 109.22C72.8738 113.623 76.4684 116.678 77.5866 117.029C79.5349 117.641 82.615 114.428 84.2477 111.938C85.8804 109.447 84.6456 106.647 84.6524 105.532C84.6593 104.418 88.3225 101.968 89.6808 101.191C91.0391 100.414 92.3013 96.8772 91.7525 93.4441Z" fill="white"/>
</mask>
<g mask="url(#mask3_397_3780)">
<g style="mix-blend-mode:multiply" opacity="0.5">
<path d="M65.8561 95.7351C65.8077 96.8547 65.9826 97.9728 66.3706 99.0238C67.3036 101.521 67.9415 103.152 68.751 104.342C68.5041 105.505 67.8592 108.573 67.8249 109.275C67.7906 109.977 69.8829 109.488 70.9394 109.22C72.9013 113.623 76.496 116.678 77.6141 117.029C79.5624 117.641 82.6425 114.428 84.2752 111.938C84.6831 111.316 84.9479 110.611 85.0504 109.874C84.9612 109.55 84.8995 109.351 84.8995 109.351C84.8995 109.351 83.9802 112.894 82.1555 112.433C80.3307 111.972 77.5387 108.305 75.9815 107.039C74.4242 105.773 75.0622 104.108 74.7535 102.223C74.4448 100.338 69.8349 98.6798 69.5262 97.5996C69.2175 96.5194 70.2945 92.0474 70.2945 92.0474C70.2945 92.0474 72.0438 89.7082 71.6665 90.6714C71.3998 91.5066 71.3031 92.387 71.3821 93.2604C71.461 94.1337 71.714 94.9823 72.1261 95.7557C72.4153 96.366 72.874 96.8796 73.4472 97.2348C74.0204 97.5899 74.6836 97.7716 75.3572 97.7578L77.031 89.4399L73.4981 86.509L69.3821 88.229C66.3089 91.9236 65.2593 92.9281 65.8561 95.7351Z" fill="#EC8305"/>
</g>
</g>
<path d="M91.7525 93.4441C91.1969 90.0041 87.2661 83.0071 81.0303 83.2754C76.9829 83.4543 75.0896 84.273 73.3334 85.2706C71.9019 86.1165 70.5676 87.1178 69.3546 88.2566C66.3088 91.9236 65.2386 92.9281 65.8286 95.7351C65.7802 96.8548 65.9551 97.9728 66.3431 99.0238C67.276 101.521 67.914 103.152 68.7235 104.342C68.4765 105.505 67.8317 108.573 67.7974 109.275C67.7631 109.977 69.8554 109.488 70.9118 109.22C72.8738 113.623 76.4684 116.678 77.5866 117.029C79.5349 117.641 82.615 114.428 84.2477 111.938C85.8804 109.447 84.6456 106.647 84.6524 105.532C84.6593 104.418 88.3225 101.968 89.6808 101.191C91.0391 100.414 92.3013 96.8772 91.7525 93.4441Z" stroke="#263238" stroke-miterlimit="10"/>
<path d="M69.5741 102.264L70.2601 104.232C70.2601 104.232 71.735 104.72 73.5324 102.753" stroke="#263238" stroke-miterlimit="10" stroke-linecap="round"/>
<path d="M74.6437 111.456C74.6437 111.456 76.2764 111.291 76.9349 108.993" stroke="#263238" stroke-miterlimit="10" stroke-linecap="round"/>
<path d="M68.4285 100.62C68.4285 100.62 68.9156 99.1407 71.8585 99.1407" stroke="#263238" stroke-miterlimit="10" stroke-linecap="round"/>
<path d="M83.5137 80.5372C81.3752 80.2288 79.2187 80.0633 77.0584 80.0419C77.0584 80.0419 70.5963 76.306 64.388 80.2895C58.1797 84.2731 61.1638 91.2494 61.1638 92.99C61.1638 94.7307 59.1744 94.7376 60.416 96.9804C61.6577 99.2233 65.856 97.9849 65.856 97.9849C65.9004 97.139 66.1233 96.3121 66.51 95.559C66.8967 94.8059 67.4384 94.1437 68.0992 93.6161C70.3356 91.8755 72.1192 91.4971 72.8601 91.9993C72.8601 91.9993 72.3662 95.7352 73.107 97.2281C73.107 97.2281 75.5904 98.4734 76.3381 98.4734C77.0858 98.4734 75.851 99.526 78.3275 100.462C78.7787 100.624 79.2613 100.68 79.7374 100.623C80.2135 100.567 80.6702 100.401 81.0715 100.138C81.4351 98.6248 82.2308 96.3475 83.7126 96.8772C85.8872 97.6547 87.8698 103.021 84.9268 104.851C88.4666 105.498 92.7541 99.2164 93.0079 93.4923C93.2617 87.7681 87.1906 81.1839 83.5137 80.5372Z" fill="#263238"/>
<path d="M72.9698 89.5431C72.9698 89.5431 74.7946 88.5593 77.031 90.6645C79.2673 92.7698 83.6166 95.5837 89.379 94.0357" stroke="white" stroke-width="0.5" stroke-linecap="round" stroke-linejoin="round"/>
<path d="M72.716 87.8576C72.716 87.8576 73.9714 85.8899 76.0705 85.8899C78.1697 85.8899 83.0746 88.8414 86.9917 88.8414" stroke="white" stroke-width="0.5" stroke-linecap="round" stroke-linejoin="round"/>
<path d="M71.2891 91.6484C71.2891 91.6484 68.9087 88.7037 66.6724 91.0911C64.436 93.4784 65.856 95.7351 65.856 95.7351" stroke="white" stroke-width="0.5" stroke-linecap="round" stroke-linejoin="round"/>
<path d="M61.7743 93.6161C63.1384 92.3824 63.9864 90.6765 64.1479 88.8414C64.4291 85.7523 68.6343 83.0829 71.2891 85.6147" stroke="white" stroke-width="0.5" stroke-linecap="round" stroke-linejoin="round"/>
<path d="M66.1098 82.3811C66.1098 82.3811 70.315 78.3081 73.8136 83.5025" stroke="white" stroke-width="0.5" stroke-linecap="round" stroke-linejoin="round"/>
<path d="M100.334 282.637C100.334 282.637 102.921 286.669 102.632 289.263L102.351 291.856C102.351 291.856 92.8638 294.464 90.8539 294.464C88.8439 294.464 78.204 293.453 78.204 293.453L77.7444 291.622C77.7122 291.487 77.7274 291.345 77.7874 291.22C77.8473 291.095 77.9484 290.994 78.0737 290.934L87.5611 286.497L90.552 283.215L100.334 282.637Z" fill="white" stroke="#263238" stroke-width="1.00396" stroke-miterlimit="10"/>
<path d="M92.2944 292.434C94.8669 292.634 99.7513 291.058 102.584 290.054L102.386 291.857C102.386 291.857 92.8638 294.464 90.8539 294.464C88.8439 294.464 78.204 293.453 78.204 293.453L77.8747 292.145C79.576 292.152 88.8919 292.173 92.2944 292.434Z" fill="#EC8305" stroke="#263238" stroke-width="1.00396" stroke-miterlimit="10"/>
<path d="M87.5748 286.497L73.7656 292.524C73.7656 292.524 72.5857 295.489 73.7656 296.081C74.9455 296.672 100.671 296.081 100.671 296.081C100.671 296.081 102.447 291.395 99.6415 288.251C96.8358 285.107 87.5748 286.497 87.5748 286.497Z" fill="white" stroke="#263238" stroke-width="1.00396" stroke-miterlimit="10"/>
<path d="M100.671 296.081C100.671 296.081 74.9455 296.672 73.7656 296.081C73.1962 295.792 73.1756 294.959 73.306 294.168H101.123C101.032 294.818 100.881 295.459 100.671 296.081Z" fill="#EC8305" stroke="#263238" stroke-width="1.00396" stroke-miterlimit="10"/>
<path d="M81.0441 181.776C81.0441 181.776 77.4357 197.814 76.0706 207.845C74.7054 217.876 73.9028 237.972 74.1909 240.277C74.479 242.582 88.8439 281.199 88.8439 281.199L90.2776 284.639L100.334 282.623C100.334 282.623 95.7382 267.928 94.0163 259.858C92.2945 251.787 88.5283 238.53 88.5283 236.225C88.5283 233.92 97.4463 189.902 98.0843 187.012C98.7223 184.122 101.617 179.685 101.617 179.685L82.3612 179.293L81.0441 181.776Z" fill="#EC8305" stroke="#263238" stroke-width="1.00396" stroke-miterlimit="10"/>
<path d="M81.044 181.776C81.044 181.776 78.9312 196.424 79.8024 206.606C80.6736 216.789 82.5464 238.468 82.5464 241.694C82.5464 244.921 87.7394 264.192 88.0344 270.246C88.494 278.991 87.8492 283.318 87.8492 283.318L87.5405 286.49C87.5405 286.49 93.5978 287.357 94.9218 287.735C96.451 288.13 98.0291 288.302 99.6072 288.244C99.6072 288.244 101.809 278.523 101.809 270.24C101.809 261.956 99.9776 244.907 99.0653 238C98.1529 231.092 101.027 204.446 102.66 199.472C104.293 194.498 107.86 183.964 105.459 178.584C103.058 173.204 81.044 181.776 81.044 181.776Z" fill="#EC8305" stroke="#263238" stroke-width="1.00396" stroke-miterlimit="10"/>
<path d="M108.127 175.887L107.908 182.437C107.908 182.437 103.998 183.214 98.7291 184.129C94.3799 184.886 83.4588 183.93 79.7818 183.572C79.4467 183.542 79.1369 183.381 78.9198 183.123C78.7027 182.866 78.5958 182.532 78.6225 182.196L78.9792 176.279L108.127 175.887Z" fill="#263238"/>
<path d="M92.8433 110.596C92.8433 110.596 86.6693 117.29 84.3437 121.453C82.0182 125.615 81.0989 131.993 80.2277 137.015C79.3565 142.038 81.7163 153.83 81.0509 159.244L78.9449 176.3C78.9449 176.3 78.4921 177.456 80.0082 178.722C81.5243 179.988 88.9262 180.449 95.6147 180.786C98.0569 180.91 105.349 179.334 106.543 179.258C107.983 179.169 108.031 177.332 108.093 175.887C108.381 169.097 109.602 150.995 110.405 143.111C112.058 127.032 103.01 111.511 92.8433 110.596Z" fill="white" stroke="#263238" stroke-width="1.00396" stroke-miterlimit="10"/>
<g style="mix-blend-mode:multiply">
<path d="M109.65 152.254C109.925 148.684 110.199 145.443 110.439 143.111C110.508 142.423 110.549 141.735 110.583 141.047L94.181 143.799L80.0905 138.983C80.0921 141.907 80.257 144.829 80.5844 147.734L94.4073 151.614L109.65 152.254Z" fill="#EC8305"/>
</g>
<g style="mix-blend-mode:multiply">
<path d="M92.2327 111.27C91.2998 112.309 89.4476 114.421 87.6845 116.664L98.098 127.28L101.528 125.904L92.2327 111.27Z" fill="#EC8305"/>
</g>
<path d="M92.8432 110.596C92.8432 110.596 86.6692 117.29 84.3437 121.453C83.6541 122.718 83.0956 124.05 82.6767 125.429L95.0933 111.043C94.3598 110.82 93.6061 110.67 92.8432 110.596Z" fill="#263238"/>
<g style="mix-blend-mode:multiply">
<path d="M80.7079 134.304L94.181 138.749L110.542 136.864C110.286 132.776 109.38 128.756 107.86 124.954L94.668 130.259L82.8757 124.899C81.9114 127.973 81.1867 131.118 80.7079 134.304Z" fill="#EC8305"/>
</g>
<g style="mix-blend-mode:multiply">
<path d="M103.902 169.097C97.0681 170.247 90.0565 169.673 83.4999 167.425L80.214 166.296L79.1919 174.552L82.9374 175.605C90.0579 177.602 97.5 178.177 104.841 177.298L107.867 176.933C108.024 176.599 108.113 176.236 108.127 175.866C108.21 174.029 108.354 171.36 108.539 168.298L103.902 169.097Z" fill="#EC8305"/>
</g>
<g style="mix-blend-mode:multiply">
<path d="M105.733 157.855C98.8995 159.01 91.8862 158.433 85.3315 156.176L81.1469 154.738C81.2507 156.237 81.2301 157.742 81.0852 159.238L80.5981 163.207L84.769 164.377C91.8867 166.376 99.3266 166.953 106.666 166.076L108.724 165.829C108.896 163.077 109.095 160.146 109.307 157.249L105.733 157.855Z" fill="#EC8305"/>
</g>
<path d="M41.3735 128.761L54.6376 139.456L55.2093 138.743L41.9452 128.047L41.3735 128.761Z" fill="#263238"/>
<path d="M99.2299 118.02C99.2299 118.02 104.094 121.343 104.203 129.193C104.251 132.633 103.895 135.846 103.106 141.48C102.317 147.115 97.4189 165.464 93.6047 167.693C89.7906 169.922 83.8704 165.712 83.8704 165.712L55.2367 146.647L48.315 141.04L44.885 134.545L45.962 132.481L54.4067 138.976L49.8585 134.759L50.7503 133.623L52.3967 134.772L57.1987 136.575L58.2483 143.455L59.73 144.473L87.122 154.511C87.122 154.511 86.779 139.726 87.0329 136.898C87.2867 134.071 87.6365 126.964 90.6549 121.81" fill="white"/>
<mask id="mask4_397_3780" style="mask-type:luminance" maskUnits="userSpaceOnUse" x="44" y="118" width="61" height="51">
<path d="M99.2299 118.02C99.2299 118.02 104.094 121.343 104.203 129.193C104.251 132.633 103.895 135.846 103.106 141.48C102.317 147.115 97.4189 165.464 93.6047 167.693C89.7906 169.922 83.8704 165.712 83.8704 165.712L55.2367 146.647L48.315 141.04L44.885 134.545L45.962 132.481L54.4067 138.976L49.8585 134.759L50.7503 133.623L52.3967 134.772L57.1987 136.575L58.2483 143.455L59.73 144.473L87.122 154.511C87.122 154.511 86.779 139.726 87.0329 136.898C87.2867 134.071 87.6365 126.964 90.6549 121.81" fill="white"/>
</mask>
<g mask="url(#mask4_397_3780)">
<g style="mix-blend-mode:multiply" opacity="0.5">
<path d="M86.9301 143.338C86.9301 148.443 87.1016 154.511 87.1016 154.511L59.7371 144.514L58.2553 143.496L57.2057 136.616L52.4037 134.814L50.7642 133.644L49.8724 134.779L54.4069 138.976L45.9622 132.481L44.9401 134.511L48.3701 141.006L55.2918 146.647L57.0342 147.81L94.8671 160.036L86.9301 143.338Z" fill="#EC8305"/>
</g>
</g>
<path d="M99.2299 118.02C99.2299 118.02 104.094 121.343 104.203 129.193C104.251 132.633 103.895 135.846 103.106 141.48C102.317 147.115 97.4189 165.464 93.6047 167.693C89.7906 169.922 83.8704 165.712 83.8704 165.712L55.2367 146.647L48.315 141.04L44.885 134.545L45.962 132.481L54.4067 138.976L49.8585 134.759L50.7503 133.623L52.3967 134.772L57.1987 136.575L58.2483 143.455L59.73 144.473L87.122 154.511C87.122 154.511 86.779 139.726 87.0329 136.898C87.2867 134.071 87.6365 126.964 90.6549 121.81" stroke="#263238" stroke-width="1.00396" stroke-miterlimit="10"/>
<path d="M87.122 154.511L97.5767 162.079L100.286 157.263C100.286 157.263 102.159 155.784 102.434 154.669C102.708 153.555 102.358 151.745 102.639 150.631C102.921 149.516 104.32 148.47 104.45 145.773C104.581 143.076 104.45 140.827 104.45 140.827C104.45 140.827 106.714 131.49 106.467 127.431C106.22 123.372 102.317 116.196 99.1887 116.038C96.0606 115.88 91.9926 116.354 88.837 121.143C85.6814 125.931 86.3263 139.912 85.8323 140.785C85.3384 141.659 86.0244 145.973 86.0244 145.973C85.7502 146.178 85.5228 146.439 85.3572 146.739C85.1916 147.04 85.0916 147.372 85.064 147.714C85.0091 148.835 86.2165 151.594 86.2165 151.594L87.122 154.511Z" fill="white" stroke="#263238" stroke-width="1.00396" stroke-miterlimit="10"/>
<g style="mix-blend-mode:multiply">
<path d="M86.1067 137.194C86.1283 138.395 86.0387 139.595 85.8392 140.779C85.4001 141.563 85.9009 145.106 86.0107 145.828C91.8909 147.66 98.1088 148.131 104.197 147.204C104.327 146.726 104.406 146.235 104.43 145.739C104.567 143.049 104.43 140.792 104.43 140.792C104.43 140.792 104.629 139.96 104.903 138.694C98.5984 139.096 92.2688 138.591 86.1067 137.194Z" fill="#EC8305"/>
</g>
<g style="mix-blend-mode:multiply">
<path d="M88.4117 121.907C87.4307 123.881 86.8819 126.847 86.5663 129.853C92.7939 132.237 99.5083 133.056 106.124 132.241C106.388 130.649 106.505 129.037 106.474 127.425C106.355 126.15 106.055 124.899 105.582 123.709C99.8055 123.845 94.0353 123.239 88.4117 121.907Z" fill="#EC8305"/>
</g>
<path d="M86.2165 151.67L87.1014 154.511L97.5561 162.079L100.266 157.263C100.266 157.263 102.139 155.784 102.413 154.669C102.462 154.475 102.492 154.277 102.502 154.078C96.9928 153.982 91.5189 153.173 86.2165 151.67Z" fill="#263238"/>
<path d="M93.7831 287.646C93.7831 287.646 94.0163 281.688 95.1551 272.978C96.2938 264.268 93.5567 251.897 93.0971 249.833C92.6375 247.769 93.3303 243.187 92.8707 241.577C92.4111 239.967 90.1884 233.101 91.4987 225.134C92.809 217.167 93.8722 196.107 93.8722 196.107C93.8722 196.107 90.5726 193.417 89.6053 189.915C88.6381 186.414 89.3789 185.313 89.3789 185.313" stroke="#263238" stroke-width="1.00396" stroke-miterlimit="10"/>
<path d="M95.3129 185.636L94.0438 192.681" stroke="#263238" stroke-width="1.00396" stroke-miterlimit="10"/>
</svg>
