<svg width="375" height="398" viewBox="0 0 375 398" fill="none" xmlns="http://www.w3.org/2000/svg">
<g clip-path="url(#clip0_185_2131)">
<path d="M167.2 22.826C278.8 12.926 279.016 75.863 329.317 134.534C379.618 193.205 390.4 219.8 371.428 287.453C352.456 355.106 288.574 408.116 209.5 378.074C130.426 348.032 85.174 376.886 35.314 350.174C-14.546 323.462 -33.032 272 3.46301 211.232C39.958 150.464 29.563 35.084 167.2 22.826Z" fill="#EC8305"/>
<path opacity="0.7" d="M167.2 22.826C278.8 12.926 279.016 75.863 329.317 134.534C379.618 193.205 390.4 219.8 371.428 287.453C352.456 355.106 288.574 408.116 209.5 378.074C130.426 348.032 85.174 376.886 35.314 350.174C-14.546 323.462 -33.032 272 3.46301 211.232C39.958 150.464 29.563 35.084 167.2 22.826Z" fill="white"/>
<path opacity="0.2" d="M214.405 340.274L212.749 340.094C211.982 340.046 211.257 339.726 210.704 339.192C210.151 338.657 209.807 337.943 209.734 337.178C208.834 327.665 200.626 320.978 189.934 319.763C180.313 318.683 169.234 322.931 161.962 330.203C161.057 331.163 159.951 331.912 158.724 332.397C157.497 332.883 156.178 333.092 154.861 333.011L146.671 332.111C145.545 332.019 144.478 331.569 143.627 330.825C142.776 330.081 142.187 329.084 141.946 327.98C140.02 319.664 132.568 313.337 122.938 312.257C112.255 311.06 100.231 315.488 93.121 324.101C92.5576 324.797 91.8349 325.347 91.0139 325.704C90.193 326.061 89.2981 326.215 88.405 326.153L86.758 325.964C86.3688 325.942 85.9829 326.046 85.6583 326.262C85.3337 326.478 85.0879 326.793 84.958 327.161L83.599 331.13C83.4877 331.393 83.4849 331.689 83.5911 331.953C83.6974 332.218 83.904 332.43 84.166 332.543L86.038 333.443C86.7603 333.805 87.3346 334.407 87.6628 335.146C87.9911 335.884 88.053 336.714 87.838 337.493C84.859 350.372 92.338 361.532 105.559 363.008C118.285 364.439 132.046 356.384 138.157 344.54C138.668 343.583 139.408 342.767 140.311 342.166C141.214 341.564 142.252 341.196 143.332 341.093C146.249 340.849 149.186 341.154 151.99 341.993C152.888 342.258 153.652 342.852 154.131 343.656C154.61 344.46 154.768 345.416 154.573 346.331C152.377 358.643 159.802 369.101 172.573 370.532C185.776 372.017 200.077 363.332 205.828 350.732C206.244 349.876 206.852 349.126 207.604 348.543C208.356 347.959 209.233 347.556 210.166 347.366L212.515 346.907C212.842 346.857 213.149 346.72 213.406 346.512C213.662 346.303 213.858 346.029 213.973 345.719L215.332 341.75C215.397 341.592 215.423 341.421 215.408 341.252C215.394 341.082 215.339 340.918 215.248 340.773C215.158 340.629 215.034 340.509 214.887 340.422C214.74 340.335 214.575 340.284 214.405 340.274ZM106.684 359.678C94.417 358.301 87.829 347.294 91.996 335.135C96.163 322.976 109.528 314.219 121.795 315.596C134.062 316.973 140.695 327.98 136.492 340.13C132.289 352.28 118.951 361.1 106.684 359.678ZM140.569 338.141C140.74 337.439 140.884 336.737 140.992 336.044C141.058 335.757 141.223 335.503 141.459 335.326C141.694 335.15 141.985 335.063 142.279 335.081L156.967 336.728C157.097 336.741 157.221 336.786 157.328 336.861C157.435 336.936 157.521 337.037 157.577 337.155C157.633 337.273 157.658 337.403 157.649 337.533C157.64 337.664 157.597 337.789 157.525 337.898C157.174 338.555 156.85 339.221 156.544 339.905C150.622 336.971 144.088 337.502 140.569 338.141ZM173.689 367.202C161.422 365.825 154.789 354.818 158.992 342.659C163.195 330.5 176.533 321.743 188.8 323.12C201.067 324.497 207.655 335.504 203.488 347.654C199.321 359.804 185.956 368.579 173.689 367.202Z" fill="black" fill-opacity="0.7"/>
<path d="M203.533 340.994L108.277 336.989C106.028 336.895 103.785 337.275 101.692 338.103C99.599 338.93 97.7032 340.188 96.127 341.795L79.027 359.219C78.8696 359.382 78.7508 359.578 78.6794 359.793C78.6079 360.007 78.5856 360.236 78.6141 360.46C78.6427 360.685 78.7212 360.9 78.8441 361.09C78.967 361.281 79.131 361.441 79.324 361.559C80.1737 362.06 81.1664 362.263 82.1447 362.136C83.1229 362.009 84.0307 361.559 84.724 360.857L100.6 344.765C101.544 343.807 102.675 343.056 103.924 342.557C105.172 342.058 106.51 341.823 107.854 341.867L203.254 345.017L203.533 340.994Z" fill="#263238"/>
<path d="M76.579 326.765L170.737 341.687C172.96 342.042 175.084 342.859 176.972 344.085C178.861 345.311 180.471 346.919 181.699 348.806L195.019 369.272C195.144 369.46 195.225 369.675 195.254 369.899C195.284 370.124 195.261 370.352 195.189 370.566C195.117 370.781 194.997 370.976 194.838 371.137C194.679 371.298 194.486 371.42 194.272 371.495C193.337 371.828 192.318 371.837 191.377 371.521C190.437 371.204 189.631 370.58 189.088 369.749L176.776 350.849C176.042 349.723 175.082 348.762 173.958 348.026C172.833 347.29 171.568 346.796 170.242 346.574L76.129 330.77L76.579 326.765Z" fill="#263238"/>
<path d="M132.433 342.731C133.549 343.145 132.118 351.011 129.031 353.252C125.944 355.493 124.405 348.491 125.494 346.286C126.583 344.081 128.932 341.408 132.433 342.731Z" fill="#757575" stroke="#263238" stroke-linecap="round" stroke-linejoin="round"/>
<path d="M148.921 344.576C147.742 344.738 147.4 352.721 149.911 355.592C152.422 358.463 155.482 351.992 154.906 349.589C154.33 347.186 152.629 344.063 148.921 344.576Z" fill="#757575" stroke="#263238" stroke-linecap="round" stroke-linejoin="round"/>
<path opacity="0.4" d="M93.832 316.892C99.475 313.553 111.13 308.225 121.318 317.027C131.506 325.829 134.143 333.902 130.048 343.523C125.953 353.144 116.431 365.258 99.961 359.966C83.491 354.674 76.3 327.26 93.832 316.892Z" fill="white"/>
<path opacity="0.4" d="M160.774 325.298C166.426 321.959 178.072 316.631 188.26 325.433C198.448 334.235 201.094 342.299 196.99 351.929C192.886 361.559 183.4 373.7 166.903 368.363C150.406 363.026 143.233 335.666 160.774 325.298Z" fill="white"/>
<path d="M205.729 339.896L204.073 339.707C203.253 339.621 202.475 339.298 201.835 338.777C201.196 338.256 200.722 337.559 200.473 336.773C197.503 327.17 188.008 320.42 177.325 319.223C167.704 318.134 157.831 322.436 152.359 329.789C151.648 330.771 150.692 331.549 149.587 332.046C148.482 332.544 147.265 332.743 146.059 332.624L137.86 331.724C136.656 331.572 135.514 331.108 134.546 330.377C133.578 329.645 132.818 328.673 132.343 327.557C130.324 323.264 127.244 319.556 123.394 316.784C119.544 314.013 115.05 312.269 110.338 311.717C99.655 310.511 88.9 314.993 83.878 323.696C83.4622 324.407 82.8484 324.981 82.1116 325.349C81.3748 325.716 80.5469 325.861 79.729 325.766L78.082 325.577C77.7216 325.537 77.3599 325.641 77.0763 325.867C76.7928 326.093 76.6107 326.423 76.57 326.783L76.12 330.788C76.088 331.093 76.1593 331.4 76.3225 331.659C76.4857 331.919 76.7313 332.116 77.02 332.219L79.054 333.164C79.8404 333.52 80.508 334.094 80.9772 334.818C81.4463 335.543 81.6972 336.387 81.7 337.25C81.6742 343.493 83.9132 349.533 88.0017 354.25C92.0902 358.968 97.7508 362.042 103.934 362.904C110.117 363.765 116.402 362.355 121.625 358.936C126.847 355.516 130.652 350.318 132.334 344.306C132.607 343.357 133.164 342.515 133.93 341.893C134.696 341.27 135.634 340.897 136.618 340.823C139.529 340.586 142.458 340.891 145.258 341.723C146.215 342.01 147.06 342.583 147.681 343.365C148.303 344.147 148.669 345.1 148.732 346.097C149.027 352.337 151.576 358.258 155.906 362.76C160.236 367.262 166.053 370.04 172.277 370.578C178.501 371.116 184.708 369.377 189.746 365.684C194.784 361.991 198.311 356.595 199.672 350.498C199.865 349.657 200.296 348.888 200.914 348.285C201.531 347.682 202.309 347.269 203.155 347.096L205.351 346.628C205.649 346.583 205.924 346.441 206.133 346.225C206.343 346.009 206.476 345.73 206.512 345.431L206.962 341.426C206.984 341.244 206.97 341.06 206.92 340.883C206.87 340.707 206.784 340.543 206.669 340.4C206.554 340.257 206.412 340.139 206.25 340.052C206.089 339.966 205.912 339.913 205.729 339.896ZM104.929 359.579C100.528 359.085 96.3722 357.297 92.9873 354.441C89.6024 351.585 87.1403 347.79 85.9125 343.535C84.6846 339.28 84.7461 334.756 86.0892 330.536C87.4323 326.316 89.9966 322.589 93.4579 319.826C96.9192 317.063 101.122 315.389 105.535 315.015C109.948 314.641 114.373 315.583 118.25 317.724C122.127 319.865 125.282 323.107 127.316 327.04C129.351 330.974 130.173 335.423 129.679 339.824C129.01 345.716 126.033 351.102 121.401 354.805C116.77 358.507 110.86 360.224 104.965 359.579H104.929ZM133.216 337.808C133.216 337.097 133.216 336.395 133.171 335.693C133.158 335.556 133.177 335.417 133.226 335.289C133.275 335.16 133.353 335.044 133.454 334.95C133.555 334.856 133.676 334.787 133.808 334.747C133.94 334.707 134.079 334.698 134.215 334.721L148.894 336.368C149.032 336.376 149.167 336.416 149.288 336.484C149.408 336.553 149.511 336.648 149.589 336.763C149.667 336.878 149.716 337.01 149.735 337.147C149.753 337.285 149.74 337.425 149.695 337.556C149.497 338.213 149.326 338.888 149.182 339.572C144.18 337.359 138.617 336.743 133.252 337.808H133.216ZM171.916 367.103C167.515 366.609 163.359 364.821 159.974 361.965C156.589 359.109 154.127 355.314 152.899 351.059C151.672 346.804 151.733 342.28 153.076 338.06C154.419 333.84 156.984 330.113 160.445 327.35C163.906 324.587 168.109 322.913 172.522 322.539C176.935 322.165 181.359 323.107 185.237 325.248C189.114 327.389 192.269 330.631 194.303 334.564C196.338 338.498 197.16 342.947 196.666 347.348C195.996 353.236 193.023 358.62 188.395 362.322C183.767 366.024 177.862 367.743 171.97 367.103H171.916Z" fill="#EC8305" stroke="#263238" stroke-linecap="round" stroke-linejoin="round"/>
<path opacity="0.5" d="M90.07 348.923C90.07 348.923 83.824 336.755 91.753 325.28C98.89 314.966 111.211 315.812 116.494 319.223L100.168 338.807C102.264 333.683 104.907 328.801 108.052 324.245C108.052 324.245 95.074 333.452 90.07 348.923Z" fill="white"/>
<path opacity="0.5" d="M157.021 355.79C157.021 355.79 150.784 343.622 158.713 332.156C165.841 321.833 178.171 322.679 183.454 326.09L167.119 345.674C169.432 338.006 175.003 331.112 175.003 331.112C175.003 331.112 162.025 340.319 157.021 355.79Z" fill="white"/>
<path opacity="0.2" d="M96.55 260.381C96.55 260.381 78.343 282.98 77.074 284.402C75.805 285.824 76.174 308.702 73.06 319.007C69.946 329.312 59.2 339.896 35.179 392.06L31.939 290.432L49.642 219.647L96.55 260.381Z" fill="black" fill-opacity="0.7"/>
<path d="M109.915 259.4C109.915 259.4 97.891 204.176 88.387 197.3C82.879 193.322 74.572 191.9 67.318 192.593C62.071 193.088 57.364 194.699 54.718 197.264C48.346 203.375 39.121 206.948 34.639 210.917C30.157 214.886 30.931 228.017 28.564 239.249C26.197 250.481 21.85 251.111 21.499 262.244C21.148 273.377 19.114 307.541 12.373 317.378C5.63199 327.215 5.89299 334.604 3.43599 344.378C0.978991 354.152 -19.064 390.062 -19.064 390.062L35.431 398C35.431 398 39.4 375.716 44.044 357.5C46.24 348.851 48.544 341.102 50.659 337.07C54.6799 329.288 58.0834 321.202 60.838 312.887C66.562 306.146 69.055 291.8 69.334 279.362L83.275 270.461C94.174 266.771 109.915 259.4 109.915 259.4Z" fill="white"/>
<path opacity="0.4" d="M109.915 259.4C109.915 259.4 97.891 204.176 88.387 197.3C82.879 193.322 74.572 191.9 67.318 192.593C50.344 197.93 46.276 207.803 44.08 210.26C41.155 213.545 38.185 232.661 41.074 243.56C43.963 254.459 42.595 258.572 41.074 264.044C37.672 276.176 50.56 281.837 52.117 286.256C53.674 290.675 54.691 315.866 49.57 324.38C46.87 328.88 40.462 351.812 44.053 357.545C46.249 348.896 48.553 341.147 50.668 337.115C54.6889 329.333 58.0924 321.247 60.847 312.932C66.571 306.191 69.064 291.845 69.343 279.407L83.284 270.506C94.174 266.771 109.915 259.4 109.915 259.4Z" fill="#EC8305"/>
<path d="M44.341 267.239C44.341 267.239 41.092 263.846 38.41 263.999" stroke="#263238" stroke-linecap="round" stroke-linejoin="round"/>
<path d="M50.245 254.774C50.245 254.774 46.564 248.024 41.245 246.818" stroke="#263238" stroke-linecap="round" stroke-linejoin="round"/>
<path d="M42.1 214.4C42.1 214.4 49.669 217.154 51.163 222.5" stroke="#263238" stroke-linecap="round" stroke-linejoin="round"/>
<path d="M83.275 270.452C83.275 270.452 81.286 268.211 81.178 266.366" stroke="#263238" stroke-linecap="round" stroke-linejoin="round"/>
<path d="M35.431 398C35.431 398 44.143 349.643 50.659 337.115C54.6799 329.333 58.0834 321.247 60.838 312.932C66.562 306.191 69.055 291.836 69.334 279.398L83.275 270.497C94.174 266.816 109.915 259.481 109.915 259.481C109.915 259.481 97.891 204.257 88.387 197.381C78.883 190.505 61.072 191.243 54.682 197.381C48.292 203.519 39.085 207.011 34.603 210.98C30.121 214.949 30.895 228.08 28.528 239.312C26.161 250.544 21.814 251.174 21.463 262.307C21.112 273.44 19.078 307.604 12.337 317.441C5.59599 327.278 5.85699 334.667 3.39999 344.441C0.942993 354.215 -19.1 390.125 -19.1 390.125" stroke="#263238" stroke-linecap="round" stroke-linejoin="round"/>
<path d="M25.6314 90.2143L24.0163 75.724C23.9899 75.4868 24.0587 75.2488 24.2078 75.0624C24.3568 74.8759 24.5738 74.7563 24.8111 74.7299L30.9381 74.047L32.7516 90.3172L26.6246 91.0001C26.3889 91.0264 26.1523 90.9586 25.9664 90.8115C25.7804 90.6643 25.66 90.4497 25.6314 90.2143Z" fill="#EC8305" stroke="#263238" stroke-linecap="round" stroke-linejoin="round"/>
<path d="M53.4565 51.7535L67.9468 50.1384C68.184 50.112 68.422 50.1808 68.6084 50.3299C68.7949 50.4789 68.9145 50.6959 68.9409 50.9332L69.6239 57.0602L53.3447 58.8747L52.6607 52.7387C52.6368 52.5028 52.707 52.267 52.856 52.0825C53.005 51.898 53.2208 51.7798 53.4565 51.7535Z" fill="#EC8305" stroke="#263238" stroke-linecap="round" stroke-linejoin="round"/>
<path d="M72.8111 49.6231L87.3014 48.008C87.5386 47.9816 87.7766 48.0505 87.9631 48.1995C88.1495 48.3486 88.2691 48.5656 88.2955 48.8028L88.9785 54.9299L72.7082 56.7434L72.0253 50.6163C71.9989 50.3791 72.0677 50.1411 72.2168 49.9546C72.3658 49.7682 72.5828 49.6486 72.8201 49.6221L72.8111 49.6231Z" fill="#EC8305" stroke="#263238" stroke-linecap="round" stroke-linejoin="round"/>
<path d="M47.131 268.337L25.63 75.296C25.0811 70.375 26.507 65.4373 29.5948 61.5666C32.6827 57.6958 37.1801 55.2083 42.1 54.65L322.9 23.366C325.344 23.0881 327.819 23.2951 330.183 23.9752C332.547 24.6552 334.753 25.7949 336.676 27.329C338.599 28.8631 340.2 30.7614 341.388 32.9153C342.577 35.0692 343.328 37.4363 343.6 39.881L365.101 232.922C365.649 237.851 364.218 242.796 361.121 246.669C358.024 250.543 353.515 253.027 348.586 253.577L67.786 284.852C65.3452 285.125 62.8746 284.914 60.5154 284.231C58.1561 283.549 55.9545 282.408 54.0363 280.875C52.1181 279.341 50.521 277.444 49.3361 275.293C48.1513 273.142 47.4019 270.778 47.131 268.337Z" fill="#EC8305" stroke="#263238" stroke-linecap="round" stroke-linejoin="round"/>
<path d="M348.586 251.129L67.246 282.467C63.0297 282.935 58.8003 281.709 55.4875 279.059C52.1746 276.41 50.0494 272.553 49.579 268.337L27.979 74.765C27.5089 70.5473 28.7335 66.3156 31.3833 63.0007C34.0332 59.6858 37.8913 57.5593 42.109 57.089L323.485 25.76C327.7 25.2899 331.93 26.5135 335.243 29.1617C338.556 31.8099 340.682 35.6657 341.152 39.881L362.752 233.453C362.983 235.544 362.8 237.66 362.214 239.68C361.627 241.7 360.647 243.585 359.332 245.227C358.016 246.868 356.39 248.234 354.546 249.247C352.702 250.26 350.677 250.899 348.586 251.129Z" fill="#757575" stroke="#263238" stroke-linecap="round" stroke-linejoin="round"/>
<path d="M43.432 171.029C43.4576 171.173 43.4535 171.321 43.4199 171.463C43.3862 171.605 43.3238 171.739 43.2364 171.857C43.149 171.974 43.0385 172.072 42.9117 172.145C42.785 172.218 42.6446 172.264 42.4993 172.281C42.354 172.297 42.2068 172.284 42.0669 172.242C41.9269 172.199 41.7971 172.129 41.6855 172.034C41.5739 171.94 41.4828 171.823 41.4179 171.692C41.353 171.561 41.3156 171.418 41.308 171.272C41.2824 171.128 41.2865 170.98 41.3202 170.838C41.3538 170.696 41.4163 170.562 41.5036 170.444C41.591 170.327 41.7015 170.229 41.8283 170.156C41.955 170.083 42.0954 170.037 42.2407 170.02C42.386 170.004 42.5332 170.017 42.6731 170.059C42.8131 170.102 42.9429 170.172 43.0545 170.267C43.1661 170.361 43.2572 170.478 43.3221 170.609C43.3871 170.74 43.4245 170.883 43.432 171.029Z" fill="#999999" stroke="#263238" stroke-linecap="round" stroke-linejoin="round"/>
<path d="M45.484 180.596C45.5295 180.998 45.4549 181.404 45.2697 181.763C45.0844 182.122 44.7968 182.418 44.4432 182.614C44.0896 182.809 43.686 182.896 43.2833 182.862C42.8806 182.828 42.4969 182.676 42.1809 182.424C41.8648 182.172 41.6305 181.832 41.5077 181.447C41.3849 181.062 41.3789 180.649 41.4907 180.261C41.6025 179.873 41.8269 179.526 42.1356 179.265C42.4443 179.005 42.8234 178.841 43.225 178.796C43.7632 178.735 44.3035 178.891 44.7272 179.228C45.1508 179.566 45.423 180.058 45.484 180.596Z" fill="#263238"/>
<path d="M42.847 156.953C42.8925 157.355 42.8179 157.761 42.6327 158.12C42.4474 158.479 42.1598 158.775 41.8062 158.971C41.4526 159.166 41.0489 159.253 40.6462 159.219C40.2435 159.185 39.8599 159.033 39.5438 158.781C39.2278 158.529 38.9935 158.189 38.8707 157.804C38.7478 157.419 38.7419 157.006 38.8537 156.618C38.9655 156.23 39.1899 155.883 39.4986 155.622C39.8073 155.362 40.1864 155.198 40.588 155.153C41.1258 155.095 41.6648 155.251 42.0878 155.588C42.5109 155.925 42.7837 156.416 42.847 156.953Z" fill="#263238"/>
<path d="M45.7 187.4C45.743 187.793 45.6282 188.186 45.3809 188.494C45.1337 188.802 44.7742 189 44.3815 189.042C43.9889 189.085 43.5952 188.971 43.2872 188.723C42.9792 188.476 42.782 188.117 42.739 187.724C42.7177 187.53 42.735 187.333 42.7897 187.145C42.8444 186.957 42.9356 186.782 43.0581 186.63C43.3053 186.322 43.6649 186.124 44.0575 186.082C44.4502 186.039 44.8438 186.153 45.1518 186.401C45.4599 186.648 45.657 187.007 45.7 187.4Z" fill="#263238"/>
<path d="M60.1 269.3L38.311 74.153C38.081 72.0719 38.6863 69.9845 39.9941 68.3494C41.3019 66.7142 43.2052 65.665 45.286 65.432L328.219 33.932C330.301 33.7019 332.389 34.307 334.026 35.6146C335.663 36.9221 336.714 38.8255 336.949 40.907L358.684 236.081C358.799 237.112 358.71 238.155 358.422 239.151C358.133 240.147 357.652 241.077 357.004 241.887C356.356 242.697 355.555 243.371 354.646 243.871C353.738 244.372 352.74 244.688 351.709 244.802L68.776 276.302C66.697 276.524 64.615 275.911 62.988 274.598C61.3609 273.285 60.3221 271.379 60.1 269.3Z" fill="white"/>
<path opacity="0.3" d="M328.696 33.869L44.8 65.486C43.8307 65.5923 42.8919 65.889 42.0376 66.359C41.1832 66.829 40.43 67.463 39.8213 68.2248C39.2125 68.9866 38.7602 69.861 38.4902 70.798C38.2202 71.735 38.1379 72.7161 38.248 73.685L60.1 269.795C60.2063 270.764 60.503 271.703 60.973 272.557C61.443 273.412 62.0771 274.165 62.8388 274.774C63.6006 275.382 64.475 275.835 65.412 276.105C66.349 276.375 67.3301 276.457 68.299 276.347L352.177 244.73C353.146 244.622 354.085 244.325 354.939 243.855C355.793 243.385 356.546 242.751 357.156 241.989C357.765 241.228 358.218 240.354 358.49 239.418C358.761 238.481 358.846 237.5 358.738 236.531L336.895 40.421C336.676 38.4653 335.689 36.6767 334.152 35.4481C332.614 34.2196 330.652 33.6516 328.696 33.869Z" fill="#EC8305"/>
<path d="M124.9 81.875H124.837L124.918 93.332L120.328 93.836L115.594 72.857L118.843 72.497L122.443 89.048H122.506L122.2 72.119L125.413 71.768L128.932 88.463H128.995L128.815 71.363L131.731 71.03V92.549L127.294 93.035L124.9 81.875Z" fill="#263238"/>
<path d="M137.743 79.454L142.333 78.95L142.666 81.983L138.085 82.496L138.778 88.715L144.547 88.076L144.88 91.109L135.781 92.126L133.414 70.877L142.513 69.86L142.855 72.893L137.086 73.541L137.743 79.454Z" fill="#263238"/>
<path d="M162.466 89.147L159.091 89.525L158.083 85.7L153.988 86.159L153.844 90.074L150.775 90.416L151.81 68.816L156.697 68.276L162.466 89.147ZM154.096 83.261L157.309 82.901L154.537 72.335H154.474L154.096 83.261Z" fill="#263238"/>
<path d="M170.998 88.202C170.627 87.3935 170.424 86.5175 170.404 85.628L170.026 82.289C169.81 80.309 169.063 79.661 167.542 79.823L166.39 79.958L167.353 88.607L164.014 88.976L161.647 67.7L166.687 67.142C170.143 66.755 171.808 68.195 172.177 71.48L172.366 73.145C172.609 75.332 172.06 76.808 170.656 77.645V77.708C172.402 78.221 173.122 79.733 173.356 81.947L173.725 85.232C173.762 86.1139 173.983 86.9783 174.373 87.77L170.998 88.202ZM165.319 70.4L166.048 76.925L167.353 76.781C168.604 76.646 169.297 76.016 169.153 74.315L168.919 72.218C168.748 70.697 168.163 70.094 166.975 70.22L165.319 70.4Z" fill="#263238"/>
<path d="M178.189 74.954L182.77 74.441L183.112 77.474L178.522 77.987L179.215 84.215L184.984 83.567L185.326 86.6L176.2 87.617L173.833 66.368L182.941 65.36L183.274 68.393L177.514 69.032L178.189 74.954Z" fill="#263238"/>
<path d="M195.433 85.475L192.094 85.853L189.7 64.604L193.039 64.226L194.056 73.334L197.854 72.911L196.9 63.812L200.302 63.425L202.669 84.674L199.267 85.052L198.25 75.953L194.461 76.367L195.433 85.475Z" fill="#263238"/>
<path d="M202.696 63.2L206.035 62.831L208.402 84.08L205.063 84.449L202.696 63.2Z" fill="#263238"/>
<path d="M217.807 83C217.439 82.1903 217.237 81.3151 217.213 80.426L216.844 77.087C216.628 75.116 215.872 74.459 214.36 74.63L213.208 74.756L214.171 83.414L210.832 83.783L208.465 62.534L213.505 61.976C216.961 61.589 218.626 63.029 218.995 66.305L219.175 67.979C219.418 70.166 218.878 71.633 217.474 72.479V72.542C219.22 73.055 219.949 74.576 220.174 76.79L220.543 80.066C220.574 80.9488 220.795 81.8146 221.191 82.604L217.807 83ZM212.137 65.198L212.866 71.723L214.171 71.579C215.413 71.435 216.115 70.805 215.926 69.104L215.692 67.016C215.521 65.495 214.936 64.883 213.748 65.018L212.137 65.198Z" fill="#263238"/>
<path d="M220.669 61.157L224.008 60.788L226.375 82.028L223.036 82.406L220.669 61.157Z" fill="#263238"/>
<path d="M230.119 66.035H230.065L231.775 81.425L228.769 81.758L226.402 60.5L230.596 60.032L235.375 72.371H235.438L234.025 59.654L236.995 59.321L239.362 80.57L235.933 80.948L230.119 66.035Z" fill="#263238"/>
<path d="M245.5 67.925L250.171 67.403L250.927 74.144C251.305 77.537 249.82 79.67 246.544 80.039C243.268 80.408 241.351 78.644 240.973 75.251L239.74 64.199C239.362 60.797 240.847 58.664 244.123 58.304C247.399 57.944 249.316 59.69 249.694 63.092L249.928 65.153L246.769 65.504L246.472 63.2C246.301 61.688 245.572 61.184 244.501 61.301C243.43 61.418 242.836 62.066 243.007 63.587L244.285 75.062C244.456 76.583 245.185 77.051 246.247 76.934C247.309 76.817 247.912 76.196 247.75 74.675L247.309 70.76L245.797 70.931L245.5 67.925Z" fill="#263238"/>
<path d="M253.51 74.243L252.223 66.611L251.242 57.8L254.581 57.422L255.562 66.287L255.994 74.018L253.51 74.243ZM256.525 75.413L256.885 78.635L253.663 78.995L253.312 75.773L256.525 75.413Z" fill="#263238"/>
<path d="M229.687 240.995L180.997 246.395C179.083 246.609 177.145 246.444 175.295 245.908C173.445 245.373 171.718 244.479 170.214 243.276C168.709 242.073 167.456 240.586 166.527 238.899C165.598 237.212 165.01 235.358 164.797 233.444C164.583 231.53 164.748 229.594 165.283 227.744C165.817 225.894 166.711 224.168 167.913 222.663C169.114 221.159 170.601 219.906 172.287 218.976C173.973 218.046 175.825 217.458 177.739 217.244L226.438 211.844C228.352 211.629 230.29 211.793 232.141 212.328C233.992 212.863 235.719 213.757 237.224 214.96C238.729 216.163 239.981 217.651 240.91 219.338C241.839 221.026 242.426 222.88 242.638 224.795C242.853 226.709 242.689 228.647 242.154 230.498C241.619 232.349 240.725 234.076 239.522 235.581C238.319 237.085 236.831 238.338 235.144 239.267C233.456 240.196 231.602 240.783 229.687 240.995Z" fill="#EC8305" stroke="#263238" stroke-linecap="round" stroke-linejoin="round"/>
<path d="M194.2 236.9L192.013 237.143L191.365 234.686L188.71 234.983L188.611 237.521L186.622 237.746L187.297 223.724L190.465 223.364L194.2 236.9ZM188.8 233.084L190.888 232.85L189.088 225.992L188.8 233.084Z" fill="#263238"/>
<path d="M200.5 225.686L200.698 227.486C200.95 229.691 200.014 231.005 197.854 231.248L196.828 231.356L197.404 236.54L195.244 236.783L193.705 223.004L196.9 222.644C199.024 222.392 200.221 223.481 200.5 225.686ZM196.09 224.723L196.612 229.385L197.638 229.268C198.322 229.196 198.664 228.836 198.538 227.855L198.313 225.785C198.205 224.804 197.791 224.525 197.107 224.606L196.09 224.723Z" fill="#263238"/>
<path d="M207.889 224.858L208.087 226.658C208.33 228.863 207.403 230.177 205.234 230.42L204.217 230.537L204.793 235.712L202.624 235.955L201.094 222.176L204.28 221.816C206.449 221.6 207.637 222.653 207.889 224.858ZM203.479 223.895L203.992 228.557L205.018 228.44C205.711 228.368 206.044 228.008 205.918 227.027L205.693 224.957C205.576 223.976 205.171 223.706 204.478 223.778L203.479 223.895Z" fill="#263238"/>
<path d="M208.51 221.339L210.679 221.096L211.993 232.904L215.593 232.508L215.809 234.479L210.085 235.118L208.51 221.339Z" fill="#263238"/>
<path d="M217.015 229.7L213.253 220.79L215.521 220.538L217.852 226.64L218.752 220.178L220.822 219.953L219.112 229.466L219.616 234.038L217.456 234.272L217.015 229.7Z" fill="#263238"/>
<path d="M236.117 253.81L177.583 260.334L177.784 262.141L236.318 255.617L236.117 253.81Z" fill="#999999" stroke="#263238" stroke-linecap="round" stroke-linejoin="round"/>
<path d="M320.326 191.396L87.469 217.325C87.469 217.325 77.353 195.581 83.473 181.469C89.593 167.357 108.124 175.403 115.972 162.308C123.82 149.213 114.73 140.537 123.37 122.6C132.01 104.663 156.769 95.096 175.255 102.962C193.741 110.828 199.996 122.69 211.75 119.369C223.504 116.048 230.2 100.784 253.492 101.9C276.784 103.016 281.788 135.632 280.438 151.724C279.088 167.816 325.528 153.452 320.326 191.396Z" fill="white"/>
<path d="M250.738 120.944L250.522 119L235.942 120.629L236.374 124.571L237.157 131.573L251.737 129.953L250.738 120.944Z" fill="white"/>
<mask id="mask0_185_2131" style="mask-type:luminance" maskUnits="userSpaceOnUse" x="235" y="119" width="17" height="13">
<path d="M250.738 120.944L250.522 119L235.942 120.629L236.374 124.571L237.157 131.573L251.737 129.953L250.738 120.944Z" fill="white"/>
</mask>
<g mask="url(#mask0_185_2131)">
<path opacity="0.2" d="M237.17 131.441L246.357 130.418L245.152 119.612L235.966 120.636L237.17 131.441Z" fill="black"/>
</g>
<path d="M250.738 120.944L250.522 119L235.942 120.629L236.374 124.571L237.157 131.573L251.737 129.953L250.738 120.944Z" stroke="#263238" stroke-linecap="round" stroke-linejoin="round"/>
<path d="M245.167 119.594L245.275 120.557" stroke="#263238" stroke-linecap="round" stroke-linejoin="round"/>
<path d="M237.994 143.408L236.329 128.45L244.132 122.546L251.863 121.682L254.059 141.464L237.994 143.408Z" fill="#263238"/>
<mask id="mask1_185_2131" style="mask-type:luminance" maskUnits="userSpaceOnUse" x="236" y="121" width="19" height="23">
<path d="M237.994 143.408L236.329 128.45L244.132 122.546L251.863 121.682L254.059 141.464L237.994 143.408Z" fill="white"/>
</mask>
<g mask="url(#mask1_185_2131)">
<path opacity="0.2" d="M237.994 143.408L246.679 142.445L244.456 122.51L236.329 128.45L237.994 143.408Z" fill="black"/>
</g>
<path d="M237.994 143.408L236.329 128.45L244.132 122.546L251.863 121.682L254.059 141.464L237.994 143.408Z" stroke="#263238" stroke-linecap="round" stroke-linejoin="round"/>
<path opacity="0.2" d="M244.825 125.822L245.284 129.989" stroke="white" stroke-linecap="round" stroke-linejoin="round"/>
<path opacity="0.2" d="M245.563 132.473L246.544 141.275" stroke="white" stroke-linecap="round" stroke-linejoin="round"/>
<path d="M178.241 188.037L175.396 188.354C174.965 188.403 174.531 188.277 174.192 188.006C173.853 187.735 173.635 187.34 173.587 186.908L172.9 180.745L178.991 180.066L179.68 186.247C179.723 186.675 179.596 187.102 179.327 187.437C179.058 187.772 178.668 187.988 178.241 188.037Z" fill="#999999" stroke="#263238" stroke-linecap="round" stroke-linejoin="round"/>
<path d="M175.894 197.198L179.704 196.773L178.726 187.999L174.916 188.423L175.894 197.198Z" fill="#757575" stroke="#263238" stroke-linecap="round" stroke-linejoin="round"/>
<path d="M172.15 180.83L179.989 179.948L182.14 176.348L169.252 177.788L172.15 180.83Z" fill="#757575" stroke="#263238" stroke-linecap="round" stroke-linejoin="round"/>
<path d="M194.2 166.781L183.4 167.978L179.8 156.647H178.27L181.87 168.446C181.57 168.482 181.297 168.634 181.109 168.87C180.92 169.106 180.832 169.406 180.862 169.706L181.123 172.01C181.216 172.763 181.601 173.45 182.195 173.921C182.79 174.393 183.546 174.611 184.3 174.53L193.552 173.504C193.909 173.461 194.235 173.279 194.459 172.998C194.683 172.717 194.787 172.359 194.749 172.001L194.2 166.781Z" fill="#999999" stroke="#263238" stroke-linecap="round" stroke-linejoin="round"/>
<path d="M195.1 172.451L194.551 172.505C194.176 172.548 193.799 172.454 193.488 172.24C193.178 172.027 192.954 171.709 192.859 171.344L189.7 158.906C189.548 158.323 189.21 157.806 188.737 157.433C188.264 157.059 187.683 156.85 187.081 156.836L178.234 156.611C177.906 156.6 177.592 156.471 177.351 156.248C177.109 156.025 176.957 155.723 176.92 155.396C176.88 155.038 176.983 154.679 177.207 154.397C177.432 154.115 177.759 153.934 178.117 153.893L179.224 153.776L187.999 154.145C189.046 154.187 190.05 154.567 190.862 155.23C191.674 155.892 192.248 156.8 192.499 157.817L195.838 171.389C195.861 171.507 195.861 171.629 195.836 171.747C195.811 171.865 195.763 171.977 195.694 172.076C195.625 172.175 195.537 172.26 195.435 172.324C195.333 172.388 195.219 172.432 195.1 172.451Z" fill="#BFBFBF" stroke="#263238" stroke-linecap="round" stroke-linejoin="round"/>
<path d="M141.649 133.175L153.979 173.459L181.672 170.372L182.266 165.98L175.498 143.651L170.998 128.648C170.71 127.705 170.104 126.89 169.284 126.342C168.464 125.794 167.48 125.547 166.498 125.642L145.015 128C144.372 128.068 143.755 128.291 143.219 128.652C142.682 129.013 142.242 129.5 141.937 130.07C141.687 130.543 141.532 131.061 141.483 131.594C141.433 132.127 141.49 132.664 141.649 133.175Z" fill="#EC8305"/>
<mask id="mask2_185_2131" style="mask-type:luminance" maskUnits="userSpaceOnUse" x="141" y="125" width="42" height="49">
<path d="M141.649 133.175L153.979 173.459L181.672 170.372L182.266 165.98L175.498 143.651L170.998 128.648C170.71 127.705 170.104 126.89 169.284 126.342C168.464 125.794 167.48 125.547 166.498 125.642L145.015 128C144.372 128.068 143.755 128.291 143.219 128.652C142.682 129.013 142.242 129.5 141.937 130.07C141.687 130.543 141.532 131.061 141.483 131.594C141.433 132.127 141.49 132.664 141.649 133.175Z" fill="white"/>
</mask>
<g mask="url(#mask2_185_2131)">
<path opacity="0.2" d="M141.649 133.175L153.979 173.459L181.672 170.372L182.266 165.98L175.498 143.651L152.386 146.225L148.03 132.014C147.817 131.317 147.369 130.715 146.761 130.311C146.154 129.907 145.426 129.727 144.7 129.8L142 130.097C141.481 131.036 141.354 132.143 141.649 133.175Z" fill="black"/>
</g>
<path d="M141.649 133.175L153.979 173.459L181.672 170.372L182.266 165.98L175.498 143.651L170.998 128.648C170.71 127.705 170.104 126.89 169.284 126.342C168.464 125.794 167.48 125.547 166.498 125.642L145.015 128C144.372 128.068 143.755 128.291 143.219 128.652C142.682 129.013 142.242 129.5 141.937 130.07C141.687 130.543 141.532 131.061 141.483 131.594C141.433 132.127 141.49 132.664 141.649 133.175Z" stroke="#263238" stroke-linecap="round" stroke-linejoin="round"/>
<path d="M163.51 204.806C169.189 201.026 186.802 199.064 193.21 201.503L195.91 200.414C189.097 196.895 179.71 196.751 179.71 196.751L175.579 197.21C175.579 197.21 166.498 199.406 160.621 204.338L163.51 204.806Z" fill="#999999" stroke="#263238" stroke-linecap="round" stroke-linejoin="round"/>
<path d="M193.012 203.15C193.082 203.784 193.402 204.364 193.9 204.762C194.398 205.16 195.033 205.344 195.667 205.274C196.301 205.204 196.881 204.884 197.279 204.386C197.677 203.888 197.861 203.253 197.791 202.619C197.756 202.305 197.66 202.001 197.508 201.725C197.355 201.448 197.15 201.204 196.903 201.007C196.657 200.81 196.374 200.663 196.071 200.575C195.767 200.487 195.45 200.46 195.136 200.495C194.822 200.53 194.518 200.626 194.242 200.778C193.965 200.931 193.721 201.136 193.524 201.383C193.327 201.629 193.18 201.912 193.092 202.215C193.004 202.519 192.977 202.836 193.012 203.15Z" fill="#BFBFBF" stroke="#263238" stroke-linecap="round" stroke-linejoin="round"/>
<path d="M159.253 206.912C159.314 207.381 159.513 207.822 159.823 208.178C160.134 208.535 160.542 208.793 160.999 208.918C161.455 209.043 161.938 209.031 162.387 208.884C162.836 208.736 163.232 208.459 163.524 208.087C163.817 207.715 163.993 207.265 164.031 206.794C164.069 206.322 163.967 205.85 163.738 205.436C163.508 205.022 163.162 204.686 162.742 204.468C162.322 204.25 161.847 204.161 161.377 204.212C161.059 204.248 160.752 204.346 160.473 204.502C160.193 204.657 159.948 204.866 159.75 205.118C159.553 205.369 159.407 205.657 159.321 205.965C159.236 206.273 159.213 206.595 159.253 206.912Z" fill="#BFBFBF" stroke="#263238" stroke-linecap="round" stroke-linejoin="round"/>
<path d="M163.969 179.561L191.068 176.546C192.231 176.416 193.356 176.058 194.381 175.493C195.405 174.928 196.308 174.166 197.038 173.252C197.767 172.337 198.31 171.288 198.634 170.164C198.957 169.04 199.056 167.863 198.925 166.7C198.889 166.353 198.785 166.017 198.618 165.711C198.451 165.405 198.225 165.135 197.953 164.917C197.68 164.7 197.368 164.538 197.032 164.443C196.697 164.347 196.346 164.319 196 164.36L156.4 168.77C156.058 168.808 155.726 168.913 155.425 169.08C155.123 169.246 154.857 169.47 154.642 169.739C154.428 170.008 154.268 170.317 154.173 170.648C154.077 170.979 154.048 171.326 154.087 171.668C154.211 172.838 154.566 173.971 155.131 175.003C155.697 176.034 156.461 176.944 157.38 177.678C158.299 178.412 159.355 178.956 160.486 179.28C161.617 179.603 162.801 179.699 163.969 179.561Z" fill="#EC8305"/>
<mask id="mask3_185_2131" style="mask-type:luminance" maskUnits="userSpaceOnUse" x="154" y="164" width="45" height="16">
<path d="M163.969 179.561L191.068 176.546C192.231 176.416 193.356 176.058 194.381 175.493C195.405 174.928 196.308 174.166 197.038 173.252C197.767 172.337 198.31 171.288 198.634 170.164C198.957 169.04 199.056 167.863 198.925 166.7C198.889 166.353 198.785 166.017 198.618 165.711C198.451 165.405 198.225 165.135 197.953 164.917C197.68 164.7 197.368 164.538 197.032 164.443C196.697 164.347 196.346 164.319 196 164.36L156.4 168.77C156.058 168.808 155.726 168.913 155.425 169.08C155.123 169.246 154.857 169.47 154.642 169.739C154.428 170.008 154.268 170.317 154.173 170.648C154.077 170.979 154.048 171.326 154.087 171.668C154.211 172.838 154.566 173.971 155.131 175.003C155.697 176.034 156.461 176.944 157.38 177.678C158.299 178.412 159.355 178.956 160.486 179.28C161.617 179.603 162.801 179.699 163.969 179.561Z" fill="white"/>
</mask>
<g mask="url(#mask3_185_2131)">
<path opacity="0.2" d="M154.114 171.515L154.195 172.244C154.441 174.447 155.553 176.462 157.284 177.846C159.016 179.23 161.226 179.869 163.429 179.624L191.599 176.483C192.69 176.363 193.746 176.029 194.708 175.501C195.67 174.972 196.517 174.259 197.203 173.402C197.889 172.545 198.398 171.561 198.703 170.507C199.008 169.453 199.102 168.349 198.979 167.258L198.898 166.52C198.849 166.051 198.665 165.607 198.367 165.241C198.07 164.875 197.673 164.603 197.224 164.459L197.377 165.818C197.463 166.604 197.234 167.393 196.739 168.01C196.245 168.627 195.526 169.024 194.74 169.112L169.747 171.902C168.96 171.988 168.17 171.759 167.552 171.265C166.933 170.771 166.534 170.052 166.444 169.265L166.273 167.672L156.301 168.779C155.649 168.854 155.053 169.183 154.643 169.696C154.233 170.209 154.043 170.863 154.114 171.515Z" fill="black"/>
</g>
<path d="M163.969 179.561L191.068 176.546C192.231 176.416 193.356 176.058 194.381 175.493C195.405 174.928 196.308 174.166 197.038 173.252C197.767 172.337 198.31 171.288 198.634 170.164C198.957 169.04 199.056 167.863 198.925 166.7C198.889 166.353 198.785 166.017 198.618 165.711C198.451 165.405 198.225 165.135 197.953 164.917C197.68 164.7 197.368 164.538 197.032 164.443C196.697 164.347 196.346 164.319 196 164.36L156.4 168.77C156.058 168.808 155.726 168.913 155.425 169.08C155.123 169.246 154.857 169.47 154.642 169.739C154.428 170.008 154.268 170.317 154.173 170.648C154.077 170.979 154.048 171.326 154.087 171.668C154.211 172.838 154.566 173.971 155.131 175.003C155.697 176.034 156.461 176.944 157.38 177.678C158.299 178.412 159.355 178.956 160.486 179.28C161.617 179.603 162.801 179.699 163.969 179.561Z" stroke="#263238" stroke-linecap="round" stroke-linejoin="round"/>
<path d="M163.897 170.156L153.151 171.353L149.497 160.022L147.976 159.977L151.576 171.785C151.427 171.801 151.282 171.846 151.15 171.918C151.019 171.99 150.903 172.087 150.809 172.204C150.715 172.322 150.645 172.456 150.604 172.601C150.563 172.745 150.551 172.896 150.568 173.045L150.82 175.349C150.908 176.11 151.293 176.806 151.892 177.284C152.49 177.763 153.253 177.986 154.015 177.905L163.267 176.87C163.444 176.851 163.615 176.797 163.771 176.712C163.927 176.626 164.065 176.511 164.176 176.372C164.287 176.233 164.37 176.074 164.419 175.903C164.469 175.732 164.484 175.553 164.464 175.376L163.897 170.156Z" fill="#999999" stroke="#263238" stroke-linecap="round" stroke-linejoin="round"/>
<path d="M164.842 175.817L164.284 175.88C163.909 175.922 163.532 175.826 163.223 175.611C162.913 175.396 162.692 175.076 162.601 174.71L159.442 162.281C159.287 161.699 158.949 161.182 158.477 160.807C158.005 160.433 157.425 160.221 156.823 160.202L147.976 159.977C147.647 159.968 147.333 159.842 147.09 159.62C146.847 159.399 146.692 159.097 146.653 158.771C146.615 158.412 146.721 158.053 146.946 157.771C147.172 157.49 147.5 157.309 147.859 157.268L148.957 157.142L157.741 157.511C158.788 157.555 159.793 157.937 160.605 158.601C161.416 159.265 161.991 160.174 162.241 161.192L165.571 174.8C165.601 174.918 165.606 175.04 165.585 175.16C165.564 175.28 165.517 175.393 165.448 175.493C165.378 175.593 165.288 175.677 165.184 175.739C165.079 175.801 164.963 175.84 164.842 175.853" fill="#BFBFBF"/>
<path d="M164.842 175.817L164.284 175.88C163.909 175.922 163.532 175.826 163.223 175.611C162.913 175.396 162.692 175.076 162.601 174.71L159.442 162.281C159.287 161.699 158.949 161.182 158.477 160.807C158.005 160.433 157.425 160.221 156.823 160.202L147.976 159.977C147.647 159.968 147.333 159.842 147.09 159.62C146.847 159.399 146.692 159.097 146.653 158.771C146.615 158.412 146.721 158.053 146.946 157.771C147.172 157.49 147.5 157.309 147.859 157.268L148.957 157.142L157.741 157.511C158.788 157.555 159.793 157.937 160.605 158.601C161.416 159.265 161.991 160.174 162.241 161.192L165.571 174.8C165.601 174.918 165.606 175.04 165.585 175.16C165.564 175.28 165.517 175.393 165.448 175.493C165.378 175.593 165.288 175.677 165.184 175.739C165.079 175.801 164.963 175.84 164.842 175.853" stroke="#263238" stroke-linecap="round" stroke-linejoin="round"/>
<path d="M184.075 147.62L174.058 148.7L174.121 149.24C174.131 149.371 174.167 149.5 174.228 149.617C174.289 149.734 174.373 149.837 174.474 149.921C174.576 150.005 174.693 150.068 174.82 150.106C174.946 150.143 175.079 150.155 175.21 150.14H175.471L208.186 146.495C208.27 146.486 208.352 146.46 208.426 146.42C208.5 146.379 208.565 146.324 208.618 146.258C208.671 146.192 208.71 146.116 208.733 146.035C208.756 145.953 208.763 145.868 208.753 145.784L208.654 144.884L184.075 147.62Z" fill="#999999" stroke="#263238" stroke-linecap="round" stroke-linejoin="round"/>
<path d="M214.504 127.334L212.875 143.534C212.842 143.872 212.693 144.188 212.453 144.429C212.214 144.67 211.899 144.821 211.561 144.857L186.316 147.674C186.166 147.69 186.014 147.672 185.872 147.621C185.73 147.57 185.601 147.489 185.495 147.381C185.389 147.274 185.308 147.145 185.258 147.002C185.209 146.86 185.192 146.708 185.209 146.558L187.009 130.358C187.046 130.025 187.195 129.714 187.432 129.476C187.67 129.239 187.981 129.09 188.314 129.053L213.397 126.2C213.549 126.182 213.703 126.199 213.848 126.25C213.992 126.301 214.123 126.385 214.23 126.494C214.337 126.604 214.417 126.737 214.465 126.882C214.512 127.028 214.526 127.182 214.504 127.334Z" fill="#BFBFBF" stroke="#263238" stroke-linecap="round" stroke-linejoin="round"/>
<path d="M200.626 135.047L202.579 134.831L203.326 136.523L202.12 138.422L200.167 138.638L199.42 136.955L200.626 135.047Z" fill="white" stroke="#263238" stroke-linecap="round" stroke-linejoin="round"/>
<path d="M239.47 122.474L239.254 120.521L224.674 122.159L225.115 126.101L225.889 133.103L240.469 131.474L239.47 122.474Z" fill="white"/>
<mask id="mask4_185_2131" style="mask-type:luminance" maskUnits="userSpaceOnUse" x="224" y="120" width="17" height="14">
<path d="M239.47 122.474L239.254 120.521L224.674 122.159L225.115 126.101L225.889 133.103L240.469 131.474L239.47 122.474Z" fill="white"/>
</mask>
<g mask="url(#mask4_185_2131)">
<path opacity="0.2" d="M225.807 132.449L235.038 131.42L233.893 121.142L224.662 122.171L225.807 132.449Z" fill="black"/>
</g>
<path d="M239.47 122.474L239.254 120.521L224.674 122.159L225.115 126.101L225.889 133.103L240.469 131.474L239.47 122.474Z" stroke="#263238" stroke-linecap="round" stroke-linejoin="round"/>
<path d="M233.899 121.115L234.007 122.087" stroke="#263238" stroke-linecap="round" stroke-linejoin="round"/>
<path d="M226.726 144.938L225.061 129.971L232.864 124.067L240.595 123.212L242.8 142.994L226.726 144.938Z" fill="#EC8305"/>
<mask id="mask5_185_2131" style="mask-type:luminance" maskUnits="userSpaceOnUse" x="225" y="123" width="18" height="22">
<path d="M226.726 144.938L225.061 129.971L232.864 124.067L240.595 123.212L242.8 142.994L226.726 144.938Z" fill="white"/>
</mask>
<g mask="url(#mask5_185_2131)">
<path opacity="0.2" d="M232.864 124.067L235.069 143.93L226.717 144.857L225.061 129.971L232.864 124.067Z" fill="black"/>
</g>
<path d="M226.726 144.938L225.061 129.971L232.864 124.067L240.595 123.212L242.8 142.994L226.726 144.938Z" stroke="#263238" stroke-linecap="round" stroke-linejoin="round"/>
<path d="M233.557 127.343L234.025 131.51" stroke="#263238" stroke-linecap="round" stroke-linejoin="round"/>
<path d="M234.295 134.003L235.276 142.805" stroke="#263238" stroke-linecap="round" stroke-linejoin="round"/>
<path d="M223.089 147.857L219.251 148.285L225.235 201.971L229.073 201.543L223.089 147.857Z" fill="#EC8305"/>
<mask id="mask6_185_2131" style="mask-type:luminance" maskUnits="userSpaceOnUse" x="219" y="147" width="11" height="55">
<path d="M223.089 147.857L219.251 148.285L225.235 201.971L229.073 201.543L223.089 147.857Z" fill="white"/>
</mask>
<g mask="url(#mask6_185_2131)">
<path opacity="0.2" d="M223.089 147.857L219.251 148.285L225.235 201.971L229.073 201.543L223.089 147.857Z" fill="black"/>
</g>
<path d="M223.089 147.857L219.251 148.285L225.235 201.971L229.073 201.543L223.089 147.857Z" stroke="#263238" stroke-linecap="round" stroke-linejoin="round"/>
<path d="M199.537 150.5L256.561 144.146L262.537 197.831L258.703 198.254L253.078 147.719L199.888 153.65L199.537 150.5Z" fill="#EC8305" stroke="#263238" stroke-linecap="round" stroke-linejoin="round"/>
<path d="M245.32 142.373L161.809 151.679L162.133 154.64L258.172 143.948L257.839 140.978L250.828 141.761L245.32 142.373Z" fill="#EC8305"/>
<mask id="mask7_185_2131" style="mask-type:luminance" maskUnits="userSpaceOnUse" x="161" y="140" width="98" height="15">
<path d="M245.32 142.373L161.809 151.679L162.133 154.64L258.172 143.948L257.839 140.978L250.828 141.761L245.32 142.373Z" fill="white"/>
</mask>
<g mask="url(#mask7_185_2131)">
<path opacity="0.6" d="M245.32 142.373L161.809 151.679L162.133 154.64L258.172 143.948L257.839 140.978L250.828 141.761L245.32 142.373Z" fill="white"/>
</g>
<path d="M245.32 142.373L161.809 151.679L162.133 154.64L258.172 143.948L257.839 140.978L250.828 141.761L245.32 142.373Z" stroke="#263238" stroke-linecap="round" stroke-linejoin="round"/>
<path d="M169.738 208.163L163.753 154.478L201.913 150.23L207.898 203.915L204.055 204.338L198.43 153.812L167.938 157.205L173.572 207.74L169.738 208.163Z" fill="#EC8305"/>
<mask id="mask8_185_2131" style="mask-type:luminance" maskUnits="userSpaceOnUse" x="163" y="150" width="45" height="59">
<path d="M169.738 208.163L163.753 154.478L201.913 150.23L207.898 203.915L204.055 204.338L198.43 153.812L167.938 157.205L173.572 207.74L169.738 208.163Z" fill="white"/>
</mask>
<g mask="url(#mask8_185_2131)">
<path opacity="0.2" d="M169.738 208.163L163.753 154.478L201.913 150.23L207.898 203.915L204.055 204.338L198.43 153.812L167.938 157.205L173.572 207.74L169.738 208.163Z" fill="white"/>
</g>
<path d="M169.738 208.163L163.753 154.478L201.913 150.23L207.898 203.915L204.055 204.338L198.43 153.812L167.938 157.205L173.572 207.74L169.738 208.163Z" stroke="#263238" stroke-linecap="round" stroke-linejoin="round"/>
<path d="M260.539 158.141C257.474 155.692 253.763 154.186 249.857 153.807C245.952 153.428 242.021 154.193 238.542 156.008C235.063 157.822 232.187 160.609 230.263 164.029C228.339 167.448 227.45 171.353 227.705 175.269C227.96 179.184 229.348 182.941 231.699 186.082C234.05 189.224 237.263 191.614 240.948 192.962C244.633 194.31 248.63 194.559 252.453 193.677C256.277 192.795 259.761 190.82 262.483 187.994L265.534 190.433L267.856 187.526L264.805 185.087C267.579 180.872 268.68 175.772 267.891 170.788C267.102 165.803 264.48 161.293 260.539 158.141ZM261.7 185.015C259.505 187.746 256.55 189.764 253.207 190.815C249.865 191.866 246.286 191.902 242.923 190.919C239.561 189.936 236.565 187.977 234.315 185.291C232.066 182.605 230.664 179.312 230.286 175.829C229.908 172.346 230.572 168.829 232.193 165.723C233.814 162.617 236.32 160.061 239.394 158.38C242.468 156.699 245.971 155.966 249.461 156.276C252.951 156.586 256.271 157.924 259 160.121C260.813 161.577 262.321 163.377 263.439 165.417C264.556 167.456 265.26 169.696 265.511 172.008C265.761 174.32 265.554 176.659 264.9 178.891C264.246 181.123 263.159 183.204 261.7 185.015Z" fill="#757575" stroke="#263238" stroke-linecap="round" stroke-linejoin="round"/>
<path d="M291.013 208.424C290.781 208.717 290.493 208.961 290.166 209.142C289.839 209.323 289.48 209.438 289.109 209.48C288.737 209.522 288.361 209.49 288.002 209.386C287.643 209.282 287.308 209.108 287.017 208.874L264.841 191.144C264.778 191.094 264.726 191.032 264.688 190.962C264.649 190.892 264.625 190.815 264.617 190.735C264.608 190.656 264.616 190.575 264.639 190.499C264.662 190.422 264.7 190.351 264.751 190.289L267.541 186.797C267.642 186.671 267.788 186.59 267.948 186.572C268.108 186.553 268.269 186.599 268.396 186.698L290.572 204.428C291.16 204.9 291.537 205.585 291.62 206.335C291.702 207.084 291.484 207.835 291.013 208.424Z" fill="#999999" stroke="#263238" stroke-linecap="round" stroke-linejoin="round"/>
<path d="M142.072 211.25L139.471 211.538L127.762 165.971L130.273 165.323L142.072 211.25Z" fill="#999999" stroke="#263238" stroke-linecap="round" stroke-linejoin="round"/>
<path d="M140.418 144.948L109.308 152.942L114.318 172.441L145.429 164.448L140.418 144.948Z" fill="#263238"/>
<path d="M119.752 163.325L119.95 164.09C120.03 164.273 120.066 164.471 120.056 164.67C120.047 164.869 119.992 165.063 119.895 165.237C119.798 165.411 119.663 165.56 119.499 165.674C119.336 165.787 119.148 165.861 118.951 165.89L118.51 165.998L119.077 168.203L118.177 168.446L116.665 162.578L118.024 162.227C118.21 162.16 118.409 162.137 118.605 162.159C118.801 162.181 118.99 162.247 119.157 162.353C119.323 162.459 119.464 162.602 119.567 162.77C119.67 162.939 119.733 163.128 119.752 163.325ZM117.79 163.181L118.294 165.161L118.735 165.053C119.023 164.972 119.149 164.801 119.041 164.378L118.816 163.478C118.708 163.055 118.519 162.965 118.222 163.037L117.79 163.181Z" fill="#EC8305"/>
<path d="M120.094 163.19C120.03 163.001 120.006 162.801 120.023 162.603C120.04 162.404 120.098 162.211 120.193 162.036C120.288 161.861 120.418 161.707 120.575 161.584C120.732 161.462 120.913 161.373 121.106 161.323C121.299 161.274 121.5 161.264 121.697 161.296C121.894 161.328 122.082 161.399 122.249 161.507C122.417 161.615 122.561 161.756 122.672 161.921C122.782 162.087 122.858 162.274 122.893 162.47L123.676 165.521C123.74 165.71 123.764 165.91 123.747 166.108C123.73 166.307 123.672 166.5 123.577 166.675C123.482 166.85 123.352 167.004 123.195 167.127C123.038 167.249 122.857 167.338 122.664 167.388C122.471 167.437 122.27 167.447 122.073 167.415C121.876 167.383 121.688 167.312 121.521 167.204C121.353 167.096 121.209 166.955 121.098 166.79C120.988 166.624 120.912 166.437 120.877 166.241L120.094 163.19ZM121.813 166.061C121.921 166.484 122.146 166.592 122.443 166.52C122.74 166.448 122.875 166.232 122.776 165.818L121.957 162.65C121.849 162.227 121.624 162.119 121.327 162.191C121.03 162.263 120.895 162.479 121.003 162.893L121.813 166.061Z" fill="#EC8305"/>
<path d="M124.351 160.526C124.54 160.461 124.74 160.44 124.938 160.464C125.136 160.488 125.326 160.557 125.494 160.665C125.661 160.774 125.801 160.919 125.904 161.09C126.007 161.26 126.07 161.452 126.088 161.651L126.133 161.831L125.233 162.056L125.17 161.813C125.062 161.399 124.846 161.282 124.558 161.354C124.27 161.426 124.135 161.633 124.243 162.056C124.351 162.479 124.621 162.749 125.359 163.118C126.259 163.604 126.673 164.018 126.844 164.702C126.935 164.891 126.984 165.098 126.986 165.309C126.987 165.519 126.942 165.727 126.854 165.917C126.766 166.108 126.637 166.277 126.475 166.412C126.314 166.547 126.125 166.644 125.921 166.697C125.718 166.75 125.505 166.757 125.299 166.718C125.092 166.679 124.897 166.594 124.727 166.47C124.557 166.347 124.417 166.187 124.316 166.003C124.215 165.818 124.156 165.614 124.144 165.404L124.045 165.044L124.945 164.819L125.053 165.242C125.161 165.656 125.386 165.764 125.683 165.683C125.98 165.602 126.115 165.413 126.007 164.99C125.899 164.567 125.638 164.297 124.9 163.919C123.955 163.442 123.586 163.019 123.415 162.344C123.336 162.165 123.298 161.97 123.303 161.774C123.309 161.578 123.359 161.386 123.449 161.211C123.538 161.037 123.666 160.885 123.822 160.766C123.978 160.648 124.159 160.566 124.351 160.526Z" fill="#EC8305"/>
<path d="M126.268 160.103L127.168 159.869L128.68 165.737L127.78 165.971L126.268 160.103Z" fill="#EC8305"/>
<path d="M127.6 159.761L130.444 159.032L130.66 159.869L129.697 160.121L130.993 165.143L130.093 165.386L128.77 160.4L127.807 160.643L127.6 159.761Z" fill="#EC8305"/>
<path d="M130.84 158.924L131.74 158.69L133.243 164.558L132.343 164.792L130.84 158.924Z" fill="#EC8305"/>
<path d="M132.721 159.941C132.657 159.752 132.633 159.552 132.65 159.354C132.667 159.155 132.725 158.962 132.82 158.787C132.915 158.612 133.045 158.458 133.202 158.335C133.359 158.213 133.54 158.124 133.733 158.074C133.926 158.025 134.127 158.015 134.324 158.047C134.521 158.079 134.709 158.15 134.876 158.258C135.044 158.366 135.188 158.507 135.299 158.672C135.409 158.838 135.485 159.025 135.52 159.221L136.303 162.272C136.367 162.461 136.391 162.661 136.374 162.859C136.357 163.058 136.299 163.251 136.204 163.426C136.109 163.601 135.979 163.755 135.822 163.878C135.665 164 135.484 164.089 135.291 164.139C135.098 164.188 134.897 164.198 134.7 164.166C134.503 164.134 134.315 164.063 134.148 163.955C133.98 163.847 133.836 163.706 133.725 163.541C133.615 163.375 133.539 163.188 133.504 162.992L132.721 159.941ZM134.44 162.821C134.548 163.235 134.773 163.343 135.07 163.271C135.367 163.199 135.502 162.992 135.394 162.569L134.584 159.401C134.476 158.987 134.251 158.87 133.954 158.951C133.657 159.032 133.522 159.23 133.63 159.653L134.44 162.821Z" fill="#EC8305"/>
<path d="M137.005 159.068L138.094 163.316L137.266 163.532L135.745 157.7L136.906 157.403L138.706 160.679L137.806 157.169L138.625 156.962L140.137 162.83L139.183 163.073L137.005 159.068Z" fill="#EC8305"/>
<path d="M123.586 157.376L123.91 157.295C124.198 157.223 124.405 157.052 124.288 156.602L123.136 152.102L124.036 151.859L125.17 156.269C125.467 157.439 124.918 157.907 124.225 158.069L123.775 158.168L123.586 157.376Z" fill="#EC8305"/>
<path d="M124.981 153.2C124.917 153.011 124.893 152.811 124.91 152.613C124.927 152.414 124.985 152.221 125.08 152.046C125.175 151.871 125.305 151.717 125.462 151.594C125.619 151.472 125.8 151.383 125.993 151.333C126.186 151.284 126.387 151.274 126.584 151.306C126.781 151.338 126.969 151.409 127.136 151.517C127.304 151.625 127.448 151.766 127.559 151.931C127.669 152.097 127.745 152.284 127.78 152.48L128.563 155.531C128.627 155.72 128.651 155.92 128.634 156.118C128.617 156.317 128.559 156.51 128.464 156.685C128.369 156.86 128.239 157.014 128.082 157.137C127.925 157.259 127.744 157.348 127.551 157.398C127.358 157.447 127.157 157.457 126.96 157.425C126.763 157.393 126.575 157.322 126.408 157.214C126.24 157.106 126.096 156.965 125.985 156.8C125.875 156.634 125.799 156.447 125.764 156.251L124.981 153.2ZM126.7 156.071C126.808 156.494 127.033 156.602 127.321 156.53C127.609 156.458 127.762 156.242 127.654 155.828L126.844 152.66C126.736 152.237 126.511 152.129 126.214 152.201C125.917 152.273 125.773 152.489 125.881 152.903L126.7 156.071Z" fill="#EC8305"/>
<path d="M131.119 151.517L131.173 151.724C131.266 151.948 131.287 152.196 131.234 152.432C131.181 152.669 131.056 152.884 130.876 153.047C131.425 153.119 131.776 153.497 131.884 154.118L132.01 154.595C132.092 154.781 132.129 154.983 132.118 155.185C132.107 155.388 132.048 155.585 131.946 155.761C131.844 155.936 131.702 156.085 131.532 156.195C131.362 156.306 131.168 156.374 130.966 156.395L129.517 156.764L128.014 150.905L129.4 150.5C129.579 150.42 129.774 150.384 129.969 150.396C130.164 150.407 130.354 150.465 130.522 150.564C130.691 150.664 130.833 150.802 130.937 150.968C131.04 151.134 131.103 151.322 131.119 151.517ZM129.148 151.517L129.544 153.074L129.904 152.975C130.255 152.894 130.426 152.687 130.3 152.219L130.219 151.886C130.111 151.472 129.922 151.319 129.589 151.409L129.148 151.517ZM129.76 153.911L130.228 155.711L130.75 155.576C131.065 155.495 131.191 155.306 131.083 154.874L130.948 154.361C130.813 153.821 130.588 153.695 130.174 153.803L129.76 153.911Z" fill="#EC8305"/>
<path d="M300.247 98.507L258.1 103.196C257.396 103.28 256.752 103.637 256.309 104.191C255.867 104.745 255.659 105.451 255.733 106.157L257.389 120.998C257.473 121.701 257.829 122.342 258.381 122.785C258.933 123.228 259.637 123.436 260.341 123.365L265.606 122.78L262.006 131.78L269.062 122.42L302.443 118.703C303.147 118.619 303.791 118.262 304.234 117.708C304.676 117.154 304.884 116.448 304.81 115.742L303.154 100.892C303.075 100.195 302.727 99.5555 302.184 99.1103C301.641 98.6651 300.946 98.4487 300.247 98.507Z" fill="white" stroke="#263238" stroke-linecap="round" stroke-linejoin="round"/>
<path d="M264.238 115.472C264.14 115.257 264.085 115.024 264.076 114.788L263.977 113.888C263.923 113.357 263.725 113.186 263.32 113.231H263.014L263.266 115.535L262.366 115.634L261.736 109.964L263.077 109.82C263.252 109.768 263.437 109.759 263.617 109.793C263.796 109.827 263.965 109.904 264.108 110.017C264.252 110.13 264.367 110.275 264.442 110.441C264.518 110.608 264.553 110.79 264.544 110.972L264.598 111.422C264.654 111.646 264.641 111.882 264.559 112.097C264.476 112.313 264.33 112.498 264.139 112.628C264.607 112.763 264.796 113.168 264.868 113.753L264.958 114.653C264.97 114.891 265.032 115.124 265.138 115.337L264.238 115.472ZM262.726 110.72L262.924 112.466L263.266 112.421C263.599 112.421 263.788 112.223 263.734 111.764L263.671 111.206C263.626 110.801 263.473 110.639 263.158 110.675L262.726 110.72Z" fill="#263238"/>
<path d="M266.2 111.944L267.424 111.8L267.514 112.61L266.29 112.745L266.47 114.41L268.009 114.239L268.099 115.049L265.669 115.319L265.039 109.649L267.469 109.379L267.559 110.189L266.02 110.36L266.2 111.944Z" fill="#263238"/>
<path d="M268.054 110.684C268.028 110.503 268.038 110.319 268.084 110.143C268.13 109.966 268.212 109.801 268.324 109.656C268.435 109.512 268.575 109.392 268.734 109.302C268.893 109.213 269.069 109.157 269.25 109.137C269.432 109.117 269.615 109.134 269.79 109.186C269.965 109.239 270.127 109.326 270.268 109.443C270.408 109.559 270.523 109.703 270.607 109.865C270.69 110.028 270.74 110.205 270.754 110.387L271.087 113.33C271.119 113.603 271.089 113.88 270.997 114.14C271.051 114.248 271.123 114.257 271.267 114.239H271.348L271.438 115.031H271.312C271.163 115.066 271.006 115.057 270.862 115.004C270.718 114.951 270.593 114.857 270.502 114.734C270.309 114.824 270.102 114.882 269.89 114.905C269.704 114.941 269.513 114.936 269.329 114.888C269.146 114.841 268.976 114.753 268.831 114.632C268.686 114.51 268.57 114.357 268.492 114.185C268.413 114.013 268.374 113.825 268.378 113.636L268.054 110.684ZM269.278 113.591C269.323 113.996 269.521 114.131 269.8 114.095C270.079 114.059 270.241 113.897 270.196 113.492L269.854 110.432C269.809 110.027 269.62 109.892 269.332 109.919C269.044 109.946 268.891 110.126 268.936 110.531L269.278 113.591Z" fill="#263238"/>
<path d="M272.023 108.866L272.509 113.24C272.554 113.645 272.752 113.771 273.031 113.735C273.31 113.699 273.481 113.537 273.436 113.141L272.95 108.767L273.787 108.668L274.273 112.988C274.292 113.165 274.277 113.345 274.227 113.516C274.177 113.687 274.094 113.847 273.983 113.986C273.871 114.125 273.733 114.241 273.577 114.327C273.42 114.413 273.249 114.467 273.071 114.486C272.894 114.506 272.715 114.49 272.544 114.441C272.372 114.391 272.213 114.308 272.073 114.196C271.934 114.085 271.818 113.947 271.733 113.79C271.647 113.634 271.592 113.462 271.573 113.285L271.087 108.965L272.023 108.866Z" fill="#263238"/>
<path d="M274.39 108.605L275.29 108.506L275.92 114.167L275.02 114.266L274.39 108.605Z" fill="#263238"/>
<path d="M278.422 113.888C278.324 113.673 278.269 113.44 278.26 113.204L278.161 112.304C278.107 111.782 277.909 111.602 277.504 111.647H277.198L277.45 113.951L276.55 114.05L275.92 108.389L277.261 108.236C277.437 108.186 277.622 108.178 277.801 108.214C277.981 108.249 278.149 108.327 278.292 108.44C278.435 108.554 278.55 108.7 278.626 108.866C278.701 109.032 278.736 109.214 278.728 109.397L278.782 109.838C278.84 110.062 278.827 110.298 278.744 110.514C278.662 110.73 278.515 110.915 278.323 111.044C278.791 111.179 278.98 111.584 279.052 112.178L279.151 113.078C279.156 113.313 279.215 113.544 279.322 113.753L278.422 113.888ZM276.91 109.145L277.108 110.882H277.45C277.783 110.882 277.972 110.675 277.918 110.225L277.855 109.667C277.81 109.262 277.657 109.1 277.342 109.136L276.91 109.145Z" fill="#263238"/>
<path d="M280.339 110.36L281.563 110.225L281.653 111.035L280.429 111.17L280.609 112.826L282.148 112.655L282.238 113.465L279.817 113.735L279.178 108.074L281.608 107.804L281.698 108.614L280.159 108.785L280.339 110.36Z" fill="#263238"/>
<path d="M284.479 111.557L284.632 107.471L285.874 107.336L286.504 112.997L285.658 113.096L285.208 109.028L285.1 113.15L284.254 113.249L283.165 109.316L283.615 113.321L282.832 113.402L282.202 107.741L283.444 107.606L284.479 111.557Z" fill="#263238"/>
<path d="M287.692 109.541L288.907 109.406L288.997 110.216L287.782 110.351L287.962 112.007L289.501 111.836L289.591 112.646L287.161 112.916L286.531 107.255L288.961 106.985L289.051 107.795L287.512 107.966L287.692 109.541Z" fill="#263238"/>
<path d="M290.5 108.389L290.959 112.493L290.158 112.574L289.528 106.913L290.644 106.787L291.922 110.081L291.544 106.688L292.336 106.598L292.966 112.259L292.066 112.367L290.5 108.389Z" fill="#263238"/>
<path d="M292.705 106.562L295.459 106.256L295.549 107.066L294.649 107.174L295.189 112.025L294.289 112.124L293.749 107.273L292.849 107.372L292.705 106.562Z" fill="#263238"/>
<path d="M297.034 106.022C297.934 105.923 298.402 106.391 298.501 107.3V107.471L297.664 107.57V107.336C297.619 106.931 297.439 106.796 297.151 106.823C296.863 106.85 296.728 107.03 296.773 107.435C296.818 107.84 297.034 108.128 297.673 108.578C297.987 108.742 298.256 108.979 298.46 109.269C298.663 109.558 298.795 109.892 298.843 110.243C298.89 110.422 298.897 110.609 298.862 110.791C298.828 110.973 298.753 111.145 298.643 111.294C298.534 111.444 298.392 111.566 298.229 111.654C298.066 111.741 297.885 111.791 297.7 111.8C297.515 111.834 297.325 111.826 297.144 111.776C296.963 111.727 296.795 111.638 296.653 111.515C296.51 111.393 296.397 111.24 296.321 111.068C296.246 110.896 296.209 110.71 296.215 110.522V110.171L297.061 110.081L297.106 110.486C297.151 110.891 297.34 111.017 297.628 110.981C297.916 110.945 298.069 110.783 298.024 110.378C297.979 109.973 297.763 109.676 297.124 109.235C296.811 109.071 296.541 108.834 296.337 108.544C296.134 108.255 296.002 107.921 295.954 107.57C295.774 106.679 296.161 106.112 297.034 106.022Z" fill="#263238"/>
<path d="M75.778 218.63L332.188 190.073" stroke="#263238" stroke-linecap="round" stroke-linejoin="round"/>
<path d="M77.641 215.021C76.4927 214.496 75.2362 214.252 73.9749 214.308C72.7137 214.365 71.4839 214.72 70.387 215.345C68.4903 216.486 67.0058 218.201 66.148 220.241C63.151 226.487 54.898 240.788 53.458 244.892C52.018 248.996 48.958 260.345 45.565 265.259C42.172 270.173 40.543 277.4 40.543 277.4L43.243 345.98C44.674 335.954 49.543 324.38 49.543 324.38C54.2209 321.593 58.1041 317.651 60.82 312.932C61.6373 311.959 62.3605 310.91 62.98 309.8C67.966 300.989 69.721 285.554 69.28 273.683C68.821 260.228 72.826 253.883 79.18 241.76C85.534 229.637 82.375 217.361 77.641 215.021Z" fill="white"/>
<path opacity="0.4" d="M77.641 215.021C76.4889 214.512 75.2345 214.276 73.976 214.332C72.7175 214.388 71.4891 214.735 70.387 215.345C74.302 216.164 79.477 217.847 78.487 220.862C76.939 225.623 71.188 219.062 68.641 221.447C66.094 223.832 57.112 237.332 63.628 242.642C70.144 247.952 68.749 257.6 64.69 260.525C60.631 263.45 63.736 269.687 65.671 279.668C66.85 285.707 64.771 299.666 62.971 309.755C67.957 300.944 69.712 285.509 69.271 273.638C68.812 260.183 72.817 253.838 79.171 241.715C85.525 229.592 82.366 217.199 77.641 215.021Z" fill="#EC8305"/>
<path d="M43.252 345.935C44.683 335.918 49.552 324.335 49.552 324.335C54.2312 321.547 58.1171 317.605 60.838 312.887C67.453 305.084 69.757 287.084 69.298 273.638C68.839 260.192 72.898 253.883 79.198 241.706C85.498 229.529 82.879 217.505 77.623 215.021C73.96 213.293 69.136 213.995 66.13 220.241C63.124 226.487 54.88 240.788 53.44 244.883C52 248.978 48.94 260.345 45.547 265.268C42.154 270.191 40.543 277.4 40.543 277.4" stroke="#263238" stroke-linecap="round" stroke-linejoin="round"/>
<path d="M59.2 245.756C59.2 245.756 64.717 245.927 67.3 247.844" stroke="#263238" stroke-linecap="round" stroke-linejoin="round"/>
<path d="M38.446 276.086C38.446 276.086 37.231 273.566 42.685 270.74" stroke="#263238" stroke-linecap="round" stroke-linejoin="round"/>
<path opacity="0.2" d="M231.64 224.714C242.638 224.804 256.399 274.376 260.683 280.082C260.683 280.082 322.108 282.197 329.848 290.765C337.588 299.333 333.754 306.569 338.848 314.696C343.942 322.823 345.4 336.521 345.4 336.521L358.9 359.3L301.039 387.02C301.039 387.02 270.124 369.308 262.582 365.312C255.04 361.316 232.693 352.586 226.753 341.3C220.813 330.014 220.516 319.421 219.238 314.732C217.96 310.043 242.8 296.003 242.8 296.003L231.64 224.714Z" fill="black" fill-opacity="0.7"/>
<path d="M366.604 363.8C361.618 359.192 356.38 354.296 352.069 350.246C346.57 345.08 342.583 341.309 342.583 341.309C339.307 334.433 336.427 332.12 332.8 326.693C329.173 321.266 329.731 315.542 328.876 307.964C328.021 300.386 324.952 293.861 323.071 289.397C321.19 284.933 321.037 280.316 320.659 279.317C320.281 278.318 314.584 273.917 311.947 270.317C310.764 268.712 309.319 267.318 307.672 266.195C305.829 264.888 303.711 264.023 301.48 263.666C300.555 263.542 299.619 263.524 298.69 263.612C296.857 263.904 295.051 264.347 293.29 264.935C290.968 265.493 285.1 262.658 281.716 262.793C281.086 262.793 280.465 262.883 279.835 262.973C276.923 263.517 274.058 264.291 271.267 265.286C268.216 266.186 263.86 264.188 260.71 263.954H260.647C259.946 263.878 259.237 263.967 258.577 264.215C255.598 265.466 249.901 267.374 249.901 267.374C249.901 267.374 248.434 263.495 246.868 258.122C246.598 257.222 246.319 256.322 246.022 255.422C244.924 252.146 243.727 249.257 242.989 246.539C242.793 245.843 242.634 245.137 242.512 244.424C241.846 240.491 241 237.494 239.461 231.608L239.299 230.978C238.813 229.178 238.399 227.378 237.94 225.794C236.797 221.978 235.24 219.332 231.271 219.656C227.779 219.944 225.871 222.176 225.772 228.08C225.673 233.984 224.548 233.831 226.105 242.066C227.662 250.301 227.086 255.917 228.337 259.985C229.588 264.053 230.596 272.288 230.596 272.288C228.859 271.883 227.59 272.873 227.482 273.584C227.374 274.295 227.734 280.901 227.914 285.644C228.067 289.856 225.295 294.446 224.602 297.542C224.602 297.542 224.602 297.596 224.602 297.614C224.525 297.948 224.48 298.288 224.467 298.631C224.368 301.655 226.213 307.631 228.067 315.398C229.921 323.165 229.867 331.598 233.071 336.332C233.733 337.286 234.545 338.128 235.474 338.825C239.326 341.786 245.554 343.649 251.935 348.356C259.9 354.251 265.597 358.625 270.313 360.056C273.697 361.1 275.335 362.216 276.334 363.971C276.733 364.741 277.035 365.557 277.234 366.401C277.684 368.03 278.881 369.101 280.888 370.811C284.028 373.435 286.923 376.339 289.537 379.487C291.985 382.403 296.035 388.109 300.337 394.454L366.604 363.8Z" fill="white"/>
<path opacity="0.4" d="M242.476 244.397C242.598 245.11 242.757 245.816 242.953 246.512C237.787 246.764 228.832 251.48 229.381 254.423C230.065 258.023 231.64 266.528 233.881 268.049C236.122 269.57 240.334 269.903 240.334 269.903C240.055 269.992 239.781 270.097 239.515 270.218L239.425 270.263C238.252 270.825 237.276 271.729 236.626 272.855C233.782 277.634 235.672 286.265 237.904 290.099C247.183 306.047 242.053 321.653 238.696 320.699C235.339 319.745 231.55 305.048 231.622 301.367C231.681 299.212 231.448 297.06 230.929 294.968C229.507 294.842 226.888 296.147 224.53 297.542C224.53 297.542 224.53 297.497 224.53 297.47C225.223 294.374 227.995 289.784 227.842 285.572C227.662 280.829 227.293 274.223 227.41 273.512C227.527 272.801 228.787 271.811 230.524 272.216C230.524 272.216 229.507 263.99 228.265 259.913C227.023 255.836 227.59 250.238 226.033 241.994C224.476 233.75 225.601 233.894 225.7 228.008C225.799 222.122 227.707 219.908 231.199 219.584C235.186 219.26 236.725 221.906 237.868 225.722C237.329 225.417 236.769 225.15 236.194 224.921C234.752 224.267 233.116 224.18 231.613 224.678C229.885 225.353 228.751 227.513 228.22 229.646C227.446 232.715 227.923 235.739 229.687 234.254C231.685 232.58 236.455 231.833 239.398 231.554C241 237.467 241.81 240.5 242.476 244.397Z" fill="#EC8305"/>
<path opacity="0.4" d="M277.225 366.419C277.028 365.577 276.726 364.764 276.325 363.998C275.326 362.243 273.688 361.127 270.304 360.083C265.588 358.616 259.891 354.242 251.926 348.383C245.545 343.676 239.326 341.813 235.465 338.852C239.695 339.986 244.537 337.727 246.904 340.553C250.342 344.63 262.969 349.031 262.969 349.031C276.1 357.014 277.225 366.419 277.225 366.419Z" fill="#EC8305"/>
<path opacity="0.4" d="M260.62 263.9C259.306 263.9 257.92 273.161 258.289 276.23C259.288 284.159 268.954 307.055 263.689 307.73C261.52 308.018 256.39 297.47 254.995 292.322C250.774 276.662 249.838 269.957 249.838 269.957C249.838 269.957 246.625 261.497 245.959 255.368C246.256 256.268 246.535 257.168 246.805 258.068C248.371 263.468 249.838 267.32 249.838 267.32C249.838 267.32 255.535 265.412 258.514 264.161C259.185 263.907 259.907 263.818 260.62 263.9Z" fill="#EC8305"/>
<path opacity="0.4" d="M279.808 263C277.108 263.9 274.993 267.257 272.86 268.274C270.25 269.525 263.725 264.539 260.683 263.981C263.833 264.215 268.189 266.249 271.24 265.313C274.031 264.318 276.896 263.544 279.808 263Z" fill="#EC8305"/>
<path opacity="0.4" d="M298.672 263.585C297.718 265.616 297.078 267.779 296.773 270.002C296.269 277.688 304.873 304.274 300.211 300.692C294.181 296.039 294.253 274.898 289.051 268.076C287.386 265.889 282.625 262.901 281.716 262.766C285.1 262.631 290.968 265.466 293.29 264.908C295.045 264.321 296.845 263.878 298.672 263.585Z" fill="#EC8305"/>
<path opacity="0.4" d="M352.051 350.21C347.452 346.988 342.7 344 339.892 343.1C332.998 340.994 330.388 337.7 328.399 331.697C326.41 325.694 328.003 325.451 328.399 318.944C328.795 312.437 323.593 305.732 324.241 307.298C324.889 308.864 324.727 320.798 322.765 321.833C320.803 322.868 318.265 315.488 316.537 309.368C314.809 303.248 311.29 273.701 309.004 268.301C308.686 267.512 308.242 266.78 307.69 266.132C309.337 267.255 310.782 268.649 311.965 270.254C314.602 273.854 320.299 278.237 320.677 279.254C321.055 280.271 321.199 284.87 323.089 289.334C324.979 293.798 328.039 300.314 328.894 307.901C329.749 315.488 329.209 321.212 332.818 326.63C336.427 332.048 339.325 334.37 342.601 341.246C342.565 341.3 346.552 345.044 352.051 350.21Z" fill="#EC8305"/>
<path opacity="0.4" d="M277.513 279.677C279.232 280.793 284.623 299.477 286.513 303.977C288.403 308.477 288.655 320.177 286.468 317.117C284.281 314.057 270.502 275.132 277.513 279.677Z" fill="#EC8305"/>
<path d="M298.699 392.06C295.009 386.705 291.661 382.043 289.528 379.505C286.914 376.357 284.019 373.453 280.879 370.829C278.872 369.101 277.675 368.048 277.225 366.419C277.028 365.577 276.726 364.764 276.325 363.998C275.326 362.243 273.688 361.127 270.304 360.083C265.588 358.616 259.891 354.242 251.926 348.383C245.545 343.676 239.326 341.813 235.465 338.852C234.536 338.155 233.724 337.313 233.062 336.359C229.885 331.661 229.912 323.174 228.058 315.425C226.204 307.676 224.359 301.682 224.458 298.658C224.471 298.315 224.516 297.975 224.593 297.641C224.593 297.641 224.593 297.596 224.593 297.569C225.286 294.473 228.058 289.883 227.905 285.671C227.725 280.928 227.356 274.322 227.473 273.611C227.59 272.9 228.85 271.91 230.587 272.315C230.587 272.315 229.57 264.089 228.328 260.012C227.086 255.935 227.653 250.337 226.096 242.093C224.539 233.849 225.664 233.993 225.763 228.107C225.862 222.221 227.77 220.007 231.262 219.683C235.249 219.359 236.788 222.005 237.931 225.821C238.408 227.396 238.831 229.169 239.29 231.005L239.452 231.635C240.991 237.521 241.837 240.518 242.503 244.451C242.625 245.164 242.784 245.87 242.98 246.566C243.718 249.266 244.915 252.173 246.013 255.449C246.31 256.349 246.589 257.249 246.859 258.149C248.425 263.549 249.892 267.401 249.892 267.401C249.892 267.401 255.589 265.493 258.568 264.242C259.228 263.994 259.937 263.905 260.638 263.981H260.701C263.851 264.215 268.207 266.249 271.258 265.313C274.049 264.318 276.914 263.544 279.826 263C280.456 262.91 281.077 262.847 281.707 262.82C285.091 262.685 290.959 265.52 293.281 264.962C295.042 264.374 296.848 263.931 298.681 263.639C299.61 263.551 300.546 263.569 301.471 263.693C303.702 264.05 305.82 264.915 307.663 266.222C309.31 267.345 310.755 268.739 311.938 270.344C314.575 273.944 320.272 278.327 320.65 279.344C321.028 280.361 321.172 284.96 323.062 289.424C324.952 293.888 328.012 300.404 328.867 307.991C329.722 315.578 329.182 321.302 332.791 326.72C336.4 332.138 339.298 334.46 342.574 341.336C342.574 341.336 346.561 345.107 352.06 350.273C355.885 353.873 360.439 358.121 364.894 362.252" stroke="#263238" stroke-linecap="round" stroke-linejoin="round"/>
<path d="M230.551 272.252C231.91 277.94 233.08 285.131 232.918 288.272C232.756 291.413 235.69 301.088 235.096 305.606" stroke="#263238" stroke-linecap="round" stroke-linejoin="round"/>
<path d="M234.556 276.032C234.556 276.032 237.445 270.632 240.379 269.903C243.313 269.174 246.679 270.398 249.874 270.002C253.069 269.606 255.742 266.546 258.586 265.286" stroke="#263238" stroke-linecap="round" stroke-linejoin="round"/>
<path d="M231.838 254.765C231.838 254.765 236.707 251.534 239.938 252.821" stroke="#263238" stroke-linecap="round" stroke-linejoin="round"/>
<path d="M235.285 251.3C236.624 250.745 238.112 250.66 239.506 251.057" stroke="#263238" stroke-linecap="round" stroke-linejoin="round"/>
<path d="M230.56 237.8C232.266 236.968 234.134 236.522 236.032 236.495" stroke="#263238" stroke-linecap="round" stroke-linejoin="round"/>
<path d="M224.566 297.506C225.922 296.36 227.391 295.352 228.949 294.5" stroke="#263238" stroke-linecap="round" stroke-linejoin="round"/>
<path d="M234.88 300.629C234.26 302.358 233.82 304.147 233.566 305.966" stroke="#263238" stroke-linecap="round" stroke-linejoin="round"/>
<path d="M227.221 223.859C227.221 223.859 227.968 230.636 228.931 231.059C229.894 231.482 236.41 230.474 236.653 229.214C236.896 227.954 235.843 223.112 235.843 223.112C235.843 223.112 230.461 217.433 227.221 223.859Z" stroke="#263238" stroke-linecap="round" stroke-linejoin="round"/>
<path d="M227.869 285.608C227.869 285.608 232.513 281.675 231.73 277.832C230.947 273.989 229.399 274.394 227.428 274.844" stroke="#263238" stroke-linecap="round" stroke-linejoin="round"/>
<path d="M312.361 274.565C313.981 280.55 316.456 298.541 316.861 301.169C317.266 303.797 319.057 310.367 319.057 310.367" stroke="#263238" stroke-linecap="round" stroke-linejoin="round"/>
<path d="M271.321 269.786C278.989 276.707 272.545 274.925 285.613 313.571" stroke="#263238" stroke-linecap="round" stroke-linejoin="round"/>
<path d="M342.565 341.3C342.565 341.3 336.589 338.6 335.194 336.557" stroke="#263238" stroke-linecap="round" stroke-linejoin="round"/>
<path d="M271.762 356.231C273.868 358.382 276.145 363.647 276.262 363.971" stroke="#263238" stroke-linecap="round" stroke-linejoin="round"/>
</g>
<defs>
<clipPath id="clip0_185_2131">
<rect width="375" height="398" fill="white"/>
</clipPath>
</defs>
</svg>
