<svg width="100" height="100" viewBox="0 0 100 100" fill="none" xmlns="http://www.w3.org/2000/svg">
<g id="Job hunt-amico 1">
<g id="freepik--Floor--inject-69">
<path id="freepik--floor--inject-69" d="M81.466 79.7677C63.982 89.8117 35.636 89.8117 18.152 79.7677C0.667999 69.7237 0.669998 53.4417 18.152 43.3997C35.634 33.3577 63.984 33.3577 81.466 43.3997C98.948 53.4417 98.95 69.7257 81.466 79.7677Z" fill="#FAFAFA"/>
</g>
<g id="freepik--Shadows--inject-69">
<path id="freepik--Shadow--inject-69" d="M54.916 61.5841C51.242 59.4641 45.286 59.4641 41.612 61.5841C38.498 63.3841 38.026 66.1261 40.19 68.2141C40.0677 68.2461 39.95 68.2938 39.84 68.3561L28.24 75.0561C27.748 75.3401 27.748 75.8021 28.24 76.0861L28.968 76.5061C29.2412 76.645 29.545 76.7133 29.8514 76.7045C30.1578 76.6958 30.4571 76.6104 30.722 76.4561L41.522 69.3821C41.5661 69.3532 41.6076 69.3204 41.646 69.2841C45.322 71.3861 51.246 71.3801 54.914 69.2661C58.582 67.1521 58.6 63.7061 54.916 61.5841Z" fill="#E6E6E6"/>
<path id="freepik--shadow--inject-69" d="M80.74 53.8698L65.956 62.4238C65.7716 62.5175 65.5678 62.5663 65.361 62.5663C65.1542 62.5663 64.9504 62.5175 64.766 62.4238L39.048 47.5738C38.72 47.3858 38.72 47.0778 39.048 46.8878L53.832 38.3338C54.0164 38.2402 54.2202 38.1914 54.427 38.1914C54.6338 38.1914 54.8376 38.2402 55.022 38.3338L80.74 53.1838C81.068 53.3718 81.068 53.6798 80.74 53.8698Z" fill="#E6E6E6"/>
<path id="freepik--shadow--inject-69_2" d="M14.906 70.048L10.952 67.764C10.474 67.488 10.474 67.04 10.952 66.764L38.466 50.878C38.7344 50.7419 39.0311 50.6709 39.332 50.6709C39.6329 50.6709 39.9296 50.7419 40.198 50.878L44.154 53.162C44.632 53.438 44.632 53.886 44.154 54.162L16.638 70.048C16.3696 70.1842 16.0729 70.2551 15.772 70.2551C15.4711 70.2551 15.1744 70.1842 14.906 70.048Z" fill="#E6E6E6"/>
<path id="freepik--shadow--inject-69_3" d="M80.78 74.5875C84.815 74.5875 88.086 72.8002 88.086 70.5955C88.086 68.3908 84.815 66.6035 80.78 66.6035C76.745 66.6035 73.474 68.3908 73.474 70.5955C73.474 72.8002 76.745 74.5875 80.78 74.5875Z" fill="#E6E6E6"/>
</g>
<g id="freepik--Plants--inject-69">
<g id="freepik--plants--inject-69">
<path id="Vector" d="M83.978 66.6324C84.048 65.7464 84.836 63.9644 85.848 62.8884C86.86 61.8124 88.37 61.0884 89.368 61.5224C90.298 61.9224 90.094 63.1724 88.866 63.9084C87.638 64.6444 85.814 65.5504 85.188 66.9444L83.978 68.6204V66.6324Z" fill="#EC8305"/>
<path id="Vector_2" opacity="0.1" d="M83.978 66.6324C84.048 65.7464 84.836 63.9644 85.848 62.8884C86.86 61.8124 88.37 61.0884 89.368 61.5224C90.298 61.9224 90.094 63.1724 88.866 63.9084C87.638 64.6444 85.814 65.5504 85.188 66.9444L83.978 68.6204V66.6324Z" fill="#333333"/>
<path id="Vector_3" d="M83.814 67.8387C83.8285 67.8388 83.8425 67.8342 83.8541 67.8255C83.8657 67.8168 83.8741 67.8046 83.878 67.7907C84.714 64.8167 87.356 62.5567 88.862 62.1327C88.8769 62.1264 88.8889 62.1149 88.8959 62.1004C88.9029 62.0858 88.9043 62.0692 88.8998 62.0537C88.8954 62.0382 88.8854 62.0249 88.8718 62.0162C88.8582 62.0075 88.8419 62.0041 88.826 62.0067C87.292 62.4407 84.6 64.7367 83.752 67.7567C83.7496 67.765 83.7489 67.7736 83.7499 67.7822C83.7509 67.7907 83.7537 67.799 83.758 67.8065C83.7623 67.8139 83.768 67.8205 83.7749 67.8257C83.7818 67.8309 83.7896 67.8346 83.798 67.8367L83.814 67.8387Z" fill="white"/>
<path id="Vector_4" d="M84.11 69.8007C84.292 69.3147 84.966 68.5427 86.004 67.9427C87.152 67.2807 88.556 67.0467 88.92 66.4867C89.358 65.8167 88.82 65.1066 87.69 65.1546C86.56 65.2026 84.476 66.5687 83.978 68.8387L84.11 69.8007Z" fill="#EC8305"/>
<path id="Vector_5" d="M83.936 69.268C83.9484 69.2682 83.9605 69.2646 83.9708 69.2579C83.9811 69.2511 83.9892 69.2414 83.994 69.23C85.13 66.716 87.178 65.966 88.102 65.92C88.119 65.92 88.1353 65.9133 88.1473 65.9013C88.1593 65.8892 88.166 65.873 88.166 65.856C88.166 65.839 88.1593 65.8227 88.1473 65.8107C88.1353 65.7987 88.119 65.792 88.102 65.792C87.08 65.842 85.042 66.61 83.882 69.176C83.8784 69.1838 83.8764 69.1923 83.8762 69.201C83.8759 69.2096 83.8775 69.2182 83.8806 69.2263C83.8838 69.2343 83.8886 69.2416 83.8947 69.2477C83.9007 69.2539 83.908 69.2587 83.916 69.262C83.9222 69.2652 83.929 69.2673 83.936 69.268Z" fill="white"/>
</g>
<g id="freepik--plants--inject-69_2">
<path id="Vector_6" d="M11.278 61.6944C11.278 61.6944 11.078 59.8564 10.154 58.4284C9.23 57.0004 7.982 56.1124 6.81 56.0184C5.638 55.9244 4.692 57.0044 5.946 57.7464C7.2 58.4884 9.428 59.2424 10.454 62.0124L11.278 61.6944Z" fill="#EC8305"/>
<path id="Vector_7" opacity="0.1" d="M11.278 61.6944C11.278 61.6944 11.078 59.8564 10.154 58.4284C9.23 57.0004 7.982 56.1124 6.81 56.0184C5.638 55.9244 4.692 57.0044 5.946 57.7464C7.2 58.4884 9.428 59.2424 10.454 62.0124L11.278 61.6944Z" fill="#333333"/>
<path id="Vector_8" d="M10.934 61.2168H10.946C10.9537 61.2137 10.9607 61.2091 10.9666 61.2033C10.9724 61.1975 10.9771 61.1906 10.9803 61.1829C10.9835 61.1753 10.9851 61.1671 10.985 61.1588C10.985 61.1505 10.9833 61.1424 10.98 61.1348C9.744 58.0868 7.38 56.8148 6.316 56.5668C6.30041 56.5651 6.28476 56.5693 6.27201 56.5784C6.25927 56.5875 6.25032 56.601 6.24687 56.6163C6.24342 56.6316 6.2457 56.6476 6.25328 56.6614C6.26086 56.6751 6.27321 56.6855 6.288 56.6908C7.338 56.9308 9.646 58.1828 10.864 61.1808C10.87 61.1937 10.8801 61.2043 10.8928 61.2108C10.9055 61.2173 10.92 61.2194 10.934 61.2168Z" fill="white"/>
<path id="Vector_9" d="M5.31 61.2001C5.424 61.4561 5.71 61.5881 5.96 61.6921C6.23012 61.7651 6.4685 61.9255 6.638 62.1481C6.92 62.6341 6.458 63.3181 6.76 63.7901C6.83084 63.8858 6.92072 63.9657 7.02399 64.0249C7.12725 64.0841 7.24166 64.1213 7.36 64.1341C7.5536 64.1622 7.74853 64.1802 7.944 64.1881C8.037 64.1858 8.1298 64.1785 8.222 64.1661C8.49085 64.1057 8.77214 64.1359 9.022 64.2521C9.408 64.4681 9.526 64.9561 9.76 65.3321C9.90549 65.5538 10.0971 65.7415 10.3218 65.8824C10.5466 66.0232 10.799 66.1138 11.062 66.1481C11.2859 66.1934 11.5179 66.1782 11.734 66.1041L11.772 66.0801C11.7964 66.0542 11.8191 66.0268 11.84 65.9981V65.9861C11.908 65.7341 11.796 65.4721 11.792 65.2121V65.1641C11.792 64.8621 11.812 64.5641 11.818 64.2601C11.8313 63.7041 11.8367 63.1481 11.834 62.5921C11.834 62.2321 11.874 61.8361 11.722 61.4961C11.552 61.1221 11.132 61.1141 10.974 60.7461C10.91 60.6001 10.876 60.4441 10.814 60.2961C10.7187 60.0795 10.5657 59.8933 10.3717 59.7579C10.1777 59.6224 9.95015 59.5429 9.714 59.5281C8.978 59.4901 8.314 60.0841 7.586 60.0301C7.39694 60.0046 7.20935 59.9693 7.024 59.9241C6.424 59.8121 5.742 59.9821 5.408 60.4841C5.33433 60.5863 5.28687 60.7051 5.26978 60.8299C5.2527 60.9547 5.26651 61.0819 5.31 61.2001Z" fill="#EC8305"/>
<path id="Vector_10" d="M11.908 64.8329C11.916 64.831 11.9236 64.8276 11.9302 64.8227C11.9369 64.8178 11.9424 64.8116 11.9465 64.8045C11.9507 64.7973 11.9533 64.7894 11.9542 64.7812C11.9552 64.7731 11.9544 64.7648 11.952 64.7569C10.942 60.9489 6.932 60.4009 6 60.4669C5.99185 60.4674 5.98389 60.4695 5.97656 60.4731C5.96923 60.4767 5.96268 60.4817 5.95729 60.4878C5.9519 60.494 5.94778 60.5011 5.94515 60.5088C5.94253 60.5166 5.94146 60.5247 5.942 60.5329C5.94087 60.5412 5.94152 60.5497 5.9439 60.5578C5.94628 60.5659 5.95034 60.5734 5.95581 60.5798C5.96128 60.5863 5.96805 60.5914 5.97566 60.5951C5.98328 60.5987 5.99157 60.6007 6 60.6009C6.918 60.5349 10.842 61.0729 11.834 64.8009C11.8405 64.8142 11.8515 64.8247 11.8651 64.8306C11.8787 64.8364 11.8939 64.8372 11.908 64.8329Z" fill="white"/>
<path id="Vector_11" d="M7.452 62.9048C7.46491 62.9024 7.47678 62.8961 7.486 62.8868C7.85623 62.566 8.29268 62.3308 8.76422 62.1981C9.23576 62.0653 9.73079 62.0383 10.214 62.1188C10.2306 62.1206 10.2473 62.116 10.2606 62.106C10.274 62.0959 10.2831 62.0812 10.286 62.0648C10.2871 62.0566 10.2866 62.0483 10.2845 62.0404C10.2824 62.0324 10.2787 62.025 10.2737 62.0185C10.2686 62.0119 10.2624 62.0065 10.2552 62.0024C10.2481 61.9984 10.2402 61.9958 10.232 61.9948C9.72973 61.9124 9.21547 61.942 8.72593 62.0813C8.23639 62.2206 7.78364 62.4663 7.4 62.8008C7.39419 62.8065 7.38959 62.8134 7.38644 62.821C7.3833 62.8285 7.38168 62.8366 7.38168 62.8448C7.38168 62.853 7.3833 62.8611 7.38644 62.8686C7.38959 62.8762 7.39419 62.883 7.4 62.8888C7.40703 62.895 7.41531 62.8996 7.42427 62.9024C7.43324 62.9051 7.44269 62.906 7.452 62.9048Z" fill="white"/>
</g>
</g>
<g id="freepik--Device--inject-69">
<g id="freepik--device--inject-69">
<path id="Vector_12" d="M80.2 51.0996L65.916 59.3656C65.7376 59.4553 65.5407 59.502 65.341 59.502C65.1413 59.502 64.9444 59.4553 64.766 59.3656L39.906 45.0156C39.588 44.8336 39.588 44.5356 39.906 44.3536L54.2 36.0856C54.378 35.9959 54.5746 35.9492 54.774 35.9492C54.9734 35.9492 55.1699 35.9959 55.348 36.0856L80.2 50.4356C80.508 50.6196 80.508 50.9156 80.2 51.0996Z" fill="#37474F"/>
<path id="Vector_13" d="M72.558 54.8894C72.3101 55.0154 72.036 55.081 71.758 55.081C71.48 55.081 71.2059 55.0154 70.958 54.8894C70.518 54.6354 70.518 54.2234 70.958 53.9694C71.2056 53.8425 71.4798 53.7764 71.758 53.7764C72.0362 53.7764 72.3104 53.8425 72.558 53.9694C73 54.2234 73 54.6354 72.558 54.8894Z" fill="#263238"/>
<path id="Vector_14" d="M65.906 59.366L80.2 51.1C80.484 50.936 80.514 50.68 80.29 50.5C80.4321 50.6124 80.5488 50.7535 80.6326 50.9141C80.7163 51.0747 80.7652 51.2512 80.776 51.432V51.972C80.7658 52.1723 80.7083 52.3674 80.6081 52.5412C80.508 52.715 80.3682 52.8626 80.2 52.972L65.916 61.238C65.7395 61.332 65.5419 61.3795 65.342 61.376V59.51C65.5391 59.5099 65.733 59.4604 65.906 59.366Z" fill="#455A64"/>
<path id="Vector_15" d="M39.906 46.8832C39.7382 46.7736 39.5987 46.6259 39.499 46.4521C39.3992 46.2783 39.342 46.0833 39.332 45.8832V45.3432C39.3425 45.162 39.3913 44.9851 39.475 44.8242C39.5588 44.6632 39.6757 44.5218 39.818 44.4092C39.594 44.5932 39.618 44.8472 39.906 45.0092L64.756 59.3592C64.9331 59.4534 65.1314 59.5009 65.332 59.4972V61.3632C65.1314 61.3669 64.9331 61.3194 64.756 61.2252L39.906 46.8832Z" fill="#263238"/>
<path id="Vector_16" d="M63.52 57.6336L76.994 49.8336C77.0364 49.82 77.0734 49.7934 77.0996 49.7574C77.1258 49.7215 77.14 49.6781 77.14 49.6336C77.14 49.5891 77.1258 49.5458 77.0996 49.5098C77.0734 49.4739 77.0364 49.4472 76.994 49.4336L57.078 37.9136C56.9715 37.8593 56.8536 37.8311 56.734 37.8311C56.6144 37.8311 56.4966 37.8593 56.39 37.9136L42.91 45.7136C42.8676 45.7272 42.8306 45.7539 42.8044 45.7898C42.7782 45.8258 42.764 45.8691 42.764 45.9136C42.764 45.9581 42.7782 46.0015 42.8044 46.0374C42.8306 46.0734 42.8676 46.1 42.91 46.1136L62.83 57.6336C62.9369 57.6879 63.0551 57.7162 63.175 57.7162C63.2949 57.7162 63.4131 57.6879 63.52 57.6336Z" fill="#FAFAFA"/>
<path id="Vector_17" d="M45 46.0679L51.436 49.7999C51.5702 49.8679 51.7185 49.9034 51.869 49.9034C52.0195 49.9034 52.1678 49.8679 52.302 49.7999L63.622 43.2659C63.6742 43.2482 63.7196 43.2145 63.7518 43.1697C63.7839 43.1249 63.8012 43.0711 63.8012 43.0159C63.8012 42.9607 63.7839 42.907 63.7518 42.8621C63.7196 42.8173 63.6742 42.7836 63.622 42.7659L57.178 39.0419C57.0438 38.9739 56.8955 38.9385 56.745 38.9385C56.5945 38.9385 56.4462 38.9739 56.312 39.0419L45 45.5679C44.9478 45.5856 44.9024 45.6193 44.8702 45.6641C44.8381 45.709 44.8208 45.7627 44.8208 45.8179C44.8208 45.8731 44.8381 45.9269 44.8702 45.9717C44.9024 46.0165 44.9478 46.0502 45 46.0679Z" fill="#EBEBEB"/>
<path id="Vector_18" d="M49.726 44.2897L51.378 44.6117C51.4812 44.6332 51.5884 44.6234 51.686 44.5837L53.086 43.9837C53.308 43.8877 53.624 43.9837 53.62 44.1417L53.598 45.1417C53.598 45.2057 53.65 45.2657 53.74 45.3037L55.164 45.8857C55.39 45.9777 55.336 46.1797 55.07 46.2277L53.4 46.5297C53.3563 46.5338 53.3139 46.5474 53.276 46.5695C53.238 46.5916 53.2052 46.6217 53.18 46.6577L52.662 47.6197C52.578 47.7717 52.228 47.8037 52.062 47.6737L51.062 46.8517C50.9819 46.7939 50.8846 46.7649 50.786 46.7697L49.04 46.7817C48.762 46.7817 48.602 46.6017 48.768 46.4737L49.812 45.6737C49.8269 45.6652 49.8399 45.6538 49.8504 45.6402C49.8609 45.6267 49.8685 45.6112 49.873 45.5946C49.8775 45.5781 49.8786 45.5608 49.8764 45.5438C49.8742 45.5269 49.8686 45.5105 49.86 45.4957L49.3 44.5417C49.212 44.3817 49.462 44.2377 49.726 44.2897Z" fill="#FAFAFA"/>
<path id="Vector_19" d="M53.4 42.1815L56.944 40.1355C57.0136 40.0945 57.0917 40.0703 57.1722 40.0647C57.2528 40.0592 57.3335 40.0724 57.408 40.1035C57.52 40.1695 57.494 40.2895 57.352 40.3715L53.81 42.4175C53.7402 42.4579 53.6621 42.4818 53.5817 42.4873C53.5013 42.4929 53.4207 42.4799 53.346 42.4495C53.234 42.3835 53.26 42.2635 53.4 42.1815Z" fill="#FAFAFA"/>
<path id="Vector_20" d="M54.296 42.6981L57.838 40.6521C57.9075 40.6111 57.9857 40.5869 58.0662 40.5813C58.1468 40.5758 58.2275 40.589 58.302 40.6201C58.414 40.6861 58.39 40.8061 58.246 40.8881L54.704 42.9341C54.6342 42.9745 54.5561 42.9984 54.4757 43.0039C54.3953 43.0095 54.3147 42.9965 54.24 42.9661C54.126 42.9001 54.152 42.7801 54.296 42.6981Z" fill="#FAFAFA"/>
<path id="Vector_21" d="M55.188 43.2134L58.73 41.1674C58.7994 41.126 58.8776 41.1015 58.9582 41.0959C59.0388 41.0904 59.1196 41.1039 59.194 41.1354C59.308 41.2014 59.282 41.3214 59.138 41.4034L55.6 43.4494C55.5302 43.4898 55.4521 43.5137 55.3717 43.5193C55.2913 43.5248 55.2107 43.5119 55.136 43.4814C55.02 43.4154 55.044 43.2954 55.188 43.2134Z" fill="#FAFAFA"/>
<path id="Vector_22" d="M56.08 43.728L59.624 41.684C59.693 41.6426 59.7709 41.6181 59.8512 41.6125C59.9315 41.607 60.0119 41.6205 60.086 41.652C60.2 41.716 60.174 41.836 60.032 41.92L56.488 43.964C56.4186 44.0054 56.3404 44.0299 56.2598 44.0355C56.1792 44.0411 56.0984 44.0275 56.024 43.996C55.912 43.932 55.938 43.812 56.08 43.728Z" fill="#FAFAFA"/>
<path id="Vector_23" d="M56.974 44.2437L60.516 42.1997C60.5854 42.1582 60.6636 42.1337 60.7442 42.1282C60.8248 42.1226 60.9056 42.1361 60.98 42.1677C61.092 42.2317 61.068 42.3517 60.924 42.4357L57.382 44.4797C57.3126 44.5211 57.2344 44.5456 57.1538 44.5511C57.0732 44.5567 56.9924 44.5432 56.918 44.5117C56.8 44.4477 56.83 44.3277 56.974 44.2437Z" fill="#FAFAFA"/>
<path id="Vector_24" d="M57.866 44.7593L61.4 42.7153C61.4694 42.6738 61.5476 42.6494 61.6282 42.6438C61.7088 42.6382 61.7896 42.6518 61.864 42.6833C61.976 42.7473 61.952 42.8673 61.808 42.9513L58.274 44.9993C58.2046 45.0407 58.1264 45.0652 58.0458 45.0708C57.9652 45.0763 57.8844 45.0628 57.81 45.0313C57.698 44.9633 57.722 44.8433 57.866 44.7593Z" fill="#FAFAFA"/>
<path id="Vector_25" d="M52.942 50.6595L53.234 50.8295C53.3147 50.87 53.4037 50.8911 53.494 50.8911C53.5843 50.8911 53.6733 50.87 53.754 50.8295L60.554 46.9075C60.698 46.8235 60.698 46.6895 60.554 46.6075L60.26 46.4375C60.1793 46.3971 60.0903 46.376 60 46.376C59.9097 46.376 59.8207 46.3971 59.74 46.4375L52.94 50.3595C52.9085 50.3702 52.8812 50.3905 52.8619 50.4175C52.8427 50.4446 52.8324 50.477 52.8326 50.5102C52.8328 50.5435 52.8435 50.5758 52.8632 50.6026C52.8828 50.6294 52.9104 50.6493 52.942 50.6595Z" fill="#E0E0E0"/>
<path id="Vector_26" d="M65.128 43.6231L65.42 43.7931C65.564 43.8751 65.564 44.0091 65.42 44.0931L62.69 45.6691C62.6093 45.7096 62.5203 45.7307 62.43 45.7307C62.3397 45.7307 62.2507 45.7096 62.17 45.6691L61.878 45.4991C61.734 45.4171 61.734 45.2831 61.878 45.1991L64.6 43.6231C64.6817 43.5814 64.7722 43.5596 64.864 43.5596C64.9558 43.5596 65.0463 43.5814 65.128 43.6231Z" fill="#E0E0E0"/>
<path id="Vector_27" d="M54.748 51.698L61.2 55.42C61.3342 55.488 61.4825 55.5235 61.633 55.5235C61.7835 55.5235 61.9318 55.488 62.066 55.42L73.386 48.886C73.4382 48.8683 73.4836 48.8347 73.5158 48.7898C73.5479 48.745 73.5652 48.6912 73.5652 48.636C73.5652 48.5809 73.5479 48.5271 73.5158 48.4822C73.4836 48.4374 73.4382 48.4038 73.386 48.386L66.942 44.662C66.8078 44.594 66.6595 44.5586 66.509 44.5586C66.3586 44.5586 66.2102 44.594 66.076 44.662L54.748 51.2C54.6965 51.2182 54.6518 51.2519 54.6203 51.2965C54.5887 51.3411 54.5717 51.3944 54.5717 51.449C54.5717 51.5037 54.5887 51.557 54.6203 51.6016C54.6518 51.6462 54.6965 51.6799 54.748 51.698Z" fill="#EBEBEB"/>
<path id="Vector_28" d="M59.48 49.9176L61.134 50.2416C61.2372 50.263 61.3444 50.2532 61.442 50.2136L62.842 49.6136C63.066 49.5176 63.382 49.6136 63.378 49.7696L63.356 50.7696C63.356 50.8336 63.406 50.8936 63.496 50.9296L64.922 51.5116C65.148 51.6056 65.092 51.8076 64.828 51.8556L63.16 52.1536C63.1164 52.1583 63.0743 52.1721 63.0364 52.1941C62.9984 52.2162 62.9656 52.246 62.94 52.2816L62.422 53.2436C62.34 53.3956 61.99 53.4276 61.822 53.2976L60.822 52.4756C60.7412 52.4178 60.6433 52.3889 60.544 52.3936L58.798 52.4056C58.522 52.4056 58.36 52.2256 58.526 52.0976L59.57 51.2976C59.5996 51.28 59.6213 51.2517 59.6306 51.2186C59.6399 51.1854 59.6361 51.15 59.62 51.1196L59.058 50.1656C58.968 50.0116 59.218 49.8676 59.48 49.9176Z" fill="#FAFAFA"/>
<path id="Vector_29" d="M63.158 47.8114L66.7 45.7654C66.7695 45.7244 66.8477 45.7001 66.9282 45.6946C67.0088 45.689 67.0895 45.7023 67.164 45.7334C67.278 45.7994 67.252 45.9194 67.108 46.0014L63.566 48.0474C63.4962 48.0878 63.4181 48.1117 63.3377 48.1172C63.2573 48.1227 63.1767 48.1098 63.102 48.0794C63 48.0134 63.014 47.8934 63.158 47.8114Z" fill="#FAFAFA"/>
<path id="Vector_30" d="M64.05 48.328L67.6 46.282C67.6696 46.241 67.7477 46.2167 67.8282 46.2112C67.9088 46.2056 67.9895 46.2189 68.064 46.25C68.176 46.316 68.15 46.436 68.008 46.518L64.464 48.564C64.3947 48.6054 64.3168 48.6303 64.2362 48.6365C64.1557 48.6428 64.0749 48.6303 64 48.6C63.882 48.53 63.908 48.41 64.05 48.328Z" fill="#FAFAFA"/>
<path id="Vector_31" d="M64.944 48.8413L68.486 46.7993C68.5554 46.7578 68.6335 46.7333 68.7142 46.7278C68.7948 46.7222 68.8756 46.7357 68.95 46.7673C69.062 46.8313 69.038 46.9513 68.894 47.0353L65.352 49.0793C65.2822 49.1197 65.2041 49.1436 65.1237 49.1491C65.0433 49.1547 64.9626 49.1417 64.888 49.1113C64.774 49.0453 64.8 48.9253 64.944 48.8413Z" fill="#FAFAFA"/>
<path id="Vector_32" d="M65.836 49.3579L69.378 47.3139C69.4474 47.2725 69.5256 47.248 69.6062 47.2424C69.6868 47.2369 69.7676 47.2504 69.842 47.2819C69.956 47.3459 69.93 47.4659 69.786 47.5499L66.244 49.5999C66.1746 49.6413 66.0964 49.6658 66.0158 49.6714C65.9352 49.677 65.8544 49.6634 65.78 49.6319C65.668 49.5619 65.692 49.4419 65.836 49.3579Z" fill="#FAFAFA"/>
<path id="Vector_33" d="M66.728 49.8735L70.272 47.8295C70.341 47.7881 70.4189 47.7636 70.4992 47.7581C70.5795 47.7525 70.6599 47.766 70.734 47.7975C70.848 47.8615 70.822 47.9815 70.68 48.0655L67.136 50.1095C67.0666 50.151 66.9884 50.1754 66.9078 50.181C66.8272 50.1866 66.7464 50.173 66.672 50.1415C66.56 50.0775 66.586 49.9575 66.728 49.8735Z" fill="#FAFAFA"/>
<path id="Vector_34" d="M67.622 50.3999L71.164 48.3559C71.2334 48.3145 71.3116 48.29 71.3922 48.2844C71.4728 48.2789 71.5536 48.2924 71.628 48.3239C71.74 48.3879 71.716 48.5079 71.572 48.5919L68.03 50.6359C67.9606 50.6773 67.8824 50.7018 67.8018 50.7074C67.7212 50.7129 67.6404 50.6994 67.566 50.6679C67.452 50.5999 67.478 50.4739 67.622 50.3999Z" fill="#FAFAFA"/>
<path id="Vector_35" d="M62.696 56.2894L62.99 56.4594C63.0707 56.4999 63.1597 56.5209 63.25 56.5209C63.3403 56.5209 63.4293 56.4999 63.51 56.4594L70.31 52.5374C70.3415 52.527 70.369 52.5069 70.3884 52.4799C70.4079 52.453 70.4184 52.4206 70.4184 52.3874C70.4184 52.3542 70.4079 52.3218 70.3884 52.2949C70.369 52.268 70.3415 52.2478 70.31 52.2374L70.016 52.0674C69.9353 52.0269 69.8463 52.0059 69.756 52.0059C69.6657 52.0059 69.5767 52.0269 69.496 52.0674L62.696 55.9894C62.6645 55.9998 62.637 56.02 62.6176 56.0469C62.5981 56.0738 62.5876 56.1062 62.5876 56.1394C62.5876 56.1726 62.5981 56.205 62.6176 56.2319C62.637 56.2589 62.6645 56.279 62.696 56.2894Z" fill="#E0E0E0"/>
<path id="Vector_36" d="M74.882 49.2539L75.176 49.4239C75.32 49.5059 75.32 49.6399 75.176 49.7239L72.446 51.2999C72.3653 51.3404 72.2763 51.3614 72.186 51.3614C72.0957 51.3614 72.0067 51.3404 71.926 51.2999L71.632 51.1299C71.6005 51.1195 71.573 51.0993 71.5536 51.0724C71.5341 51.0455 71.5236 51.0131 71.5236 50.9799C71.5236 50.9467 71.5341 50.9143 71.5536 50.8874C71.573 50.8604 71.6005 50.8403 71.632 50.8299L74.364 49.2539C74.4443 49.2134 74.533 49.1924 74.623 49.1924C74.713 49.1924 74.8017 49.2134 74.882 49.2539Z" fill="#E0E0E0"/>
<path id="Vector_37" d="M48.256 40.8375C48.2012 40.8643 48.141 40.8783 48.08 40.8783C48.019 40.8783 47.9588 40.8643 47.904 40.8375C47.8833 40.8302 47.8654 40.8167 47.8527 40.7988C47.84 40.7808 47.8332 40.7594 47.8332 40.7375C47.8332 40.7155 47.84 40.6941 47.8527 40.6762C47.8654 40.6583 47.8833 40.6448 47.904 40.6375C47.9588 40.6106 48.019 40.5967 48.08 40.5967C48.141 40.5967 48.2012 40.6106 48.256 40.6375C48.354 40.6915 48.354 40.7815 48.256 40.8375Z" fill="#263238"/>
<path id="Vector_38" d="M47.694 42.4361C47.5849 42.4913 47.4643 42.52 47.342 42.52C47.2197 42.52 47.0991 42.4913 46.99 42.4361C46.9503 42.4199 46.9163 42.3922 46.8923 42.3566C46.8684 42.321 46.8556 42.279 46.8556 42.2361C46.8556 42.1932 46.8684 42.1512 46.8923 42.1156C46.9163 42.08 46.9503 42.0523 46.99 42.0361C47.0991 41.9809 47.2197 41.9521 47.342 41.9521C47.4643 41.9521 47.5849 41.9809 47.694 42.0361C47.7337 42.0523 47.7678 42.08 47.7917 42.1156C47.8156 42.1512 47.8284 42.1932 47.8284 42.2361C47.8284 42.279 47.8156 42.321 47.7917 42.3566C47.7678 42.3922 47.7337 42.4199 47.694 42.4361Z" fill="#263238"/>
<path id="Vector_39" d="M48.2 41.7273C48.07 41.6513 48.078 41.5273 48.216 41.4473L50.532 40.1093C50.6072 40.0708 50.6905 40.0508 50.775 40.0508C50.8595 40.0508 50.9428 40.0708 51.018 40.1093C51.146 40.1833 51.14 40.3093 51.002 40.3893L48.686 41.7253C48.6108 41.7636 48.5276 41.7837 48.4432 41.784C48.3588 41.7844 48.2755 41.7649 48.2 41.7273Z" fill="#263238"/>
</g>
</g>
<g id="freepik--Newspaper--inject-69">
<g id="freepik--news-paper--inject-69">
<path id="Vector_40" d="M42.582 22.1619V22.6319L40.958 23.5699L38.522 24.9699L17.018 37.3999C16.8906 37.4799 16.7854 37.5906 16.712 37.7219C16.633 37.8511 16.5889 37.9986 16.584 38.1499V66.7299C16.584 68.2839 15.492 68.9139 14.148 68.1299C12.804 67.3459 11.71 65.4639 11.71 63.9099V35.3279C11.7183 35.1776 11.762 35.0314 11.8374 34.901C11.9128 34.7707 12.0178 34.66 12.144 34.5779L36.082 20.7559L38.4 19.4199C38.4774 19.5503 38.5201 19.6983 38.524 19.8499V20.2859L12.956 35.0859C12.836 35.1604 12.7364 35.2635 12.666 35.3859C12.5786 35.5202 12.5295 35.6758 12.524 35.8359V64.3779C12.524 65.4139 13.252 66.6719 14.15 67.1899C15.048 67.7079 15.774 67.2879 15.774 66.2519V37.6719C15.781 37.5222 15.8232 37.3762 15.8972 37.2459C15.9712 37.1156 16.075 37.0046 16.2 36.9219L42.456 21.7619C42.5315 21.8823 42.5748 22.02 42.582 22.1619Z" fill="#E0E0E0"/>
<path id="Vector_41" d="M40.144 20.7864V22.1624L15.4 36.4544C15.2729 36.5352 15.1666 36.6449 15.0898 36.7745C15.013 36.9042 14.9678 37.0501 14.958 37.2004V65.7804C14.958 66.2984 14.596 66.5084 14.148 66.2484C13.9121 66.0953 13.7156 65.8888 13.5745 65.6455C13.4334 65.4023 13.3517 65.1292 13.336 64.8484V36.2664C13.3412 36.1154 13.3845 35.9681 13.462 35.8384C13.5366 35.708 13.6415 35.5975 13.768 35.5164L40.022 20.3584C40.098 20.4885 40.14 20.6357 40.144 20.7864Z" fill="#E0E0E0"/>
<path id="Vector_42" d="M17.522 38.1846C17.4443 38.3135 17.4009 38.4602 17.396 38.6106V66.9446C17.3964 67.1506 17.3831 67.3564 17.356 67.5606C17.348 67.6139 17.34 67.6659 17.332 67.7166C17.332 67.7646 17.314 67.8106 17.304 67.8586C17.294 67.9066 17.284 67.9426 17.272 67.9826C17.26 68.0226 17.252 68.0606 17.24 68.0986C17.1075 68.5853 16.796 69.0039 16.368 69.2706C15.786 69.6046 15.006 69.5646 14.148 69.0706C12.348 68.0346 10.898 65.4026 10.898 63.1946V34.8586C10.9029 34.7082 10.9463 34.5615 11.024 34.4326L11.838 34.9006C11.759 35.0298 11.7149 35.1773 11.71 35.3286V63.9086C11.71 65.4626 12.802 67.3526 14.148 68.1286C15.494 68.9046 16.584 68.2766 16.584 66.7286V38.1426C16.5889 37.9913 16.633 37.8438 16.712 37.7146L17.522 38.1846Z" fill="#EBEBEB"/>
<path id="Vector_43" d="M15.898 37.2459C15.8205 37.3749 15.7771 37.5215 15.772 37.6719V66.2519C15.772 67.2879 15.044 67.7079 14.148 67.1899C13.252 66.6719 12.522 65.4139 12.522 64.3779V35.8279C12.5275 35.6678 12.5766 35.5122 12.664 35.3779L13.464 35.8379C13.3865 35.9677 13.3432 36.1149 13.338 36.2659V64.8459C13.3537 65.1267 13.4354 65.3998 13.5765 65.6431C13.7176 65.8863 13.9141 66.0929 14.15 66.2459C14.598 66.5059 14.96 66.2959 14.96 65.7779V37.1999C14.9649 37.0486 15.009 36.9011 15.088 36.7719L15.898 37.2459Z" fill="#EBEBEB"/>
<path id="Vector_44" d="M38.4 19.4202L36.086 20.7562L12.144 34.5782C12.0161 34.6576 11.9108 34.7684 11.838 34.9002L11.024 34.4322C11.0967 34.2998 11.2021 34.1883 11.33 34.1082L35.27 20.2862L35.732 20.0182L36.2 19.7542L36.6 19.5222L36.838 19.3842L37.28 19.1302C37.4089 19.0616 37.5521 19.0244 37.6981 19.0217C37.844 19.0189 37.9886 19.0506 38.12 19.1142C38.2383 19.1901 38.3348 19.2956 38.4 19.4202Z" fill="#FAFAFA"/>
<path id="Vector_45" d="M44.082 22.7024L41.768 24.0384L37.706 26.3824L17.83 37.8604C17.7019 37.9411 17.5961 38.0524 17.522 38.1844L16.722 37.7144C16.7936 37.5872 16.8952 37.4794 17.018 37.4004L38.52 24.9784L40.956 23.5784L42.58 22.6404L42.958 22.4224L43 22.4004C43.1249 22.3406 43.2616 22.3096 43.4 22.3096C43.5384 22.3096 43.6751 22.3406 43.8 22.4004L43.842 22.4264C43.941 22.5 44.0229 22.5942 44.082 22.7024Z" fill="#FAFAFA"/>
<path id="Vector_46" d="M40.022 20.3578L13.768 35.5158C13.6415 35.5969 13.5366 35.7074 13.462 35.8378L12.662 35.3778C12.7324 35.2554 12.832 35.1523 12.952 35.0778L38.52 20.2778L38.896 20.0598C39.0249 19.9913 39.1681 19.9541 39.3141 19.9513C39.46 19.9486 39.6046 19.9803 39.736 20.0438C39.8571 20.1218 39.9557 20.23 40.022 20.3578Z" fill="#FAFAFA"/>
<path id="Vector_47" d="M42.462 21.7618L16.2 36.9218C16.0715 37.0019 15.9655 37.1134 15.892 37.2458L15.08 36.7758C15.1567 36.6424 15.267 36.5313 15.4 36.4538L40.152 22.1618L41.352 21.4738C41.481 21.4056 41.6244 21.3688 41.7703 21.3663C41.9163 21.3639 42.0607 21.3959 42.192 21.4598C42.3064 21.5357 42.3994 21.6397 42.462 21.7618Z" fill="#FAFAFA"/>
<path id="Vector_48" d="M44.2 23.1321V51.4661C44.2 52.6281 43.8 53.4421 43.154 53.8021L16.33 69.2901C16.5675 69.1473 16.7734 68.9577 16.9354 68.7329C17.0973 68.508 17.2118 68.2526 17.272 67.9821C17.284 67.9421 17.294 67.9001 17.304 67.8581C17.314 67.8161 17.322 67.7641 17.332 67.7161C17.342 67.6681 17.348 67.6141 17.356 67.5601C17.3831 67.3559 17.3964 67.1501 17.396 66.9441V38.6101C17.4009 38.4597 17.4443 38.313 17.522 38.1841C17.5961 38.0521 17.7019 37.9407 17.83 37.8601L37.706 26.3841L41.768 24.0401L44.082 22.7041C44.1574 22.8343 44.198 22.9817 44.2 23.1321Z" fill="#F5F5F5"/>
<path id="Vector_49" d="M20.268 38.3305L24.268 36.0165C24.508 35.8785 24.7 35.9885 24.7 36.2665V41.8325C24.6922 41.9827 24.649 42.1289 24.5739 42.2593C24.4989 42.3896 24.394 42.5004 24.268 42.5825L20.268 44.8965C20.028 45.0345 19.834 44.9225 19.834 44.6465V39.0805C19.8422 38.9301 19.8857 38.7838 19.9611 38.6535C20.0366 38.5231 20.1417 38.4125 20.268 38.3305Z" fill="#455A64"/>
<path id="Vector_50" d="M19.834 47.0224L41.77 34.3584V35.2964L19.834 47.9604V47.0224Z" fill="#EC8305"/>
<path id="Vector_51" opacity="0.4" d="M19.834 47.0224L41.77 34.3584V35.2964L19.834 47.9604V47.0224Z" fill="white"/>
<path id="Vector_52" d="M20.094 49.6858L24.45 47.1718C24.592 47.0878 24.708 47.1558 24.708 47.3218V56.1018C24.7033 56.1918 24.6776 56.2794 24.6327 56.3576C24.5879 56.4358 24.5253 56.5023 24.45 56.5518L20.094 59.0658C19.95 59.1498 19.834 59.0818 19.834 58.9158V50.1358C19.8387 50.0456 19.8647 49.9578 19.9099 49.8796C19.9551 49.8013 20.0182 49.7349 20.094 49.6858Z" fill="#F0F0F0"/>
<path id="Vector_53" d="M20.094 60L24.45 57.484C24.592 57.402 24.708 57.47 24.708 57.634V64.506L19.834 67.326V60.456C19.8378 60.3648 19.8634 60.2758 19.9086 60.1964C19.9538 60.1171 20.0174 60.0498 20.094 60Z" fill="#F0F0F0"/>
<path id="Vector_54" d="M25.782 46.3998L30.136 43.8858C30.28 43.8038 30.396 43.8698 30.396 44.0358V55.6358C30.3911 55.7259 30.365 55.8137 30.3198 55.8919C30.2747 55.9701 30.2117 56.0365 30.136 56.0858L25.782 58.5998C25.638 58.6818 25.522 58.6158 25.522 58.4498V46.8498C25.5272 46.7597 25.5534 46.672 25.5986 46.5939C25.6437 46.5157 25.7065 46.4493 25.782 46.3998Z" fill="#F0F0F0"/>
<path id="Vector_55" d="M31.468 43.1205L35.822 40.6005C35.966 40.5165 36.082 40.5845 36.082 40.7505V49.5305C36.0773 49.6207 36.0512 49.7085 36.0061 49.7867C35.9609 49.865 35.8978 49.9314 35.822 49.9805L31.468 52.5005C31.324 52.5845 31.208 52.5165 31.208 52.3505V43.5705C31.2127 43.4803 31.2387 43.3925 31.2839 43.3143C31.3291 43.2361 31.3922 43.1697 31.468 43.1205Z" fill="#F0F0F0"/>
<path id="Vector_56" d="M37.156 39.8362L41.51 37.3222C41.654 37.2382 41.77 37.3062 41.77 37.4722V49.0722C41.7648 49.1623 41.7386 49.2499 41.6934 49.3281C41.6483 49.4062 41.5855 49.4727 41.51 49.5222L37.156 52.0362C37.012 52.1182 36.896 52.0522 36.896 51.8862V40.2862C36.9007 40.196 36.9268 40.1082 36.9719 40.0299C37.0171 39.9517 37.0802 39.8853 37.156 39.8362Z" fill="#F0F0F0"/>
<path id="Vector_57" d="M25.782 59.5364L30.136 57.0224C30.28 56.9384 30.396 57.0064 30.396 57.1724V61.2284L25.522 64.0444V59.9864C25.5267 59.8962 25.5527 59.8084 25.5979 59.7301C25.6431 59.6519 25.7062 59.5855 25.782 59.5364Z" fill="#F0F0F0"/>
<path id="Vector_58" d="M31.2 53.8878V60.7598L36.074 57.9458V51.0738C36.074 50.9078 35.958 50.8418 35.814 50.9238L31.46 53.4378C31.3843 53.4871 31.3213 53.5535 31.2762 53.6317C31.231 53.7099 31.2049 53.7977 31.2 53.8878Z" fill="#F0F0F0"/>
<path id="Vector_59" d="M37.154 52.97L41.51 50.456C41.654 50.372 41.77 50.44 41.77 50.606V54.662L36.896 57.476V53.42C36.9007 53.33 36.9264 53.2423 36.9713 53.1642C37.0161 53.086 37.0787 53.0195 37.154 52.97Z" fill="#F0F0F0"/>
<path id="Vector_60" d="M26.6 59.9997L29.33 58.4237C29.474 58.3397 29.59 58.4077 29.59 58.5737V60.7997C29.5853 60.89 29.5592 60.9778 29.5141 61.056C29.4689 61.1342 29.4058 61.2006 29.33 61.2497L26.6 62.8217C26.456 62.9037 26.34 62.8377 26.34 62.6717V60.4577C26.3435 60.3662 26.3689 60.2767 26.4142 60.197C26.4594 60.1173 26.5231 60.0497 26.6 59.9997Z" fill="#E0E0E0"/>
<path id="Vector_61" d="M37.968 53.4421L40.698 51.8661C40.84 51.7821 40.958 51.8501 40.958 52.0161V54.2301C40.9526 54.3202 40.9264 54.4078 40.8812 54.4859C40.8361 54.564 40.7734 54.6305 40.698 54.6801L37.968 56.2561C37.824 56.3381 37.708 56.2721 37.708 56.1061V53.8921C37.7127 53.8019 37.7387 53.7141 37.7839 53.6359C37.8291 53.5577 37.8922 53.4913 37.968 53.4421Z" fill="#E0E0E0"/>
<path id="Vector_62" d="M20.906 50.1558L23.636 48.5778C23.78 48.4958 23.896 48.5638 23.896 48.7278V50.9438C23.8908 51.0339 23.8646 51.1215 23.8194 51.1997C23.7743 51.2778 23.7115 51.3443 23.636 51.3938L20.906 52.9698C20.764 53.0518 20.646 52.9858 20.646 52.8198V50.5998C20.6518 50.5106 20.6783 50.4241 20.7235 50.347C20.7686 50.2699 20.8311 50.2045 20.906 50.1558Z" fill="#E0E0E0"/>
<path id="Vector_63" d="M20.82 53.4881L23.724 51.8121C23.82 51.7581 23.896 51.8021 23.896 51.9121V51.9821C23.8929 52.0421 23.8758 52.1005 23.8459 52.1527C23.816 52.2048 23.7742 52.2491 23.724 52.2821L20.82 53.9581C20.724 54.0141 20.646 53.9581 20.646 53.8581V53.7881C20.6494 53.7279 20.667 53.6695 20.6972 53.6173C20.7274 53.5652 20.7695 53.5209 20.82 53.4881Z" fill="#E0E0E0"/>
<path id="Vector_64" d="M20.82 54.4266L23.724 52.7506C23.82 52.6966 23.896 52.7406 23.896 52.8506V52.9206C23.8929 52.9806 23.8758 53.039 23.8459 53.0912C23.816 53.1433 23.7742 53.1876 23.724 53.2206L20.82 54.8966C20.724 54.9526 20.646 54.8966 20.646 54.7966V54.7266C20.6494 54.6664 20.667 54.6079 20.6972 54.5558C20.7274 54.5037 20.7695 54.4594 20.82 54.4266Z" fill="#E0E0E0"/>
<path id="Vector_65" d="M20.82 55.3641L23.724 53.6881C23.82 53.6341 23.896 53.6781 23.896 53.7881V53.8581C23.8929 53.9181 23.8758 53.9765 23.8459 54.0287C23.816 54.0808 23.7742 54.1251 23.724 54.1581L20.82 55.8341C20.724 55.8901 20.646 55.8441 20.646 55.7341V55.6641C20.6494 55.6039 20.667 55.5454 20.6972 55.4933C20.7274 55.4412 20.7695 55.3969 20.82 55.3641Z" fill="#E0E0E0"/>
<path id="Vector_66" d="M20.82 56.3026L23.724 54.6266C23.82 54.5726 23.896 54.6166 23.896 54.7266V54.8005C23.8929 54.8606 23.8758 54.919 23.8459 54.9711C23.816 55.0233 23.7742 55.0676 23.724 55.1005L20.82 56.7766C20.724 56.8326 20.646 56.7866 20.646 56.6766V56.6005C20.6497 56.5407 20.6674 56.4826 20.6976 56.4309C20.7279 56.3792 20.7698 56.3352 20.82 56.3026Z" fill="#E0E0E0"/>
<path id="Vector_67" d="M20.82 57.2401L23.724 55.5641C23.82 55.5101 23.896 55.5541 23.896 55.6641V55.7341C23.8929 55.7941 23.8758 55.8525 23.8459 55.9046C23.816 55.9568 23.7742 56.0011 23.724 56.0341L20.82 57.71C20.724 57.766 20.646 57.72 20.646 57.61V57.5401C20.6494 57.4799 20.667 57.4214 20.6972 57.3693C20.7274 57.3172 20.7695 57.2729 20.82 57.2401Z" fill="#E0E0E0"/>
<path id="Vector_68" d="M26.6 46.8718L29.33 45.2958C29.474 45.2118 29.59 45.2798 29.59 45.4458V47.6598C29.5851 47.75 29.559 47.8377 29.5138 47.9159C29.4687 47.9941 29.4057 48.0605 29.33 48.1098L26.6 49.6858C26.456 49.7678 26.34 49.7018 26.34 49.5358V47.3218C26.3447 47.2316 26.3707 47.1438 26.4159 47.0656C26.4611 46.9874 26.5242 46.921 26.6 46.8718Z" fill="#E0E0E0"/>
<path id="Vector_69" d="M26.506 50.2003L29.41 48.5243C29.506 48.4683 29.584 48.5123 29.584 48.6243V48.6923C29.5807 48.7525 29.5632 48.811 29.533 48.8632C29.5028 48.9153 29.4606 48.9595 29.41 48.9923L26.506 50.6683C26.412 50.7243 26.334 50.6683 26.334 50.5683V50.5003C26.3371 50.4403 26.3542 50.3818 26.3841 50.3297C26.414 50.2776 26.4558 50.2332 26.506 50.2003Z" fill="#E0E0E0"/>
<path id="Vector_70" d="M26.506 51.1446L29.41 49.4686C29.506 49.4126 29.584 49.4566 29.584 49.5686V49.6366C29.5807 49.6968 29.5632 49.7554 29.533 49.8075C29.5028 49.8596 29.4606 49.9039 29.41 49.9366L26.506 51.6126C26.412 51.6686 26.334 51.6226 26.334 51.5126V51.4446C26.3371 51.3846 26.3542 51.3262 26.3841 51.274C26.414 51.2219 26.4558 51.1776 26.506 51.1446Z" fill="#E0E0E0"/>
<path id="Vector_71" d="M26.506 52.0823L29.41 50.4003C29.506 50.3443 29.584 50.3883 29.584 50.5003V50.5683C29.5807 50.6284 29.5632 50.687 29.533 50.7391C29.5028 50.7913 29.4606 50.8355 29.41 50.8683L26.506 52.5443C26.412 52.6003 26.334 52.5543 26.334 52.4443V52.3763C26.338 52.3173 26.3556 52.26 26.3854 52.209C26.4153 52.158 26.4565 52.1146 26.506 52.0823Z" fill="#E0E0E0"/>
<path id="Vector_72" d="M26.506 53.0206L29.41 51.3446C29.506 51.2886 29.584 51.3326 29.584 51.4446V51.5126C29.5807 51.5728 29.5632 51.6313 29.533 51.6835C29.5028 51.7356 29.4606 51.7799 29.41 51.8126L26.506 53.4886C26.412 53.5446 26.334 53.4986 26.334 53.3886V53.3206C26.3371 53.2606 26.3542 53.2021 26.3841 53.15C26.414 53.0979 26.4558 53.0535 26.506 53.0206Z" fill="#E0E0E0"/>
<path id="Vector_73" d="M26.506 53.9581L29.41 52.2821C29.506 52.2261 29.584 52.2701 29.584 52.3821V52.4501C29.5807 52.5103 29.5632 52.5688 29.533 52.621C29.5028 52.6731 29.4606 52.7174 29.41 52.7501L26.506 54.4261C26.412 54.4821 26.334 54.4361 26.334 54.3261V54.2581C26.3371 54.1981 26.3542 54.1396 26.3841 54.0875C26.414 54.0354 26.4558 53.991 26.506 53.9581Z" fill="#E0E0E0"/>
<path id="Vector_74" d="M26.506 54.8962L29.41 53.2202C29.506 53.1642 29.584 53.2102 29.584 53.3202V53.3882C29.581 53.4485 29.5637 53.5071 29.5334 53.5593C29.5032 53.6115 29.4608 53.6557 29.41 53.6882L26.506 55.3642C26.412 55.4202 26.334 55.3762 26.334 55.2642V55.2002C26.3369 55.1396 26.354 55.0805 26.3839 55.0278C26.4137 54.975 26.4556 54.9299 26.506 54.8962Z" fill="#E0E0E0"/>
<path id="Vector_75" d="M26.506 55.8337L29.41 54.1577C29.506 54.1017 29.584 54.1477 29.584 54.2577V54.3257C29.581 54.386 29.5637 54.4446 29.5334 54.4968C29.5032 54.549 29.4608 54.5932 29.41 54.6257L26.506 56.3017C26.412 56.3577 26.334 56.3137 26.334 56.2017V56.1337C26.3375 56.0738 26.3549 56.0155 26.3847 55.9635C26.4146 55.9114 26.4561 55.867 26.506 55.8337Z" fill="#E0E0E0"/>
<path id="Vector_76" d="M26.506 56.7722L29.41 55.0962C29.506 55.0402 29.584 55.0862 29.584 55.1962V55.2642C29.581 55.3244 29.5637 55.3831 29.5334 55.4353C29.5032 55.4875 29.4608 55.5317 29.41 55.5642L26.506 57.2402C26.412 57.2962 26.334 57.2522 26.334 57.1402V57.0722C26.3375 57.0123 26.3549 56.954 26.3847 56.902C26.4146 56.8499 26.4561 56.8055 26.506 56.7722Z" fill="#E0E0E0"/>
<path id="Vector_77" d="M20.906 60.4761L23.636 58.8981C23.78 58.8161 23.896 58.8841 23.896 59.0481V61.2641C23.8911 61.3543 23.865 61.442 23.8198 61.5202C23.7747 61.5984 23.7117 61.6648 23.636 61.7141L20.906 63.2901C20.764 63.3721 20.646 63.3061 20.646 63.1401V60.9261C20.6509 60.8359 20.677 60.7482 20.7222 60.67C20.7673 60.5918 20.8303 60.5254 20.906 60.4761Z" fill="#E0E0E0"/>
<path id="Vector_78" d="M20.82 63.8006L23.724 62.1246C23.82 62.0706 23.896 62.1146 23.896 62.2246V62.2946C23.8929 62.3546 23.8758 62.413 23.8459 62.4652C23.816 62.5173 23.7742 62.5616 23.724 62.5946L20.82 64.2706C20.724 64.3266 20.646 64.2806 20.646 64.1706V64.1006C20.6494 64.0404 20.667 63.982 20.6972 63.9298C20.7274 63.8777 20.7695 63.8334 20.82 63.8006Z" fill="#E0E0E0"/>
<path id="Vector_79" d="M20.82 64.7459L23.724 63.0699C23.82 63.0159 23.896 63.0599 23.896 63.1699V63.2399C23.8929 63.2999 23.8758 63.3584 23.8459 63.4105C23.816 63.4626 23.7742 63.507 23.724 63.5399L20.82 65.2159C20.724 65.2719 20.646 65.2259 20.646 65.1159V65.0459C20.6494 64.9858 20.667 64.9273 20.6972 64.8751C20.7274 64.823 20.7695 64.7788 20.82 64.7459Z" fill="#E0E0E0"/>
<path id="Vector_80" d="M20.82 65.6866L23.724 64.0006C23.82 63.9466 23.896 63.9906 23.896 64.1006V64.1706C23.8929 64.2306 23.8758 64.289 23.8459 64.3412C23.816 64.3933 23.7742 64.4376 23.724 64.4706L20.82 66.1466C20.724 66.2026 20.646 66.1566 20.646 66.0466V65.9786C20.6502 65.9197 20.6681 65.8626 20.6983 65.8119C20.7285 65.7612 20.7702 65.7183 20.82 65.6866Z" fill="#E0E0E0"/>
<path id="Vector_81" d="M32.28 43.5877L35.01 42.0117C35.154 41.9297 35.27 41.9957 35.27 42.1617V44.3757C35.2653 44.4659 35.2392 44.5537 35.1941 44.632C35.1489 44.7102 35.0858 44.7766 35.01 44.8257L32.28 46.3997C32.138 46.4817 32.02 46.4137 32.02 46.2497V44.0377C32.0255 43.9477 32.0519 43.8602 32.097 43.7821C32.1421 43.704 32.2048 43.6375 32.28 43.5877Z" fill="#E0E0E0"/>
<path id="Vector_82" d="M32.2 46.922L35.104 45.246C35.198 45.192 35.276 45.246 35.276 45.346V45.416C35.2725 45.4759 35.2551 45.5341 35.2253 45.5862C35.1954 45.6382 35.1539 45.6827 35.104 45.716L32.2 47.4C32.104 47.454 32.026 47.4 32.026 47.3V47.23C32.0282 47.1684 32.0451 47.1083 32.0754 47.0547C32.1057 47.0011 32.1484 46.9556 32.2 46.922Z" fill="#E0E0E0"/>
<path id="Vector_83" d="M32.2 47.8604L35.104 46.1844C35.198 46.1304 35.276 46.1844 35.276 46.2844V46.3544C35.2725 46.4143 35.2551 46.4726 35.2253 46.5246C35.1954 46.5767 35.1539 46.6211 35.104 46.6544L32.2 48.3304C32.104 48.3844 32.026 48.3304 32.026 48.2304V48.1604C32.0294 48.1003 32.047 48.0418 32.0772 47.9897C32.1074 47.9375 32.1495 47.8933 32.2 47.8604Z" fill="#E0E0E0"/>
<path id="Vector_84" d="M32.2 48.8006L35.104 47.1246C35.198 47.0706 35.276 47.1146 35.276 47.2246V47.2946C35.2725 47.3545 35.2551 47.4128 35.2253 47.4648C35.1954 47.5169 35.1539 47.5613 35.104 47.5946L32.2 49.2686C32.104 49.3226 32.026 49.2686 32.026 49.1686V49.0986C32.0297 49.0388 32.0474 48.9807 32.0776 48.929C32.1079 48.8772 32.1498 48.8333 32.2 48.8006Z" fill="#E0E0E0"/>
<path id="Vector_85" d="M32.2 49.7361L35.104 48.0601C35.198 48.0061 35.276 48.0501 35.276 48.1601V48.2301C35.2725 48.29 35.2551 48.3483 35.2253 48.4004C35.1954 48.4524 35.1539 48.4968 35.104 48.5301L32.2 50.2001C32.104 50.2541 32.026 50.2101 32.026 50.1001V50.0301C32.0303 49.971 32.0483 49.9137 32.0785 49.8627C32.1087 49.8117 32.1503 49.7684 32.2 49.7361Z" fill="#E0E0E0"/>
<path id="Vector_86" d="M32.2 50.6746L35.098 49.0006C35.192 48.9466 35.27 48.9906 35.27 49.1006V49.1706C35.2665 49.2305 35.2491 49.2887 35.2193 49.3408C35.1894 49.3929 35.1479 49.4373 35.098 49.4706L32.2 51.1446C32.104 51.1986 32.026 51.1546 32.026 51.0446V50.9746C32.0294 50.9144 32.047 50.8559 32.0772 50.8038C32.1074 50.7517 32.1495 50.7074 32.2 50.6746Z" fill="#E0E0E0"/>
<path id="Vector_87" d="M37.968 40.3064L40.698 38.7304C40.84 38.6464 40.958 38.7144 40.958 38.8804V41.0944C40.9526 41.1844 40.9264 41.272 40.8812 41.3501C40.8361 41.4283 40.7734 41.4948 40.698 41.5444L37.968 43.1204C37.824 43.2024 37.708 43.1364 37.708 42.9704V40.7564C37.7127 40.6662 37.7387 40.5784 37.7839 40.5002C37.8291 40.4219 37.8922 40.3555 37.968 40.3064Z" fill="#E0E0E0"/>
<path id="Vector_88" d="M37.88 43.6385L40.784 41.9625C40.88 41.9085 40.958 41.9525 40.958 42.0625V42.1325C40.9546 42.1926 40.937 42.2511 40.9068 42.3033C40.8766 42.3554 40.8345 42.3996 40.784 42.4325L37.88 44.1085C37.786 44.1645 37.708 44.1185 37.708 44.0085V43.9385C37.7115 43.8786 37.7289 43.8203 37.7587 43.7683C37.7886 43.7162 37.8301 43.6718 37.88 43.6385Z" fill="#E0E0E0"/>
<path id="Vector_89" d="M37.88 44.578L40.784 42.9C40.88 42.846 40.958 42.89 40.958 43V43.07C40.9546 43.1301 40.937 43.1886 40.9068 43.2408C40.8766 43.2929 40.8345 43.3371 40.784 43.37L37.88 45.046C37.786 45.102 37.708 45.056 37.708 44.946V44.878C37.7111 44.818 37.7282 44.7595 37.7581 44.7074C37.788 44.6553 37.8298 44.6109 37.88 44.578Z" fill="#E0E0E0"/>
<path id="Vector_90" d="M37.88 45.5165L40.784 43.8385C40.88 43.7845 40.958 43.8285 40.958 43.9385V44.0005C40.9546 44.0606 40.937 44.1191 40.9068 44.1712C40.8766 44.2233 40.8345 44.2676 40.784 44.3005L37.88 45.9765C37.786 46.0325 37.708 45.9865 37.708 45.8765V45.8085C37.7123 45.7498 37.73 45.693 37.7598 45.6423C37.7897 45.5917 37.8308 45.5486 37.88 45.5165Z" fill="#E0E0E0"/>
<path id="Vector_91" d="M37.88 46.4542L40.784 44.7762C40.88 44.7222 40.958 44.7762 40.958 44.8762V44.9462C40.9546 45.0064 40.937 45.0649 40.9068 45.117C40.8766 45.1691 40.8345 45.2134 40.784 45.2462L37.88 46.9222C37.786 46.9782 37.708 46.9222 37.708 46.8222V46.7542C37.7111 46.6942 37.7282 46.6358 37.7581 46.5836C37.788 46.5315 37.8298 46.4872 37.88 46.4542Z" fill="#E0E0E0"/>
<path id="Vector_92" d="M37.88 47.4005L40.784 45.7225C40.88 45.6685 40.958 45.7225 40.958 45.8225V45.8925C40.9546 45.9527 40.937 46.0112 40.9068 46.0633C40.8766 46.1154 40.8345 46.1597 40.784 46.1925L37.88 47.8605C37.786 47.9165 37.708 47.8605 37.708 47.7605V47.6925C37.7123 47.6339 37.73 47.577 37.7598 47.5264C37.7897 47.4757 37.8308 47.4327 37.88 47.4005Z" fill="#E0E0E0"/>
<path id="Vector_93" d="M37.88 48.3302L40.784 46.6542C40.88 46.5982 40.958 46.6422 40.958 46.7542V46.8222C40.9547 46.8823 40.9372 46.9409 40.907 46.993C40.8768 47.0452 40.8346 47.0894 40.784 47.1222L37.88 48.8002C37.786 48.8562 37.708 48.8002 37.708 48.7002V48.6322C37.7109 48.5718 37.728 48.5131 37.7579 48.4606C37.7878 48.4081 37.8296 48.3634 37.88 48.3302Z" fill="#E0E0E0"/>
<path id="Vector_94" d="M37.88 49.2684L40.784 47.6004C40.88 47.5444 40.958 47.5884 40.958 47.7004V47.7684C40.9547 47.8286 40.9372 47.8872 40.907 47.9393C40.8768 47.9915 40.8346 48.0357 40.784 48.0684L37.88 49.7444C37.786 49.8004 37.708 49.7444 37.708 49.6444V49.5764C37.71 49.5151 37.7266 49.4551 37.7565 49.4015C37.7865 49.3479 37.8288 49.3023 37.88 49.2684Z" fill="#E0E0E0"/>
<path id="Vector_95" d="M37.88 50.2003L40.784 48.5243C40.88 48.4683 40.958 48.5123 40.958 48.6243V48.6923C40.9547 48.7525 40.9372 48.811 40.907 48.8632C40.8768 48.9153 40.8346 48.9595 40.784 48.9923L37.88 50.6683C37.786 50.7243 37.708 50.6803 37.708 50.5683V50.5003C37.7112 50.4403 37.7284 50.3819 37.7583 50.3298C37.7882 50.2777 37.8299 50.2333 37.88 50.2003Z" fill="#E0E0E0"/>
<path id="Vector_96" d="M32.28 53.908L35.01 52.332C35.154 52.25 35.27 52.316 35.27 52.482V54.696C35.2653 54.7863 35.2392 54.8741 35.1941 54.9523C35.1489 55.0305 35.0858 55.0969 35.01 55.146L32.28 56.724C32.138 56.806 32.02 56.738 32.02 56.574V54.358C32.0255 54.268 32.0519 54.1805 32.097 54.1024C32.1421 54.0243 32.2048 53.9578 32.28 53.908Z" fill="#E0E0E0"/>
<path id="Vector_97" d="M32.2 57.242L35.104 55.566C35.198 55.512 35.276 55.556 35.276 55.666V55.736C35.2725 55.7959 35.2551 55.8542 35.2253 55.9062C35.1954 55.9583 35.1539 56.0027 35.104 56.036L32.2 57.712C32.104 57.766 32.026 57.722 32.026 57.612V57.542C32.0294 57.4819 32.047 57.4234 32.0772 57.3712C32.1074 57.3191 32.1495 57.2749 32.2 57.242Z" fill="#E0E0E0"/>
<path id="Vector_98" d="M32.2 58.1798L35.104 56.5038C35.198 56.4498 35.276 56.5038 35.276 56.6038V56.6738C35.2725 56.7337 35.2551 56.7919 35.2253 56.844C35.1954 56.896 35.1539 56.9405 35.104 56.9738L32.2 58.6498C32.104 58.7038 32.026 58.6598 32.026 58.5498V58.4798C32.0294 58.4196 32.047 58.3611 32.0772 58.309C32.1074 58.2569 32.1495 58.2126 32.2 58.1798Z" fill="#E0E0E0"/>
<path id="Vector_99" d="M32.2 59.1182L35.104 57.4422C35.198 57.3882 35.276 57.4422 35.276 57.5422V57.6122C35.2725 57.6721 35.2551 57.7304 35.2253 57.7825C35.1954 57.8345 35.1539 57.8789 35.104 57.9122L32.2 59.5882C32.104 59.6422 32.026 59.5982 32.026 59.4882V59.4182C32.0294 59.3581 32.047 59.2996 32.0772 59.2475C32.1074 59.1954 32.1495 59.1511 32.2 59.1182Z" fill="#E0E0E0"/>
<path id="Vector_100" d="M26.46 40.8122C26.42 40.7989 26.4 40.7609 26.4 40.6982C26.4024 40.6373 26.4146 40.5772 26.436 40.5202L26.652 39.8322C26.6658 39.7701 26.697 39.7132 26.742 39.6682C26.7567 39.6602 26.7732 39.6559 26.79 39.6559C26.8068 39.6559 26.8233 39.6602 26.838 39.6682C26.9492 39.7148 27.0703 39.7326 27.1902 39.72C27.3101 39.7074 27.4249 39.6648 27.524 39.5962C27.7028 39.492 27.8431 39.3327 27.924 39.1422C28.0175 38.9084 28.0618 38.6579 28.054 38.4062V34.3722C28.0503 34.2558 28.0714 34.1399 28.116 34.0322C28.164 33.9329 28.2425 33.8516 28.34 33.8002L28.784 33.5442C28.884 33.4862 28.956 33.4782 28.998 33.5222C29.0509 33.6017 29.0736 33.6975 29.062 33.7922V37.8402C29.0692 38.4083 28.9489 38.9708 28.71 39.4862C28.4923 39.9607 28.1323 40.3556 27.68 40.6162C27.1987 40.8949 26.792 40.9602 26.46 40.8122Z" fill="#455A64"/>
<path id="Vector_101" d="M30.062 38.3824C29.7033 38.0144 29.524 37.3097 29.524 36.2684C29.5036 35.3289 29.6871 34.3961 30.062 33.5344C30.3816 32.7974 30.9272 32.181 31.62 31.7744C32.298 31.3744 32.82 31.3744 33.174 31.7384C33.528 32.1024 33.712 32.8084 33.712 33.8504C33.7324 34.7899 33.5489 35.7227 33.174 36.5844C32.8552 37.3202 32.3111 37.9357 31.62 38.3424C30.94 38.7344 30.4207 38.7477 30.062 38.3824ZM32.446 36.2144C32.6495 35.6368 32.7444 35.0265 32.726 34.4144C32.726 33.6931 32.6327 33.2024 32.446 32.9424C32.26 32.6824 31.986 32.6584 31.62 32.8684C31.232 33.1062 30.9381 33.4708 30.788 33.9004C30.5849 34.4781 30.4907 35.0884 30.51 35.7004C30.51 36.4204 30.602 36.9124 30.788 37.1704C30.974 37.4284 31.252 37.4544 31.62 37.2404C32.0063 37.0049 32.2984 36.6421 32.446 36.2144Z" fill="#455A64"/>
<path id="Vector_102" d="M34.268 36.5784C34.2152 36.5012 34.1925 36.4073 34.204 36.3144V30.8284C34.2007 30.7112 34.2225 30.5946 34.268 30.4864C34.3095 30.3936 34.3796 30.3165 34.468 30.2664L36.228 29.2484C36.6707 28.9938 37.004 28.9591 37.228 29.1444C37.452 29.3298 37.562 29.6964 37.558 30.2444C37.5581 30.5344 37.5129 30.8225 37.424 31.0984C37.3463 31.3544 37.2207 31.5933 37.054 31.8024C37.466 31.7744 37.672 32.1211 37.672 32.8424C37.6719 33.1964 37.6186 33.5483 37.514 33.8864C37.4087 34.2277 37.2457 34.5483 37.032 34.8344C36.8175 35.1225 36.545 35.3623 36.232 35.5384L34.472 36.5564C34.378 36.6104 34.31 36.6184 34.268 36.5784ZM36.068 31.8904C36.2286 31.7965 36.3579 31.6574 36.44 31.4904C36.5335 31.2996 36.5795 31.0889 36.574 30.8764C36.574 30.6244 36.532 30.4764 36.45 30.4064C36.368 30.3364 36.24 30.3664 36.068 30.4644L35.2 30.9684V32.4004L36.068 31.8904ZM36.164 34.4624C36.3427 34.3617 36.4833 34.205 36.564 34.0164C36.6523 33.8133 36.6966 33.5939 36.694 33.3724C36.694 33.1084 36.644 32.9384 36.544 32.8644C36.444 32.7904 36.302 32.8044 36.122 32.9084L35.2 33.4384V35.0204L36.164 34.4624Z" fill="#455A64"/>
<path id="Vector_103" d="M38.562 34.1804C38.3338 34.2473 38.09 34.2374 37.868 34.1524C37.8418 34.1409 37.8194 34.1222 37.8034 34.0985C37.7875 34.0748 37.7787 34.047 37.778 34.0184C37.7806 33.9685 37.7907 33.9192 37.808 33.8724L38.056 33.1284C38.0661 33.075 38.0935 33.0265 38.134 32.9904C38.1479 32.983 38.1633 32.9792 38.179 32.9792C38.1947 32.9792 38.2101 32.983 38.224 32.9904C38.3904 33.0349 38.5646 33.0417 38.734 33.0104C38.9393 32.9735 39.1364 32.9004 39.316 32.7944C39.5243 32.6821 39.7021 32.5208 39.834 32.3244C39.9497 32.1321 40.008 31.9107 40.002 31.6864C40.0121 31.5608 39.9835 31.4352 39.92 31.3264C39.8615 31.25 39.7753 31.1997 39.68 31.1864C39.5176 31.1647 39.3539 31.154 39.19 31.1544C38.9702 31.1595 38.7507 31.1339 38.538 31.0784C38.3542 31.0224 38.198 30.8997 38.1 30.7344C37.9689 30.4891 37.9093 30.2119 37.928 29.9344C37.9207 29.3784 38.0645 28.831 38.344 28.3504C38.6043 27.8941 38.9812 27.5152 39.436 27.2524C40.036 26.9064 40.49 26.8164 40.806 26.9784C40.8312 26.9912 40.8526 27.0102 40.8684 27.0337C40.8841 27.0571 40.8936 27.0842 40.896 27.1124C40.8934 27.1623 40.8833 27.2115 40.866 27.2584L40.62 28.0024C40.6101 28.0552 40.5826 28.1031 40.542 28.1384C40.5283 28.1463 40.5128 28.1504 40.497 28.1504C40.4812 28.1504 40.4657 28.1463 40.452 28.1384C40.208 28.033 39.912 28.0804 39.564 28.2804C39.3634 28.3837 39.1959 28.5416 39.081 28.7358C38.966 28.93 38.9081 29.1527 38.914 29.3784C38.905 29.4993 38.9314 29.6202 38.99 29.7264C39.036 29.7972 39.1077 29.8474 39.19 29.8664C39.3272 29.8912 39.4666 29.9026 39.606 29.9004H39.774C40.008 29.9013 40.2405 29.937 40.464 30.0064C40.6349 30.0686 40.7744 30.1958 40.852 30.3604C40.9561 30.6136 41.0019 30.887 40.986 31.1604C40.9864 31.6893 40.8485 32.2092 40.586 32.6684C40.318 33.1444 39.9234 33.5369 39.446 33.8024C39.1729 33.9738 38.8746 34.1014 38.562 34.1804Z" fill="#455A64"/>
</g>
</g>
<g id="freepik--speech-bubbles--inject-69">
<g id="freepik--Tab--inject-69">
<path id="Vector_104" d="M63.554 14.9336L62.742 14.4636C62.683 14.4362 62.6178 14.4251 62.5531 14.4314C62.4884 14.4377 62.4265 14.4613 62.374 14.4996L52.04 20.4796C51.889 20.5785 51.7632 20.7115 51.6729 20.8678C51.5826 21.0241 51.5302 21.1994 51.52 21.3796V42.6796C51.5131 42.7441 51.5236 42.8092 51.5503 42.8683C51.577 42.9274 51.619 42.9782 51.672 43.0156L52.472 43.4836H52.484C52.5415 43.5068 52.6039 43.5151 52.6654 43.5078C52.7269 43.5005 52.7856 43.4777 52.836 43.4416L55.566 41.8656V43.5076C55.566 43.7976 55.612 43.9656 55.688 44.0116L56.488 44.4776C56.58 44.5276 56.714 44.3996 56.864 44.0776L58.8 39.9776L63.154 37.4496C63.305 37.3507 63.4308 37.2178 63.5211 37.0615C63.6114 36.9052 63.6638 36.7299 63.674 36.5496V15.2676C63.684 15.2063 63.6782 15.1435 63.6572 15.0851C63.6362 15.0267 63.6007 14.9745 63.554 14.9336Z" fill="#EC8305"/>
<path id="Vector_105" opacity="0.4" d="M63.534 14.9218C63.4765 14.9012 63.415 14.8947 63.3544 14.9027C63.2939 14.9107 63.2362 14.933 63.186 14.9678L52.85 20.9498C52.6999 21.0432 52.576 21.1733 52.49 21.3278L51.678 20.8578C51.7634 20.7029 51.8874 20.5726 52.038 20.4798L62.372 14.4978C62.4414 14.4552 62.5206 14.4311 62.602 14.4278C62.6502 14.4269 62.6978 14.4386 62.74 14.4618L63.534 14.9218Z" fill="white"/>
<path id="Vector_106" opacity="0.2" d="M55.702 44.0194C55.628 43.9734 55.582 43.8054 55.582 43.5154V41.8754L56.4 41.3994V43.9794C56.4 44.2554 56.442 44.4234 56.508 44.4794L55.702 44.0194Z" fill="#333333"/>
<path id="Vector_107" opacity="0.1" d="M52.488 43.4854L51.676 43.0174C51.6242 42.9795 51.5831 42.9288 51.5568 42.8703C51.5305 42.8117 51.5199 42.7473 51.526 42.6834V21.3794C51.5333 21.1945 51.5884 21.0147 51.686 20.8574L52.498 21.3274C52.401 21.4848 52.3465 21.6647 52.34 21.8494V43.1494C52.3325 43.2135 52.3422 43.2785 52.3682 43.3376C52.3943 43.3967 52.4356 43.4477 52.488 43.4854Z" fill="#333333"/>
<path id="Vector_108" d="M54.388 21.9358L61.646 17.7358C61.886 17.5978 62.08 17.7098 62.08 17.9858V22.5998C62.0718 22.7505 62.0283 22.8971 61.9529 23.0277C61.8775 23.1584 61.7723 23.2694 61.646 23.3518L54.388 27.5518C54.15 27.6898 53.956 27.5778 53.956 27.3018V22.6858C53.9643 22.5357 54.0076 22.3897 54.0827 22.2594C54.1577 22.1291 54.2623 22.0183 54.388 21.9358Z" fill="#455A64"/>
<path id="Vector_109" d="M62.08 24.5179C62.0694 24.6636 62.0246 24.8047 61.9492 24.9298C61.8738 25.055 61.7699 25.1605 61.646 25.2379L54.388 29.4279C54.15 29.5659 53.956 29.4679 53.956 29.2079C53.9668 29.0627 54.0115 28.9222 54.0866 28.7975C54.1616 28.6728 54.2648 28.5674 54.388 28.4899L61.646 24.2999C61.886 24.1619 62.08 24.2599 62.08 24.5179Z" fill="#455A64"/>
<path id="Vector_110" d="M62.08 26.3997C62.0694 26.5454 62.0246 26.6865 61.9492 26.8116C61.8738 26.9367 61.7699 27.0423 61.646 27.1197L54.388 31.3197C54.15 31.4577 53.956 31.3597 53.956 31.0997C53.9668 30.9545 54.0115 30.8139 54.0866 30.6892C54.1616 30.5645 54.2648 30.4592 54.388 30.3817L61.646 26.1817C61.886 26.0377 62.08 26.1357 62.08 26.3997Z" fill="#455A64"/>
<path id="Vector_111" d="M62.08 28.2698C62.0694 28.4155 62.0246 28.5567 61.9492 28.6818C61.8738 28.8069 61.7699 28.9124 61.646 28.9898L54.388 33.1898C54.15 33.3278 53.956 33.2298 53.956 32.9698C53.9668 32.8247 54.0115 32.6841 54.0866 32.5594C54.1616 32.4347 54.2648 32.3294 54.388 32.2518L61.646 28.0518C61.886 27.9138 62.08 28.0118 62.08 28.2698Z" fill="#455A64"/>
<path id="Vector_112" d="M62.08 30.1458C62.0694 30.2915 62.0246 30.4326 61.9492 30.5578C61.8738 30.6829 61.7699 30.7884 61.646 30.8658L54.388 35.0558C54.15 35.1938 53.956 35.0958 53.956 34.8358C53.9668 34.6906 54.0115 34.5501 54.0866 34.4254C54.1616 34.3007 54.2648 34.1953 54.388 34.1178L61.646 29.9178C61.886 29.7998 62.08 29.8878 62.08 30.1458Z" fill="#455A64"/>
<path id="Vector_113" d="M53.956 36.7137C53.956 36.9717 54.156 37.0697 54.388 36.9317L55.148 36.4937C55.2712 36.4161 55.3744 36.3108 55.4494 36.1861C55.5245 36.0614 55.5692 35.9208 55.58 35.7757C55.58 35.5157 55.38 35.4177 55.148 35.5557L54.388 35.9937C54.2646 36.0714 54.1612 36.1771 54.0861 36.3021C54.0111 36.4272 53.9665 36.5682 53.956 36.7137Z" fill="#455A64"/>
<path id="Vector_114" d="M56.68 35.1438C56.68 35.4018 56.88 35.4998 57.114 35.3618L61.646 32.7418C61.7699 32.6644 61.8738 32.5589 61.9492 32.4337C62.0246 32.3086 62.0694 32.1675 62.08 32.0218C62.08 31.7638 61.88 31.6658 61.646 31.8038L57.114 34.4238C56.9901 34.5012 56.8862 34.6067 56.8108 34.7318C56.7354 34.8569 56.6906 34.9981 56.68 35.1438Z" fill="#455A64"/>
<path id="Vector_115" d="M53.956 38.5994C53.956 38.8574 54.156 38.9554 54.388 38.8174L55.148 38.3794C55.2712 38.3019 55.3744 38.1965 55.4494 38.0718C55.5245 37.9471 55.5692 37.8065 55.58 37.6614C55.58 37.4014 55.38 37.3034 55.148 37.4414L54.388 37.8794C54.2646 37.9571 54.1612 38.0628 54.0861 38.1879C54.0111 38.313 53.9665 38.4539 53.956 38.5994Z" fill="#455A64"/>
<path id="Vector_116" d="M56.68 37.0198C56.68 37.2778 56.88 37.3758 57.114 37.2378L61.646 34.6178C61.7699 34.5404 61.8738 34.4348 61.9492 34.3097C62.0246 34.1846 62.0694 34.0435 62.08 33.8978C62.08 33.6398 61.88 33.5418 61.646 33.6798L57.114 36.2998C56.9901 36.3771 56.8862 36.4827 56.8108 36.6078C56.7354 36.7329 56.6906 36.8741 56.68 37.0198Z" fill="#455A64"/>
<path id="Vector_117" d="M53.956 40.4656C53.956 40.7236 54.156 40.8216 54.388 40.6836L55.148 40.2456C55.2712 40.1681 55.3744 40.0627 55.4494 39.938C55.5245 39.8133 55.5692 39.6728 55.58 39.5276C55.58 39.2676 55.38 39.1696 55.148 39.3076L54.388 39.7456C54.2646 39.8234 54.1612 39.929 54.0861 40.0541C54.0111 40.1792 53.9665 40.3201 53.956 40.4656Z" fill="#455A64"/>
<path id="Vector_118" d="M56.68 38.8957C56.68 39.1537 56.88 39.2517 57.114 39.1137L61.646 36.4937C61.7696 36.4165 61.8734 36.3113 61.9488 36.1865C62.0242 36.0618 62.0691 35.921 62.08 35.7757C62.08 35.5157 61.88 35.4177 61.646 35.5557L57.114 38.1757C56.9901 38.2531 56.8862 38.3586 56.8108 38.4837C56.7354 38.6088 56.6906 38.75 56.68 38.8957Z" fill="#455A64"/>
</g>
<g id="freepik--tab--inject-69">
<path id="Vector_119" d="M73.308 20.5498L72.508 20.0798C72.449 20.0524 72.3838 20.0413 72.3191 20.0476C72.2544 20.054 72.1925 20.0775 72.14 20.1158L61.8 26.0938C61.649 26.1927 61.5232 26.3257 61.4329 26.482C61.3426 26.6383 61.2902 26.8136 61.28 26.9938V48.2938C61.2731 48.3583 61.2836 48.4234 61.3103 48.4825C61.337 48.5416 61.379 48.5924 61.432 48.6298L62.242 49.0978H62.252C62.3098 49.1212 62.3725 49.1296 62.4344 49.1223C62.4963 49.1149 62.5553 49.0921 62.606 49.0558L65.336 47.4798V49.1218C65.336 49.4118 65.382 49.5798 65.456 49.6258L66.256 50.0918H66.266C66.358 50.1418 66.492 50.0138 66.64 49.6918L68.578 45.5918L72.932 43.0638C73.083 42.9649 73.2088 42.832 73.2991 42.6757C73.3894 42.5194 73.4418 42.3441 73.452 42.1638V20.8838C73.4592 20.8204 73.4497 20.7563 73.4244 20.6977C73.3992 20.6391 73.359 20.5881 73.308 20.5498Z" fill="#EC8305"/>
<path id="Vector_120" opacity="0.4" d="M73.286 20.538C73.2285 20.5174 73.167 20.5109 73.1064 20.5189C73.0459 20.5269 72.9882 20.5492 72.938 20.584L62.6 26.566C62.4499 26.6594 62.326 26.7895 62.24 26.944L61.428 26.474C61.514 26.3195 61.6379 26.1894 61.788 26.096L72.124 20.114C72.1932 20.0709 72.2725 20.0468 72.354 20.044C72.4015 20.0433 72.4484 20.055 72.49 20.078L73.286 20.538Z" fill="white"/>
<path id="Vector_121" opacity="0.2" d="M65.454 49.6355C65.38 49.5895 65.334 49.4215 65.334 49.1315V47.4915L66.146 47.0215V49.5995C66.146 49.8755 66.188 50.0435 66.256 50.0995L65.454 49.6355Z" fill="#333333"/>
<path id="Vector_122" opacity="0.1" d="M62.24 49.1015L61.43 48.6335C61.3779 48.5959 61.3366 48.5453 61.3102 48.4866C61.2839 48.428 61.2735 48.3635 61.28 48.2995V26.9995C61.2865 26.8148 61.341 26.6349 61.438 26.4775L62.25 26.9475C62.153 27.1049 62.0985 27.2848 62.092 27.4695V48.7695C62.0852 48.833 62.0953 48.8972 62.1213 48.9555C62.1473 49.0138 62.1882 49.0642 62.24 49.1015Z" fill="#333333"/>
<path id="Vector_123" d="M64.142 27.5521L71.4 23.3521C71.638 23.2141 71.832 23.3261 71.832 23.6021V28.2281C71.8239 28.3785 71.7806 28.5249 71.7055 28.6555C71.6305 28.7861 71.5259 28.8973 71.4 28.9801L64.142 33.18C63.902 33.3181 63.708 33.206 63.708 32.93V28.3021C63.7162 28.1517 63.7597 28.0054 63.8351 27.8751C63.9106 27.7447 64.0157 27.634 64.142 27.5521Z" fill="#455A64"/>
<path id="Vector_124" d="M71.832 30.1341C71.8215 30.2796 71.7769 30.4205 71.7019 30.5456C71.6268 30.6707 71.5234 30.7764 71.4 30.8541L64.142 35.0441C63.902 35.1821 63.708 35.0841 63.708 34.8241C63.7189 34.6787 63.7638 34.538 63.8392 34.4132C63.9146 34.2885 64.0184 34.1833 64.142 34.1061L71.4 29.9161C71.638 29.7781 71.832 29.8761 71.832 30.1341Z" fill="#455A64"/>
<path id="Vector_125" d="M71.832 32.0104C71.8215 32.1559 71.7769 32.2968 71.7019 32.4219C71.6268 32.547 71.5234 32.6527 71.4 32.7304L64.142 36.9204C63.902 37.0584 63.708 36.9604 63.708 36.7004C63.7189 36.555 63.7638 36.4143 63.8392 36.2895C63.9146 36.1648 64.0184 36.0596 64.142 35.9824L71.4 31.8004C71.638 31.6544 71.832 31.7524 71.832 32.0104Z" fill="#455A64"/>
<path id="Vector_126" d="M71.832 33.886C71.8206 34.0305 71.7756 34.1703 71.7006 34.2942C71.6256 34.4182 71.5227 34.5229 71.4 34.6L64.142 38.8C63.902 38.938 63.708 38.84 63.708 38.58C63.7189 38.4347 63.7638 38.2939 63.8392 38.1692C63.9146 38.0445 64.0184 37.9392 64.142 37.862L71.4 33.668C71.638 33.53 71.832 33.628 71.832 33.886Z" fill="#455A64"/>
<path id="Vector_127" d="M71.832 35.7617C71.8215 35.9072 71.7769 36.0482 71.7019 36.1733C71.6268 36.2983 71.5234 36.404 71.4 36.4817L64.142 40.6817C63.902 40.8197 63.708 40.7217 63.708 40.4617C63.7189 40.3164 63.7638 40.1756 63.8392 40.0509C63.9146 39.9262 64.0184 39.8209 64.142 39.7437L71.4 35.5437C71.638 35.3997 71.832 35.5037 71.832 35.7617Z" fill="#455A64"/>
<path id="Vector_128" d="M63.708 42.3299C63.708 42.5879 63.908 42.6859 64.142 42.5479L64.9 42.1099C65.0236 42.0327 65.1274 41.9275 65.2028 41.8027C65.2782 41.678 65.3231 41.5372 65.334 41.3919C65.334 41.1319 65.134 41.0339 64.9 41.1719L64.142 41.6099C64.0181 41.6873 63.9142 41.7928 63.8388 41.9179C63.7634 42.043 63.7186 42.1842 63.708 42.3299Z" fill="#455A64"/>
<path id="Vector_129" d="M66.434 40.76C66.434 41.018 66.634 41.116 66.868 40.978L71.4 38.358C71.5234 38.2803 71.6268 38.1746 71.7019 38.0495C71.7769 37.9244 71.8215 37.7835 71.832 37.638C71.832 37.38 71.632 37.282 71.4 37.42L66.866 40.04C66.7426 40.1177 66.6392 40.2234 66.5641 40.3485C66.4891 40.4735 66.4445 40.6145 66.434 40.76Z" fill="#455A64"/>
<path id="Vector_130" d="M63.708 44.2C63.708 44.458 63.908 44.556 64.142 44.418L64.9 43.98C65.0236 43.9028 65.1274 43.7976 65.2028 43.6728C65.2782 43.5481 65.3231 43.4074 65.334 43.262C65.334 43.002 65.134 42.904 64.9 43.042L64.142 43.48C64.0181 43.5574 63.9142 43.6629 63.8388 43.788C63.7634 43.9132 63.7186 44.0543 63.708 44.2Z" fill="#455A64"/>
<path id="Vector_131" d="M66.434 42.636C66.434 42.894 66.634 42.992 66.868 42.854L71.4 40.234C71.5234 40.1562 71.6268 40.0506 71.7019 39.9255C71.7769 39.8004 71.8215 39.6595 71.832 39.514C71.832 39.256 71.632 39.158 71.4 39.296L66.866 41.916C66.7426 41.9937 66.6392 42.0994 66.5641 42.2244C66.4891 42.3495 66.4445 42.4905 66.434 42.636Z" fill="#455A64"/>
<path id="Vector_132" d="M63.708 46.0818C63.708 46.3398 63.908 46.4378 64.142 46.2998L64.9 45.8618C65.0236 45.7847 65.1274 45.6794 65.2028 45.5547C65.2782 45.4299 65.3231 45.2892 65.334 45.1438C65.334 44.8838 65.134 44.7858 64.9 44.9238L64.142 45.3618C64.0181 45.4392 63.9142 45.5448 63.8388 45.6699C63.7634 45.795 63.7186 45.9361 63.708 46.0818Z" fill="#455A64"/>
<path id="Vector_133" d="M66.434 44.5119C66.434 44.7699 66.634 44.8679 66.868 44.7299L71.4 42.1099C71.5232 42.0324 71.6264 41.927 71.7014 41.8023C71.7765 41.6776 71.8212 41.537 71.832 41.3919C71.832 41.1319 71.632 41.0339 71.4 41.1719L66.866 43.7999C66.7436 43.8768 66.6408 43.9812 66.5659 44.1048C66.4909 44.2284 66.4457 44.3678 66.434 44.5119Z" fill="#455A64"/>
</g>
</g>
<g id="freepik--Icons--inject-69">
<path id="Vector_134" d="M83.876 12.294L82.8 11.678H82.79C82.316 11.412 81.666 11.452 80.946 11.866C79.496 12.704 78.322 14.74 78.322 16.414C78.322 17.248 78.614 17.836 79.088 18.11L80.06 18.666L80.292 18.266C80.5568 18.2079 80.8111 18.1094 81.046 17.974C82.494 17.138 83.67 15.102 83.67 13.428C83.6692 13.2022 83.6417 12.9773 83.588 12.758L83.876 12.294Z" fill="#EC8305"/>
<path id="Vector_135" d="M78.328 16.4005C78.328 17.2365 78.62 17.8245 79.094 18.0985L80.066 18.6545L80.298 18.2665C80.5626 18.2068 80.8168 18.1077 81.052 17.9725C81.8806 17.451 82.5535 16.7159 83 15.8445L79.2 13.6445C78.6662 14.4678 78.3649 15.4201 78.328 16.4005Z" fill="#263238"/>
<path id="Vector_136" d="M83.878 12.2945L82.81 11.6785H82.8C82.326 11.4105 81.676 11.4505 80.956 11.8665C80.2354 12.31 79.6329 12.9214 79.2 13.6485L83 15.8485C83.4135 15.1141 83.644 14.2908 83.672 13.4485C83.6712 13.2227 83.6437 12.9978 83.59 12.7785L83.878 12.2945Z" fill="#455A64"/>
<path id="Vector_137" d="M81.966 12.4449C80.518 13.2809 79.342 15.3169 79.342 17.0009C79.342 18.6849 80.518 19.3529 81.966 18.5149C83.414 17.6769 84.6 15.6329 84.6 13.9589C84.6 12.2849 83.416 11.6009 81.966 12.4449Z" fill="#37474F"/>
<path id="Vector_138" d="M82.158 13.8307C82.2357 13.8036 82.3191 13.7974 82.4 13.8127C82.4659 13.8279 82.5266 13.8604 82.576 13.9067C82.6236 13.9531 82.6599 14.0099 82.682 14.0727C82.7073 14.1366 82.7221 14.2041 82.726 14.2727C82.7273 14.3061 82.7197 14.3392 82.704 14.3687C82.6919 14.395 82.6724 14.4172 82.648 14.4327L82.448 14.5467C82.416 14.5667 82.392 14.5707 82.376 14.5607C82.3565 14.5481 82.3411 14.53 82.332 14.5087C82.3182 14.4829 82.2994 14.46 82.2768 14.4415C82.2541 14.423 82.228 14.4091 82.2 14.4007C82.1553 14.3942 82.1097 14.3969 82.066 14.4086C82.0224 14.4203 81.9815 14.4407 81.946 14.4687C81.8951 14.4972 81.8481 14.5322 81.806 14.5727C81.762 14.6132 81.7231 14.6589 81.69 14.7087C81.6569 14.7568 81.6307 14.8093 81.612 14.8647C81.5938 14.9175 81.5844 14.9728 81.584 15.0287C81.5798 15.0794 81.5909 15.1303 81.616 15.1747C81.6277 15.1901 81.6428 15.2027 81.6601 15.2114C81.6775 15.22 81.6966 15.2246 81.716 15.2247C81.7759 15.2273 81.8359 15.2213 81.894 15.2067L82.158 15.1447C82.2512 15.12 82.3476 15.1092 82.444 15.1127C82.5168 15.114 82.5871 15.1393 82.644 15.1847C82.698 15.2335 82.7357 15.2977 82.752 15.3687C82.7746 15.4664 82.7854 15.5664 82.784 15.6667C82.7825 15.7793 82.7678 15.8915 82.74 16.0007C82.7109 16.1168 82.6693 16.2295 82.616 16.3367C82.5609 16.447 82.4938 16.551 82.416 16.6467C82.3389 16.7431 82.251 16.8303 82.154 16.9067V17.2007C82.1534 17.2334 82.1452 17.2656 82.13 17.2947C82.1198 17.3215 82.1017 17.3445 82.078 17.3607L81.848 17.4927C81.8406 17.4994 81.831 17.5032 81.821 17.5032C81.811 17.5032 81.8014 17.4994 81.794 17.4927C81.786 17.4834 81.7799 17.4726 81.7761 17.4609C81.7724 17.4492 81.7709 17.4369 81.772 17.4247V17.1287C81.6956 17.1555 81.6149 17.1677 81.534 17.1647C81.4628 17.1615 81.3938 17.1394 81.334 17.1007C81.2757 17.0587 81.2295 17.0021 81.2 16.9367C81.1635 16.8513 81.1444 16.7595 81.144 16.6667C81.1422 16.6332 81.1498 16.6 81.166 16.5707C81.1774 16.544 81.1961 16.5211 81.22 16.5047L81.42 16.3907C81.452 16.3727 81.476 16.3667 81.494 16.3747C81.5138 16.3873 81.5286 16.4064 81.536 16.4287C81.55 16.4584 81.5661 16.4871 81.584 16.5147C81.6029 16.5407 81.6295 16.5603 81.66 16.5707C81.6995 16.5799 81.7405 16.5799 81.78 16.5707C81.8439 16.5558 81.9048 16.5301 81.96 16.4947C82.0177 16.4612 82.0726 16.4231 82.124 16.3807C82.175 16.3377 82.2213 16.2894 82.262 16.2367C82.3012 16.1844 82.3335 16.1272 82.358 16.0667C82.3824 16.007 82.3946 15.9431 82.394 15.8787C82.3968 15.8548 82.3948 15.8306 82.3879 15.8075C82.381 15.7845 82.3695 15.7631 82.354 15.7447C82.3372 15.7314 82.318 15.7215 82.2974 15.7157C82.2768 15.7098 82.2553 15.7081 82.234 15.7107C82.1664 15.7144 82.0994 15.7251 82.034 15.7427C81.954 15.7627 81.864 15.7807 81.76 15.8007C81.6788 15.8198 81.5951 15.8259 81.512 15.8187C81.4473 15.8143 81.386 15.7882 81.338 15.7447C81.2878 15.6928 81.2519 15.6286 81.234 15.5587C81.2091 15.4546 81.1977 15.3477 81.2 15.2407C81.1999 15.1266 81.2147 15.0129 81.244 14.9027C81.2719 14.7905 81.3107 14.6813 81.36 14.5767C81.409 14.4723 81.4694 14.3737 81.54 14.2827C81.6076 14.1939 81.684 14.1121 81.768 14.0387V13.7447C81.7688 13.7122 81.7763 13.6802 81.79 13.6507C81.8014 13.624 81.8201 13.6011 81.844 13.5847L82.074 13.4527C82.081 13.4461 82.0903 13.4424 82.1 13.4424C82.1097 13.4424 82.119 13.4461 82.126 13.4527C82.1347 13.4616 82.1413 13.4723 82.1455 13.484C82.1496 13.4958 82.1512 13.5083 82.15 13.5207L82.158 13.8307Z" fill="#FAFAFA"/>
<path id="Vector_139" d="M83.876 31.8648L82.8 31.2488H82.79C82.316 30.9808 81.666 31.0208 80.946 31.4368C79.496 32.2728 78.322 34.3088 78.322 35.9828C78.322 36.8188 78.614 37.4048 79.088 37.6808L80.06 38.2348L80.292 37.8468C80.5565 37.7878 80.8107 37.6893 81.046 37.5548C82.494 36.7168 83.67 34.6808 83.67 33.0068C83.6691 32.781 83.6416 32.5561 83.588 32.3368L83.876 31.8648Z" fill="#EC8305"/>
<path id="Vector_140" d="M78.328 35.9788C78.328 36.8148 78.62 37.4008 79.094 37.6768L80.066 38.2308L80.298 37.8428C80.5626 37.7831 80.8168 37.684 81.052 37.5488C81.8814 37.0264 82.5544 36.2898 83 35.4168L79.2 33.2168C78.6657 34.042 78.3644 34.9964 78.328 35.9788Z" fill="#263238"/>
<path id="Vector_141" d="M83.878 31.8648L82.81 31.2488H82.8C82.326 30.9808 81.676 31.0208 80.956 31.4368C80.2364 31.882 79.6353 32.4948 79.204 33.2228L83.004 35.4228C83.4211 34.6818 83.6524 33.8507 83.678 33.0008C83.6771 32.775 83.6496 32.5501 83.596 32.3308L83.878 31.8648Z" fill="#455A64"/>
<path id="Vector_142" d="M81.966 32.0145C80.518 32.8505 79.342 34.8865 79.342 36.5605C79.342 38.2345 80.518 38.9125 81.966 38.0765C83.414 37.2405 84.6 35.2005 84.6 33.5305C84.6 31.8605 83.416 31.1785 81.966 32.0145Z" fill="#37474F"/>
<path id="Vector_143" d="M83.302 35.6425L80.632 37.1845C80.6 37.2025 80.576 37.1845 80.576 37.1305V34.7625C80.5754 34.7395 80.5801 34.7167 80.5898 34.6959C80.5996 34.6751 80.614 34.6568 80.632 34.6425L83.302 33.1005C83.332 33.0825 83.358 33.1005 83.358 33.1545V35.5245C83.3583 35.5471 83.3534 35.5696 83.3437 35.59C83.334 35.6105 83.3197 35.6284 83.302 35.6425Z" fill="#FAFAFA"/>
<path id="Vector_144" d="M82.492 33.7242C82.462 33.7422 82.436 33.7242 82.436 33.6702V33.3102L81.498 33.8522V34.2122C81.4984 34.2354 81.4933 34.2583 81.4833 34.2791C81.4732 34.3 81.4584 34.3181 81.44 34.3322C81.41 34.3502 81.384 34.3322 81.384 34.2782V33.8302C81.3837 33.8076 81.3886 33.7852 81.3983 33.7647C81.408 33.7442 81.4223 33.7263 81.44 33.7122L82.492 33.1122C82.524 33.0942 82.548 33.1122 82.548 33.1662V33.6002C82.5496 33.6239 82.5453 33.6476 82.5356 33.6692C82.5258 33.6909 82.5108 33.7098 82.492 33.7242Z" fill="#FAFAFA"/>
<path id="Vector_145" d="M82.492 33.2792L81.44 33.8792C81.41 33.8972 81.384 33.8792 81.384 33.8252V33.6252C81.3838 33.6023 81.3888 33.5796 81.3984 33.5589C81.4081 33.5381 81.4223 33.5198 81.44 33.5052L82.492 32.9052C82.524 32.8872 82.548 32.9052 82.548 32.9592V33.1592C82.5486 33.1822 82.5439 33.205 82.5342 33.2258C82.5244 33.2466 82.51 33.2649 82.492 33.2792Z" fill="#FAFAFA"/>
<path id="Vector_146" d="M82.348 34.7568L81.584 35.1968C81.562 35.2108 81.544 35.1968 81.544 35.1568V35.0128C81.5437 34.9963 81.5471 34.98 81.5541 34.9651C81.561 34.9502 81.5712 34.9371 81.584 34.9268L82.348 34.4868C82.372 34.4728 82.39 34.4868 82.39 34.5248V34.6688C82.3904 34.6857 82.3868 34.7025 82.3795 34.7178C82.3722 34.7331 82.3614 34.7464 82.348 34.7568Z" fill="#37474F"/>
<path id="Vector_147" d="M83.876 22.0806L82.8 21.4626H82.79C82.316 21.1946 81.666 21.2346 80.946 21.6506C79.496 22.4886 78.322 24.5226 78.322 26.1966C78.322 27.0326 78.614 27.6206 79.088 27.8946L80.06 28.4486L80.292 28.0606C80.5568 28.0026 80.8111 27.9041 81.046 27.7686C82.494 26.9306 83.67 24.8966 83.67 23.2226C83.6692 22.9962 83.6417 22.7706 83.588 22.5506L83.876 22.0806Z" fill="#EC8305"/>
<path id="Vector_148" d="M78.328 26.2007C78.328 27.0367 78.62 27.6247 79.094 27.8987L80.066 28.4527L80.298 28.0647C80.5628 28.0066 80.8171 27.9081 81.052 27.7727C81.8825 27.2473 82.5556 26.5072 83 25.6307L79.2 23.4307C78.6643 24.2582 78.363 25.2155 78.328 26.2007Z" fill="#263238"/>
<path id="Vector_149" d="M83.878 22.0808L82.81 21.4628H82.8C82.326 21.1968 81.676 21.2348 80.956 21.6508C80.2364 22.096 79.6353 22.7087 79.204 23.4368L83.004 25.6368C83.4186 24.8992 83.6492 24.0725 83.676 23.2268C83.6752 23.0003 83.6477 22.7747 83.594 22.5548L83.878 22.0808Z" fill="#455A64"/>
<path id="Vector_150" d="M81.966 22.2285C80.518 23.0665 79.342 25.1005 79.342 26.7745C79.342 28.4485 80.518 29.1285 81.966 28.2905C83.414 27.4525 84.6 25.4185 84.6 23.7445C84.6 22.0705 83.416 21.4005 81.966 22.2285Z" fill="#37474F"/>
<path id="Vector_151" d="M81 24.8927C81 24.5127 81.2 24.0927 81.448 23.9447C81.696 23.7967 81.896 23.9947 81.896 24.3767C81.896 24.7587 81.696 25.1767 81.448 25.3247C81.2 25.4727 81 25.2747 81 24.8927Z" fill="white"/>
<path id="Vector_152" d="M82.248 26.8121L80.6 27.7641L80.688 26.6681C80.726 26.2021 80.972 25.7241 81.264 25.5561L81.582 25.3721C81.874 25.2041 82.12 25.3961 82.158 25.8201L82.248 26.8121Z" fill="white"/>
<path id="Vector_153" d="M82.088 23.7501C82.088 23.3701 82.288 22.9501 82.536 22.8021C82.784 22.6541 82.984 22.8521 82.984 23.2341C82.984 23.6161 82.784 24.0341 82.536 24.1821C82.288 24.3301 82.088 24.1321 82.088 23.7501Z" fill="white"/>
<path id="Vector_154" d="M83.332 25.6704L82.322 26.2544L82.276 25.7304C82.242 25.3624 82.076 25.1304 81.856 25.1304C81.9334 24.8437 82.1081 24.5927 82.35 24.4204L82.668 24.2384C82.96 24.0684 83.206 24.2604 83.244 24.6844L83.332 25.6704Z" fill="white"/>
</g>
<g id="freepik--magnifying-glass--inject-69">
<g id="freepik--magnifying-glass--inject-69_2">
<path id="Vector_155" d="M56.5 62.9637C56.5 61.7237 55.68 60.4837 54.04 59.5377C50.762 57.6437 45.44 57.6437 42.168 59.5377C40.528 60.4837 39.708 61.7237 39.708 62.9637V65.2497C39.708 66.4897 40.528 67.7297 42.168 68.6777C45.446 70.5697 50.768 70.5697 54.04 68.6777C55.68 67.7297 56.5 66.4897 56.5 65.2497V62.9637ZM42.574 60.2397C44.038 59.3937 46.002 58.9297 48.104 58.9297C50.206 58.9297 52.17 59.3937 53.634 60.2397C54.958 61.0037 55.688 61.9717 55.688 62.9637C55.688 63.9557 54.958 64.9237 53.634 65.6877C52.17 66.5337 50.2 66.9997 48.104 66.9997C46.008 66.9997 44.038 66.5337 42.574 65.6877C41.25 64.9237 40.52 63.9557 40.52 62.9637C40.52 61.9717 41.25 60.9997 42.574 60.2397Z" fill="#EC8305"/>
<path id="Vector_156" opacity="0.3" d="M42.166 66.3997C45.446 68.2917 50.766 68.2917 54.04 66.3997C57.314 64.5077 57.318 61.4377 54.04 59.5457C50.762 57.6537 45.44 57.6517 42.166 59.5457C38.892 61.4397 38.888 64.4997 42.166 66.3997ZM40.52 62.9717C40.52 61.9717 41.248 61.0117 42.572 60.2477C44.036 59.4017 46.002 58.9377 48.104 58.9377C50.206 58.9377 52.17 59.4017 53.634 60.2477C54.958 61.0117 55.686 61.9797 55.686 62.9717C55.686 63.9637 54.958 64.9317 53.634 65.6957C52.17 66.5337 50.2 66.9997 48.104 66.9997C46.008 66.9997 44.036 66.5337 42.572 65.6877C41.248 64.9237 40.52 63.9557 40.52 62.9637V62.9717Z" fill="white"/>
<path id="Vector_157" d="M40.52 62.9637C40.5249 63.3675 40.6382 63.7626 40.848 64.1077C41.18 63.5317 41.766 62.9897 42.574 62.5257C44.036 61.6797 46.002 61.2137 48.104 61.2137C50.206 61.2137 52.17 61.6797 53.634 62.5257C54.3365 62.8956 54.9316 63.4405 55.362 64.1077C55.5704 63.7621 55.683 63.3672 55.688 62.9637C55.688 61.9637 54.958 61.0037 53.634 60.2397C52.17 59.3957 50.206 58.9297 48.104 58.9297C46.002 58.9297 44.036 59.3957 42.574 60.2397C41.248 60.9997 40.52 61.9717 40.52 62.9637Z" fill="#EC8305"/>
<path id="Vector_158" opacity="0.1" d="M40.52 62.9637C40.5249 63.3675 40.6382 63.7626 40.848 64.1077C41.18 63.5317 41.766 62.9897 42.574 62.5257C44.036 61.6797 46.002 61.2137 48.104 61.2137C50.206 61.2137 52.17 61.6797 53.634 62.5257C54.3365 62.8956 54.9316 63.4405 55.362 64.1077C55.5704 63.7621 55.683 63.3672 55.688 62.9637C55.688 61.9637 54.958 61.0037 53.634 60.2397C52.17 59.3957 50.206 58.9297 48.104 58.9297C46.002 58.9297 44.036 59.3957 42.574 60.2397C41.248 60.9997 40.52 61.9717 40.52 62.9637Z" fill="#333333"/>
<path id="Vector_159" opacity="0.4" d="M42.572 61.2739C44.036 60.4299 46.002 59.9639 48.104 59.9639C50.206 59.9639 52.17 60.4299 53.634 61.2739C54.726 61.9059 55.412 62.6739 55.62 63.4739C55.42 64.2739 54.726 65.0499 53.634 65.6739C52.17 66.5339 50.2 66.9999 48.104 66.9999C46.008 66.9999 44.036 66.5339 42.572 65.6879C41.48 65.0579 40.794 64.2879 40.588 63.4879C40.8 62.6739 41.48 61.9059 42.572 61.2739Z" fill="white"/>
<path id="Vector_160" opacity="0.1" d="M46.126 67.6758V69.9598C44.7372 69.7877 43.3939 69.3526 42.168 68.6778C40.528 67.7298 39.708 66.4898 39.708 65.2498V62.9638C39.7086 62.7112 39.7423 62.4597 39.808 62.2158C39.408 63.6918 40.196 65.2538 42.166 66.3918C43.3924 67.0675 44.7364 67.5033 46.126 67.6758Z" fill="#333333"/>
<path id="Vector_161" d="M42.416 67.8453C42.4058 67.6413 42.3475 67.4426 42.2461 67.2654C42.1446 67.0881 42.0027 66.9373 41.832 66.8253C41.773 66.782 41.7037 66.7552 41.6309 66.7474C41.5582 66.7397 41.4847 66.7514 41.418 66.7813L38.6 68.3993C38.5395 68.4405 38.4914 68.4975 38.4611 68.5642C38.4308 68.6308 38.4193 68.7045 38.428 68.7773C38.4367 68.9805 38.493 69.1788 38.5924 69.3563C38.6917 69.5338 38.8313 69.6855 39 69.7993C39.0593 69.8427 39.1291 69.8696 39.2023 69.877C39.2754 69.8843 39.3492 69.872 39.416 69.8413L42.242 68.2293C42.3026 68.1866 42.3507 68.1284 42.3812 68.0609C42.4118 67.9934 42.4238 67.919 42.416 67.8453Z" fill="#37474F"/>
<path id="Vector_162" d="M42.242 68.2273C42.3023 68.1847 42.3501 68.127 42.3807 68.0598C42.4113 67.9927 42.4235 67.9187 42.416 67.8453C42.4135 67.6935 42.3802 67.5438 42.318 67.4053L38.672 69.4893C38.7595 69.6135 38.871 69.7189 39 69.7993C39.0593 69.8428 39.1291 69.8696 39.2023 69.877C39.2754 69.8844 39.3492 69.872 39.416 69.8413L42.242 68.2293V68.2273Z" fill="#263238"/>
<path id="Vector_163" d="M39.476 69.7992C39.463 69.5333 39.3874 69.2743 39.2553 69.0432C39.1233 68.812 38.9385 68.6154 38.716 68.4692C38.6401 68.414 38.5511 68.3796 38.4577 68.3694C38.3644 68.3592 38.27 68.3736 38.184 68.4112L28.81 73.4112L30.21 75.8832L39.258 70.2832C39.3334 70.2286 39.3932 70.1551 39.4314 70.0702C39.4696 69.9853 39.485 69.8919 39.476 69.7992Z" fill="#EC8305"/>
<path id="Vector_164" opacity="0.1" d="M30.2 75.8813L39.248 70.2813C39.3264 70.2267 39.3888 70.1521 39.4285 70.0652C39.4683 69.9783 39.484 69.8823 39.474 69.7873C39.4626 69.5027 39.3749 69.2264 39.22 68.9873L29.48 74.5993L30.2 75.8813Z" fill="#333333"/>
<path id="Vector_165" d="M29.494 75.7995C29.2019 75.6079 28.959 75.3502 28.7853 75.0471C28.6115 74.7441 28.5117 74.4043 28.494 74.0555C28.494 73.4155 28.946 73.1575 29.494 73.4795C29.7861 73.6705 30.0289 73.9279 30.2027 74.2307C30.3765 74.5334 30.4763 74.8729 30.494 75.2215C30.498 75.8715 30.048 76.1295 29.494 75.7995Z" fill="#EC8305"/>
<g id="Group" opacity="0.2">
<path id="Vector_166" d="M29.494 75.7995C29.2019 75.6079 28.959 75.3502 28.7853 75.0471C28.6115 74.7441 28.5117 74.4043 28.494 74.0555C28.494 73.4155 28.946 73.1575 29.494 73.4795C29.7861 73.6705 30.0289 73.9279 30.2027 74.2307C30.3765 74.5334 30.4763 74.8729 30.494 75.2215C30.498 75.8715 30.048 76.1295 29.494 75.7995Z" fill="#333333"/>
</g>
</g>
</g>
<g id="freepik--Character--inject-69">
<g id="freepik--character--inject-69">
<path id="Vector_167" d="M84.746 53.7118C84.848 49.9118 84.546 48.9978 83.532 48.2998L83.132 50.4998C83.132 50.4998 83.594 53.0998 83.544 53.9618C83.502 54.7218 83.428 55.6738 83.248 56.2878C83.215 56.3958 83.144 56.4882 83.048 56.5478C82.8384 56.6971 82.6511 56.8756 82.492 57.0778C82.34 57.2378 82.21 57.2778 82.23 57.3278C82.2592 57.3836 82.3083 57.4264 82.3677 57.4475C82.427 57.4686 82.4921 57.4666 82.55 57.4418C82.6797 57.3903 82.8026 57.3232 82.916 57.2418C82.8264 57.475 82.7001 57.6924 82.542 57.8858C82.18 58.3278 82.164 58.5998 82.894 58.6078C83.352 58.6078 83.718 58.3298 84.062 57.3218C84.195 56.9522 84.3026 56.574 84.384 56.1898C84.5552 55.372 84.6761 54.5444 84.746 53.7118Z" fill="#FFA8A7"/>
<path id="Vector_168" d="M82.68 48.011C82.9911 47.9554 83.3118 48.0024 83.5939 48.1449C83.876 48.2874 84.1041 48.5176 84.244 48.801C84.668 49.559 84.772 50.865 84.82 52.163C84.82 52.163 83.978 52.869 82.966 52.523L82.68 48.011Z" fill="#EC8305"/>
<path id="Vector_169" d="M84.102 68.9313C84.178 68.9613 84.198 69.1073 84.21 69.3973C84.21 69.6173 84.264 69.9973 84.01 70.0793C83.756 70.1613 83.374 70.1153 83.21 69.9093C83.01 69.6493 82.864 69.4233 82.57 69.1093C82.314 68.8353 82.038 68.5793 81.936 68.1953C81.842 67.8473 81.92 67.6973 82.156 67.5953C82.482 67.4573 82.994 67.9113 83.25 67.9813C83.466 68.0413 84.024 68.9033 84.102 68.9313Z" fill="#263238"/>
<path id="Vector_170" d="M84.102 68.6632V69.0192C83.9681 69.1051 83.8133 69.1527 83.6543 69.1569C83.4954 69.1612 83.3382 69.1218 83.2 69.0432C83.184 69.0092 83.106 68.5332 83.106 68.5332L84.102 68.6632Z" fill="#FFA8A7"/>
<path id="Vector_171" d="M81.21 71C81.2731 71.191 81.3259 71.3853 81.368 71.582C81.412 71.798 81.476 72.158 81.4 72.32C81.324 72.482 81.03 72.588 80.572 72.584C80.192 72.6305 79.8264 72.758 79.5 72.958C79.0743 73.1387 78.6107 73.2122 78.15 73.172C77.75 73.126 77.322 72.89 77.256 72.722C77.19 72.554 77.278 72.378 78.236 71.97C78.236 71.97 79.568 71.536 80.036 71.024L81.21 71Z" fill="#263238"/>
<path id="Vector_172" d="M81.21 70.5996V71.0156C81.21 71.1676 81.034 71.3936 80.57 71.3756C80.246 71.3636 80.018 71.2776 80.032 71.0096V70.6236L81.21 70.5996Z" fill="#FFA8A7"/>
<path id="Vector_173" d="M84.334 63.9277C84.2547 63.2954 84.1134 62.6724 83.912 62.0677C83.912 62.0677 84.04 60.4677 84.1 58.9437C84.166 57.3017 84.1 55.2357 84.128 54.8257C84.128 54.8257 78.828 53.7537 78.728 55.6537C78.628 57.5537 78.928 62.3857 79 63.2197C79.072 64.0537 79.2 64.7897 79.378 66.1417C79.556 67.4937 80.026 70.6277 80.026 70.6277C80.2091 70.7211 80.4125 70.7677 80.618 70.7635C80.8235 70.7593 81.0248 70.7044 81.204 70.6037C81.204 70.6037 81.578 66.8037 81.538 65.8457C81.508 65.1323 81.3856 64.4257 81.174 63.7437C81.174 63.7437 81.274 62.1777 81.362 60.8157C81.45 59.4537 81.546 58.7997 81.562 58.2157L81.676 58.1597C81.676 58.1597 81.792 60.5097 81.856 61.3437C81.92 62.1777 82.056 62.9777 82.292 64.5257C82.502 65.8697 83.124 68.7137 83.124 68.7137C83.724 69.0417 84.092 68.6717 84.092 68.6717C84.092 68.6717 84.496 65.0937 84.334 63.9277Z" fill="#37474F"/>
<path id="Vector_174" d="M81.572 58.2C81.572 58.2 82.858 57.566 83.502 57C83.502 57 82.902 57.842 82.12 58.214C82.12 58.214 81.84 61.134 81.842 61.076L81.68 58.2H81.572Z" fill="#263238"/>
<path id="Vector_175" d="M80.428 47.4094L80.742 49.1354L82.3 49.0214L81.974 47.0654L80.428 47.4094Z" fill="#FFA8A7"/>
<path id="Vector_176" d="M83.948 48.8959C83.792 48.4259 83.198 47.9159 82.602 48.0259C81.7195 48.1772 80.8496 48.3952 80 48.6779C79.454 48.8779 78.958 49.3439 78.912 51.1379C78.912 51.1379 78.73 55.3219 78.726 56.1379C79.8644 56.5845 81.1042 56.7071 82.308 56.4919C83.948 56.1339 84.146 55.4539 84.146 55.4539C84.146 55.4539 84.166 52.4539 84.118 51.1459C84.068 50.0359 84.054 49.2179 83.948 48.8959Z" fill="#F5F5F5"/>
<path id="Vector_177" d="M79.224 45.3096C79.224 45.3096 78.824 45.9396 78.878 45.9996C78.932 46.0596 79.228 46.1076 79.228 46.1076L79.224 45.3096Z" fill="#FFA8A7"/>
<path id="Vector_178" d="M80.322 43.5654C79.498 43.7654 79.268 44.1294 79.218 45.4454C79.168 46.8234 79.318 47.2454 79.504 47.4334C79.628 47.5554 80.304 47.5634 80.646 47.4614C81.072 47.3334 82.03 46.9694 82.468 46.2614C82.982 45.4354 83.098 44.3294 82.516 43.8894C81.7 43.2774 80.658 43.4874 80.322 43.5654Z" fill="#FFA8A7"/>
<path id="Vector_179" d="M79.228 43.9095C79.4174 44.1854 79.6848 44.3985 79.996 44.5215C80.154 44.7015 80.066 45.4035 80.344 45.5215C80.344 45.5215 80.464 45.0095 80.894 45.0635C81.324 45.1175 81.396 45.6635 81.132 46.0075C80.868 46.3515 80.612 46.2255 80.612 46.2255C80.612 46.2255 80.642 46.9515 80.974 47.3555C81.3189 47.4226 81.6748 47.4062 82.012 47.3075C82.424 47.2095 82.998 46.6775 83.232 46.1235C83.728 44.9535 83.74 43.9095 82.992 43.6135C82.9 43.0795 82.474 42.8495 81.992 42.7515C80.954 42.5375 80.286 43.1855 79.488 43.1275C79.03 43.0895 78.944 43.4235 79.228 43.9095Z" fill="#263238"/>
<path id="Vector_180" d="M83.01 43.7859L83.498 43.4819C83.4793 43.4473 83.4537 43.417 83.4228 43.3927C83.3919 43.3684 83.3564 43.3507 83.3184 43.3406C83.2804 43.3306 83.2408 43.3284 83.2019 43.3343C83.1631 43.3401 83.1258 43.3538 83.0925 43.3746C83.0591 43.3954 83.0304 43.4228 83.008 43.4551C82.9857 43.4873 82.9701 43.5239 82.9624 43.5624C82.9547 43.6009 82.9549 43.6406 82.9631 43.679C82.9713 43.7175 82.9872 43.7538 83.01 43.7859Z" fill="#263238"/>
<path id="Vector_181" d="M73.4 51.7859C73.656 51.8999 76.676 54.1319 77.148 53.8719C77.62 53.6119 80.034 50.7879 80.034 50.7879C80.2381 50.4724 80.3466 50.1047 80.3466 49.7289C80.3466 49.3532 80.2381 48.9854 80.034 48.6699C79.5621 48.7719 79.1429 49.0411 78.854 49.4279C78.454 50.0399 76.698 52.2279 76.698 52.2279C76.266 52.0119 75.834 51.7919 75.406 51.5699C75.052 51.3859 74.696 51.2039 74.35 51.0059C74.2524 50.962 74.161 50.9055 74.078 50.8379C73.906 50.6699 73.936 50.2599 73.94 50.0379C73.9386 49.9344 73.9433 49.8309 73.954 49.7279C73.97 49.5999 73.994 49.2899 73.764 49.3879C73.7211 49.4094 73.6841 49.441 73.656 49.4799C73.6198 49.5267 73.592 49.5795 73.574 49.6359C73.53 49.7699 73.544 49.9179 73.506 50.0519C73.5013 50.0724 73.4909 50.0911 73.476 50.1059C73.4662 50.1145 73.4548 50.1208 73.4424 50.1246C73.4299 50.1284 73.4169 50.1295 73.404 50.1279C73.072 50.1179 72.756 49.6519 72.604 49.4039C72.5487 49.2862 72.4613 49.1864 72.352 49.1159C72.2557 49.0869 72.1525 49.0908 72.0587 49.127C71.9648 49.1632 71.8858 49.2297 71.834 49.3159C71.6902 49.5318 71.6311 49.7932 71.668 50.0499C71.6977 50.3987 71.8517 50.7252 72.102 50.9699C72.4843 51.3148 72.9235 51.5908 73.4 51.7859Z" fill="#FFA8A7"/>
<path id="Vector_182" d="M80.304 48.5791C79.972 48.6171 79.504 48.5551 78.852 49.2571C78.3256 49.858 77.8348 50.489 77.382 51.1471C77.4681 51.4925 77.6517 51.8059 77.9109 52.0498C78.1701 52.2938 78.494 52.4581 78.844 52.5231C78.844 52.5231 79.986 51.3511 80.304 50.7071C80.622 50.0631 80.698 49.0151 80.304 48.5791Z" fill="#EC8305"/>
</g>
</g>
</g>
</svg>
