<svg width="25" height="24" viewBox="0 0 25 24" fill="none" xmlns="http://www.w3.org/2000/svg">
<g clip-path="url(#clip0_1169_4330)">
<path d="M10.82 4.37825C11.345 4.1292 11.9189 4 12.5 4C13.0811 4 13.655 4.1292 14.18 4.37825L23.928 8.99625C24.0978 9.07662 24.2415 9.2032 24.3427 9.36149C24.4439 9.51978 24.4985 9.70337 24.5002 9.89123C24.5018 10.0791 24.4505 10.2636 24.3522 10.4237C24.2538 10.5838 24.1124 10.7129 23.944 10.7962L14.244 15.6082C13.7021 15.8775 13.1051 16.0176 12.5 16.0176C11.8949 16.0176 11.2979 15.8775 10.756 15.6082L2.5 11.5122V16.0002C2.5 16.2655 2.39464 16.5198 2.2071 16.7074C2.01957 16.8949 1.76521 17.0002 1.5 17.0002C1.23478 17.0002 0.980427 16.8949 0.79289 16.7074C0.605354 16.5198 0.499997 16.2655 0.499997 16.0002V9.95025C0.490167 9.75247 0.539281 9.55622 0.641113 9.38638C0.742945 9.21654 0.892909 9.08076 1.072 8.99625L10.82 4.37825ZM4.5 14.7382V18.0002C4.50002 18.1318 4.52601 18.262 4.57646 18.3835C4.62691 18.505 4.70083 18.6154 4.794 18.7082L4.798 18.7142L4.844 18.7562L4.964 18.8682C5.064 18.9616 5.20866 19.0862 5.398 19.2422C5.772 19.5482 6.312 19.9522 6.986 20.3582C8.326 21.1602 10.254 22.0002 12.5 22.0002C14.746 22.0002 16.676 21.1602 18.014 20.3582C18.7339 19.9261 19.4115 19.4272 20.038 18.8682L20.158 18.7562L20.19 18.7242L20.202 18.7122L20.204 18.7102L20.208 18.7082C20.3008 18.6152 20.3744 18.5048 20.4245 18.3833C20.4746 18.2618 20.5002 18.1317 20.5 18.0002V14.7362L15.132 17.4002C14.314 17.8063 13.4132 18.0175 12.5 18.0175C11.5868 18.0175 10.686 17.8063 9.868 17.4002L4.5 14.7382Z" fill="#929292"/>
</g>
<defs>
<clipPath id="clip0_1169_4330">
<rect width="24" height="24" fill="white" transform="translate(0.5)"/>
</clipPath>
</defs>
</svg>
