<svg width="25" height="24" viewBox="0 0 25 24" fill="none" xmlns="http://www.w3.org/2000/svg">
<path d="M10.5 2H3.5C2.9 2 2.5 2.4 2.5 3V10C2.5 10.6 2.9 11 3.5 11H10.5C11.1 11 11.5 10.6 11.5 10V3C11.5 2.4 11.1 2 10.5 2ZM10.5 13H3.5C2.9 13 2.5 13.4 2.5 14V21C2.5 21.6 2.9 22 3.5 22H10.5C11.1 22 11.5 21.6 11.5 21V14C11.5 13.4 11.1 13 10.5 13ZM21.5 2H14.5C13.9 2 13.5 2.4 13.5 3V10C13.5 10.6 13.9 11 14.5 11H21.5C22.1 11 22.5 10.6 22.5 10V3C22.5 2.4 22.1 2 21.5 2ZM21.5 13H14.5C13.9 13 13.5 13.4 13.5 14V21C13.5 21.6 13.9 22 14.5 22H21.5C22.1 22 22.5 21.6 22.5 21V14C22.5 13.4 22.1 13 21.5 13Z" fill="#024CAA"/>
</svg>
