<svg width="25" height="24" viewBox="0 0 25 24" fill="none" xmlns="http://www.w3.org/2000/svg">
<path fill-rule="evenodd" clip-rule="evenodd" d="M7.75 5.4611V6.8811L6.056 7.0191C5.47403 7.06594 4.92457 7.30655 4.49547 7.70248C4.06637 8.0984 3.78241 8.62677 3.689 9.2031C3.64767 9.4611 3.60967 9.71943 3.575 9.9781C3.56722 10.0407 3.57936 10.1041 3.6097 10.1594C3.64004 10.2147 3.68703 10.259 3.744 10.2861L3.821 10.3221C9.25 12.8921 15.751 12.8921 21.179 10.3221L21.256 10.2861C21.3128 10.2589 21.3596 10.2145 21.3897 10.1592C21.4199 10.1039 21.4319 10.0406 21.424 9.9781C21.3901 9.71923 21.3524 9.46087 21.311 9.2031C21.2176 8.62677 20.9336 8.0984 20.5045 7.70248C20.0754 7.30655 19.526 7.06594 18.944 7.0191L17.25 6.8821V5.4621C17.2501 5.04295 17.0998 4.63769 16.8263 4.32002C16.5529 4.00235 16.1745 3.79337 15.76 3.7311L14.54 3.5481C13.1875 3.34595 11.8125 3.34595 10.46 3.5481L9.24 3.7311C8.82567 3.79335 8.44743 4.00218 8.17401 4.31964C7.90059 4.6371 7.75014 5.04212 7.75 5.4611ZM14.317 5.0311C13.1123 4.85117 11.8877 4.85117 10.683 5.0311L9.463 5.2141C9.40381 5.22296 9.34976 5.25276 9.31067 5.29808C9.27159 5.34341 9.25006 5.40125 9.25 5.4611V6.7761C11.4149 6.65246 13.5851 6.65246 15.75 6.7761V5.4611C15.7499 5.40125 15.7284 5.34341 15.6893 5.29808C15.6502 5.25276 15.5962 5.22296 15.537 5.2141L14.317 5.0311Z" fill="#929292"/>
<path d="M21.618 12.0696C21.616 12.0373 21.6062 12.0059 21.5894 11.9782C21.5726 11.9505 21.5494 11.9273 21.5216 11.9106C21.4939 11.8938 21.4625 11.8841 21.4302 11.8822C21.3978 11.8803 21.3655 11.8862 21.336 11.8996C15.765 14.3666 9.235 14.3666 3.664 11.8996C3.63448 11.8862 3.60217 11.8803 3.56983 11.8822C3.5375 11.8841 3.50611 11.8938 3.47837 11.9106C3.45063 11.9273 3.42736 11.9505 3.41058 11.9782C3.39379 12.0059 3.38398 12.0373 3.382 12.0696C3.28072 13.9841 3.38363 15.9039 3.689 17.7966C3.78221 18.3731 4.06608 18.9017 4.4952 19.2978C4.92431 19.6939 5.47389 19.9347 6.056 19.9816L7.928 20.1316C10.971 20.3776 14.028 20.3776 17.072 20.1316L18.944 19.9816C19.5261 19.9347 20.0757 19.6939 20.5048 19.2978C20.9339 18.9017 21.2178 18.3731 21.311 17.7966C21.617 15.9016 21.721 13.9816 21.618 12.0706" fill="#929292"/>
</svg>
