<svg width="20" height="21" viewBox="0 0 20 21" fill="none" xmlns="http://www.w3.org/2000/svg">
<path d="M11.0574 3.55731C11.3074 3.30735 11.6465 3.16693 12 3.16693C12.3536 3.16693 12.6926 3.30735 12.9427 3.55731L18.9427 9.55731C19.1926 9.80735 19.3331 10.1464 19.3331 10.5C19.3331 10.8535 19.1926 11.1926 18.9427 11.4426L12.9427 17.4426C12.6912 17.6855 12.3544 17.8199 12.0048 17.8169C11.6552 17.8138 11.3208 17.6736 11.0736 17.4264C10.8264 17.1792 10.6862 16.8448 10.6831 16.4952C10.6801 16.1456 10.8145 15.8088 11.0574 15.5573L14.6667 11.8333H2.00002C1.6464 11.8333 1.30726 11.6928 1.05721 11.4428C0.807163 11.1927 0.666687 10.8536 0.666687 10.5C0.666687 10.1464 0.807163 9.80722 1.05721 9.55717C1.30726 9.30712 1.6464 9.16665 2.00002 9.16665H14.6667L11.0574 5.44265C10.8074 5.19261 10.667 4.85353 10.667 4.49998C10.667 4.14643 10.8074 3.80735 11.0574 3.55731Z" fill="white"/>
</svg>
