<svg width="20" height="21" viewBox="0 0 20 21" fill="none" xmlns="http://www.w3.org/2000/svg">
<path d="M8.94268 3.55737C8.69264 3.30741 8.35356 3.16699 8.00001 3.16699C7.64646 3.16699 7.30738 3.30741 7.05734 3.55737L1.05734 9.55737C0.807383 9.80741 0.666962 10.1465 0.666962 10.5C0.666962 10.8536 0.807383 11.1927 1.05734 11.4427L7.05734 17.4427C7.30881 17.6856 7.64562 17.82 7.99521 17.8169C8.34481 17.8139 8.67922 17.6737 8.92643 17.4265C9.17365 17.1793 9.31387 16.8448 9.31691 16.4952C9.31995 16.1456 9.18555 15.8088 8.94268 15.5574L5.33334 11.8334H18C18.3536 11.8334 18.6928 11.6929 18.9428 11.4429C19.1929 11.1928 19.3333 10.8537 19.3333 10.5C19.3333 10.1464 19.1929 9.80728 18.9428 9.55723C18.6928 9.30718 18.3536 9.16671 18 9.16671H5.33334L8.94268 5.44271C9.19264 5.19267 9.33306 4.85359 9.33306 4.50004C9.33306 4.14649 9.19264 3.80741 8.94268 3.55737Z" fill="white"/>
</svg>
