<svg width="41" height="40" viewBox="0 0 41 40" fill="none" xmlns="http://www.w3.org/2000/svg">
<path fill-rule="evenodd" clip-rule="evenodd" d="M10.9517 3.51992C9.60167 3.69659 8.88833 4.02159 8.37833 4.51992C7.87 5.01992 7.53833 5.71992 7.35667 7.04159C7.17 8.40325 7.16667 10.2066 7.16667 12.7916V27.0749C7.82663 26.6243 8.55888 26.29 9.33167 26.0866C10.2117 25.8549 11.2383 25.8549 12.7433 25.8566H33.8333V12.7933C33.8333 10.2066 33.83 8.40325 33.6433 7.04159C33.4617 5.71992 33.13 5.01992 32.6217 4.51992C32.1117 4.02159 31.3983 3.69659 30.0483 3.51992C28.6583 3.33659 26.8183 3.33325 24.1783 3.33325H16.8217C14.1817 3.33325 12.3417 3.33659 10.9517 3.51992ZM11.765 10.9916C11.765 10.2449 12.3817 9.63992 13.1433 9.63992H27.8567C28.2183 9.63681 28.5664 9.77714 28.8247 10.0302C29.0831 10.2832 29.2306 10.6283 29.235 10.9899C29.231 11.3518 29.0837 11.6973 28.8253 11.9507C28.5669 12.2041 28.2186 12.3447 27.8567 12.3416H13.1433C12.7817 12.3447 12.4336 12.2044 12.1753 11.9513C11.9169 11.6983 11.7694 11.3532 11.765 10.9916ZM13.1433 15.9466C12.7817 15.9435 12.4336 16.0838 12.1753 16.3368C11.9169 16.5899 11.7694 16.935 11.765 17.2966C11.765 18.0433 12.3817 18.6483 13.1433 18.6483H22.3383C22.7002 18.6518 23.0488 18.5117 23.3075 18.2586C23.5662 18.0055 23.7139 17.6601 23.7183 17.2983C23.7144 16.9361 23.5668 16.5903 23.3081 16.3368C23.0493 16.0834 22.7005 15.943 22.3383 15.9466H13.1433Z" fill="#EC8305"/>
<path d="M12.955 28.5583H33.8333C33.8283 30.4417 33.7983 31.8483 33.645 32.9583C33.4633 34.28 33.1317 34.98 32.6233 35.48C32.1133 35.9783 31.4 36.3033 30.05 36.48C28.66 36.6634 26.82 36.6667 24.18 36.6667H16.8217C14.1817 36.6667 12.3417 36.6633 10.9517 36.4817C9.60167 36.3033 8.88833 35.9783 8.37833 35.48C7.87 34.98 7.53833 34.28 7.35667 32.9583C7.28833 32.4583 7.24333 31.8967 7.21667 31.2583C7.44511 30.6341 7.82193 30.0747 8.31465 29.6284C8.80737 29.1821 9.40121 28.8624 10.045 28.6967C10.5283 28.57 11.1567 28.5583 12.955 28.5583Z" fill="#EC8305"/>
</svg>
