<svg width="41" height="40" viewBox="0 0 41 40" fill="none" xmlns="http://www.w3.org/2000/svg">
<path fill-rule="evenodd" clip-rule="evenodd" d="M6.75 21.0684V26.52C6.74999 27.3869 6.99584 28.236 7.459 28.9688C7.92216 29.7016 8.58364 30.2881 9.36667 30.66L17.7 34.6167C18.3145 34.9086 18.9863 35.0601 19.6667 35.0601C20.347 35.0601 21.0188 34.9086 21.6333 34.6167L29.9667 30.66C30.7497 30.2881 31.4112 29.7016 31.8743 28.9688C32.3375 28.236 32.5833 27.3869 32.5833 26.52V21.07L21.7917 26.465C21.1319 26.795 20.4044 26.9669 19.6667 26.9669C18.929 26.9669 18.2014 26.795 17.5417 26.465L6.75 21.0684Z" fill="#EC8305"/>
<path fill-rule="evenodd" clip-rule="evenodd" d="M18.66 5.77339C19.2933 5.45672 20.04 5.45672 20.6733 5.77339L35.1033 12.9884C36.7617 13.8167 36.7617 16.1834 35.1033 17.0134L20.6733 24.2301C20.04 24.5467 19.2933 24.5467 18.66 24.2301L4.23 17.0134C2.57167 16.1834 2.57167 13.8167 4.23 12.9884L18.66 5.77339Z" fill="#EC8305"/>
<path fill-rule="evenodd" clip-rule="evenodd" d="M33.55 13.6084C33.6981 13.3118 33.9579 13.0862 34.2724 12.9811C34.5868 12.8761 34.9301 12.9003 35.2267 13.0484L38.56 14.715C38.7675 14.819 38.9419 14.9787 39.0638 15.1762C39.1857 15.3737 39.2501 15.6013 39.25 15.8334V21.6667C39.25 21.9982 39.1183 22.3162 38.8839 22.5506C38.6495 22.785 38.3315 22.9167 38 22.9167C37.6685 22.9167 37.3505 22.785 37.1161 22.5506C36.8817 22.3162 36.75 21.9982 36.75 21.6667V16.6067L34.1083 15.285C33.8117 15.1369 33.5861 14.8771 33.4811 14.5627C33.3761 14.2482 33.4019 13.905 33.55 13.6084Z" fill="#EC8305"/>
</svg>
