<svg width="41" height="40" viewBox="0 0 41 40" fill="none" xmlns="http://www.w3.org/2000/svg">
<path fill-rule="evenodd" clip-rule="evenodd" d="M12.5833 9.10167V11.4683L9.76001 11.6983C8.79006 11.7764 7.87429 12.1774 7.15912 12.8373C6.44396 13.4972 5.97069 14.3778 5.81501 15.3383C5.74612 15.7683 5.68278 16.1989 5.62501 16.63C5.61204 16.7343 5.63227 16.8401 5.68284 16.9322C5.7334 17.0244 5.81172 17.0982 5.90667 17.1433L6.03501 17.2033C15.0833 21.4867 25.9183 21.4867 34.965 17.2033L35.0933 17.1433C35.188 17.098 35.2659 17.024 35.3162 16.9319C35.3665 16.8397 35.3864 16.7341 35.3733 16.63C35.3168 16.1986 35.254 15.768 35.185 15.3383C35.0293 14.3778 34.5561 13.4972 33.8409 12.8373C33.1257 12.1774 32.21 11.7764 31.24 11.6983L28.4167 11.47V9.10334C28.4168 8.40476 28.1663 7.72932 27.7105 7.19987C27.2548 6.67042 26.6242 6.32213 25.9333 6.21834L23.9 5.91334C21.6459 5.57641 19.3542 5.57641 17.1 5.91334L15.0667 6.21834C14.3761 6.32208 13.7457 6.67013 13.29 7.19924C12.8343 7.72834 12.5836 8.40338 12.5833 9.10167ZM23.5283 8.385C21.5206 8.08512 19.4794 8.08512 17.4717 8.385L15.4383 8.69C15.3397 8.70477 15.2496 8.75443 15.1845 8.82997C15.1193 8.90551 15.0834 9.00192 15.0833 9.10167V11.2933C18.6915 11.0873 22.3085 11.0873 25.9167 11.2933V9.10167C25.9166 9.00192 25.8807 8.90551 25.8155 8.82997C25.7504 8.75443 25.6603 8.70477 25.5617 8.69L23.5283 8.385Z" fill="#EC8305"/>
<path d="M35.6967 20.1166C35.6934 20.0627 35.677 20.0105 35.649 19.9643C35.6211 19.9181 35.5823 19.8794 35.5361 19.8516C35.4898 19.8237 35.4375 19.8075 35.3836 19.8043C35.3297 19.8011 35.2759 19.8111 35.2267 19.8333C25.9417 23.945 15.0583 23.945 5.77333 19.8333C5.72414 19.8111 5.67028 19.8011 5.61639 19.8043C5.5625 19.8075 5.51018 19.8237 5.46395 19.8516C5.41771 19.8794 5.37894 19.9181 5.35096 19.9643C5.32299 20.0105 5.30664 20.0627 5.30333 20.1166C5.13453 23.3074 5.30605 26.5072 5.815 29.6616C5.97035 30.6225 6.44347 31.5035 7.15866 32.1637C7.87386 32.8239 8.78981 33.2252 9.76 33.3033L12.88 33.5533C17.9517 33.9633 23.0467 33.9633 28.12 33.5533L31.24 33.3033C32.2102 33.2252 33.1261 32.8239 33.8413 32.1637C34.5565 31.5035 35.0297 30.6225 35.185 29.6616C35.695 26.5033 35.8683 23.3033 35.6967 20.1183" fill="#EC8305"/>
</svg>
