<svg width="41" height="40" viewBox="0 0 41 40" fill="none" xmlns="http://www.w3.org/2000/svg">
<g clip-path="url(#clip0_674_7888)">
<path d="M15.8846 0C7.49538 0 0.5 5.76923 0.5 13.0769C0.5 16.8154 2.54615 20.0738 5.45231 22.4523C5.26315 23.7157 4.7495 24.9084 3.96154 25.9138C3.63983 26.3265 3.3032 26.7273 2.95231 27.1154C2.77082 27.3065 2.60945 27.5158 2.47077 27.74C2.38308 27.8831 2.24615 28.0431 2.18308 28.3662C2.12 28.6892 2.20615 29.2169 2.47077 29.6154L2.66308 29.9523L3.04769 30.1446C4.39385 30.8169 5.84769 30.6985 7.18308 30.3369C8.51692 29.9738 9.8 29.3523 11.0292 28.7015C12.2585 28.0508 13.4246 27.3723 14.3462 26.8754C14.4754 26.8062 14.5585 26.7892 14.6831 26.7308C17.1092 30.0662 21.5523 32.3077 26.5092 32.3077C26.5569 32.3138 26.6015 32.3077 26.6538 32.3077C28.6538 32.3077 35.1154 38.9138 38.9615 36.2985C39.1154 35.6846 35.58 34.1446 35.4031 29.5677C38.4138 27.44 40.3569 24.2754 40.3569 20.7692C40.3569 15.5815 36.24 11.2954 30.7415 9.76C29.0015 4.09846 22.9523 0 15.8846 0ZM15.8846 3.07692C22.88 3.07692 28.1923 7.76923 28.1923 13.0769C28.1923 18.3846 22.88 23.0769 15.8846 23.0769C14.6354 23.0769 13.9185 23.5877 12.9031 24.1354C11.8877 24.6831 10.7231 25.36 9.58615 25.9615C8.60154 26.4815 7.66308 26.8815 6.79846 27.1631C7.64 25.9477 8.51846 24.3492 8.67231 22.1154L8.72154 21.2492L8 20.7215C5.25846 18.8 3.57692 16.0354 3.57692 13.0769C3.57692 7.76923 8.88923 3.07692 15.8846 3.07692Z" fill="#EC8305"/>
</g>
<defs>
<clipPath id="clip0_674_7888">
<rect width="40" height="40" fill="white" transform="translate(0.5)"/>
</clipPath>
</defs>
</svg>
