<svg width="24" height="24" viewBox="0 0 24 24" fill="none" xmlns="http://www.w3.org/2000/svg">
<path fill-rule="evenodd" clip-rule="evenodd" d="M8.002 4.55308C10.6984 4.34998 13.4067 4.36336 16.101 4.59308L17.725 4.73108C18.3208 4.78203 18.8821 5.03178 19.3189 5.44022C19.7556 5.84865 20.0423 6.39204 20.133 6.98308L20.235 7.65208C20.582 9.91999 20.5496 12.2298 20.139 14.4871C20.0412 15.027 19.7568 15.5154 19.3355 15.8669C18.9142 16.2184 18.3827 16.4107 17.834 16.4101H8.858C8.651 16.4101 8.448 16.4611 8.266 16.5591L4.355 18.6611C4.24071 18.7225 4.11245 18.7532 3.98275 18.7502C3.85304 18.7472 3.72633 18.7106 3.61499 18.644C3.50364 18.5774 3.41149 18.4831 3.34751 18.3702C3.28354 18.2574 3.24994 18.1298 3.25 18.0001V9.48308C3.25026 8.23996 3.72013 7.04282 4.56552 6.13142C5.41091 5.22001 6.56941 4.66162 7.809 4.56808L8.002 4.55308ZM8 9.50008C7.66848 9.50008 7.35054 9.63177 7.11612 9.86619C6.8817 10.1006 6.75 10.4186 6.75 10.7501C6.75 11.0816 6.8817 11.3995 7.11612 11.634C7.35054 11.8684 7.66848 12.0001 8 12.0001C8.33152 12.0001 8.64946 11.8684 8.88388 11.634C9.1183 11.3995 9.25 11.0816 9.25 10.7501C9.25 10.4186 9.1183 10.1006 8.88388 9.86619C8.64946 9.63177 8.33152 9.50008 8 9.50008ZM12 9.50008C11.6685 9.50008 11.3505 9.63177 11.1161 9.86619C10.8817 10.1006 10.75 10.4186 10.75 10.7501C10.75 11.0816 10.8817 11.3995 11.1161 11.634C11.3505 11.8684 11.6685 12.0001 12 12.0001C12.3315 12.0001 12.6495 11.8684 12.8839 11.634C13.1183 11.3995 13.25 11.0816 13.25 10.7501C13.25 10.4186 13.1183 10.1006 12.8839 9.86619C12.6495 9.63177 12.3315 9.50008 12 9.50008ZM14.75 10.7501C14.75 10.4186 14.8817 10.1006 15.1161 9.86619C15.3505 9.63177 15.6685 9.50008 16 9.50008C16.3315 9.50008 16.6495 9.63177 16.8839 9.86619C17.1183 10.1006 17.25 10.4186 17.25 10.7501C17.25 11.0816 17.1183 11.3995 16.8839 11.634C16.6495 11.8684 16.3315 12.0001 16 12.0001C15.6685 12.0001 15.3505 11.8684 15.1161 11.634C14.8817 11.3995 14.75 11.0816 14.75 10.7501Z" fill="white"/>
</svg>
