<svg width="30" height="30" viewBox="0 0 30 30" fill="none" xmlns="http://www.w3.org/2000/svg">
<g id="mage:robot-fill">
<path id="Vector" d="M27.5975 10.4334C27.4251 10.2564 27.2172 10.118 26.9875 10.0271V5.80836C26.9875 5.57066 26.8931 5.34269 26.725 5.17462C26.5569 5.00654 26.329 4.91211 26.0913 4.91211C25.8546 4.91534 25.6285 5.01081 25.4611 5.17819C25.2937 5.34557 25.1982 5.57167 25.195 5.80836V9.81211H24.9325C24.5124 8.39743 23.6467 7.15625 22.4642 6.27334C21.2817 5.39042 19.8457 4.91299 18.37 4.91211H11.7838C10.308 4.91299 8.87203 5.39042 7.68955 6.27334C6.50708 7.15625 5.64135 8.39743 5.22125 9.81211H4.875V5.80836C4.875 5.57066 4.78058 5.34269 4.6125 5.17462C4.44442 5.00654 4.21645 4.91211 3.97875 4.91211C3.74105 4.91211 3.51309 5.00654 3.34501 5.17462C3.17693 5.34269 3.0825 5.57066 3.0825 5.80836V10.0396C2.86391 10.1325 2.66496 10.2662 2.49625 10.4334C2.09957 10.8345 1.87645 11.3755 1.875 11.9396V18.0596C1.87467 18.3391 1.92948 18.6159 2.03628 18.8742C2.14308 19.1324 2.29978 19.3671 2.4974 19.5647C2.69502 19.7623 2.92968 19.919 3.18795 20.0258C3.44622 20.1326 3.72302 20.1874 4.0025 20.1871H5.1975C5.6176 21.6018 6.48333 22.843 7.6658 23.7259C8.84828 24.6088 10.2843 25.0862 11.76 25.0871H18.2388C19.7145 25.0862 21.1505 24.6088 22.333 23.7259C23.5154 22.843 24.3812 21.6018 24.8013 20.1871H25.995C26.2745 20.1874 26.5513 20.1326 26.8095 20.0258C27.0678 19.919 27.3025 19.7623 27.5001 19.5647C27.6977 19.3671 27.8544 19.1324 27.9612 18.8742C28.068 18.6159 28.1228 18.3391 28.1225 18.0596V11.9396C28.1475 11.3896 27.9588 10.8496 27.5975 10.4334ZM4.995 18.3946H4.05C3.96083 18.3953 3.87499 18.3607 3.81125 18.2984C3.75246 18.2324 3.71881 18.1479 3.71625 18.0596V11.9396C3.71353 11.8542 3.74454 11.7712 3.80255 11.7085C3.86056 11.6458 3.94092 11.6085 4.02625 11.6046H4.995C4.98956 11.6566 4.98956 11.7089 4.995 11.7609V18.2384C4.98956 18.2903 4.98956 18.3427 4.995 18.3946ZM10.3738 14.3546V11.1271C10.3579 10.985 10.3722 10.8412 10.4158 10.7051C10.4593 10.5689 10.5311 10.4435 10.6264 10.3369C10.7217 10.2304 10.8385 10.1452 10.969 10.0868C11.0995 10.0285 11.2408 9.99832 11.3838 9.99833C11.5267 9.99832 11.668 10.0285 11.7985 10.0868C11.929 10.1452 12.0458 10.2304 12.1411 10.3369C12.2364 10.4435 12.3082 10.5689 12.3517 10.7051C12.3953 10.8412 12.4096 10.985 12.3938 11.1271V14.3546C12.4096 14.4967 12.3953 14.6405 12.3517 14.7767C12.3082 14.9128 12.2364 15.0383 12.1411 15.1448C12.0458 15.2513 11.929 15.3365 11.7985 15.3949C11.668 15.4532 11.5267 15.4834 11.3838 15.4834C11.2408 15.4834 11.0995 15.4532 10.969 15.3949C10.8385 15.3365 10.7217 15.2513 10.6264 15.1448C10.5311 15.0383 10.4593 14.9128 10.4158 14.7767C10.3722 14.6405 10.3579 14.4967 10.3738 14.3546ZM17.545 20.3296H12.645C12.3756 20.3296 12.1173 20.2226 11.9268 20.0321C11.7364 19.8417 11.6294 19.5833 11.6294 19.314C11.6294 19.0446 11.7364 18.7863 11.9268 18.5958C12.1173 18.4054 12.3756 18.2984 12.645 18.2984H17.545C17.8145 18.2984 18.073 18.4054 18.2636 18.596C18.4542 18.7866 18.5613 19.0451 18.5613 19.3146C18.5613 19.5841 18.4542 19.8426 18.2636 20.0332C18.073 20.2238 17.8145 20.3296 17.545 20.3296ZM19.78 14.3559C19.78 14.6254 19.6729 14.8839 19.4823 15.0745C19.2918 15.265 19.0333 15.3721 18.7638 15.3721C18.4942 15.3721 18.2357 15.265 18.0452 15.0745C17.8546 14.8839 17.7475 14.6254 17.7475 14.3559V11.1271C17.7475 10.8576 17.8546 10.5991 18.0452 10.4085C18.2357 10.2179 18.4942 10.1109 18.7638 10.1109C19.0333 10.1109 19.2918 10.2179 19.4823 10.4085C19.6729 10.5991 19.78 10.8576 19.78 11.1271V14.3559ZM26.4613 18.0609C26.4613 18.1484 26.4263 18.2359 26.3663 18.2996C26.3345 18.3306 26.297 18.3551 26.2558 18.3716C26.2147 18.3881 26.1706 18.3964 26.1263 18.3959H25.1825C25.1879 18.3439 25.1879 18.2916 25.1825 18.2396V11.7146C25.1879 11.6627 25.1879 11.6103 25.1825 11.5584H26.1388C26.1812 11.5581 26.2233 11.5665 26.2624 11.5831C26.3015 11.5996 26.3369 11.6239 26.3663 11.6546C26.4263 11.7196 26.46 11.8046 26.4613 11.8921V18.0609Z" fill="#024CAA"/>
</g>
</svg>
