<svg width="16" height="15" viewBox="0 0 16 15" fill="none" xmlns="http://www.w3.org/2000/svg">
<g clip-path="url(#clip0_35_9336)">
<path d="M6.125 1.875H9.875L11.125 3.125H13.625C13.7908 3.125 13.9497 3.19085 14.0669 3.30806C14.1842 3.42527 14.25 3.58424 14.25 3.75V12.5C14.25 12.6658 14.1842 12.8247 14.0669 12.9419C13.9497 13.0592 13.7908 13.125 13.625 13.125H2.375C2.20924 13.125 2.05027 13.0592 1.93306 12.9419C1.81585 12.8247 1.75 12.6658 1.75 12.5V3.75C1.75 3.58424 1.81585 3.42527 1.93306 3.30806C2.05027 3.19085 2.20924 3.125 2.375 3.125H4.875L6.125 1.875ZM8 11.875C8.99456 11.875 9.94839 11.4799 10.6517 10.7767C11.3549 10.0734 11.75 9.11956 11.75 8.125C11.75 7.13044 11.3549 6.17661 10.6517 5.47335C9.94839 4.77009 8.99456 4.375 8 4.375C7.00544 4.375 6.05161 4.77009 5.34835 5.47335C4.64509 6.17661 4.25 7.13044 4.25 8.125C4.25 9.11956 4.64509 10.0734 5.34835 10.7767C6.05161 11.4799 7.00544 11.875 8 11.875V11.875ZM8 10.625C7.33696 10.625 6.70107 10.3616 6.23223 9.89277C5.76339 9.42393 5.5 8.78804 5.5 8.125C5.5 7.46196 5.76339 6.82607 6.23223 6.35723C6.70107 5.88839 7.33696 5.625 8 5.625C8.66304 5.625 9.29893 5.88839 9.76777 6.35723C10.2366 6.82607 10.5 7.46196 10.5 8.125C10.5 8.78804 10.2366 9.42393 9.76777 9.89277C9.29893 10.3616 8.66304 10.625 8 10.625Z" fill="white"/>
</g>
<defs>
<clipPath id="clip0_35_9336">
<rect width="15" height="15" fill="white" transform="translate(0.5)"/>
</clipPath>
</defs>
</svg>
