<svg width="16" height="17" viewBox="0 0 16 17" fill="none" xmlns="http://www.w3.org/2000/svg">
<path d="M3.3775 4.45554L3.37747 4.45557C2.85106 4.98171 2.55235 5.69362 2.54652 6.43734C2.5407 7.18007 2.82677 7.89534 3.34304 8.4292L8.09083 13.1763C8.09084 13.1763 8.09085 13.1763 8.09086 13.1764C8.12212 13.2076 8.16449 13.2251 8.20867 13.2251C8.25284 13.2251 8.2952 13.2076 8.32645 13.1764C8.32647 13.1764 8.32648 13.1763 8.3265 13.1763L13.0738 8.42898C13.5904 7.89215 13.8747 7.17343 13.8652 6.4284C13.8557 5.68195 13.552 4.96942 13.0201 4.44564C12.4882 3.92186 11.7711 3.62917 11.0246 3.63117C10.2781 3.63317 9.56266 3.92963 9.03358 4.45613L3.3775 4.45554ZM3.3775 4.45554C3.90883 3.92437 4.62937 3.62598 5.38067 3.62598C6.13197 3.62598 6.85251 3.92437 7.38383 4.45554L7.38443 4.45613M3.3775 4.45554L7.38443 4.45613M7.38443 4.45613C7.51118 4.58242 7.67219 4.73746 7.86644 4.9205L8.20973 5.24397M7.38443 4.45613L8.20973 5.24397M8.20973 5.24397L8.55265 4.9201M8.20973 5.24397L8.55265 4.9201M8.55265 4.9201C8.74629 4.73722 8.90685 4.58239 9.03339 4.45632L8.55265 4.9201Z" stroke="#333333"/>
</svg>
