<svg width="12" height="13" viewBox="0 0 12 13" fill="none" xmlns="http://www.w3.org/2000/svg">
<g clip-path="url(#clip0_1245_895)">
<path d="M11.2267 5.93318H7.41C7.19395 5.93537 6.98115 5.88046 6.79314 5.774C6.60512 5.66755 6.44856 5.51332 6.3393 5.32692C6.23003 5.14053 6.17193 4.92858 6.17089 4.71252C6.16984 4.49646 6.22588 4.28396 6.33333 4.09651L7.09667 2.79984H4.06667V3.79984C4.06667 3.99434 3.9894 4.18086 3.85188 4.31839C3.71435 4.45591 3.52782 4.53318 3.33333 4.53318C3.13884 4.53318 2.95231 4.45591 2.81479 4.31839C2.67726 4.18086 2.6 3.99434 2.6 3.79984V2.79984H1.26667C1.18734 2.79894 1.10864 2.81395 1.03522 2.844C0.961795 2.87404 0.895143 2.9185 0.839204 2.97475C0.783264 3.031 0.739173 3.0979 0.709537 3.17149C0.679902 3.24507 0.665324 3.32386 0.666666 3.40318V10.8632C0.665342 10.9411 0.679381 11.0185 0.707981 11.091C0.736582 11.1635 0.779183 11.2297 0.833353 11.2857C0.887523 11.3417 0.952199 11.3865 1.02369 11.4175C1.09518 11.4486 1.17208 11.4652 1.25 11.4665H10.75C10.8279 11.4652 10.9048 11.4486 10.9763 11.4175C11.0478 11.3865 11.1125 11.3417 11.1666 11.2857C11.2208 11.2297 11.2634 11.1635 11.292 11.091C11.3206 11.0185 11.3347 10.9411 11.3333 10.8632V5.92651L11.2267 5.93318ZM3.33333 9.46651H2.66667V8.79984H3.33333V9.46651ZM3.33333 7.79984H2.66667V7.13318H3.33333V7.79984ZM3.33333 6.13318H2.66667V5.46651H3.33333V6.13318ZM5.33333 9.46651H4.66667V8.79984H5.33333V9.46651ZM5.33333 7.79984H4.66667V7.13318H5.33333V7.79984ZM5.33333 6.13318H4.66667V5.46651H5.33333V6.13318ZM7.33333 9.46651H6.66667V8.79984H7.33333V9.46651ZM7.33333 7.79984H6.66667V7.13318H7.33333V7.79984ZM9.33333 9.46651H8.66667V8.79984H9.33333V9.46651ZM9.33333 7.79984H8.66667V7.13318H9.33333V7.79984Z" fill="#EC8305"/>
<path d="M3.33333 4.13298C3.42174 4.13298 3.50652 4.09786 3.56904 4.03534C3.63155 3.97283 3.66667 3.88805 3.66667 3.79964V1.79964C3.66667 1.71124 3.63155 1.62645 3.56904 1.56394C3.50652 1.50143 3.42174 1.46631 3.33333 1.46631C3.24493 1.46631 3.16014 1.50143 3.09763 1.56394C3.03512 1.62645 3 1.71124 3 1.79964V3.79964C3 3.88805 3.03512 3.97283 3.09763 4.03534C3.16014 4.09786 3.24493 4.13298 3.33333 4.13298Z" fill="#EC8305"/>
<path d="M8.95 1.17958L7.04333 4.46625C6.99897 4.53136 6.97351 4.60748 6.96976 4.68617C6.96601 4.76487 6.98412 4.84306 7.02209 4.9121C7.06006 4.98113 7.1164 5.0383 7.18487 5.07728C7.25334 5.11625 7.33126 5.13551 7.41 5.13291H11.2267C11.3054 5.13551 11.3833 5.11625 11.4518 5.07728C11.5203 5.0383 11.5766 4.98113 11.6146 4.9121C11.6525 4.84306 11.6707 4.76487 11.6669 4.68617C11.6632 4.60748 11.6377 4.53136 11.5933 4.46625L9.68667 1.17958C9.64907 1.11526 9.59528 1.06192 9.53066 1.02484C9.46604 0.987769 9.39283 0.968262 9.31833 0.968262C9.24383 0.968262 9.17063 0.987769 9.10601 1.02484C9.04139 1.06192 8.9876 1.11526 8.95 1.17958Z" fill="#EC8305"/>
</g>
<defs>
<clipPath id="clip0_1245_895">
<rect width="12" height="12" fill="white" transform="translate(0 0.799805)"/>
</clipPath>
</defs>
</svg>
