<svg width="12" height="12" viewBox="0 0 12 12" fill="none" xmlns="http://www.w3.org/2000/svg">
<path d="M2.5 6V2M9.5 10V8.5M2.5 10V8M9.5 6.5V2M6 3.5V2M6 10V5.5" stroke="#024CAA" stroke-linecap="round"/>
<path d="M2.5 8C3.05228 8 3.5 7.55228 3.5 7C3.5 6.44772 3.05228 6 2.5 6C1.94772 6 1.5 6.44772 1.5 7C1.5 7.55228 1.94772 8 2.5 8Z" stroke="#024CAA" stroke-linecap="round"/>
<path d="M6 5.5C6.55228 5.5 7 5.05228 7 4.5C7 3.94772 6.55228 3.5 6 3.5C5.44772 3.5 5 3.94772 5 4.5C5 5.05228 5.44772 5.5 6 5.5Z" stroke="#024CAA" stroke-linecap="round"/>
<path d="M9.5 8.5C10.0523 8.5 10.5 8.05228 10.5 7.5C10.5 6.94772 10.0523 6.5 9.5 6.5C8.94772 6.5 8.5 6.94772 8.5 7.5C8.5 8.05228 8.94772 8.5 9.5 8.5Z" stroke="#024CAA" stroke-linecap="round"/>
</svg>
