<svg width="12" height="13" viewBox="0 0 12 13" fill="none" xmlns="http://www.w3.org/2000/svg">
<g clip-path="url(#clip0_1245_888)">
<path d="M3.33333 3.73307C3.42174 3.73307 3.50652 3.69795 3.56904 3.63544C3.63155 3.57293 3.66667 3.48815 3.66667 3.39974V1.39974C3.66667 1.31133 3.63155 1.22655 3.56904 1.16404C3.50652 1.10153 3.42174 1.06641 3.33333 1.06641C3.24493 1.06641 3.16014 1.10153 3.09763 1.16404C3.03512 1.22655 3 1.31133 3 1.39974V3.39974C3 3.48815 3.03512 3.57293 3.09763 3.63544C3.16014 3.69795 3.24493 3.73307 3.33333 3.73307Z" fill="#EC8305"/>
<path d="M10 4.89994C9.33696 4.89994 8.70107 4.63655 8.23223 4.16771C7.76339 3.69887 7.5 3.06298 7.5 2.39994H4.06667V3.39994C4.06667 3.59443 3.9894 3.78096 3.85188 3.91849C3.71435 4.05601 3.52782 4.13327 3.33333 4.13327C3.13884 4.13327 2.95231 4.05601 2.81479 3.91849C2.67726 3.78096 2.6 3.59443 2.6 3.39994V2.39994H1.26667C1.18734 2.39904 1.10864 2.41405 1.03522 2.44409C0.961795 2.47414 0.895143 2.5186 0.839204 2.57485C0.783264 2.6311 0.739173 2.698 0.709537 2.77158C0.679902 2.84517 0.665324 2.92395 0.666666 3.00327V10.4633C0.665342 10.5412 0.679381 10.6186 0.707981 10.6911C0.736582 10.7636 0.779183 10.8298 0.833353 10.8858C0.887523 10.9418 0.952199 10.9866 1.02369 11.0176C1.09518 11.0487 1.17208 11.0653 1.25 11.0666H10.75C10.8279 11.0653 10.9048 11.0487 10.9763 11.0176C11.0478 10.9866 11.1125 10.9418 11.1666 10.8858C11.2208 10.8298 11.2634 10.7636 11.292 10.6911C11.3206 10.6186 11.3347 10.5412 11.3333 10.4633V4.51327C10.9347 4.7663 10.4722 4.90043 10 4.89994ZM3.33333 9.06661H2.66667V8.39994H3.33333V9.06661ZM3.33333 7.39994H2.66667V6.73327H3.33333V7.39994ZM3.33333 5.73327H2.66667V5.06661H3.33333V5.73327ZM5.33333 9.06661H4.66667V8.39994H5.33333V9.06661ZM5.33333 7.39994H4.66667V6.73327H5.33333V7.39994ZM5.33333 5.73327H4.66667V5.06661H5.33333V5.73327ZM7.33333 9.06661H6.66667V8.39994H7.33333V9.06661ZM7.33333 7.39994H6.66667V6.73327H7.33333V7.39994ZM7.33333 5.73327H6.66667V5.06661H7.33333V5.73327ZM9.33333 9.06661H8.66667V8.39994H9.33333V9.06661ZM9.33333 7.39994H8.66667V6.73327H9.33333V7.39994ZM9.33333 5.73327H8.66667V5.06661H9.33333V5.73327Z" fill="#EC8305"/>
<path d="M10 4.06673C10.9205 4.06673 11.6667 3.32054 11.6667 2.40006C11.6667 1.47959 10.9205 0.733398 10 0.733398C9.07952 0.733398 8.33333 1.47959 8.33333 2.40006C8.33333 3.32054 9.07952 4.06673 10 4.06673Z" fill="#EC8305"/>
</g>
<defs>
<clipPath id="clip0_1245_888">
<rect width="12" height="12" fill="white" transform="translate(0 0.399902)"/>
</clipPath>
</defs>
</svg>
