<svg width="24" height="24" viewBox="0 0 24 24" fill="none" xmlns="http://www.w3.org/2000/svg">
<rect width="24" height="24" fill="#1E1E1E"/>
<g id="SkillQuest - Beli">
<path d="M-80 -2043C-80 -2044.1 -79.1046 -2045 -78 -2045H5183C5184.1 -2045 5185 -2044.1 5185 -2043V1158C5185 1159.1 5184.1 1160 5183 1160H-78C-79.1046 1160 -80 1159.1 -80 1158V-2043Z" fill="#042043"/>
<path d="M-78 -2044H5183V-2046H-78V-2044ZM5184 -2043V1158H5186V-2043H5184ZM5183 1159H-78V1161H5183V1159ZM-79 1158V-2043H-81V1158H-79ZM-78 1159C-78.5523 1159 -79 1158.55 -79 1158H-81C-81 1159.66 -79.6569 1161 -78 1161V1159ZM5184 1158C5184 1158.55 5183.55 1159 5183 1159V1161C5184.66 1161 5186 1159.66 5186 1158H5184ZM5183 -2044C5183.55 -2044 5184 -2043.55 5184 -2043H5186C5186 -2044.66 5184.66 -2046 5183 -2046V-2044ZM-78 -2046C-79.6568 -2046 -81 -2044.66 -81 -2043H-79C-79 -2043.55 -78.5523 -2044 -78 -2044V-2046Z" fill="white" fill-opacity="0.1"/>
<g id="Bootcamp - Dasboard" clip-path="url(#clip0_902_3577)">
<rect width="375" height="1103" transform="translate(-44 -209)" fill="white"/>
<g id="Frame 47911">
<g id="Frame 48099">
<rect x="-27.5" y="-32.5" width="342" height="89" rx="7.5" stroke="#024CAA" stroke-opacity="0.2"/>
<g id="Frame 9504">
<rect x="-12" y="-12" width="48" height="48" rx="8" fill="#D7FFC3"/>
<g id="ph:medal-fill">
<path id="Vector" d="M20.25 9.00002C20.2508 7.60971 19.9003 6.24173 19.2309 5.02316C18.5616 3.80459 17.5951 2.77495 16.4213 2.02986C15.2475 1.28478 13.9044 0.848421 12.5168 0.761324C11.1293 0.674226 9.74217 0.939212 8.48441 1.53167C7.22665 2.12413 6.13901 3.02484 5.32253 4.15014C4.50604 5.27545 3.98718 6.58885 3.81415 7.96835C3.64111 9.34785 3.81951 10.7487 4.33278 12.0408C4.84605 13.3329 5.67753 14.4743 6.75 15.3591V22.5C6.74991 22.6279 6.78253 22.7537 6.84477 22.8655C6.907 22.9772 6.99678 23.0712 7.10558 23.1385C7.21437 23.2057 7.33856 23.2441 7.46634 23.2498C7.59412 23.2555 7.72124 23.2285 7.83563 23.1713L12 21.0938L16.1653 23.176C16.2698 23.2258 16.3843 23.2512 16.5 23.25C16.6989 23.25 16.8897 23.171 17.0303 23.0303C17.171 22.8897 17.25 22.6989 17.25 22.5V15.3591C18.1884 14.5862 18.944 13.6152 19.4627 12.5158C19.9814 11.4163 20.2503 10.2157 20.25 9.00002ZM5.25 9.00002C5.25 7.66499 5.64588 6.35995 6.38758 5.24992C7.12928 4.13989 8.18349 3.27472 9.41689 2.76383C10.6503 2.25294 12.0075 2.11927 13.3169 2.37972C14.6262 2.64017 15.829 3.28304 16.773 4.22705C17.717 5.17105 18.3599 6.37378 18.6203 7.68316C18.8808 8.99253 18.7471 10.3497 18.2362 11.5831C17.7253 12.8165 16.8601 13.8707 15.7501 14.6124C14.6401 15.3541 13.335 15.75 12 15.75C10.2104 15.748 8.49466 15.0362 7.22922 13.7708C5.96378 12.5054 5.25199 10.7896 5.25 9.00002ZM6.75 9.00002C6.75 7.96166 7.05791 6.94663 7.63479 6.08327C8.21166 5.21991 9.0316 4.54701 9.99091 4.14965C10.9502 3.75229 12.0058 3.64832 13.0242 3.85089C14.0426 4.05347 14.9781 4.55348 15.7123 5.28771C16.4465 6.02193 16.9466 6.95739 17.1491 7.97579C17.3517 8.99419 17.2477 10.0498 16.8504 11.0091C16.453 11.9684 15.7801 12.7884 14.9167 13.3652C14.0534 13.9421 13.0384 14.25 12 14.25C10.6081 14.2485 9.27358 13.6949 8.28934 12.7107C7.30509 11.7264 6.75149 10.3919 6.75 9.00002Z" fill="#35A000"/>
</g>
</g>
</g>
</g>
</g>
</g>
<defs>
<clipPath id="clip0_902_3577">
<rect width="375" height="1103" fill="white" transform="translate(-44 -209)"/>
</clipPath>
</defs>
</svg>
