<svg width="25" height="25" viewBox="0 0 25 25" fill="none" xmlns="http://www.w3.org/2000/svg">
<g clip-path="url(#clip0_603_2236)">
<path d="M12.2305 18.5H0.5V0.5H18.5V9.5H17V2H2V17H12.9805L12.2305 18.5ZM23.5039 22.332C23.6133 22.5508 23.668 22.7734 23.668 23C23.668 23.2031 23.6289 23.3945 23.5508 23.5742C23.4727 23.7539 23.3672 23.9141 23.2344 24.0547C23.1016 24.1953 22.9414 24.3047 22.7539 24.3828C22.5664 24.4609 22.3711 24.5 22.168 24.5H13.332C13.1289 24.5 12.9375 24.4609 12.7578 24.3828C12.5781 24.3047 12.418 24.1992 12.2773 24.0664C12.1367 23.9336 12.0273 23.7734 11.9492 23.5859C11.8711 23.3984 11.832 23.2031 11.832 23C11.832 22.7734 11.8867 22.5508 11.9961 22.332L15.5 15.3242V12.5H14V11H21.5V12.5H20V15.3242L23.5039 22.332ZM20.668 20L18.5 15.6758V12.5H17V15.6758L14.832 20H20.668ZM7.25 12.1953L14.5977 4.84766L15.6523 5.90234L7.25 14.3047L3.34766 10.4023L4.40234 9.34766L7.25 12.1953Z" fill="#024CAA"/>
</g>
<defs>
<clipPath id="clip0_603_2236">
<rect width="24" height="24" fill="white" transform="translate(0.5 0.5)"/>
</clipPath>
</defs>
</svg>
