<svg width="16" height="16" viewBox="0 0 16 16" fill="none" xmlns="http://www.w3.org/2000/svg">
<g id="uil:comment">
<path id="Vector" d="M8 1.33301C7.12452 1.33301 6.25762 1.50545 5.44878 1.84048C4.63994 2.17551 3.90501 2.66657 3.28596 3.28563C2.03571 4.53587 1.33334 6.23156 1.33334 7.99967C1.32807 9.539 1.86103 11.0318 2.84 12.2197L1.50667 13.553C1.41416 13.6468 1.3515 13.7658 1.32658 13.8951C1.30167 14.0245 1.31562 14.1583 1.36667 14.2797C1.42204 14.3996 1.5118 14.5004 1.62457 14.5693C1.73733 14.6381 1.868 14.6719 2 14.6663H8C9.76811 14.6663 11.4638 13.964 12.714 12.7137C13.9643 11.4635 14.6667 9.76779 14.6667 7.99967C14.6667 6.23156 13.9643 4.53587 12.714 3.28563C11.4638 2.03539 9.76811 1.33301 8 1.33301ZM8 13.333H3.60667L4.22667 12.713C4.35084 12.5881 4.42053 12.4191 4.42053 12.243C4.42053 12.0669 4.35084 11.8979 4.22667 11.773C3.35373 10.901 2.81012 9.75337 2.68846 8.52554C2.56681 7.29771 2.87463 6.06568 3.55949 5.03936C4.24434 4.01303 5.26386 3.25591 6.44435 2.89699C7.62483 2.53807 8.89324 2.59954 10.0335 3.07095C11.1737 3.54236 12.1152 4.39452 12.6976 5.48227C13.28 6.57001 13.4672 7.82604 13.2274 9.03635C12.9876 10.2467 12.3355 11.3364 11.3824 12.1198C10.4292 12.9033 9.23384 13.332 8 13.333Z" fill="#333333"/>
</g>
</svg>
