<svg width="13" height="12" viewBox="0 0 13 12" fill="none" xmlns="http://www.w3.org/2000/svg">
<path d="M6.50004 8.6376L4.42504 9.8876C4.33338 9.94593 4.23754 9.97093 4.13754 9.9626C4.03754 9.95426 3.95004 9.92093 3.87504 9.8626C3.80004 9.80426 3.74171 9.73143 3.70004 9.6441C3.65838 9.55676 3.65004 9.45877 3.67504 9.3501L4.22504 6.9876L2.38754 5.4001C2.30421 5.3251 2.25221 5.2396 2.23154 5.1436C2.21088 5.0476 2.21704 4.95393 2.25004 4.8626C2.28304 4.77126 2.33304 4.69626 2.40004 4.6376C2.46704 4.57893 2.55871 4.54143 2.67504 4.5251L5.10004 4.3126L6.03754 2.0876C6.07921 1.9876 6.14388 1.9126 6.23154 1.8626C6.31921 1.8126 6.40871 1.7876 6.50004 1.7876C6.59138 1.7876 6.68088 1.8126 6.76854 1.8626C6.85621 1.9126 6.92088 1.9876 6.96254 2.0876L7.90004 4.3126L10.325 4.5251C10.4417 4.54176 10.5334 4.57926 10.6 4.6376C10.6667 4.69593 10.7167 4.77093 10.75 4.8626C10.7834 4.95426 10.7897 5.0481 10.769 5.1441C10.7484 5.2401 10.6962 5.32543 10.6125 5.4001L8.77504 6.9876L9.32504 9.3501C9.35004 9.45843 9.34171 9.55643 9.30004 9.6441C9.25838 9.73176 9.20004 9.8046 9.12504 9.8626C9.05004 9.9206 8.96254 9.95393 8.86254 9.9626C8.76254 9.97126 8.66671 9.94626 8.57504 9.8876L6.50004 8.6376Z" fill="#EC8305"/>
</svg>
