<svg width="12" height="13" viewBox="0 0 12 13" fill="none" xmlns="http://www.w3.org/2000/svg">
<path d="M4.375 3.07495C4.375 2.64397 4.54621 2.23065 4.85095 1.9259C5.1557 1.62116 5.56902 1.44995 6 1.44995C6.43098 1.44995 6.8443 1.62116 7.14905 1.9259C7.45379 2.23065 7.625 2.64397 7.625 3.07495C7.625 3.50593 7.45379 3.91925 7.14905 4.224C6.8443 4.52875 6.43098 4.69995 6 4.69995C5.56902 4.69995 5.1557 4.52875 4.85095 4.224C4.54621 3.91925 4.375 3.50593 4.375 3.07495ZM2.375 2.44995C2.01033 2.44995 1.66059 2.59482 1.40273 2.85268C1.14487 3.11054 1 3.46028 1 3.82495C1 4.18962 1.14487 4.53936 1.40273 4.79722C1.66059 5.05509 2.01033 5.19995 2.375 5.19995C2.73967 5.19995 3.08941 5.05509 3.34727 4.79722C3.60513 4.53936 3.75 4.18962 3.75 3.82495C3.75 3.46028 3.60513 3.11054 3.34727 2.85268C3.08941 2.59482 2.73967 2.44995 2.375 2.44995ZM9.625 2.44995C9.26033 2.44995 8.91059 2.59482 8.65273 2.85268C8.39487 3.11054 8.25 3.46028 8.25 3.82495C8.25 4.18962 8.39487 4.53936 8.65273 4.79722C8.91059 5.05509 9.26033 5.19995 9.625 5.19995C9.98967 5.19995 10.3394 5.05509 10.5973 4.79722C10.8551 4.53936 11 4.18962 11 3.82495C11 3.46028 10.8551 3.11054 10.5973 2.85268C10.3394 2.59482 9.98967 2.44995 9.625 2.44995ZM4.5625 5.44995C4.34701 5.44995 4.14035 5.53555 3.98798 5.68793C3.8356 5.8403 3.75 6.04696 3.75 6.26245V8.19995C3.75 8.79669 3.98705 9.36898 4.40901 9.79094C4.83097 10.2129 5.40326 10.45 6 10.45C6.59674 10.45 7.16903 10.2129 7.59099 9.79094C8.01295 9.36898 8.25 8.79669 8.25 8.19995V6.26245C8.25 6.04696 8.1644 5.8403 8.01202 5.68793C7.85965 5.53555 7.65299 5.44995 7.4375 5.44995H4.5625ZM3.288 5.94745C3.26283 6.04845 3.25017 6.15345 3.25 6.26245V8.19995C3.24962 8.61022 3.3412 9.01536 3.51802 9.38557C3.69484 9.75578 3.9524 10.0816 4.27175 10.3392C4.23392 10.3517 4.19558 10.363 4.15675 10.3732C3.87134 10.4497 3.57365 10.4693 3.28068 10.4308C2.98771 10.3922 2.70519 10.2964 2.44927 10.1487C2.19335 10.0009 1.96903 9.80426 1.78912 9.56984C1.60922 9.33543 1.47725 9.06787 1.40075 8.78245L1.0285 7.39395C1.0009 7.29088 0.99388 7.18338 1.00783 7.0776C1.02178 6.97181 1.05643 6.86981 1.1098 6.77741C1.16317 6.68502 1.23422 6.60404 1.31888 6.5391C1.40355 6.47417 1.50018 6.42654 1.60325 6.39895L3.288 5.94745ZM7.728 10.3392C8.0474 10.0817 8.305 9.75581 8.48186 9.3856C8.65873 9.01539 8.75035 8.61024 8.75 8.19995V6.26245C8.74967 6.15345 8.737 6.04845 8.712 5.94745L10.3965 6.3987C10.6046 6.45448 10.7821 6.59064 10.8898 6.77723C10.9975 6.96383 11.0267 7.18557 10.971 7.3937L10.599 8.7822C10.5199 9.07738 10.3816 9.35336 10.1923 9.59331C10.0031 9.83325 9.76696 10.0321 9.49834 10.1778C9.22971 10.3235 8.93423 10.413 8.6299 10.4407C8.32558 10.4685 8.01854 10.4339 7.728 10.3392Z" fill="#024CAA"/>
</svg>
