<svg width="12" height="13" viewBox="0 0 12 13" fill="none" xmlns="http://www.w3.org/2000/svg">
<path d="M6 3.80005C6.55228 3.80005 7 3.35233 7 2.80005C7 2.24776 6.55228 1.80005 6 1.80005C5.44772 1.80005 5 2.24776 5 2.80005C5 3.35233 5.44772 3.80005 6 3.80005Z" fill="#EC8305"/>
<path d="M7.94499 4.85505C7.74999 4.66005 7.41499 4.30005 6.76499 4.30005H5.49499C4.9068 4.29723 4.33828 4.08793 3.88868 3.70869C3.43907 3.32945 3.13692 2.80435 3.03499 2.22505C3.01717 2.10753 2.95806 2.0002 2.86826 1.92231C2.77846 1.84443 2.66386 1.80108 2.54499 1.80005C2.23999 1.80005 1.99999 2.07005 2.04499 2.37005C2.15405 3.01691 2.44169 3.62043 2.87548 4.11252C3.30926 4.60462 3.87192 4.9657 4.49999 5.15505V11.3C4.49999 11.575 4.72499 11.8 4.99999 11.8C5.27499 11.8 5.49999 11.575 5.49999 11.3V8.80005H6.49999V11.3C6.49999 11.575 6.72499 11.8 6.99999 11.8C7.27499 11.8 7.49999 11.575 7.49999 11.3V5.82505L9.11999 7.44505C9.16628 7.49134 9.22124 7.52806 9.28172 7.55311C9.3422 7.57817 9.40703 7.59106 9.47249 7.59106C9.53796 7.59106 9.60278 7.57817 9.66327 7.55311C9.72375 7.52806 9.7787 7.49134 9.82499 7.44505C9.87128 7.39876 9.908 7.3438 9.93306 7.28332C9.95811 7.22284 9.971 7.15801 9.971 7.09255C9.971 7.02708 9.95811 6.96226 9.93306 6.90178C9.908 6.8413 9.87128 6.78634 9.82499 6.74005L7.94499 4.85505Z" fill="#EC8305"/>
</svg>
