<svg width="12" height="13" viewBox="0 0 12 13" fill="none" xmlns="http://www.w3.org/2000/svg">
<path fill-rule="evenodd" clip-rule="evenodd" d="M6.026 1.4248H5.974C5.5245 1.4248 5.15 1.4248 4.853 1.4648C4.539 1.5068 4.2555 1.5998 4.028 1.8273C3.8 2.0553 3.707 2.3388 3.665 2.6523C3.6365 2.8658 3.628 3.3753 3.626 3.8123C2.615 3.8458 2.0075 3.9638 1.586 4.3858C1 4.9713 1 5.9143 1 7.7998C1 9.6853 1 10.6283 1.586 11.2138C2.172 11.7993 3.1145 11.7998 5 11.7998H7C8.8855 11.7998 9.8285 11.7998 10.414 11.2138C10.9995 10.6278 11 9.6853 11 7.7998C11 5.9143 11 4.9713 10.414 4.3858C9.9925 3.9638 9.385 3.8458 8.374 3.8128C8.372 3.3753 8.364 2.8658 8.335 2.6528C8.293 2.3388 8.2 2.0553 7.972 1.8278C7.7445 1.5998 7.461 1.5068 7.147 1.4648C6.85 1.4248 6.475 1.4248 6.026 1.4248ZM7.624 3.8008C7.6215 3.3773 7.6145 2.9218 7.592 2.7523C7.5605 2.5218 7.507 2.4228 7.442 2.3578C7.377 2.2928 7.278 2.2393 7.047 2.2078C6.806 2.1758 6.482 2.1748 6 2.1748C5.518 2.1748 5.194 2.1758 4.9525 2.2083C4.722 2.2393 4.623 2.2928 4.558 2.3583C4.493 2.4238 4.4395 2.5218 4.408 2.7523C4.3855 2.9223 4.378 3.3773 4.376 3.8008C4.572 3.7998 4.78 3.79947 5 3.7998H7C7.22067 3.7998 7.42867 3.80014 7.624 3.8008ZM6 5.4248C6.09946 5.4248 6.19484 5.46431 6.26516 5.53464C6.33549 5.60497 6.375 5.70035 6.375 5.7998V5.8048C6.9195 5.9418 7.375 6.3713 7.375 6.9663C7.375 7.06576 7.33549 7.16114 7.26516 7.23147C7.19484 7.3018 7.09946 7.3413 7 7.3413C6.90054 7.3413 6.80516 7.3018 6.73484 7.23147C6.66451 7.16114 6.625 7.06576 6.625 6.9663C6.625 6.7743 6.412 6.5083 6 6.5083C5.588 6.5083 5.375 6.7743 5.375 6.9663C5.375 7.1583 5.588 7.4248 6 7.4248C6.6925 7.4248 7.375 7.9048 7.375 8.6333C7.375 9.2283 6.9195 9.6573 6.375 9.7948V9.7998C6.375 9.89926 6.33549 9.99464 6.26516 10.065C6.19484 10.1353 6.09946 10.1748 6 10.1748C5.90054 10.1748 5.80516 10.1353 5.73484 10.065C5.66451 9.99464 5.625 9.89926 5.625 9.7998V9.7948C5.0805 9.6578 4.625 9.2283 4.625 8.6333C4.625 8.53385 4.66451 8.43847 4.73484 8.36814C4.80516 8.29781 4.90054 8.2583 5 8.2583C5.09946 8.2583 5.19484 8.29781 5.26516 8.36814C5.33549 8.43847 5.375 8.53385 5.375 8.6333C5.375 8.8253 5.588 9.0913 6 9.0913C6.412 9.0913 6.625 8.8253 6.625 8.6333C6.625 8.4413 6.412 8.1748 6 8.1748C5.3075 8.1748 4.625 7.6948 4.625 6.9663C4.625 6.3713 5.0805 5.9418 5.625 5.8048V5.7998C5.625 5.70035 5.66451 5.60497 5.73484 5.53464C5.80516 5.46431 5.90054 5.4248 6 5.4248Z" fill="#024CAA"/>
</svg>
