<svg width="25" height="25" viewBox="0 0 25 25" fill="none" xmlns="http://www.w3.org/2000/svg">
<path d="M7.116 21.5C6.65533 21.5 6.271 21.346 5.963 21.038C5.655 20.73 5.50067 20.3457 5.5 19.885V5.115C5.5 4.655 5.65433 4.271 5.963 3.963C6.27167 3.655 6.656 3.50067 7.116 3.5H17.885C18.345 3.5 18.7293 3.65433 19.038 3.963C19.3467 4.27167 19.5007 4.656 19.5 5.116V19.885C19.5 20.345 19.346 20.7293 19.038 21.038C18.73 21.3467 18.3453 21.5007 17.884 21.5H7.116ZM12.5 10.616L14.5 9.423L16.5 10.616V4.5H12.5V10.616Z" fill="#EC8305"/>
</svg>
