<svg width="25" height="25" viewBox="0 0 25 25" fill="none" xmlns="http://www.w3.org/2000/svg">
<path fill-rule="evenodd" clip-rule="evenodd" d="M4.5 6.5C5.03043 6.5 5.53914 6.28929 5.91421 5.91421C6.28929 5.53914 6.5 5.03043 6.5 4.5C6.5 3.96957 6.28929 3.46086 5.91421 3.08579C5.53914 2.71071 5.03043 2.5 4.5 2.5C3.96957 2.5 3.46086 2.71071 3.08579 3.08579C2.71071 3.46086 2.5 3.96957 2.5 4.5C2.5 5.03043 2.71071 5.53914 3.08579 5.91421C3.46086 6.28929 3.96957 6.5 4.5 6.5ZM5.5 21.5C6.29565 21.5 7.05871 21.1839 7.62132 20.6213C8.18393 20.0587 8.5 19.2956 8.5 18.5C8.5 17.7044 8.18393 16.9413 7.62132 16.3787C7.05871 15.8161 6.29565 15.5 5.5 15.5C4.70435 15.5 3.94129 15.8161 3.37868 16.3787C2.81607 16.9413 2.5 17.7044 2.5 18.5C2.5 19.2956 2.81607 20.0587 3.37868 20.6213C3.94129 21.1839 4.70435 21.5 5.5 21.5ZM19.5 22.5C20.2956 22.5 21.0587 22.1839 21.6213 21.6213C22.1839 21.0587 22.5 20.2956 22.5 19.5C22.5 18.7044 22.1839 17.9413 21.6213 17.3787C21.0587 16.8161 20.2956 16.5 19.5 16.5C18.7044 16.5 17.9413 16.8161 17.3787 17.3787C16.8161 17.9413 16.5 18.7044 16.5 19.5C16.5 20.2956 16.8161 21.0587 17.3787 21.6213C17.9413 22.1839 18.7044 22.5 19.5 22.5ZM11.5 14.5C12.5609 14.5 13.5783 14.0786 14.3284 13.3284C15.0786 12.5783 15.5 11.5609 15.5 10.5C15.5 9.43913 15.0786 8.42172 14.3284 7.67157C13.5783 6.92143 12.5609 6.5 11.5 6.5C10.4391 6.5 9.42172 6.92143 8.67157 7.67157C7.92143 8.42172 7.5 9.43913 7.5 10.5C7.5 11.5609 7.92143 12.5783 8.67157 13.3284C9.42172 14.0786 10.4391 14.5 11.5 14.5ZM17.5 6.5C18.0304 6.5 18.5391 6.28929 18.9142 5.91421C19.2893 5.53914 19.5 5.03043 19.5 4.5C19.5 3.96957 19.2893 3.46086 18.9142 3.08579C18.5391 2.71071 18.0304 2.5 17.5 2.5C16.9696 2.5 16.4609 2.71071 16.0858 3.08579C15.7107 3.46086 15.5 3.96957 15.5 4.5C15.5 5.03043 15.7107 5.53914 16.0858 5.91421C16.4609 6.28929 16.9696 6.5 17.5 6.5Z" fill="#EC8305" stroke="#EC8305" stroke-width="2" stroke-linecap="round" stroke-linejoin="round"/>
<path d="M6 6L8 8M15.5 6.5L14.5 7.5M17.5 17.25L14.5 13.5M7.5 16L9.5 14" stroke="#EC8305" stroke-width="2" stroke-linecap="round" stroke-linejoin="round"/>
</svg>
