<svg width="25" height="25" viewBox="0 0 25 25" fill="none" xmlns="http://www.w3.org/2000/svg">
<path d="M14.6835 18.5H12.5L8.00002 16.02L2.50452 18.041L4.00552 21.013L7.54152 19.5365C10.8499 21.5122 12.8635 22.5 13.5825 22.5C14.3015 22.5 17.274 21.1667 22.5 18.5" stroke="#024CAA" stroke-width="2" stroke-linecap="round" stroke-linejoin="round"/>
<path fill-rule="evenodd" clip-rule="evenodd" d="M14.996 13.994V11.659C15.546 11.4305 16.2675 11.0965 16.682 10.682C17.3113 10.0526 17.7399 9.2508 17.9135 8.37789C18.0872 7.50497 17.9981 6.60018 17.6575 5.77791C17.3169 4.95565 16.7401 4.25285 16.0001 3.75838C15.26 3.26392 14.39 3 13.5 3C12.61 3 11.74 3.26392 10.9999 3.75838C10.2599 4.25285 9.68315 4.95565 9.34255 5.77791C9.00195 6.60018 8.91284 7.50497 9.08646 8.37789C9.26009 9.2508 9.68867 10.0526 10.318 10.682C10.7325 11.0965 11.45 11.4305 12 11.6585C12.003 11.8261 12.003 12.6045 12 13.9935L14.996 13.994Z" fill="#024CAA" stroke="#024CAA" stroke-width="2" stroke-linejoin="round"/>
<path d="M6.5 11L7 10.5M20.5 11L20 10.5M8 3L7.5 2.5M19 3L19.5 2.5M21 6.5H20.5M6.5 6.5H6" stroke="#024CAA" stroke-width="2" stroke-linecap="round"/>
</svg>
