<svg width="25" height="25" viewBox="0 0 25 25" fill="none" xmlns="http://www.w3.org/2000/svg">
<path d="M13 13.8C12.7 12.9 12.9 12.2 13 11.8C12.9 11.4 12.7 10.8 12.9 9.9C13.2 9.1 13.7 8.7 14 8.4C14.1 8 14.3 7.4 15.1 6.8C15.8 6.3 16.5 6.3 16.9 6.3C17 6.2 17.2 6.1 17.4 6V3.1C17.5 2.2 16.8 1.5 15.9 1.5H3.1C2.2 1.5 1.5 2.2 1.5 3.1V12.9C1.5 13.8 2.2 14.5 3.1 14.5H13.4C13.2 14.3 13.1 14.1 13 13.8ZM3.5 5.5V3.5L9.5 6.5L15.5 3.5V5.5L9.5 8.5L3.5 5.5ZM23.1 10.4C22.9 9.8 22.4 9.7 22.1 9.4C21.9 9.1 21.9 8.5 21.4 8.2C20.9 7.8 20.4 8 20 7.9C19.6 7.8 19.3 7.3 18.7 7.3C18.1 7.3 17.8 7.7 17.4 7.9C17 8 16.5 7.8 16 8.2C15.5 8.5 15.6 9 15.3 9.4C15 9.7 14.5 9.9 14.3 10.4C14.1 11 14.5 11.4 14.5 11.8C14.5 12.2 14.1 12.6 14.3 13.2C14.5 13.8 15 13.9 15.3 14.2C15.5 14.5 15.5 15.1 16 15.4C16.5 15.8 17 15.6 17.4 15.7C17.8 15.8 18.1 16.3 18.7 16.3C19.3 16.3 19.6 15.9 20 15.7C20.4 15.6 20.9 15.8 21.4 15.4C21.9 15 21.9 14.5 22.1 14.2C22.4 13.9 22.9 13.7 23.1 13.2C23.3 12.6 22.9 12.2 22.9 11.8C22.9 11.4 23.3 11 23.1 10.4ZM18.7 14.9C17 14.9 15.7 13.5 15.7 11.9C15.7 10.3 17.1 8.9 18.7 8.9C20.3 8.9 21.7 10.3 21.7 11.9C21.7 13.5 20.4 14.9 18.7 14.9ZM20.2 11.8C20.2 12.6 19.5 13.3 18.7 13.3C17.9 13.3 17.2 12.6 17.2 11.8C17.2 11 17.9 10.3 18.7 10.3C19.5 10.3 20.2 11 20.2 11.8ZM20 17.6L19.5 20.3L18.9 23.4L16.9 21.5L14.5 22.6L15.5 16.9C15.9 17.1 16.4 17.2 16.9 17.2C17.2 17.4 17.6 17.6 17.9 17.7C18.1 17.8 18.4 17.8 18.7 17.8C19.2 17.9 19.6 17.8 20 17.6ZM23.2 20L21.2 19.3L21.6 17.1L22.2 16.8L22.3 16.7L23.2 20Z" fill="#EC8305"/>
</svg>
