<svg width="17" height="16" viewBox="0 0 17 16" fill="none" xmlns="http://www.w3.org/2000/svg">
<path d="M11.6667 6.00033C11.6667 5.07966 11.2933 4.24633 10.6907 3.64366C10.0873 3.04033 9.25399 2.66699 8.33333 2.66699C7.41266 2.66699 6.57933 3.04033 5.97599 3.64366C5.37333 4.24633 4.99999 5.07966 4.99999 6.00033C4.99999 6.92099 5.37333 7.75432 5.97599 8.35699C6.57933 8.96033 7.41266 9.33366 8.33333 9.33366C9.25399 9.33366 10.0873 8.96033 10.6907 8.35699C11.0007 8.04792 11.2465 7.68058 11.414 7.27613C11.5815 6.87168 11.6674 6.43809 11.6667 6.00033ZM4.33333 12.667C4.33333 13.3337 5.83333 14.0003 8.33333 14.0003C10.6787 14.0003 12.3333 13.3337 12.3333 12.667C12.3333 11.3337 10.764 10.0003 8.33333 10.0003C5.83333 10.0003 4.33333 11.3337 4.33333 12.667Z" fill="#024CAA"/>
</svg>
