<svg width="24" height="24" viewBox="0 0 24 24" fill="none" xmlns="http://www.w3.org/2000/svg">
<path fill-rule="evenodd" clip-rule="evenodd" d="M12.0001 15.7499C12.199 15.7499 12.3898 15.6709 12.5304 15.5303C12.6711 15.3896 12.7501 15.1989 12.7501 14.9999V4.02695L14.4301 5.98795C14.5595 6.13912 14.7437 6.23269 14.9421 6.24807C15.1405 6.26344 15.3369 6.19937 15.4881 6.06995C15.6393 5.94052 15.7329 5.75634 15.7482 5.55793C15.7636 5.35952 15.6995 5.16312 15.5701 5.01195L12.5701 1.51195C12.4997 1.42961 12.4123 1.36351 12.3139 1.31818C12.2155 1.27286 12.1085 1.24939 12.0001 1.24939C11.8918 1.24939 11.7847 1.27286 11.6863 1.31818C11.5879 1.36351 11.5005 1.42961 11.4301 1.51195L8.43012 5.01195C8.36603 5.0868 8.31732 5.17354 8.28676 5.26722C8.2562 5.3609 8.24439 5.45969 8.252 5.55793C8.25961 5.65617 8.28651 5.75196 8.33114 5.83981C8.37577 5.92766 8.43727 6.00586 8.51212 6.06995C8.58697 6.13403 8.67372 6.18275 8.7674 6.21331C8.86108 6.24387 8.95986 6.25568 9.0581 6.24807C9.15635 6.24045 9.25213 6.21356 9.33998 6.16893C9.42783 6.1243 9.50603 6.0628 9.57012 5.98795L11.2501 4.02795V14.9999C11.2501 15.4139 11.5861 15.7499 12.0001 15.7499Z" fill="#EC8305"/>
<path d="M16 9C15.298 9 14.947 9 14.694 9.169C14.5852 9.24179 14.4918 9.33522 14.419 9.444C14.25 9.697 14.25 10.048 14.25 10.75V15C14.25 15.5967 14.0129 16.169 13.591 16.591C13.169 17.0129 12.5967 17.25 12 17.25C11.4033 17.25 10.831 17.0129 10.409 16.591C9.98705 16.169 9.75 15.5967 9.75 15V10.75C9.75 10.048 9.75 9.697 9.581 9.444C9.50821 9.33522 9.41478 9.24179 9.306 9.169C9.053 9 8.702 9 8 9C5.172 9 3.757 9 2.879 9.879C2 10.757 2 12.17 2 14.999V15.999C2 18.829 2 20.242 2.879 21.121C3.757 22 5.172 22 8 22H16C18.828 22 20.243 22 21.121 21.121C21.999 20.242 22 18.828 22 16V15C22 12.171 22 10.757 21.121 9.879C20.243 9 18.828 9 16 9Z" fill="#EC8305"/>
</svg>
