<svg width="12" height="12" viewBox="0 0 12 12" fill="none" xmlns="http://www.w3.org/2000/svg">
<g clip-path="url(#clip0_1156_1834)">
<path d="M5.16001 2.18888C5.42253 2.06436 5.70945 1.99976 6.00001 1.99976C6.29056 1.99976 6.57749 2.06436 6.84001 2.18888L11.714 4.49788C11.7989 4.53807 11.8708 4.60136 11.9214 4.6805C11.972 4.75964 11.9993 4.85144 12.0001 4.94537C12.0009 5.0393 11.9753 5.13157 11.9261 5.2116C11.8769 5.29163 11.8062 5.35619 11.722 5.39788L6.87201 7.80388C6.60103 7.93849 6.30257 8.00854 6.00001 8.00854C5.69744 8.00854 5.39898 7.93849 5.12801 7.80388L1.00001 5.75588V7.99988C1.00001 8.13249 0.947328 8.25967 0.85356 8.35343C0.759791 8.4472 0.632614 8.49988 0.500006 8.49988C0.367398 8.49988 0.240221 8.4472 0.146453 8.35343C0.0526846 8.25967 6.19143e-06 8.13249 6.19143e-06 7.99988V4.97488C-0.00490869 4.87599 0.0196482 4.77786 0.070564 4.69295C0.12148 4.60803 0.196462 4.54014 0.286006 4.49788L5.16001 2.18888ZM2.00001 7.36888V8.99988C2.00002 9.06566 2.01301 9.13078 2.03824 9.19153C2.06346 9.25227 2.10042 9.30744 2.14701 9.35388L2.14901 9.35688L2.17201 9.37788L2.23201 9.43388C2.28201 9.48055 2.35434 9.54288 2.44901 9.62088C2.63601 9.77388 2.90601 9.97588 3.24301 10.1789C3.91301 10.5799 4.87701 10.9999 6.00001 10.9999C7.12301 10.9999 8.08801 10.5799 8.75701 10.1789C9.11693 9.9628 9.45576 9.71337 9.76901 9.43388L9.82901 9.37788L9.84501 9.36188L9.85101 9.35588L9.85201 9.35488L9.85401 9.35388C9.90041 9.30736 9.93719 9.25215 9.96224 9.19141C9.98729 9.13067 10.0001 9.06559 10 8.99988V7.36788L7.31601 8.69988C6.90702 8.90288 6.45661 9.00851 6.00001 9.00851C5.54341 9.00851 5.093 8.90288 4.68401 8.69988L2.00001 7.36888Z" fill="#024CAA"/>
</g>
<defs>
<clipPath id="clip0_1156_1834">
<rect width="12" height="12" fill="white"/>
</clipPath>
</defs>
</svg>
