<svg width="12" height="13" viewBox="0 0 12 13" fill="none" xmlns="http://www.w3.org/2000/svg">
<g id="eos-icons:project">
<path id="Vector" d="M9.5 2.7003H7.41C7.30762 2.40802 7.11694 2.15477 6.86434 1.97561C6.61173 1.79644 6.30969 1.7002 6 1.7002C5.69031 1.7002 5.38827 1.79644 5.13566 1.97561C4.88306 2.15477 4.69238 2.40802 4.59 2.7003H2.5C2.23503 2.70109 1.98113 2.8067 1.79377 2.99406C1.6064 3.18143 1.50079 3.43532 1.5 3.7003V10.7003C1.50079 10.9653 1.6064 11.2192 1.79377 11.4065C1.98113 11.5939 2.23503 11.6995 2.5 11.7003H9.5C9.76497 11.6995 10.0189 11.5939 10.2062 11.4065C10.3936 11.2192 10.4992 10.9653 10.5 10.7003V3.7003C10.4992 3.43532 10.3936 3.18143 10.2062 2.99406C10.0189 2.8067 9.76497 2.70109 9.5 2.7003ZM6 2.7003C6.09889 2.7003 6.19556 2.72962 6.27779 2.78456C6.36001 2.8395 6.4241 2.91759 6.46194 3.00895C6.49978 3.10032 6.50969 3.20085 6.49039 3.29784C6.4711 3.39483 6.42348 3.48392 6.35355 3.55385C6.28363 3.62378 6.19454 3.6714 6.09755 3.69069C6.00055 3.70998 5.90002 3.70008 5.80866 3.66224C5.7173 3.62439 5.63921 3.56031 5.58427 3.47808C5.52932 3.39586 5.5 3.29919 5.5 3.2003C5.5004 3.06781 5.5532 2.94086 5.64688 2.84718C5.74057 2.7535 5.86751 2.70069 6 2.7003ZM5 5.2003L6.395 6.5973L7.655 5.3373L7 4.7003H9V6.7003L8.362 6.0448L6.396 8.0123L5 6.6153L3.707 7.9073L3 7.2003L5 5.2003ZM9.5 10.2003H2.5V9.2003H9.5V10.2003Z" fill="#024CAA"/>
</g>
</svg>
