<svg width="25" height="25" viewBox="0 0 25 25" fill="none" xmlns="http://www.w3.org/2000/svg">
<path d="M6.5 18.5L4.2 20.8C3.88334 21.1167 3.52067 21.1877 3.112 21.013C2.70333 20.8383 2.49933 20.5257 2.5 20.075V4.5C2.5 3.95 2.696 3.47933 3.088 3.088C3.48 2.69667 3.95067 2.50067 4.5 2.5H20.5C21.05 2.5 21.521 2.696 21.913 3.088C22.305 3.48 22.5007 3.95067 22.5 4.5V16.5C22.5 17.05 22.3043 17.521 21.913 17.913C21.5217 18.305 21.0507 18.5007 20.5 18.5H6.5ZM12.5 15.5C12.7833 15.5 13.021 15.404 13.213 15.212C13.405 15.02 13.5007 14.7827 13.5 14.5C13.4993 14.2173 13.4033 13.98 13.212 13.788C13.0207 13.596 12.7833 13.5 12.5 13.5C12.2167 13.5 11.9793 13.596 11.788 13.788C11.5967 13.98 11.5007 14.2173 11.5 14.5C11.4993 14.7827 11.5953 15.0203 11.788 15.213C11.9807 15.4057 12.218 15.5013 12.5 15.5ZM12.5 11.5C12.7833 11.5 13.021 11.404 13.213 11.212C13.405 11.02 13.5007 10.7827 13.5 10.5V6.5C13.5 6.21667 13.404 5.97933 13.212 5.788C13.02 5.59667 12.7827 5.50067 12.5 5.5C12.2173 5.49933 11.98 5.59533 11.788 5.788C11.596 5.98067 11.5 6.218 11.5 6.5V10.5C11.5 10.7833 11.596 11.021 11.788 11.213C11.98 11.405 12.2173 11.5007 12.5 11.5Z" fill="#024CAA"/>
</svg>
