<svg width="16" height="16" viewBox="0 0 16 16" fill="none" xmlns="http://www.w3.org/2000/svg">
<path d="M3.3775 4.20554L3.37747 4.20557C2.85106 4.73171 2.55235 5.44362 2.54652 6.18734C2.5407 6.93007 2.82677 7.64534 3.34304 8.1792L8.09083 12.9263C8.09084 12.9263 8.09085 12.9263 8.09086 12.9264C8.12212 12.9576 8.16449 12.9751 8.20867 12.9751C8.25284 12.9751 8.2952 12.9576 8.32645 12.9264C8.32647 12.9264 8.32648 12.9263 8.3265 12.9263L13.0738 8.17898C13.5904 7.64215 13.8747 6.92343 13.8652 6.1784C13.8557 5.43195 13.552 4.71942 13.0201 4.19564C12.4882 3.67186 11.7711 3.37917 11.0246 3.38117C10.2781 3.38317 9.56266 3.67963 9.03358 4.20613L3.3775 4.20554ZM3.3775 4.20554C3.90883 3.67437 4.62937 3.37598 5.38067 3.37598C6.13197 3.37598 6.85251 3.67437 7.38383 4.20554L7.38443 4.20613M3.3775 4.20554L7.38443 4.20613M7.38443 4.20613C7.51118 4.33242 7.67219 4.48746 7.86644 4.6705L8.20973 4.99397M7.38443 4.20613L8.20973 4.99397M8.20973 4.99397L8.55265 4.6701M8.20973 4.99397L8.55265 4.6701M8.55265 4.6701C8.74629 4.48722 8.90685 4.33239 9.03339 4.20632L8.55265 4.6701Z" stroke="#333333"/>
</svg>
