<svg width="12" height="12" viewBox="0 0 12 12" fill="none" xmlns="http://www.w3.org/2000/svg">
<path d="M9.375 1.125H2.625C2.22731 1.12543 1.84603 1.28361 1.56482 1.56482C1.28361 1.84603 1.12543 2.22731 1.125 2.625V9.375C1.12543 9.77269 1.28361 10.154 1.56482 10.4352C1.84603 10.7164 2.22731 10.8746 2.625 10.875H9.375C9.77269 10.8746 10.154 10.7164 10.4352 10.4352C10.7164 10.154 10.8746 9.77269 10.875 9.375V2.625C10.8746 2.22731 10.7164 1.84603 10.4352 1.56482C10.154 1.28361 9.77269 1.12543 9.375 1.125ZM8.53711 4.36617L5.38711 8.11617C5.35256 8.15733 5.30956 8.19058 5.26104 8.21367C5.21251 8.23676 5.15959 8.24915 5.10586 8.25H5.09953C5.04697 8.24998 4.995 8.23891 4.94699 8.21751C4.89898 8.19611 4.85601 8.16486 4.82086 8.12578L3.47086 6.62578C3.43657 6.58942 3.4099 6.54657 3.39242 6.49975C3.37493 6.45293 3.36698 6.40309 3.36902 6.35315C3.37107 6.30322 3.38309 6.25419 3.40435 6.20896C3.42562 6.16374 3.45571 6.12322 3.49286 6.08978C3.53001 6.05635 3.57347 6.03068 3.62068 6.01429C3.66789 5.99789 3.71791 5.9911 3.76778 5.9943C3.81766 5.99751 3.86639 6.01066 3.91111 6.03297C3.95583 6.05528 3.99564 6.0863 4.0282 6.12422L5.08969 7.30359L7.96289 3.88383C8.02734 3.80932 8.11852 3.76316 8.21673 3.75533C8.31494 3.74751 8.41228 3.77864 8.48771 3.84201C8.56315 3.90537 8.61062 3.99588 8.61986 4.09396C8.62911 4.19205 8.59938 4.28983 8.53711 4.36617Z" fill="#35A000"/>
</svg>
