<svg width="12" height="13" viewBox="0 0 12 13" fill="none" xmlns="http://www.w3.org/2000/svg">
<g opacity="0.8">
<path fill-rule="evenodd" clip-rule="evenodd" d="M10.773 3.35558C10.9136 3.49623 10.9926 3.68696 10.9926 3.88583C10.9926 4.08471 10.9136 4.27544 10.773 4.41608L5.15151 10.0376C5.07722 10.1119 4.98902 10.1708 4.89195 10.211C4.79488 10.2513 4.69084 10.272 4.58576 10.272C4.48069 10.272 4.37665 10.2513 4.27957 10.211C4.1825 10.1708 4.0943 10.1119 4.02001 10.0376L1.22701 7.24508C1.15538 7.1759 1.09824 7.09314 1.05894 7.00164C1.01963 6.91013 0.998941 6.81172 0.998075 6.71213C0.99721 6.61255 1.01619 6.51379 1.0539 6.42162C1.09161 6.32944 1.1473 6.24571 1.21772 6.17529C1.28814 6.10487 1.37188 6.04918 1.46405 6.01147C1.55622 5.97376 1.65498 5.95478 1.75456 5.95564C1.85415 5.95651 1.95256 5.9772 2.04407 6.01651C2.13557 6.05581 2.21833 6.11295 2.28751 6.18458L4.58551 8.48258L9.71201 3.35558C9.78166 3.28589 9.86436 3.2306 9.95539 3.19288C10.0464 3.15516 10.144 3.13574 10.2425 3.13574C10.341 3.13574 10.4386 3.15516 10.5296 3.19288C10.6207 3.2306 10.7034 3.28589 10.773 3.35558Z" fill="#35A000"/>
</g>
</svg>
