<svg width="24" height="25" viewBox="0 0 24 25" fill="none" xmlns="http://www.w3.org/2000/svg">
<path d="M6.125 4.25C5.89294 4.25 5.67038 4.34219 5.50628 4.50628C5.34219 4.67038 5.25 4.89294 5.25 5.125V21.75H7V19.125C7 18.8266 7.11853 18.5405 7.3295 18.3295C7.54048 18.1185 7.82663 18 8.125 18H15.875C16.1734 18 16.4595 18.1185 16.6705 18.3295C16.8815 18.5405 17 18.8266 17 19.125V21.75H18.75V12.625C18.75 12.3929 18.6578 12.1704 18.4937 12.0063C18.3296 11.8422 18.1071 11.75 17.875 11.75H15.375C15.03 11.75 14.75 11.47 14.75 11.125V5.125C14.75 5.01009 14.7274 4.89631 14.6834 4.79015C14.6394 4.68399 14.575 4.58753 14.4937 4.50628C14.4125 4.42503 14.316 4.36058 14.2098 4.31661C14.1037 4.27263 13.9899 4.25 13.875 4.25H6.125ZM4.625 23C4.28 23 4 22.72 4 22.375V5.125C4 4.56141 4.22388 4.02091 4.6224 3.6224C5.02091 3.22388 5.56141 3 6.125 3H13.875C14.4386 3 14.9791 3.22388 15.3776 3.6224C15.7761 4.02091 16 4.56141 16 5.125V10.5H17.875C18.4386 10.5 18.9791 10.7239 19.3776 11.1224C19.7761 11.5209 20 12.0614 20 12.625V22.375C20 22.72 19.72 23 19.375 23H4.625ZM8.25 21.75H11.375V19.25H8.25V21.75ZM12.625 21.75H15.75V19.25H12.625V21.75ZM9 8C9 8.26522 8.89464 8.51957 8.70711 8.70711C8.51957 8.89464 8.26522 9 8 9C7.73478 9 7.48043 8.89464 7.29289 8.70711C7.10536 8.51957 7 8.26522 7 8C7 7.73478 7.10536 7.48043 7.29289 7.29289C7.48043 7.10536 7.73478 7 8 7C8.26522 7 8.51957 7.10536 8.70711 7.29289C8.89464 7.48043 9 7.73478 9 8ZM8 12.5C8.26522 12.5 8.51957 12.3946 8.70711 12.2071C8.89464 12.0196 9 11.7652 9 11.5C9 11.2348 8.89464 10.9804 8.70711 10.7929C8.51957 10.6054 8.26522 10.5 8 10.5C7.73478 10.5 7.48043 10.6054 7.29289 10.7929C7.10536 10.9804 7 11.2348 7 11.5C7 11.7652 7.10536 12.0196 7.29289 12.2071C7.48043 12.3946 7.73478 12.5 8 12.5ZM9 15C9 15.2652 8.89464 15.5196 8.70711 15.7071C8.51957 15.8946 8.26522 16 8 16C7.73478 16 7.48043 15.8946 7.29289 15.7071C7.10536 15.5196 7 15.2652 7 15C7 14.7348 7.10536 14.4804 7.29289 14.2929C7.48043 14.1054 7.73478 14 8 14C8.26522 14 8.51957 14.1054 8.70711 14.2929C8.89464 14.4804 9 14.7348 9 15ZM12 9C12.2652 9 12.5196 8.89464 12.7071 8.70711C12.8946 8.51957 13 8.26522 13 8C13 7.73478 12.8946 7.48043 12.7071 7.29289C12.5196 7.10536 12.2652 7 12 7C11.7348 7 11.4804 7.10536 11.2929 7.29289C11.1054 7.48043 11 7.73478 11 8C11 8.26522 11.1054 8.51957 11.2929 8.70711C11.4804 8.89464 11.7348 9 12 9ZM13 11.5C13 11.7652 12.8946 12.0196 12.7071 12.2071C12.5196 12.3946 12.2652 12.5 12 12.5C11.7348 12.5 11.4804 12.3946 11.2929 12.2071C11.1054 12.0196 11 11.7652 11 11.5C11 11.2348 11.1054 10.9804 11.2929 10.7929C11.4804 10.6054 11.7348 10.5 12 10.5C12.2652 10.5 12.5196 10.6054 12.7071 10.7929C12.8946 10.9804 13 11.2348 13 11.5ZM12 16C12.2652 16 12.5196 15.8946 12.7071 15.7071C12.8946 15.5196 13 15.2652 13 15C13 14.7348 12.8946 14.4804 12.7071 14.2929C12.5196 14.1054 12.2652 14 12 14C11.7348 14 11.4804 14.1054 11.2929 14.2929C11.1054 14.4804 11 14.7348 11 15C11 15.2652 11.1054 15.5196 11.2929 15.7071C11.4804 15.8946 11.7348 16 12 16ZM17 15C17 15.2652 16.8946 15.5196 16.7071 15.7071C16.5196 15.8946 16.2652 16 16 16C15.7348 16 15.4804 15.8946 15.2929 15.7071C15.1054 15.5196 15 15.2652 15 15C15 14.7348 15.1054 14.4804 15.2929 14.2929C15.4804 14.1054 15.7348 14 16 14C16.2652 14 16.5196 14.1054 16.7071 14.2929C16.8946 14.4804 17 14.7348 17 15Z" fill="#024CAA"/>
</svg>
