<svg width="25" height="25" viewBox="0 0 25 25" fill="none" xmlns="http://www.w3.org/2000/svg">
<path d="M6.5 22.5C5.95 22.5 5.47933 22.3043 5.088 21.913C4.69667 21.5217 4.50067 21.0507 4.5 20.5V10.5C4.5 9.95 4.696 9.47933 5.088 9.088C5.48 8.69667 5.95067 8.50067 6.5 8.5H7.5V6.5C7.5 5.11667 7.98767 3.93767 8.963 2.963C9.93833 1.98833 11.1173 1.50067 12.5 1.5C13.8827 1.49933 15.062 1.987 16.038 2.963C17.014 3.939 17.5013 5.118 17.5 6.5V8.5H18.5C19.05 8.5 19.521 8.696 19.913 9.088C20.305 9.48 20.5007 9.95067 20.5 10.5V20.5C20.5 21.05 20.3043 21.521 19.913 21.913C19.5217 22.305 19.0507 22.5007 18.5 22.5H6.5ZM6.5 20.5H18.5V10.5H6.5V20.5ZM12.5 17.5C13.05 17.5 13.521 17.3043 13.913 16.913C14.305 16.5217 14.5007 16.0507 14.5 15.5C14.4993 14.9493 14.3037 14.4787 13.913 14.088C13.5223 13.6973 13.0513 13.5013 12.5 13.5C11.9487 13.4987 11.478 13.6947 11.088 14.088C10.698 14.4813 10.502 14.952 10.5 15.5C10.498 16.048 10.694 16.519 11.088 16.913C11.482 17.307 11.9527 17.5027 12.5 17.5ZM9.5 8.5H15.5V6.5C15.5 5.66667 15.2083 4.95833 14.625 4.375C14.0417 3.79167 13.3333 3.5 12.5 3.5C11.6667 3.5 10.9583 3.79167 10.375 4.375C9.79167 4.95833 9.5 5.66667 9.5 6.5V8.5Z" fill="#024CAA"/>
</svg>
