<svg width="20" height="21" viewBox="0 0 20 21" fill="none" xmlns="http://www.w3.org/2000/svg">
<g clip-path="url(#clip0_36_9362)">
<path d="M10 14.6666C13.0517 14.6666 15.7208 15.9791 17.1725 17.9375L15.6375 18.6633C14.4558 17.2633 12.3725 16.3333 10 16.3333C7.62751 16.3333 5.54417 17.2633 4.36251 18.6633L2.82834 17.9366C4.28001 15.9783 6.94834 14.6666 10 14.6666ZM10 2.16663C11.1051 2.16663 12.1649 2.60561 12.9463 3.38701C13.7277 4.16842 14.1667 5.22822 14.1667 6.33329V8.83329C14.1666 9.90701 13.7521 10.9393 13.0095 11.7148C12.2669 12.4903 11.2535 12.9492 10.1808 12.9958L10 13C8.89494 13 7.83513 12.561 7.05373 11.7796C6.27233 10.9982 5.83334 9.93836 5.83334 8.83329V6.33329C5.8334 5.25957 6.24796 4.22733 6.99055 3.45181C7.73315 2.6763 8.74646 2.21739 9.81917 2.17079L10 2.16663ZM10 3.83329C9.36233 3.83326 8.74874 4.0769 8.28479 4.51436C7.82083 4.95183 7.54158 5.55005 7.50417 6.18663L7.50001 6.33329V8.83329C7.49938 9.48405 7.75252 10.1094 8.20565 10.5765C8.65877 11.0435 9.27617 11.3155 9.92664 11.3346C10.5771 11.3537 11.2094 11.1184 11.6891 10.6787C12.1689 10.2391 12.4583 9.62963 12.4958 8.97996L12.5 8.83329V6.33329C12.5 5.67025 12.2366 5.03437 11.7678 4.56553C11.2989 4.09669 10.663 3.83329 10 3.83329V3.83329Z" fill="#024CAA"/>
</g>
<defs>
<clipPath id="clip0_36_9362">
<rect width="20" height="20" fill="white" transform="translate(0 0.5)"/>
</clipPath>
</defs>
</svg>
