<svg width="32" height="32" viewBox="0 0 32 32" fill="none" xmlns="http://www.w3.org/2000/svg">
<rect width="32" height="32" rx="16" fill="#024CAA" fill-opacity="0.2"/>
<path d="M12.3333 12.9997C12.3333 12.0272 12.7196 11.0946 13.4073 10.4069C14.0949 9.71932 15.0275 9.33301 16 9.33301C16.9725 9.33301 17.9051 9.71932 18.5927 10.4069C19.2804 11.0946 19.6667 12.0272 19.6667 12.9997C19.6667 13.9721 19.2804 14.9048 18.5927 15.5924C17.9051 16.28 16.9725 16.6663 16 16.6663C15.0275 16.6663 14.0949 16.28 13.4073 15.5924C12.7196 14.9048 12.3333 13.9721 12.3333 12.9997ZM10 20.6663C10 19.7823 10.3512 18.9344 10.9763 18.3093C11.6014 17.6842 12.4493 17.333 13.3333 17.333H18.6667C19.5507 17.333 20.3986 17.6842 21.0237 18.3093C21.6488 18.9344 22 19.7823 22 20.6663V22.6663H10V20.6663Z" fill="#024CAA"/>
</svg>
