<svg width="20" height="21" viewBox="0 0 20 21" fill="none" xmlns="http://www.w3.org/2000/svg">
<g clip-path="url(#clip0_195_3343)">
<path d="M14.1667 3.00004H17.5C17.721 3.00004 17.933 3.08784 18.0893 3.24412C18.2456 3.4004 18.3334 3.61236 18.3334 3.83337V17.1667C18.3334 17.3877 18.2456 17.5997 18.0893 17.756C17.933 17.9122 17.721 18 17.5 18H2.50002C2.27901 18 2.06704 17.9122 1.91076 17.756C1.75448 17.5997 1.66669 17.3877 1.66669 17.1667V3.83337C1.66669 3.61236 1.75448 3.4004 1.91076 3.24412C2.06704 3.08784 2.27901 3.00004 2.50002 3.00004H5.83335V1.33337H7.50002V3.00004H12.5V1.33337H14.1667V3.00004ZM3.33335 8.00004V16.3334H16.6667V8.00004H3.33335ZM5.00002 11.3334H9.16669V14.6667H5.00002V11.3334Z" fill="#024CAA"/>
</g>
<defs>
<clipPath id="clip0_195_3343">
<rect width="20" height="20" fill="white" transform="translate(0 0.5)"/>
</clipPath>
</defs>
</svg>
