<svg width="24" height="25" viewBox="0 0 24 25" fill="none" xmlns="http://www.w3.org/2000/svg">
<g clip-path="url(#clip0_486_1240)">
<path d="M16 12.5C18.374 13.683 20 16.15 20 19.5V23.5H4V19.5C4 16.146 5.631 13.675 8 12.5M18 7.5C18 8.28793 17.8448 9.06815 17.5433 9.7961C17.2417 10.5241 16.7998 11.1855 16.2426 11.7426C15.6855 12.2998 15.0241 12.7417 14.2961 13.0433C13.5681 13.3448 12.7879 13.5 12 13.5C10.4087 13.5 8.88258 12.8679 7.75736 11.7426C6.63214 10.6174 6 9.0913 6 7.5M18 7.5C18 6.71207 17.8448 5.93185 17.5433 5.2039C17.2417 4.47595 16.7998 3.81451 16.2426 3.25736C15.6855 2.70021 15.0241 2.25825 14.2961 1.95672C13.5681 1.65519 12.7879 1.5 12 1.5C10.4087 1.5 8.88258 2.13214 7.75736 3.25736C6.63214 4.38258 6 5.9087 6 7.5M18 7.5C16.5 7.5 15 7.86 13 5.5C11 7.86 8.5 8.5 6 7.5M7 13.5L12.025 18.757L17 13.5M12 18.5V23.5" stroke="#024CAA" stroke-width="2"/>
</g>
<defs>
<clipPath id="clip0_486_1240">
<rect width="24" height="24" fill="white" transform="translate(0 0.5)"/>
</clipPath>
</defs>
</svg>
