<svg width="24" height="25" viewBox="0 0 24 25" fill="none" xmlns="http://www.w3.org/2000/svg">
<path d="M2.45401 8.43955C2.7353 8.15834 3.11676 8.00037 3.51451 8.00037C3.91226 8.00037 4.29372 8.15834 4.57501 8.43955L12 15.8645L19.425 8.43955C19.7079 8.16631 20.0868 8.01512 20.4801 8.01853C20.8734 8.02195 21.2496 8.17971 21.5277 8.45782C21.8059 8.73593 21.9636 9.11215 21.967 9.50544C21.9704 9.89874 21.8192 10.2776 21.546 10.5605L13.0605 19.046C12.7792 19.3273 12.3978 19.4852 12 19.4852C11.6023 19.4852 11.2208 19.3273 10.9395 19.046L2.45401 10.5605C2.1728 10.2793 2.01483 9.89779 2.01483 9.50005C2.01483 9.1023 2.1728 8.72084 2.45401 8.43955Z" fill="#024CAA"/>
</svg>
