<svg width="16" height="16" viewBox="0 0 16 16" fill="none" xmlns="http://www.w3.org/2000/svg">
<path d="M6.99996 13.3333C6.99996 13.5985 7.10532 13.8529 7.29285 14.0404C7.48039 14.2279 7.73474 14.3333 7.99996 14.3333C8.26518 14.3333 8.51953 14.2279 8.70707 14.0404C8.8946 13.8529 8.99996 13.5985 8.99996 13.3333V8.99996H13.3333C13.5985 8.99996 13.8529 8.8946 14.0404 8.70707C14.2279 8.51953 14.3333 8.26518 14.3333 7.99996C14.3333 7.73474 14.2279 7.48039 14.0404 7.29285C13.8529 7.10532 13.5985 6.99996 13.3333 6.99996H8.99996V2.66663C8.99996 2.40141 8.8946 2.14706 8.70707 1.95952C8.51953 1.77198 8.26518 1.66663 7.99996 1.66663C7.73474 1.66663 7.48039 1.77198 7.29285 1.95952C7.10532 2.14706 6.99996 2.40141 6.99996 2.66663V6.99996H2.66663C2.40141 6.99996 2.14706 7.10532 1.95952 7.29285C1.77198 7.48039 1.66663 7.73474 1.66663 7.99996C1.66663 8.26518 1.77198 8.51953 1.95952 8.70707C2.14706 8.8946 2.40141 8.99996 2.66663 8.99996H6.99996V13.3333Z" fill="white"/>
</svg>
