<svg width="24" height="25" viewBox="0 0 24 25" fill="none" xmlns="http://www.w3.org/2000/svg">
<path d="M19.5 2.375H15.75C15.4516 2.375 15.1655 2.49353 14.9545 2.7045C14.7435 2.91548 14.625 3.20163 14.625 3.5C14.625 3.79837 14.7435 4.08452 14.9545 4.2955C15.1655 4.50647 15.4516 4.625 15.75 4.625H16.7812L15.315 6.09406C14.5642 5.47016 13.6801 5.02701 12.731 4.79879C11.7819 4.57057 10.793 4.56337 9.84063 4.77774C8.88827 4.99212 7.99786 5.42234 7.23806 6.03524C6.47825 6.64814 5.86935 7.42735 5.45831 8.31278C5.04726 9.19821 4.84504 10.1662 4.86725 11.1422C4.88946 12.1181 5.1355 13.0759 5.5864 13.9417C6.0373 14.8075 6.68101 15.5582 7.46791 16.1359C8.2548 16.7136 9.16386 17.1029 10.125 17.2738V18.5H8.24999C7.95162 18.5 7.66547 18.6185 7.45449 18.8295C7.24351 19.0405 7.12499 19.3266 7.12499 19.625C7.12499 19.9234 7.24351 20.2095 7.45449 20.4205C7.66547 20.6315 7.95162 20.75 8.24999 20.75H10.125V22.25C10.125 22.5484 10.2435 22.8345 10.4545 23.0455C10.6655 23.2565 10.9516 23.375 11.25 23.375C11.5484 23.375 11.8345 23.2565 12.0455 23.0455C12.2565 22.8345 12.375 22.5484 12.375 22.25V20.75H14.25C14.5484 20.75 14.8345 20.6315 15.0455 20.4205C15.2565 20.2095 15.375 19.9234 15.375 19.625C15.375 19.3266 15.2565 19.0405 15.0455 18.8295C14.8345 18.6185 14.5484 18.5 14.25 18.5H12.375V17.2738C13.3818 17.0942 14.3306 16.6747 15.1411 16.0509C15.9515 15.4271 16.5998 14.6173 17.0311 13.6899C17.4624 12.7626 17.664 11.745 17.6189 10.7233C17.5738 9.70154 17.2832 8.70571 16.7719 7.82L18.375 6.21875V7.25C18.375 7.54837 18.4935 7.83452 18.7045 8.0455C18.9155 8.25647 19.2016 8.375 19.5 8.375C19.7984 8.375 20.0845 8.25647 20.2955 8.0455C20.5065 7.83452 20.625 7.54837 20.625 7.25V3.5C20.625 3.20163 20.5065 2.91548 20.2955 2.7045C20.0845 2.49353 19.7984 2.375 19.5 2.375ZM11.25 15.125C10.4341 15.125 9.63661 14.8831 8.95826 14.4298C8.27991 13.9766 7.75119 13.3323 7.43898 12.5786C7.12677 11.8248 7.04508 10.9954 7.20425 10.1953C7.36341 9.39508 7.75628 8.66008 8.33317 8.08318C8.91006 7.50629 9.64507 7.11343 10.4452 6.95426C11.2454 6.7951 12.0748 6.87679 12.8286 7.189C13.5823 7.50121 14.2265 8.02992 14.6798 8.70827C15.1331 9.38663 15.375 10.1842 15.375 11C15.3737 12.0936 14.9387 13.1421 14.1654 13.9154C13.3921 14.6888 12.3436 15.1238 11.25 15.125Z" fill="#024CAA"/>
</svg>
