<svg width="13" height="12" viewBox="0 0 13 12" fill="none" xmlns="http://www.w3.org/2000/svg">
<path d="M2.5 2.125C2.5 1.82663 2.61853 1.54048 2.8295 1.3295C3.04048 1.11853 3.32663 1 3.625 1H7.625C7.92337 1 8.20952 1.11853 8.4205 1.3295C8.63147 1.54048 8.75 1.82663 8.75 2.125V4.75H9.375C9.52274 4.75 9.66903 4.7791 9.80552 4.83564C9.94201 4.89217 10.066 4.97504 10.1705 5.0795C10.275 5.18397 10.3578 5.30799 10.4144 5.44448C10.4709 5.58097 10.5 5.72726 10.5 5.875V10.625C10.5 10.7245 10.4605 10.8198 10.3902 10.8902C10.3198 10.9605 10.2245 11 10.125 11H8.75V9.125C8.75 8.78 8.47 8.5 8.125 8.5H4.875C4.53 8.5 4.25 8.78 4.25 9.125V11H2.875C2.77554 11 2.68016 10.9605 2.60983 10.8902C2.53951 10.8198 2.5 10.7245 2.5 10.625V2.125ZM8 9.25V11H6.875V9.25H8ZM6.125 9.25V11H5V9.25H6.125ZM4.25 3.25C4.25 3.38261 4.30268 3.50979 4.39645 3.60355C4.49021 3.69732 4.61739 3.75 4.75 3.75C4.88261 3.75 5.00979 3.69732 5.10355 3.60355C5.19732 3.50979 5.25 3.38261 5.25 3.25C5.25 3.11739 5.19732 2.99021 5.10355 2.89645C5.00979 2.80268 4.88261 2.75 4.75 2.75C4.61739 2.75 4.49021 2.80268 4.39645 2.89645C4.30268 2.99021 4.25 3.11739 4.25 3.25ZM4.75 6.25C4.61739 6.25 4.49021 6.30268 4.39645 6.39645C4.30268 6.49021 4.25 6.61739 4.25 6.75C4.25 6.88261 4.30268 7.00979 4.39645 7.10355C4.49021 7.19732 4.61739 7.25 4.75 7.25C4.88261 7.25 5.00979 7.19732 5.10355 7.10355C5.19732 7.00979 5.25 6.88261 5.25 6.75C5.25 6.61739 5.19732 6.49021 5.10355 6.39645C5.00979 6.30268 4.88261 6.25 4.75 6.25ZM4.75 4.5C4.61739 4.5 4.49021 4.55268 4.39645 4.64645C4.30268 4.74021 4.25 4.86739 4.25 5C4.25 5.13261 4.30268 5.25979 4.39645 5.35355C4.49021 5.44732 4.61739 5.5 4.75 5.5C4.88261 5.5 5.00979 5.44732 5.10355 5.35355C5.19732 5.25979 5.25 5.13261 5.25 5C5.25 4.86739 5.19732 4.74021 5.10355 4.64645C5.00979 4.55268 4.88261 4.5 4.75 4.5ZM6.5 2.75C6.36739 2.75 6.24021 2.80268 6.14645 2.89645C6.05268 2.99021 6 3.11739 6 3.25C6 3.38261 6.05268 3.50979 6.14645 3.60355C6.24021 3.69732 6.36739 3.75 6.5 3.75C6.63261 3.75 6.75979 3.69732 6.85355 3.60355C6.94732 3.50979 7 3.38261 7 3.25C7 3.11739 6.94732 2.99021 6.85355 2.89645C6.75979 2.80268 6.63261 2.75 6.5 2.75ZM6.5 6.25C6.36739 6.25 6.24021 6.30268 6.14645 6.39645C6.05268 6.49021 6 6.61739 6 6.75C6 6.88261 6.05268 7.00979 6.14645 7.10355C6.24021 7.19732 6.36739 7.25 6.5 7.25C6.63261 7.25 6.75979 7.19732 6.85355 7.10355C6.94732 7.00979 7 6.88261 7 6.75C7 6.61739 6.94732 6.49021 6.85355 6.39645C6.75979 6.30268 6.63261 6.25 6.5 6.25ZM8.25 6.25C8.11739 6.25 7.99021 6.30268 7.89645 6.39645C7.80268 6.49021 7.75 6.61739 7.75 6.75C7.75 6.88261 7.80268 7.00979 7.89645 7.10355C7.99021 7.19732 8.11739 7.25 8.25 7.25C8.38261 7.25 8.50979 7.19732 8.60355 7.10355C8.69732 7.00979 8.75 6.88261 8.75 6.75C8.75 6.61739 8.69732 6.49021 8.60355 6.39645C8.50979 6.30268 8.38261 6.25 8.25 6.25ZM6.5 4.5C6.36739 4.5 6.24021 4.55268 6.14645 4.64645C6.05268 4.74021 6 4.86739 6 5C6 5.13261 6.05268 5.25979 6.14645 5.35355C6.24021 5.44732 6.36739 5.5 6.5 5.5C6.63261 5.5 6.75979 5.44732 6.85355 5.35355C6.94732 5.25979 7 5.13261 7 5C7 4.86739 6.94732 4.74021 6.85355 4.64645C6.75979 4.55268 6.63261 4.5 6.5 4.5Z" fill="#EC8305"/>
</svg>
