<svg width="24" height="25" viewBox="0 0 24 25" fill="none" xmlns="http://www.w3.org/2000/svg">
<g clip-path="url(#clip0_1156_1841)">
<path d="M7.93949 4.65402C7.65828 4.93532 7.50031 5.31678 7.50031 5.71452C7.50031 6.11227 7.65828 6.49373 7.93949 6.77502L15.3645 14.2L7.93949 21.625C7.66625 21.9079 7.51506 22.2868 7.51847 22.6801C7.52189 23.0734 7.67964 23.4496 7.95776 23.7278C8.23587 24.0059 8.61209 24.1636 9.00538 24.167C9.39868 24.1705 9.77758 24.0193 10.0605 23.746L18.546 15.2605C18.8272 14.9792 18.9852 14.5978 18.9852 14.2C18.9852 13.8023 18.8272 13.4208 18.546 13.1395L10.0605 4.65402C9.77919 4.37282 9.39773 4.21484 8.99998 4.21484C8.60224 4.21484 8.22078 4.37282 7.93949 4.65402Z" fill="#024CAA"/>
</g>
<defs>
<clipPath id="clip0_1156_1841">
<rect width="24" height="24" fill="white" transform="translate(0 0.199951)"/>
</clipPath>
</defs>
</svg>
