<svg width="25" height="24" viewBox="0 0 25 24" fill="none" xmlns="http://www.w3.org/2000/svg">
<path d="M12.625 12C14.498 12 16.195 12.62 17.44 13.487C18.623 14.312 19.625 15.538 19.625 16.857C19.625 17.581 19.316 18.181 18.829 18.627C18.371 19.048 17.773 19.321 17.157 19.507C15.926 19.88 14.305 20 12.625 20C10.945 20 9.324 19.88 8.093 19.507C7.477 19.321 6.879 19.048 6.42 18.627C5.935 18.182 5.625 17.582 5.625 16.858C5.625 15.539 6.627 14.313 7.81 13.488C9.055 12.62 10.752 12 12.625 12ZM19.625 13C20.669 13 21.617 13.345 22.318 13.833C22.958 14.28 23.625 15.023 23.625 15.929C23.625 16.446 23.4 16.875 23.065 17.182C22.759 17.463 22.381 17.628 22.036 17.732C21.566 17.874 21.011 17.947 20.435 17.979C20.557 17.634 20.625 17.259 20.625 16.857C20.625 15.322 19.666 14.018 18.593 13.113C18.9319 13.0381 19.2779 13.0002 19.625 13ZM5.625 13C5.983 13.0013 6.327 13.039 6.657 13.113C5.585 14.018 4.625 15.322 4.625 16.857C4.625 17.259 4.693 17.634 4.815 17.979C4.239 17.947 3.685 17.874 3.214 17.732C2.869 17.628 2.491 17.463 2.184 17.182C2.00803 17.0244 1.86728 16.8314 1.77096 16.6156C1.67464 16.3999 1.6249 16.1663 1.625 15.93C1.625 15.025 2.291 14.281 2.932 13.834C3.72486 13.2905 4.66371 12.9997 5.625 13ZM19.125 7C19.788 7 20.4239 7.26339 20.8928 7.73223C21.3616 8.20107 21.625 8.83696 21.625 9.5C21.625 10.163 21.3616 10.7989 20.8928 11.2678C20.4239 11.7366 19.788 12 19.125 12C18.462 12 17.8261 11.7366 17.3572 11.2678C16.8884 10.7989 16.625 10.163 16.625 9.5C16.625 8.83696 16.8884 8.20107 17.3572 7.73223C17.8261 7.26339 18.462 7 19.125 7ZM6.125 7C6.78804 7 7.42393 7.26339 7.89277 7.73223C8.36161 8.20107 8.625 8.83696 8.625 9.5C8.625 10.163 8.36161 10.7989 7.89277 11.2678C7.42393 11.7366 6.78804 12 6.125 12C5.46196 12 4.82607 11.7366 4.35723 11.2678C3.88839 10.7989 3.625 10.163 3.625 9.5C3.625 8.83696 3.88839 8.20107 4.35723 7.73223C4.82607 7.26339 5.46196 7 6.125 7ZM12.625 3C13.6859 3 14.7033 3.42143 15.4534 4.17157C16.2036 4.92172 16.625 5.93913 16.625 7C16.625 8.06087 16.2036 9.07828 15.4534 9.82843C14.7033 10.5786 13.6859 11 12.625 11C11.5641 11 10.5467 10.5786 9.79657 9.82843C9.04643 9.07828 8.625 8.06087 8.625 7C8.625 5.93913 9.04643 4.92172 9.79657 4.17157C10.5467 3.42143 11.5641 3 12.625 3Z" fill="#929292"/>
</svg>
