<svg width="25" height="24" viewBox="0 0 25 24" fill="none" xmlns="http://www.w3.org/2000/svg">
<path d="M6.625 7.5C6.625 6.04131 7.20446 4.64236 8.23591 3.61091C9.26736 2.57946 10.6663 2 12.125 2C13.5837 2 14.9826 2.57946 16.0141 3.61091C17.0455 4.64236 17.625 6.04131 17.625 7.5C17.625 8.95869 17.0455 10.3576 16.0141 11.3891C14.9826 12.4205 13.5837 13 12.125 13C10.6663 13 9.26736 12.4205 8.23591 11.3891C7.20446 10.3576 6.625 8.95869 6.625 7.5ZM3.125 19C3.125 17.6739 3.65178 16.4021 4.58947 15.4645C5.52715 14.5268 6.79892 14 8.125 14H16.125C17.4511 14 18.7229 14.5268 19.6605 15.4645C20.5982 16.4021 21.125 17.6739 21.125 19V22H3.125V19Z" fill="#929292"/>
</svg>
