<svg width="25" height="24" viewBox="0 0 25 24" fill="none" xmlns="http://www.w3.org/2000/svg">
<path d="M8.375 16.9999V16.4249C8.375 15.6916 8.74167 15.1039 9.475 14.6619C10.2083 14.2199 11.175 13.9992 12.375 13.9999C13.575 14.0006 14.5417 14.2216 15.275 14.6629C16.0083 15.1042 16.375 15.6916 16.375 16.4249V16.9999H8.375ZM12.375 12.9999C11.825 12.9999 11.3543 12.8042 10.963 12.4129C10.5717 12.0216 10.3757 11.5506 10.375 10.9999C10.3743 10.4492 10.5703 9.97857 10.963 9.5879C11.3557 9.19724 11.8263 9.00124 12.375 8.9999C12.9237 8.99857 13.3947 9.19457 13.788 9.5879C14.1813 9.98124 14.377 10.4519 14.375 10.9999C14.373 11.5479 14.1773 12.0189 13.788 12.4129C13.3987 12.8069 12.9277 13.0026 12.375 12.9999ZM7.375 20.1499C5.45833 19.9166 3.97933 19.5249 2.938 18.9749C1.89667 18.4249 1.37567 17.7666 1.375 16.9999V6.9999C1.375 6.0499 2.321 5.31657 4.213 4.7999C6.105 4.28324 8.82567 4.0249 12.375 4.0249C15.9243 4.0249 18.6453 4.28324 20.538 4.7999C22.4307 5.31657 23.3763 6.0499 23.375 6.9999V16.9999C23.375 17.7666 22.8543 18.4249 21.813 18.9749C20.7717 19.5249 19.2923 19.9166 17.375 20.1499V8.1499C18.225 8.01657 18.9793 7.8539 19.638 7.6619C20.2967 7.4699 20.7673 7.28257 21.05 7.0999C20.3333 6.81657 19.1083 6.56257 17.375 6.3379C15.6417 6.11324 13.975 6.00057 12.375 5.9999C10.775 5.99924 9.10833 6.1119 7.375 6.3379C5.64167 6.5639 4.41667 6.8179 3.7 7.0999C3.98333 7.2999 4.45433 7.49157 5.113 7.6749C5.77167 7.85824 6.52567 8.01657 7.375 8.1499V20.1499Z" fill="#929292"/>
</svg>
