<svg width="25" height="24" viewBox="0 0 25 24" fill="none" xmlns="http://www.w3.org/2000/svg">
<path d="M4.875 19V10C4.875 9.68333 4.946 9.38333 5.088 9.1C5.23 8.81667 5.42567 8.58333 5.675 8.4L11.675 3.9C12.025 3.63333 12.425 3.5 12.875 3.5C13.325 3.5 13.725 3.63333 14.075 3.9L20.075 8.4C20.325 8.58333 20.521 8.81667 20.663 9.1C20.805 9.38333 20.8757 9.68333 20.875 10V19C20.875 19.55 20.679 20.021 20.287 20.413C19.895 20.805 19.4243 21.0007 18.875 21H15.875C15.5917 21 15.3543 20.904 15.163 20.712C14.9717 20.52 14.8757 20.2827 14.875 20V15C14.875 14.7167 14.779 14.4793 14.587 14.288C14.395 14.0967 14.1577 14.0007 13.875 14H11.875C11.5917 14 11.3543 14.096 11.163 14.288C10.9717 14.48 10.8757 14.7173 10.875 15V20C10.875 20.2833 10.779 20.521 10.587 20.713C10.395 20.905 10.1577 21.0007 9.875 21H6.875C6.325 21 5.85433 20.8043 5.463 20.413C5.07167 20.0217 4.87567 19.5507 4.875 19Z" fill="#024CAA"/>
</svg>
