<svg width="12" height="13" viewBox="0 0 12 13" fill="none" xmlns="http://www.w3.org/2000/svg">
<g id="material-symbols:quiz-rounded">
<path id="Vector" d="M7 8.2002C7.14167 8.2002 7.26467 8.1482 7.369 8.0442C7.47333 7.9402 7.52533 7.8172 7.525 7.6752C7.52467 7.5332 7.47267 7.41036 7.369 7.3067C7.26533 7.20303 7.14233 7.15086 7 7.1502C6.85767 7.14953 6.73483 7.2017 6.6315 7.3067C6.52817 7.4117 6.476 7.53453 6.475 7.6752C6.474 7.81586 6.52617 7.93886 6.6315 8.0442C6.73683 8.14953 6.85967 8.20153 7 8.2002ZM7 6.6002C7.09167 6.6002 7.17717 6.56686 7.2565 6.5002C7.33583 6.43353 7.38367 6.34603 7.4 6.2377C7.41667 6.1377 7.452 6.04603 7.506 5.9627C7.56 5.87936 7.658 5.76686 7.8 5.6252C8.05 5.3752 8.21667 5.17303 8.3 5.0187C8.38333 4.86436 8.425 4.6832 8.425 4.4752C8.425 4.1002 8.29367 3.79386 8.031 3.5562C7.76833 3.31853 7.42467 3.19986 7 3.2002C6.725 3.2002 6.475 3.2627 6.25 3.3877C6.025 3.5127 5.84583 3.69186 5.7125 3.9252C5.6625 4.00853 5.65833 4.09603 5.7 4.1877C5.74167 4.27936 5.8125 4.34603 5.9125 4.3877C6.00417 4.42936 6.09383 4.43353 6.1815 4.4002C6.26917 4.36686 6.342 4.30853 6.4 4.2252C6.475 4.11686 6.5625 4.0357 6.6625 3.9817C6.7625 3.9277 6.875 3.90053 7 3.9002C7.2 3.9002 7.3625 3.95653 7.4875 4.0692C7.6125 4.18186 7.675 4.33386 7.675 4.5252C7.675 4.64186 7.64167 4.75236 7.575 4.8567C7.50833 4.96103 7.39167 5.0922 7.225 5.2502C6.98333 5.45853 6.82917 5.61903 6.7625 5.7317C6.69583 5.84436 6.65417 6.00886 6.6375 6.2252C6.62917 6.3252 6.6605 6.4127 6.7315 6.4877C6.8025 6.5627 6.892 6.6002 7 6.6002ZM4 9.7002C3.725 9.7002 3.48967 9.60236 3.294 9.4067C3.09833 9.21103 3.00033 8.97553 3 8.7002V2.7002C3 2.4252 3.098 2.18986 3.294 1.9942C3.49 1.79853 3.72533 1.70053 4 1.7002H10C10.275 1.7002 10.5105 1.7982 10.7065 1.9942C10.9025 2.1902 11.0003 2.42553 11 2.7002V8.7002C11 8.9752 10.9022 9.2107 10.7065 9.4067C10.5108 9.6027 10.2753 9.70053 10 9.7002H4ZM2 11.7002C1.725 11.7002 1.48967 11.6024 1.294 11.4067C1.09833 11.211 1.00033 10.9755 1 10.7002V4.2002C1 4.05853 1.048 3.93986 1.144 3.8442C1.24 3.74853 1.35867 3.70053 1.5 3.7002C1.64133 3.69986 1.76017 3.74786 1.8565 3.8442C1.95283 3.94053 2.00067 4.0592 2 4.2002V10.7002H8.5C8.64167 10.7002 8.7605 10.7482 8.8565 10.8442C8.9525 10.9402 9.00033 11.0589 9 11.2002C8.99967 11.3415 8.95167 11.4604 8.856 11.5567C8.76033 11.653 8.64167 11.7009 8.5 11.7002H2Z" fill="#024CAA"/>
</g>
</svg>
