<svg width="24" height="30" viewBox="0 0 24 30" fill="none" xmlns="http://www.w3.org/2000/svg">
<path fill-rule="evenodd" clip-rule="evenodd" d="M6.271 5.05682C5.461 5.16282 5.033 5.35782 4.727 5.65682C4.422 5.95682 4.223 6.37682 4.114 7.16982C4.002 7.98682 4 9.06882 4 10.6198V19.1898C4.39598 18.9195 4.83533 18.7189 5.299 18.5968C5.827 18.4578 6.443 18.4578 7.346 18.4588H20V10.6208C20 9.06882 19.998 7.98682 19.886 7.16982C19.777 6.37682 19.578 5.95682 19.273 5.65682C18.967 5.35782 18.539 5.16282 17.729 5.05682C16.895 4.94682 15.791 4.94482 14.207 4.94482H9.793C8.209 4.94482 7.105 4.94682 6.271 5.05682ZM6.759 9.53982C6.759 9.09182 7.129 8.72882 7.586 8.72882H16.414C16.631 8.72696 16.8398 8.81115 16.9948 8.96298C17.1498 9.1148 17.2384 9.32187 17.241 9.53882C17.2386 9.75596 17.1502 9.96328 16.9952 10.1153C16.8401 10.2674 16.6311 10.3517 16.414 10.3498H7.586C7.36903 10.3517 7.16017 10.2675 7.00516 10.1157C6.85016 9.96385 6.76164 9.75678 6.759 9.53982ZM7.586 12.5128C7.36903 12.511 7.16017 12.5952 7.00516 12.747C6.85016 12.8988 6.76164 13.1059 6.759 13.3228C6.759 13.7708 7.129 14.1338 7.586 14.1338H13.103C13.3201 14.136 13.5293 14.0519 13.6845 13.9C13.8397 13.7482 13.9284 13.541 13.931 13.3238C13.9286 13.1065 13.8401 12.899 13.6848 12.747C13.5296 12.5949 13.3203 12.5107 13.103 12.5128H7.586Z" fill="#024CAA"/>
<path d="M7.443 20.1899H19.97C19.967 21.3199 19.949 22.1639 19.857 22.8299C19.748 23.6229 19.549 24.0429 19.244 24.3429C18.938 24.6419 18.51 24.8369 17.7 24.9429C16.866 25.0529 15.762 25.0549 14.178 25.0549H9.763C8.179 25.0549 7.075 25.0529 6.241 24.9439C5.431 24.8369 5.003 24.6419 4.697 24.3429C4.392 24.0429 4.193 23.6229 4.084 22.8299C4.043 22.5299 4.016 22.1929 4 21.8099C4.13707 21.4354 4.36316 21.0997 4.65879 20.832C4.95442 20.5642 5.31073 20.3724 5.697 20.2729C5.987 20.1969 6.364 20.1899 7.443 20.1899Z" fill="#024CAA"/>
</svg>
